<svg width="94" height="56" viewBox="0 0 94 56" fill="none" xmlns="http://www.w3.org/2000/svg">
<path d="M90.2464 34.0476C86.9075 47.4406 73.3426 55.5913 59.948 52.2515C46.559 48.9126 38.4083 35.3468 41.7487 21.9549C45.0862 8.56048 58.6511 0.409155 72.0415 3.74809C85.4351 7.08702 93.5854 20.6543 90.2461 34.0479L90.2463 34.0476H90.2464Z" fill="#F3BA2F"/>
<path fill-rule="evenodd" clip-rule="evenodd" d="M66.0027 18.8659L59.5291 25.3395L59.5292 25.3392L55.7627 21.5725L66.0027 11.3325L76.246 21.5756L72.4794 25.3423L66.0027 18.8659ZM53.1021 24.2321L49.3353 27.9994L53.1019 31.7654L56.8687 27.9986L53.1021 24.2321ZM59.5285 30.6596L66.0021 37.1328L72.4786 30.6565L76.2473 34.4212L76.2454 34.4232L66.0021 44.6661L55.7621 34.4261L55.7567 34.4208L59.5285 30.6596ZM78.9013 24.2341L75.1345 28.0009L78.9012 31.7674L82.6678 28.0006L78.9013 24.2341Z" fill="#11121C"/>
<path d="M69.8198 27.9974H69.8214L65.9995 24.1753L63.1746 26.9994L62.8501 27.3241L62.1807 27.9936L62.1754 27.9988L62.1807 28.0042L65.9995 31.8236L69.8217 28.0014L69.8235 27.9993L69.8201 27.9974" fill="#11121C"/>
<rect x="39.5" y="1.5" width="53" height="53" rx="26.5" stroke="#F2F2F2" stroke-width="3"/>
<circle cx="28" cy="28" r="26.5" fill="#FCFDFD" stroke="#F3F4FA" stroke-width="3"/>
<path d="M25.0539 28.6167L29.6696 33.4109C30.2126 33.975 30.2126 34.8861 29.6696 35.4501L27.2469 37.9448C26.7038 38.5088 25.8267 38.5088 25.2836 37.9448L16.4073 28.6818C15.8642 28.1178 15.8642 27.2067 16.4073 26.6426L25.3045 17.423C25.8475 16.859 26.7247 16.859 27.2678 17.423L29.6696 19.9177C30.2126 20.4818 30.2126 21.3929 29.6696 21.9569L25.0539 26.7728C24.5735 27.2717 24.5735 28.0961 25.0539 28.6167ZM34.7866 24.9506C35.3296 24.3865 35.3296 23.4754 34.7866 22.9114L33.8676 21.9569C33.3246 21.3929 32.4474 21.3929 31.9043 21.9569L27.3931 26.6643C26.85 27.2284 26.85 28.1395 27.3931 28.7035L31.9043 33.3892C32.4474 33.9533 33.3246 33.9533 33.8676 33.3892L34.7866 32.4347C35.3296 31.8707 35.3296 30.9596 34.7866 30.3956L32.7607 28.2913C32.4265 27.9442 32.4265 27.4019 32.7607 27.0548L34.7866 24.9506ZM37.0004 24.994L35.3713 26.686C34.8283 27.2501 34.8283 28.1612 35.3713 28.7252L37.0004 30.4173C37.5434 30.9813 38.4206 30.9813 38.9637 30.4173L40.5927 28.7252C41.1358 28.1612 41.1358 27.2501 40.5927 26.686L38.9637 24.994C38.4206 24.4082 37.5434 24.4082 37.0004 24.994Z" fill="#11121C"/>
</svg>
