<svg width="42" height="42" viewBox="0 0 42 42" fill="none" xmlns="http://www.w3.org/2000/svg">
<rect width="42" height="42" fill="#1E1E1E"/>
<g clip-path="url(#clip0_0_1)">
<rect width="1366" height="1133" transform="translate(-322 -432)" fill="#F6F5F8"/>
<rect x="-16" y="-215" width="226" height="439" rx="20" fill="#FCFDFD"/>
<rect width="42" height="42" rx="8" fill="#F3F4FA"/>
<path d="M27.6667 15.1665C27.6667 16.5472 24.6819 17.6665 21 17.6665C17.3181 17.6665 14.3334 16.5472 14.3334 15.1665M27.6667 15.1665C27.6667 13.7858 24.6819 12.6665 21 12.6665C17.3181 12.6665 14.3334 13.7858 14.3334 15.1665M27.6667 15.1665V26.8332C27.6667 28.2139 24.6819 29.3332 21 29.3332C17.3181 29.3332 14.3334 28.2139 14.3334 26.8332V15.1665M27.6667 19.0553C27.6667 20.436 24.6819 21.5553 21 21.5553C17.3181 21.5553 14.3334 20.436 14.3334 19.0553M27.6667 22.9415C27.6667 24.3222 24.6819 25.4415 21 25.4415C17.3181 25.4415 14.3334 24.3222 14.3334 22.9415" stroke="#11121C" stroke-width="1.4" stroke-linecap="round" stroke-linejoin="round"/>
<path d="M27.6667 15.1665C27.6667 16.5472 24.6819 17.6665 21 17.6665C17.3181 17.6665 14.3334 16.5472 14.3334 15.1665M27.6667 15.1665C27.6667 13.7858 24.6819 12.6665 21 12.6665C17.3181 12.6665 14.3334 13.7858 14.3334 15.1665M27.6667 15.1665V26.8332C27.6667 28.2139 24.6819 29.3332 21 29.3332C17.3181 29.3332 14.3334 28.2139 14.3334 26.8332V15.1665M27.6667 19.0553C27.6667 20.436 24.6819 21.5553 21 21.5553C17.3181 21.5553 14.3334 20.436 14.3334 19.0553M27.6667 22.9415C27.6667 24.3222 24.6819 25.4415 21 25.4415C17.3181 25.4415 14.3334 24.3222 14.3334 22.9415" stroke="#11121C" stroke-width="1.4" stroke-linecap="round" stroke-linejoin="round"/>
<mask id="path-5-inside-1_0_1" fill="white">
<path d="M-322 -432H-76V701H-322V-432Z"/>
</mask>
<path d="M-322 -432H-76V701H-322V-432Z" fill="#FCFDFD"/>
<path d="M-77 -432V701H-75V-432H-77Z" fill="#F2F2F2" mask="url(#path-5-inside-1_0_1)"/>
</g>
<defs>
<clipPath id="clip0_0_1">
<rect width="1366" height="1133" fill="white" transform="translate(-322 -432)"/>
</clipPath>
</defs>
</svg>
