<svg width="42" height="42" viewBox="0 0 42 42" fill="none" xmlns="http://www.w3.org/2000/svg">
<rect width="42" height="42" fill="#1E1E1E"/>
<g clip-path="url(#clip0_0_1)">
<rect width="1366" height="1133" transform="translate(-322 -532)" fill="#F6F5F8"/>
<rect x="-16" y="-315" width="226" height="439" rx="20" fill="#FCFDFD"/>
<rect width="42" height="42" rx="8" fill="#F3F4FA"/>
<g clip-path="url(#clip1_0_1)">
<path d="M21 12.6665C23.0844 14.9485 24.2689 17.9099 24.3333 20.9998C24.2689 24.0898 23.0844 27.0512 21 29.3332M21 12.6665C18.9156 14.9485 17.731 17.9099 17.6666 20.9998C17.731 24.0898 18.9156 27.0512 21 29.3332M21 12.6665C16.3976 12.6665 12.6666 16.3975 12.6666 20.9998C12.6666 25.6022 16.3976 29.3332 21 29.3332M21 12.6665C25.6023 12.6665 29.3333 16.3975 29.3333 20.9998C29.3333 25.6022 25.6023 29.3332 21 29.3332M13.0833 18.4998H28.9166M13.0833 23.4998H28.9166" stroke="#11121C" stroke-width="1.4" stroke-linecap="round" stroke-linejoin="round"/>
</g>
<mask id="path-4-inside-1_0_1" fill="white">
<path d="M-322 -532H-76V601H-322V-532Z"/>
</mask>
<path d="M-322 -532H-76V601H-322V-532Z" fill="#FCFDFD"/>
<path d="M-77 -532V601H-75V-532H-77Z" fill="#F2F2F2" mask="url(#path-4-inside-1_0_1)"/>
</g>
<defs>
<clipPath id="clip0_0_1">
<rect width="1366" height="1133" fill="white" transform="translate(-322 -532)"/>
</clipPath>
<clipPath id="clip1_0_1">
<rect width="20" height="20" fill="white" transform="translate(11 11)"/>
</clipPath>
</defs>
</svg>
