<svg width="42" height="42" viewBox="0 0 42 42" fill="none" xmlns="http://www.w3.org/2000/svg">
<rect width="42" height="42" fill="#1E1E1E"/>
<g clip-path="url(#clip0_0_1)">
<rect width="1366" height="1133" transform="translate(-322 -482)" fill="#F6F5F8"/>
<rect x="-16" y="-265" width="226" height="439" rx="20" fill="#FCFDFD"/>
<rect width="42" height="42" rx="8" fill="#F3F4FA"/>
<path d="M26.8333 15.1665L15.1666 26.8332M17.25 16.4165C17.25 16.8767 16.8769 17.2498 16.4166 17.2498C15.9564 17.2498 15.5833 16.8767 15.5833 16.4165C15.5833 15.9563 15.9564 15.5832 16.4166 15.5832C16.8769 15.5832 17.25 15.9563 17.25 16.4165ZM26.4166 25.5832C26.4166 26.0434 26.0435 26.4165 25.5833 26.4165C25.1231 26.4165 24.75 26.0434 24.75 25.5832C24.75 25.1229 25.1231 24.7498 25.5833 24.7498C26.0435 24.7498 26.4166 25.1229 26.4166 25.5832Z" stroke="#11121C" stroke-width="1.4" stroke-linecap="round" stroke-linejoin="round"/>
<mask id="path-4-inside-1_0_1" fill="white">
<path d="M-322 -482H-76V651H-322V-482Z"/>
</mask>
<path d="M-322 -482H-76V651H-322V-482Z" fill="#FCFDFD"/>
<path d="M-77 -482V651H-75V-482H-77Z" fill="#F2F2F2" mask="url(#path-4-inside-1_0_1)"/>
</g>
<defs>
<clipPath id="clip0_0_1">
<rect width="1366" height="1133" fill="white" transform="translate(-322 -482)"/>
</clipPath>
</defs>
</svg>
