<svg width="20" height="20" viewBox="0 0 20 20" fill="none" xmlns="http://www.w3.org/2000/svg">
<path d="M19.6986 12.419C18.363 17.7762 12.937 21.0365 7.57919 19.7006C2.22361 18.365 -1.03667 12.9387 0.299485 7.58197C1.63447 2.22419 7.06044 -1.03634 12.4166 0.299234C17.7741 1.63481 21.0341 7.0617 19.6984 12.4191L19.6985 12.419H19.6986Z" fill="#50AF95"/>
<path fill-rule="evenodd" clip-rule="evenodd" d="M11.2641 11.1334C11.1933 11.1387 10.828 11.1605 10.0131 11.1605C9.36492 11.1605 8.90473 11.141 8.74327 11.1334C6.2384 11.0232 4.36874 10.5871 4.36874 10.0651C4.36874 9.54299 6.2384 9.10754 8.74327 8.99558V10.6991C8.90708 10.7109 9.37612 10.7386 10.0243 10.7386C10.8021 10.7386 11.1916 10.7062 11.2617 10.6997V8.99676C13.7613 9.10813 15.6268 9.54417 15.6268 10.0651C15.6268 10.5859 13.7618 11.022 11.2617 11.1328L11.2641 11.1334ZM11.2653 8.82061V7.29624H14.7536V4.97168H5.25622V7.29624H8.74394V8.82002C5.9091 8.95024 3.77722 9.51179 3.77722 10.1847C3.77722 10.8576 5.9091 11.4186 8.74394 11.5494V16.4342H11.2647V11.5476C14.0931 11.4174 16.2214 10.8564 16.2214 10.1841C16.2214 9.51179 14.0949 8.95083 11.2647 8.82002L11.2653 8.82061Z" fill="#FCFDFD"/>
</svg>
