<svg width="88" height="110" viewBox="0 0 88 110" fill="none" xmlns="http://www.w3.org/2000/svg">
<circle cx="44" cy="66" r="44" fill="#48B9FF" fill-opacity="0.2"/>
<circle cx="44" cy="66.6154" r="22.75" stroke="#1F3C87" stroke-width="2.5"/>
<circle cx="43.9999" cy="66.6154" r="10.4423" stroke="#1F3C87" stroke-width="2.5"/>
<path d="M26.1538 2L26.1538 19.2308" stroke="#1F3C87" stroke-width="2.5" stroke-linecap="round"/>
<path d="M60.6152 2L60.6152 19.2308" stroke="#1F3C87" stroke-width="2.5" stroke-linecap="round"/>
<path d="M42.1348 13.0769C42.1348 12.3865 42.6944 11.8269 43.3848 11.8269C44.0751 11.8269 44.6348 12.3865 44.6348 13.0769H42.1348ZM44.2686 38.5762C43.7805 39.0643 42.989 39.0643 42.5009 38.5762L34.5459 30.6212C34.0578 30.1331 34.0578 29.3416 34.5459 28.8535C35.0341 28.3653 35.8255 28.3653 36.3137 28.8535L43.3848 35.9245L50.4558 28.8535C50.944 28.3653 51.7354 28.3653 52.2236 28.8535C52.7118 29.3416 52.7118 30.1331 52.2236 30.6212L44.2686 38.5762ZM44.6348 13.0769V37.6923H42.1348V13.0769H44.6348Z" fill="#1F3C87"/>
</svg>
