<svg width="20" height="20" viewBox="0 0 20 20" fill="none" xmlns="http://www.w3.org/2000/svg">
<circle cx="10" cy="10" r="10" fill="#48B9FF" fill-opacity="0.2"/>
<g clip-path="url(#clip0)">
<path d="M13.7964 5.78125H12.8979V5.3125C12.8979 5.14062 12.7573 5 12.5854 5C12.4136 5 12.2729 5.14062 12.2729 5.3125V5.78125H7.89795V5.3125C7.89795 5.14062 7.75732 5 7.58545 5C7.41357 5 7.27295 5.14062 7.27295 5.3125V5.78125H6.37451C5.66357 5.78125 5.08545 6.35938 5.08545 7.07031V13.7109C5.08545 14.4219 5.66357 15 6.37451 15H13.7964C14.5073 15 15.0854 14.4219 15.0854 13.7109V7.07031C15.0854 6.35938 14.5073 5.78125 13.7964 5.78125ZM6.37451 6.40625H7.27295V6.71875C7.27295 6.89062 7.41357 7.03125 7.58545 7.03125C7.75732 7.03125 7.89795 6.89062 7.89795 6.71875V6.40625H12.2729V6.71875C12.2729 6.89062 12.4136 7.03125 12.5854 7.03125C12.7573 7.03125 12.8979 6.89062 12.8979 6.71875V6.40625H13.7964C14.1616 6.40625 14.4604 6.70508 14.4604 7.07031V7.8125H5.71045V7.07031C5.71045 6.70508 6.00928 6.40625 6.37451 6.40625ZM13.7964 14.375H6.37451C6.00928 14.375 5.71045 14.0762 5.71045 13.7109V8.4375H14.4604V13.7109C14.4604 14.0762 14.1616 14.375 13.7964 14.375Z" fill="#1F3C87"/>
</g>
<defs>
<clipPath id="clip0">
<rect width="10" height="10" fill="white" transform="translate(5.08545 5)"/>
</clipPath>
</defs>
</svg>
