<svg width="14" height="14" viewBox="0 0 14 14" fill="none" xmlns="http://www.w3.org/2000/svg">
<path opacity="0.5" d="M8.88428 7.00067L13.5933 2.2903C13.7206 2.16741 13.822 2.02042 13.8918 1.8579C13.9617 1.69537 13.9984 1.52057 14 1.34369C14.0015 1.16682 13.9678 0.991403 13.9008 0.827691C13.8338 0.663978 13.7349 0.515244 13.6098 0.390168C13.4848 0.265092 13.336 0.166178 13.1723 0.099198C13.0086 0.0322179 12.8332 -0.00148672 12.6563 5.02969e-05C12.4794 0.00158732 12.3046 0.0383355 12.1421 0.108151C11.9796 0.177966 11.8326 0.279449 11.7097 0.40668L6.99933 5.11572L2.2903 0.40668C2.16741 0.279449 2.02042 0.177966 1.8579 0.108151C1.69537 0.0383355 1.52057 0.00158732 1.34369 5.02969e-05C1.16682 -0.00148672 0.991403 0.0322179 0.827691 0.099198C0.663978 0.166178 0.515244 0.265092 0.390168 0.390168C0.265092 0.515244 0.166178 0.663978 0.099198 0.827691C0.0322179 0.991403 -0.00148672 1.16682 5.02969e-05 1.34369C0.00158732 1.52057 0.0383355 1.69537 0.108151 1.8579C0.177966 2.02042 0.279449 2.16741 0.40668 2.2903L5.11572 6.99933L0.40668 11.7097C0.279449 11.8326 0.177966 11.9796 0.108151 12.1421C0.0383355 12.3046 0.00158732 12.4794 5.02969e-05 12.6563C-0.00148672 12.8332 0.0322179 13.0086 0.099198 13.1723C0.166178 13.336 0.265092 13.4848 0.390168 13.6098C0.515244 13.7349 0.663978 13.8338 0.827691 13.9008C0.991403 13.9678 1.16682 14.0015 1.34369 14C1.52057 13.9984 1.69537 13.9617 1.8579 13.8918C2.02042 13.822 2.16741 13.7206 2.2903 13.5933L6.99933 8.88428L11.7097 13.5933C11.8326 13.7206 11.9796 13.822 12.1421 13.8918C12.3046 13.9617 12.4794 13.9984 12.6563 14C12.8332 14.0015 13.0086 13.9678 13.1723 13.9008C13.336 13.8338 13.4848 13.7349 13.6098 13.6098C13.7349 13.4848 13.8338 13.336 13.9008 13.1723C13.9678 13.0086 14.0015 12.8332 14 12.6563C13.9984 12.4794 13.9617 12.3046 13.8918 12.1421C13.822 11.9796 13.7206 11.8326 13.5933 11.7097L8.88428 6.99933V7.00067Z" fill="#1F3C87"/>
</svg>
