<svg width="88" height="73" viewBox="0 0 88 73" fill="none" xmlns="http://www.w3.org/2000/svg">
<path d="M31.5079 39.9011L31.5078 39.9012L31.5153 39.9088L47.7626 56.2335C49.4795 57.9586 49.4799 60.7449 47.7637 62.4705C47.7633 62.4709 47.7629 62.4712 47.7626 62.4716L39.2361 70.9648L39.2346 70.9664C37.5186 72.6905 34.7487 72.6905 33.0328 70.9664L1.7888 39.4258L1.78798 39.4249C0.0706744 37.6995 0.0706744 34.9123 1.78798 33.1868L33.1059 1.79354L33.1063 1.79313C34.8223 0.0689576 37.5921 0.0689571 39.3081 1.79313L47.7626 10.2879C49.4799 12.0134 49.4799 14.8005 47.7626 16.526L47.7618 16.5268L31.5153 32.9246C31.5152 32.9247 31.515 32.9249 31.5149 32.925C29.6262 34.8231 29.6369 37.9395 31.5079 39.9011ZM40.458 33.2607L40.4588 33.2599L56.3377 17.2314C58.0537 15.5073 60.8235 15.5073 62.5395 17.2314L65.7743 20.4816C67.4916 22.2071 67.4916 24.9942 65.7743 26.7197L58.6431 33.8849C57.2727 35.2618 57.2727 37.4238 58.6431 38.8007L65.7743 45.9659C67.4916 47.6914 67.4916 50.4785 65.7743 52.204L62.5395 55.4542C60.8235 57.1784 58.0537 57.1784 56.3377 55.4542L40.458 39.4988C38.7407 37.7733 38.7407 34.9862 40.458 33.2607ZM74.2759 27.5729L74.2759 27.573L74.2825 27.5661C75.9971 25.7771 78.7565 25.7771 80.4711 27.5661L80.471 27.5662L80.4777 27.5729L86.212 33.3345C87.9293 35.06 87.9293 37.8472 86.212 39.5727L80.4777 45.3343C78.7617 47.0585 75.9919 47.0585 74.2759 45.3343L68.5415 39.5727C66.8242 37.8472 66.8242 35.06 68.5415 33.3345L74.2759 27.5729Z" stroke="#312783" stroke-opacity="0.1"/>
</svg>
