<svg width="662" height="548" viewBox="0 0 662 548" fill="none" xmlns="http://www.w3.org/2000/svg">
<path d="M239.252 297.747L239.244 297.74C226.352 284.222 226.341 262.81 239.251 249.837C239.251 249.837 239.251 249.837 239.252 249.836M239.252 297.747L239.606 250.189L239.252 249.836M239.252 297.747L361.404 420.482C375.581 434.726 375.581 457.736 361.404 471.98L297.289 535.845L297.288 535.846C283.112 550.089 260.216 550.089 246.04 535.846L11.1334 298.709L11.1325 298.708C-3.04403 284.464 -3.04417 261.454 11.1321 247.21L239.252 297.747ZM239.252 249.836L361.403 126.548L361.404 126.547C375.581 112.303 375.581 89.2927 361.404 75.0485L297.841 11.1822C283.665 -3.06074 260.769 -3.06074 246.593 11.1822L246.593 11.1826L11.1325 247.21L239.252 249.836ZM301.866 247.765L301.866 247.764L421.254 127.252C435.43 113.009 458.326 113.009 472.502 127.252L496.821 151.688C510.998 165.932 510.998 188.942 496.821 203.186L443.207 257.056C434.169 266.137 434.169 280.336 443.207 289.417L496.821 343.287C510.998 357.531 510.998 380.541 496.821 394.785L472.502 419.221C458.326 433.464 435.43 433.464 421.254 419.221L301.866 299.263C287.689 285.019 287.689 262.009 301.866 247.765ZM556.119 205.003L556.126 204.996C570.3 190.206 593.186 190.206 607.36 204.996L607.366 205.002L650.479 248.32C664.656 262.565 664.656 285.574 650.479 299.819L607.366 343.137C593.191 357.38 570.294 357.38 556.119 343.137L513.006 299.819C498.83 285.574 498.83 262.565 513.006 248.32L556.119 205.003Z" stroke="#1F3C87" stroke-opacity="0.1"/>
</svg>
