<svg width="11" height="8" viewBox="0 0 11 8" fill="none" xmlns="http://www.w3.org/2000/svg">
<path d="M5.11153 0H1.31826V2.597H0V3.5275H1.31826V4.504H0V5.434H1.31826V8H5.11153C7.39258 8 9.12826 6.9525 9.79579 5.4345H11V4.5045H10.0598C10.0829 4.3395 10.0945 4.1705 10.0945 3.9995V3.9765C10.0945 3.8245 10.0853 3.6745 10.0673 3.5275H11V2.5975H9.81837C9.16763 1.057 7.41863 0 5.11153 0ZM8.63384 5.4345C8.05084 6.472 6.798 7.1655 5.11153 7.1655H2.37889V5.4345H8.63384ZM8.96037 3.5275C8.98468 3.681 8.99742 3.8385 8.99742 3.9995V4.022C8.99742 4.1865 8.98411 4.347 8.95863 4.504H2.37832V3.5275H8.96095H8.96037ZM5.11211 0.833C6.80611 0.833 8.063 1.545 8.64253 2.597H2.37832V0.833H5.11095H5.11211Z" fill="#1F3C87"/>
</svg>
