<svg width="30" height="30" viewBox="0 0 30 30" fill="none" xmlns="http://www.w3.org/2000/svg">
<path d="M12.1029 10.3501H2.75281C1.78876 10.3501 1 9.56136 1 8.59732V2.75281C1 1.78876 1.78876 1 2.75281 1H12.1029C13.067 1 13.8557 1.78876 13.8557 2.75281V8.59732C13.8557 9.56136 13.067 10.3501 12.1029 10.3501ZM2.75281 2.16671C2.42963 2.16671 2.16671 2.42963 2.16671 2.75281V8.59732C2.16671 8.92049 2.42963 9.18341 2.75281 9.18341H12.1029C12.4261 9.18341 12.689 8.92049 12.689 8.59732V2.75281C12.689 2.42963 12.4261 2.16671 12.1029 2.16671H2.75281Z" fill="#1F3C87" stroke="#1F3C87" stroke-width="0.3"/>
<path d="M12.1029 29.0451H2.75281C1.78876 29.0451 1 28.2563 1 27.2923V14.4365C1 13.4725 1.78876 12.6837 2.75281 12.6837H12.1029C13.067 12.6837 13.8557 13.4725 13.8557 14.4365V27.2923C13.8557 28.2563 13.067 29.0451 12.1029 29.0451ZM2.75281 13.8559C2.42963 13.8559 2.16671 14.1188 2.16671 14.442V27.2923C2.16671 27.6154 2.42963 27.8784 2.75281 27.8784H12.1029C12.4261 27.8784 12.689 27.6154 12.689 27.2923V14.4365C12.689 14.1133 12.4261 13.8504 12.1029 13.8504H2.75281V13.8559Z" fill="#1F3C87" stroke="#1F3C87" stroke-width="0.3"/>
<path d="M27.2924 29.0452H17.9423C16.9782 29.0452 16.1895 28.2564 16.1895 27.2924V21.4479C16.1895 20.4838 16.9782 19.6951 17.9423 19.6951H27.2924C28.2564 19.6951 29.0452 20.4838 29.0452 21.4479V27.2924C29.0452 28.2564 28.2564 29.0452 27.2924 29.0452ZM17.9423 20.8673C17.6191 20.8673 17.3562 21.1302 17.3562 21.4534V27.2924C17.3562 27.6156 17.6191 27.8785 17.9423 27.8785H27.2924C27.6156 27.8785 27.8785 27.6156 27.8785 27.2924V21.4479C27.8785 21.1247 27.6156 20.8618 27.2924 20.8618H17.9423V20.8673Z" fill="#1F3C87" stroke="#1F3C87" stroke-width="0.3"/>
<path d="M27.2924 17.3614H17.9423C16.9782 17.3614 16.1895 16.5726 16.1895 15.6085V2.75281C16.1895 1.78876 16.9782 1 17.9423 1H27.2924C28.2564 1 29.0452 1.78876 29.0452 2.75281V15.6085C29.0452 16.5726 28.2564 17.3614 27.2924 17.3614ZM17.9423 2.16671C17.6191 2.16671 17.3562 2.42963 17.3562 2.75281V15.6085C17.3562 15.9317 17.6191 16.1946 17.9423 16.1946H27.2924C27.6156 16.1946 27.8785 15.9317 27.8785 15.6085V2.75281C27.8785 2.42963 27.6156 2.16671 27.2924 2.16671H17.9423Z" fill="#1F3C87" stroke="#1F3C87" stroke-width="0.3"/>
</svg>
