<svg width="11" height="13" viewBox="0 0 11 13" fill="none" xmlns="http://www.w3.org/2000/svg">
<path d="M3.6155 3.5002H2.2001C1.82879 3.5002 1.4727 3.64769 1.21015 3.91025C0.947597 4.1728 0.800098 4.52889 0.800098 4.9002V7.70019H3.2501C3.34292 7.70019 3.43195 7.73707 3.49758 7.80271C3.56322 7.86834 3.6001 7.95737 3.6001 8.05019V8.05789L3.6029 8.09989C3.61887 8.33221 3.67973 8.55924 3.7821 8.76839C3.8703 8.94619 3.9977 9.11279 4.1825 9.23529C4.3645 9.35709 4.6235 9.45019 5.0001 9.45019C5.376 9.45019 5.635 9.35709 5.8177 9.23529C6.0025 9.11279 6.1299 8.94619 6.2181 8.76839C6.2713 8.66199 6.3091 8.55489 6.3364 8.45479C6.3709 8.32523 6.39201 8.19247 6.3994 8.05859L6.4001 8.04949C6.40028 7.95679 6.43724 7.86795 6.50286 7.80246C6.56847 7.73697 6.65739 7.70019 6.7501 7.70019H9.2001V7.28019C9.44945 7.15278 9.68417 6.99857 9.9001 6.82029V10.5002C9.9001 11.0571 9.67885 11.5913 9.28502 11.9851C8.89119 12.3789 8.35705 12.6002 7.8001 12.6002H2.2001C1.64314 12.6002 1.109 12.3789 0.715173 11.9851C0.321347 11.5913 0.100098 11.0571 0.100098 10.5002V4.9002C0.100098 4.34324 0.321347 3.8091 0.715173 3.41527C1.109 3.02144 1.64314 2.8002 2.2001 2.8002H3.745C3.68023 3.02901 3.63688 3.26335 3.6155 3.5002ZM2.9351 8.40019H0.800098V10.5002C0.800098 10.8715 0.947597 11.2276 1.21015 11.4901C1.4727 11.7527 1.82879 11.9002 2.2001 11.9002H7.8001C8.1714 11.9002 8.52749 11.7527 8.79004 11.4901C9.0526 11.2276 9.2001 10.8715 9.2001 10.5002V8.40019H7.0651C7.0248 8.63689 6.95053 8.86653 6.8446 9.08199C6.69992 9.37892 6.47977 9.63262 6.2062 9.81769C5.8961 10.0242 5.4992 10.1502 5.0001 10.1502C4.5017 10.1502 4.1041 10.0242 3.794 9.81769C3.52042 9.63262 3.30027 9.37892 3.1556 9.08199C3.04966 8.86653 2.9754 8.63689 2.9351 8.40019ZM7.4501 7.00019C8.28553 7.00019 9.08674 6.66832 9.67748 6.07758C10.2682 5.48684 10.6001 4.68563 10.6001 3.85019C10.6001 3.01476 10.2682 2.21355 9.67748 1.62281C9.08674 1.03207 8.28553 0.700195 7.4501 0.700195C6.61466 0.700195 5.81345 1.03207 5.22271 1.62281C4.63197 2.21355 4.3001 3.01476 4.3001 3.85019C4.3001 4.68563 4.63197 5.48684 5.22271 6.07758C5.81345 6.66832 6.61466 7.00019 7.4501 7.00019ZM5.8023 4.098C5.73658 4.03227 5.69965 3.94314 5.69965 3.85019C5.69965 3.75725 5.73658 3.66812 5.8023 3.6024C5.86802 3.53667 5.95715 3.49975 6.0501 3.49975C6.14304 3.49975 6.23218 3.53667 6.2979 3.6024L7.1001 4.4053V2.4502C7.1001 2.35737 7.13697 2.26835 7.20261 2.20271C7.26825 2.13707 7.35727 2.1002 7.4501 2.1002C7.54292 2.1002 7.63195 2.13707 7.69758 2.20271C7.76322 2.26835 7.8001 2.35737 7.8001 2.4502V4.4053L8.6023 3.6024C8.66802 3.53667 8.75715 3.49975 8.8501 3.49975C8.94304 3.49975 9.03218 3.53667 9.0979 3.6024C9.16362 3.66812 9.20054 3.75725 9.20054 3.85019C9.20054 3.94314 9.16362 4.03227 9.0979 4.098L7.6979 5.49799C7.63269 5.56315 7.54437 5.59988 7.4522 5.60019H7.448C7.35673 5.59978 7.26927 5.56359 7.2044 5.49939L7.2023 5.49729L5.8023 4.0973V4.098Z" fill="#48B9FF"/>
</svg>
