<?xml version="1.0"?>
<svg xmlns="http://www.w3.org/2000/svg" xmlns:xlink="http://www.w3.org/1999/xlink" xmlns:svgjs="http://svgjs.com/svgjs" version="1.1" width="512" height="512" x="0" y="0" viewBox="0 0 64 64" style="enable-background:new 0 0 512 512" xml:space="preserve" class=""><g><path xmlns="http://www.w3.org/2000/svg" d="m25 15h2v2h-2z" fill="#ffffff" data-original="#000000" style="" class=""/><path xmlns="http://www.w3.org/2000/svg" d="m23 52v-26c0-2.757 2.243-5 5-5h2.062c-.026-.333-.062-.663-.062-1 0-3.151 1.128-6.042 3-8.295v-2.705h-30v44h20.101c-.066-.323-.101-.658-.101-1zm0-37h2v-2h2v2h2v2h-2v2h-2v-2h-2z" fill="#ffffff" data-original="#000000" style="" class=""/><path xmlns="http://www.w3.org/2000/svg" d="m33 6c0-1.654-1.346-3-3-3h-24c-1.654 0-3 1.346-3 3v1h30z" fill="#ffffff" data-original="#000000" style="" class=""/><path xmlns="http://www.w3.org/2000/svg" d="m24 54.969v.031h-21v3c0 1.654 1.346 3 3 3h24c1.654 0 3-1.346 3-3v-1h-5c-1.641 0-3.088-.806-4-2.031zm-3 4.031h-6v-2h6z" fill="#ffffff" data-original="#000000" style="" class=""/><path xmlns="http://www.w3.org/2000/svg" d="m31.015 25c-.27-.647-.492-1.313-.655-2h-2.36c-1.654 0-3 1.346-3 3s1.346 3 3 3h5.647c-.626-.65-1.173-1.359-1.647-2.116v.116h-4v-2z" fill="#ffffff" data-original="#000000" style="" class=""/><path xmlns="http://www.w3.org/2000/svg" d="m58 29c.342 0 .677.035 1 .101v-3.101c0-1.654-1.346-3-3-3h-.36c-.535 2.259-1.671 4.324-3.286 6z" fill="#ffffff" data-original="#000000" style="" class=""/><path xmlns="http://www.w3.org/2000/svg" d="m36.705 29h5.295v-2.142c-1.72-.447-3-2-3-3.858h2c0 1.103.897 2 2 2s2-.897 2-2-.897-2-2-2c-2.206 0-4-1.794-4-4 0-1.858 1.28-3.411 3-3.858v-2.142h2v2.142c1.72.447 3 2 3 3.858h-2c0-1.103-.897-2-2-2s-2 .897-2 2 .897 2 2 2c2.206 0 4 1.794 4 4 0 1.858-1.28 3.411-3 3.858v2.142h5.295c2.945-2.064 4.705-5.401 4.705-9 0-6.065-4.935-11-11-11s-11 4.935-11 11c0 3.599 1.76 6.936 4.705 9zm13.295-10h2v2h-2zm-14 0v2h-2v-2z" fill="#ffffff" data-original="#000000" style="" class=""/><path xmlns="http://www.w3.org/2000/svg" d="m45 43c0 2.206 1.794 4 4 4h12v-8h-12c-2.206 0-4 1.794-4 4zm4 1h-2v-2h2z" fill="#ffffff" data-original="#000000" style="" class=""/><path xmlns="http://www.w3.org/2000/svg" d="m58 31h-30c-1.125 0-2.164-.374-3-1.002v22.002c0 1.654 1.346 3 3 3h30c1.654 0 3-1.346 3-3v-3h-12c-3.309 0-6-2.691-6-6s2.691-6 6-6h12v-3c0-1.654-1.346-3-3-3z" fill="#ffffff" data-original="#000000" style="" class=""/><path xmlns="http://www.w3.org/2000/svg" d="m59 11h2v2h-2z" fill="#ffffff" data-original="#000000" style="" class=""/><path xmlns="http://www.w3.org/2000/svg" d="m59 15h2v2h-2z" fill="#ffffff" data-original="#000000" style="" class=""/><path xmlns="http://www.w3.org/2000/svg" d="m61 13h2v2h-2z" fill="#ffffff" data-original="#000000" style="" class=""/><path xmlns="http://www.w3.org/2000/svg" d="m57 13h2v2h-2z" fill="#ffffff" data-original="#000000" style="" class=""/><path xmlns="http://www.w3.org/2000/svg" d="m51 1h2v2h-2z" fill="#ffffff" data-original="#000000" style="" class=""/><path xmlns="http://www.w3.org/2000/svg" d="m51 5h2v2h-2z" fill="#ffffff" data-original="#000000" style="" class=""/><path xmlns="http://www.w3.org/2000/svg" d="m53 3h2v2h-2z" fill="#ffffff" data-original="#000000" style="" class=""/><path xmlns="http://www.w3.org/2000/svg" d="m49 3h2v2h-2z" fill="#ffffff" data-original="#000000" style="" class=""/></g></svg>
