<svg width="8" height="10" viewBox="0 0 8 10" fill="none" xmlns="http://www.w3.org/2000/svg">
<path d="M4.00011 0.333183L4.25611 0.11985C4.22483 0.0823364 4.18568 0.0521564 4.14144 0.0314458C4.09721 0.0107351 4.04896 0 4.00011 0C3.95126 0 3.90302 0.0107351 3.85878 0.0314458C3.81454 0.0521564 3.77539 0.0823364 3.74411 0.11985L4.00011 0.333183ZM0.666777 4.33318L0.410777 4.11985C0.365835 4.17377 0.339061 4.2405 0.334273 4.31053C0.329484 4.38056 0.346926 4.45031 0.38411 4.50985L0.666777 4.33318ZM4.00011 9.66652L3.71744 9.84318C3.74741 9.89112 3.78907 9.93066 3.83852 9.95806C3.88797 9.98547 3.94358 9.99985 4.00011 9.99985C4.05665 9.99985 4.11225 9.98547 4.1617 9.95806C4.21115 9.93066 4.25281 9.89112 4.28278 9.84318L4.00011 9.66652ZM7.33344 4.33318L7.61611 4.50985C7.6533 4.45031 7.67074 4.38056 7.66595 4.31053C7.66116 4.2405 7.63439 4.17377 7.58944 4.11985L7.33344 4.33318ZM4.00011 2.99985L4.12411 2.69052L4.00011 2.63985L3.87611 2.68985L4.00011 2.99918V2.99985ZM3.74411 0.11985L0.410777 4.11985L0.922777 4.54652L4.25611 0.546517L3.74411 0.11985ZM0.38411 4.50985L3.71744 9.84318L4.28278 9.48985L0.949443 4.15652L0.38411 4.50985ZM4.28278 9.84318L7.61611 4.50985L7.05078 4.15652L3.71744 9.48985L4.28278 9.84318ZM7.58944 4.11985L4.25611 0.11985L3.74411 0.546517L7.07744 4.54652L7.58944 4.11985ZM0.790777 4.64252L4.12411 3.30918L3.87611 2.69052L0.542777 4.02385L0.790777 4.64252ZM3.87611 3.30918L7.20944 4.64252L7.45744 4.02385L4.12411 2.69052L3.87611 3.30918Z" fill="#1F3C87"/>
</svg>
