<svg width="11" height="25" viewBox="0 0 11 25" fill="none" xmlns="http://www.w3.org/2000/svg">
<path d="M5.5001 1.6501C4.67793 1.6501 3.88943 1.9767 3.30807 2.55807C2.7267 3.13943 2.4001 3.92793 2.4001 4.7501C2.4001 7.95085 3.5564 12.3683 4.2353 14.6747C4.31758 14.9454 4.48557 15.182 4.71397 15.3489C4.94236 15.5158 5.2188 15.6039 5.50165 15.6001C5.78396 15.6043 6.05998 15.5166 6.28812 15.3503C6.51625 15.1839 6.68413 14.9479 6.76645 14.6778C7.44535 12.3838 8.6001 7.9896 8.6001 4.7501C8.6001 3.92793 8.27349 3.13943 7.69213 2.55807C7.11077 1.9767 6.32227 1.6501 5.5001 1.6501ZM0.850098 4.7501C0.850098 3.51684 1.34001 2.3341 2.21205 1.46205C3.0841 0.590007 4.26684 0.100098 5.5001 0.100098C6.73335 0.100098 7.9161 0.590007 8.78815 1.46205C9.66019 2.3341 10.1501 3.51684 10.1501 4.7501C10.1501 8.2376 8.9287 12.8318 8.2529 15.1196C8.07528 15.7102 7.711 16.2273 7.2147 16.5934C6.71839 16.9594 6.11679 17.1548 5.5001 17.1501C4.24305 17.1501 3.11 16.3441 2.7473 15.1118C2.07305 12.8163 0.850098 8.20195 0.850098 4.7501ZM5.5001 20.2501C5.08901 20.2501 4.69476 20.4134 4.40408 20.7041C4.1134 20.9948 3.9501 21.389 3.9501 21.8001C3.9501 22.2112 4.1134 22.6054 4.40408 22.8961C4.69476 23.1868 5.08901 23.3501 5.5001 23.3501C5.91118 23.3501 6.30543 23.1868 6.59611 22.8961C6.88679 22.6054 7.0501 22.2112 7.0501 21.8001C7.0501 21.389 6.88679 20.9948 6.59611 20.7041C6.30543 20.4134 5.91118 20.2501 5.5001 20.2501ZM2.4001 21.8001C2.4001 20.9779 2.7267 20.1894 3.30807 19.6081C3.88943 19.0267 4.67793 18.7001 5.5001 18.7001C6.32227 18.7001 7.11077 19.0267 7.69213 19.6081C8.27349 20.1894 8.6001 20.9779 8.6001 21.8001C8.6001 22.6223 8.27349 23.4108 7.69213 23.9921C7.11077 24.5735 6.32227 24.9001 5.5001 24.9001C4.67793 24.9001 3.88943 24.5735 3.30807 23.9921C2.7267 23.4108 2.4001 22.6223 2.4001 21.8001Z" fill="#00D1FF"/>
</svg>
