<svg id="Layer_3" enable-background="new 0 0 64 64" height="512" viewBox="0 0 64 64" width="512" xmlns="http://www.w3.org/2000/svg"><g><path d="m33 51 20-20 9 9v-32h-32l9 9-11.5 11.5" fill="#7bdf45"/><path d="m36 36-3 15-6-6" fill="#4d8c28"/><path d="m4.858 29.101h28.284v19.799h-28.284z" fill="#559b2d" transform="matrix(.707 -.707 .707 .707 -22.012 24.858)"/><g fill="#6bc13b"><path d="m32.311 35.311-15 15c-.414.414-.414 1.086 0 1.5.414.414 1.086.414 1.5 0l15-15c.414-.414.414-1.086 0-1.5-.415-.415-1.086-.415-1.5 0z"/><path d="m19.311 26.189-15 15c-.414.414-.414 1.086 0 1.5.414.414 1.086.414 1.5 0l15-15c.414-.414.414-1.086 0-1.5-.415-.414-1.086-.414-1.5 0z"/><path d="m33 33-15 15c-1.105-1.105-2.895-1.105-4 0l-4-4c1.105-1.105 1.105-2.895 0-4l15-15"/></g><path d="m26.707 42.293-.919-.919c.573-1.166.388-2.612-.581-3.581l-1-1c-1.217-1.217-3.197-1.217-4.414 0-.438.438-1.148.438-1.586 0l-1-1c-.437-.438-.437-1.148 0-1.586.438-.438 1.148-.438 1.586 0l.5.5 1.414-1.414-.5-.5c-.968-.968-2.415-1.153-3.58-.58l-.92-.92-1.414 1.414.92.92c-.573 1.166-.388 2.612.58 3.58l1 1c1.217 1.217 3.197 1.217 4.414 0 .438-.438 1.148-.438 1.586 0l1 1c.437.438.437 1.148 0 1.586-.438.438-1.148.438-1.586 0l-.5-.5-1.414 1.414.5.5c.608.608 1.408.913 2.207.913.473 0 .94-.12 1.373-.332l.92.92z" fill="#fff"/><g><path d="m33.586 26h2.828v2h-2.828z" fill="#6bc13b" transform="matrix(.707 -.707 .707 .707 -8.841 32.657)"/></g><g><path d="m35.515 17h16.971v2h-16.971z" fill="#6bc13b" transform="matrix(.707 -.707 .707 .707 .159 36.385)"/></g></g></svg>