<svg width="6" height="10" viewBox="0 0 6 10" fill="none" xmlns="http://www.w3.org/2000/svg">
<path d="M2.9999 0C3.13251 0 3.25968 0.0526784 3.35345 0.146447C3.44722 0.240215 3.4999 0.367392 3.4999 0.5V4.293L4.6459 3.146C4.69239 3.09951 4.74758 3.06264 4.80832 3.03748C4.86905 3.01232 4.93415 2.99937 4.9999 2.99937C5.06564 2.99937 5.13074 3.01232 5.19148 3.03748C5.25222 3.06264 5.30741 3.09951 5.3539 3.146C5.40039 3.19249 5.43726 3.24768 5.46242 3.30842C5.48758 3.36916 5.50053 3.43426 5.50053 3.5C5.50053 3.56574 5.48758 3.63084 5.46242 3.69158C5.43726 3.75232 5.40039 3.80751 5.3539 3.854L3.3539 5.854C3.30745 5.90056 3.25228 5.93751 3.19153 5.96271C3.13079 5.98792 3.06567 6.00089 2.9999 6.00089C2.93413 6.00089 2.86901 5.98792 2.80827 5.96271C2.74752 5.93751 2.69234 5.90056 2.6459 5.854L0.645899 3.854C0.599411 3.80751 0.562535 3.75232 0.537376 3.69158C0.512217 3.63084 0.499268 3.56574 0.499268 3.5C0.499268 3.43426 0.512217 3.36916 0.537376 3.30842C0.562535 3.24768 0.599411 3.19249 0.645899 3.146C0.692387 3.09951 0.747576 3.06264 0.808316 3.03748C0.869055 3.01232 0.934155 2.99937 0.999899 2.99937C1.06564 2.99937 1.13074 3.01232 1.19148 3.03748C1.25222 3.06264 1.30741 3.09951 1.3539 3.146L2.4999 4.293V0.5C2.4999 0.367392 2.55258 0.240215 2.64635 0.146447C2.74011 0.0526784 2.86729 0 2.9999 0ZM2.9999 10C3.39772 10 3.77925 9.84196 4.06056 9.56066C4.34186 9.27936 4.4999 8.89782 4.4999 8.5C4.4999 8.10218 4.34186 7.72064 4.06056 7.43934C3.77925 7.15804 3.39772 7 2.9999 7C2.60207 7 2.22054 7.15804 1.93924 7.43934C1.65793 7.72064 1.4999 8.10218 1.4999 8.5C1.4999 8.89782 1.65793 9.27936 1.93924 9.56066C2.22054 9.84196 2.60207 10 2.9999 10Z" fill="#1F3C87"/>
</svg>
