<svg width="12" height="12" viewBox="0 0 12 12" fill="none" xmlns="http://www.w3.org/2000/svg">
<path d="M4.25 2.5V3.375H7.75V2.5C7.75 2.15388 7.85264 1.81554 8.04493 1.52775C8.23722 1.23997 8.51054 1.01566 8.83031 0.883212C9.15008 0.750758 9.50194 0.716102 9.84141 0.783627C10.1809 0.851151 10.4927 1.01782 10.7374 1.26256C10.9822 1.50731 11.1489 1.81913 11.2164 2.15859C11.2839 2.49806 11.2492 2.84993 11.1168 3.1697C10.9843 3.48947 10.76 3.76278 10.4723 3.95507C10.1845 4.14737 9.84612 4.25 9.5 4.25H8.625V7.75H9.5C9.84612 7.75 10.1845 7.85264 10.4723 8.04493C10.76 8.23722 10.9843 8.51054 11.1168 8.83031C11.2492 9.15008 11.2839 9.50194 11.2164 9.84141C11.1489 10.1809 10.9822 10.4927 10.7374 10.7374C10.4927 10.9822 10.1809 11.1489 9.84141 11.2164C9.50194 11.2839 9.15008 11.2492 8.83031 11.1168C8.51054 10.9843 8.23722 10.76 8.04493 10.4723C7.85264 10.1845 7.75 9.84612 7.75 9.5V8.625H4.25V9.5C4.25 9.84612 4.14737 10.1845 3.95507 10.4723C3.76278 10.76 3.48947 10.9843 3.1697 11.1168C2.84993 11.2492 2.49806 11.2839 2.15859 11.2164C1.81913 11.1489 1.50731 10.9822 1.26256 10.7374C1.01782 10.4927 0.851151 10.1809 0.783627 9.84141C0.716102 9.50194 0.750758 9.15008 0.883212 8.83031C1.01566 8.51054 1.23997 8.23722 1.52775 8.04493C1.81554 7.85264 2.15388 7.75 2.5 7.75H3.375V4.25H2.5C2.15388 4.25 1.81554 4.14737 1.52775 3.95507C1.23997 3.76278 1.01566 3.48947 0.883212 3.1697C0.750758 2.84993 0.716102 2.49806 0.783627 2.15859C0.851151 1.81913 1.01782 1.50731 1.26256 1.26256C1.50731 1.01782 1.81913 0.851151 2.15859 0.783627C2.49806 0.716102 2.84993 0.750758 3.1697 0.883212C3.48947 1.01566 3.76278 1.23997 3.95507 1.52775C4.14737 1.81554 4.25 2.15388 4.25 2.5ZM3.375 3.375V2.5C3.375 2.32694 3.32368 2.15777 3.22754 2.01388C3.13139 1.86998 2.99473 1.75783 2.83485 1.69161C2.67496 1.62538 2.49903 1.60805 2.3293 1.64181C2.15956 1.67558 2.00365 1.75891 1.88128 1.88128C1.75891 2.00365 1.67558 2.15956 1.64181 2.3293C1.60805 2.49903 1.62538 2.67496 1.69161 2.83485C1.75783 2.99473 1.86998 3.13139 2.01388 3.22754C2.15777 3.32368 2.32694 3.375 2.5 3.375H3.375ZM7.75 7.75V4.25H4.25V7.75H7.75ZM8.625 8.625V9.5C8.625 9.67306 8.67632 9.84223 8.77247 9.98613C8.86861 10.13 9.00527 10.2422 9.16515 10.3084C9.32504 10.3746 9.50097 10.392 9.67071 10.3582C9.84044 10.3244 9.99635 10.2411 10.1187 10.1187C10.2411 9.99635 10.3244 9.84044 10.3582 9.67071C10.392 9.50097 10.3746 9.32504 10.3084 9.16515C10.2422 9.00527 10.13 8.86861 9.98613 8.77247C9.84223 8.67632 9.67306 8.625 9.5 8.625H8.625ZM9.5 3.375C9.67306 3.375 9.84223 3.32368 9.98613 3.22754C10.13 3.13139 10.2422 2.99473 10.3084 2.83485C10.3746 2.67496 10.392 2.49903 10.3582 2.3293C10.3244 2.15956 10.2411 2.00365 10.1187 1.88128C9.99635 1.75891 9.84044 1.67558 9.67071 1.64181C9.50097 1.60805 9.32504 1.62538 9.16515 1.69161C9.00527 1.75783 8.86861 1.86998 8.77247 2.01388C8.67632 2.15777 8.625 2.32694 8.625 2.5V3.375H9.5ZM3.375 8.625H2.5C2.32694 8.625 2.15777 8.67632 2.01388 8.77247C1.86998 8.86861 1.75783 9.00527 1.69161 9.16515C1.62538 9.32504 1.60805 9.50097 1.64181 9.67071C1.67558 9.84044 1.75891 9.99635 1.88128 10.1187C2.00365 10.2411 2.15956 10.3244 2.3293 10.3582C2.49903 10.392 2.67496 10.3746 2.83485 10.3084C2.99473 10.2422 3.13139 10.13 3.22754 9.98613C3.32368 9.84223 3.375 9.67306 3.375 9.5V8.625Z" fill="#48B9FF"/>
</svg>
