<svg width="88" height="111" viewBox="0 0 88 111" fill="none" xmlns="http://www.w3.org/2000/svg">
<circle cx="44" cy="67" r="44" fill="#48B9FF" fill-opacity="0.2"/>
<circle cx="43.5" cy="67.625" r="10.625" stroke="#1F3C87" stroke-width="2.5"/>
<circle cx="43.5" cy="67.6249" r="23.125" stroke="#1F3C87" stroke-width="2.5"/>
<path d="M25.375 21.9999L25.375 39.4999" stroke="#1F3C87" stroke-width="2.5" stroke-linecap="round"/>
<path d="M60.375 21.9999L60.375 39.4999" stroke="#1F3C87" stroke-width="2.5" stroke-linecap="round"/>
<path d="M41.625 26.9999C41.625 27.6902 42.1846 28.2499 42.875 28.2499C43.5654 28.2499 44.125 27.6902 44.125 26.9999H41.625ZM43.7589 1.11599C43.2707 0.62784 42.4793 0.62784 41.9911 1.11599L34.0362 9.07095C33.548 9.5591 33.548 10.3506 34.0362 10.8387C34.5243 11.3269 35.3158 11.3269 35.8039 10.8387L42.875 3.76764L49.9461 10.8387C50.4342 11.3269 51.2257 11.3269 51.7138 10.8387C52.202 10.3506 52.202 9.5591 51.7138 9.07095L43.7589 1.11599ZM44.125 26.9999V1.99988H41.625V26.9999H44.125Z" fill="#1F3C87"/>
</svg>
