<svg width="33" height="33" fill="white" xmlns="http://www.w3.org/2000/svg"><path d="M12.538 23.411h.5V12.158H8.852V23.41h3.686Zm.605-13.607v-.01c-.013-.566-.218-1.092-.609-1.478-.392-.389-.938-.603-1.568-.603-.628 0-1.182.213-1.581.598-.4.385-.617.915-.617 1.493 0 1.158.875 2.095 2.157 2.095.649 0 1.209-.219 1.609-.609.399-.389.609-.92.609-1.486Zm11.032 13.607h.5v-6.563c0-1.592-.415-2.831-1.176-3.678-.766-.852-1.829-1.245-2.992-1.245-1.269 0-2.21.48-2.843 1.03l-.036-.35-.046-.449H13.838l.025.523c.042.918.083 1.98.083 3.248v7.482H18.134v-6.411c0-.292.024-.499.069-.607l.002-.006c.187-.474.568-.877 1.17-.877.423 0 .663.153.822.392.181.271.292.711.292 1.329v6.182h3.686ZM1.155 16.39c0-8.414 6.82-15.234 15.235-15.234 8.413 0 15.234 6.82 15.234 15.234 0 8.413-6.82 15.234-15.234 15.234S1.156 24.804 1.156 16.39Z" fill="white" stroke="white"/></svg>