<svg width="30" height="36" viewBox="0 0 30 36" fill="none" xmlns="http://www.w3.org/2000/svg">
<path d="M15.7573 22.3635H13.8124C13.1052 22.3635 12.5323 21.7879 12.5323 21.0772C12.5323 20.3666 13.1052 19.791 13.8124 19.791H17.2354C17.7022 19.791 18.0841 19.4072 18.0841 18.9382C18.0841 18.4692 17.7022 18.0854 17.2354 18.0854H15.63V16.8987C15.63 16.4296 15.2481 16.0459 14.7813 16.0459C14.3145 16.0459 13.9326 16.4296 13.9326 16.8987V18.0854H13.8124C12.1716 18.0854 10.835 19.4285 10.835 21.0772C10.835 22.7259 12.1716 24.069 13.8124 24.069H15.7573C16.4645 24.069 17.0374 24.6447 17.0374 25.3553C17.0374 26.0659 16.4645 26.6416 15.7573 26.6416H12.2706C11.8039 26.6416 11.422 27.0253 11.422 27.4943C11.422 27.9633 11.8039 28.3471 12.2706 28.3471H13.9397V29.5623C13.9397 30.0313 14.3216 30.4151 14.7884 30.4151C15.2552 30.4151 15.6371 30.0313 15.6371 29.5623V28.3471H15.7785C15.7856 28.3471 15.7927 28.3471 15.7997 28.3471C17.4264 28.3258 18.7347 26.9898 18.7347 25.3553C18.7347 23.7066 17.3981 22.3635 15.7573 22.3635Z" fill="#bdc4d3"/>
<path d="M27.5396 20.4305C26.6485 18.3696 25.4179 16.3727 23.862 14.5037C21.9807 12.2297 20.1066 10.7089 19.1518 10.0054L22.7587 3.28272C22.9355 2.94872 22.8789 2.53655 22.6031 2.27361C21.6696 1.35688 20.6794 0.90918 19.5762 0.90918C18.5648 0.90918 17.6383 1.29293 16.8321 1.63403C16.1956 1.89697 15.5944 2.1528 15.1065 2.1528C14.9579 2.1528 14.8306 2.13148 14.7033 2.08174C13.0201 1.46348 11.7259 1.07973 10.4741 1.07973C8.8899 1.07973 7.53909 1.71931 6.21656 3.08374C5.94074 3.368 5.89831 3.8157 6.11755 4.1497L10.0073 10.0551C9.04549 10.7729 7.20669 12.2794 5.36081 14.5037C3.81198 16.3727 2.57432 18.3696 1.68321 20.4305C0.565785 23.0243 0 25.7319 0 28.4749C0 32.1205 2.95623 35.091 6.58432 35.091H22.6385C26.2666 35.091 29.2228 32.1205 29.2228 28.4749C29.2228 25.7319 28.657 23.0243 27.5396 20.4305ZM7.92806 3.79438C8.74845 3.08374 9.53348 2.77106 10.4741 2.77106C11.4784 2.77106 12.6099 3.11217 14.1163 3.67357C14.4275 3.78727 14.7599 3.84413 15.0994 3.84413C15.9268 3.84413 16.7189 3.51723 17.4757 3.19744C18.2041 2.89187 18.8972 2.6005 19.5691 2.6005C19.8944 2.6005 20.3541 2.65736 20.934 3.06953L17.5393 9.40844H11.6269L7.92806 3.79438ZM22.6385 33.3855H6.58432C3.88977 33.3855 1.69736 31.1825 1.69736 28.4749C1.69736 23.9197 3.35935 19.599 6.62676 15.6337C8.69187 13.1251 10.7923 11.5688 11.4289 11.114H17.7798C18.4234 11.5617 20.5168 13.1251 22.5819 15.6337C25.8564 19.599 27.5113 23.9126 27.5113 28.4749C27.5254 31.1825 25.333 33.3855 22.6385 33.3855Z" fill="#bdc4d3"/>
</svg>
