<svg height="464pt" viewBox="-16 0 464 464" width="464pt" xmlns="http://www.w3.org/2000/svg"><path d="m352 32v400c0 17.671875-14.328125 32-32 32h-288c-17.671875 0-32-14.328125-32-32v-400c0-17.671875 14.328125-32 32-32h288c13.089844.0078125 24.847656 7.996094 29.679688 20.160156 1.542968 3.757813 2.332031 7.777344 2.320312 11.839844zm0 0" fill="#e6e7e8"/><path d="m352 32v400c0 17.671875-14.328125 32-32 32h-288c-17.671875 0-32-14.328125-32-32v-32.238281c118.878906-48.882813 279.039062-154.640625 349.679688-379.601563 1.542968 3.757813 2.332031 7.777344 2.320312 11.839844zm0 0" fill="#d1d3d4"/><path d="m80 240h336c8.835938 0 16 7.164062 16 16v160c0 8.835938-7.164062 16-16 16h-336c-8.835938 0-16-7.164062-16-16v-160c0-8.835938 7.164062-16 16-16zm0 0" fill="#00ddc2"/><path d="m304 336c0 30.929688-25.070312 56-56 56s-56-25.070312-56-56 25.070312-56 56-56 56 25.070312 56 56zm0 0" fill="#ffd422"/><path d="m88 64h-16c-4.417969 0-8-3.582031-8-8s3.582031-8 8-8h16c4.417969 0 8 3.582031 8 8h16c0-13.253906-10.746094-24-24-24v-8h-16v8c-13.253906 0-24 10.746094-24 24s10.746094 24 24 24h16c4.417969 0 8 3.582031 8 8s-3.582031 8-8 8h-16c-4.417969 0-8-3.582031-8-8h-16c0 13.253906 10.746094 24 24 24v8h16v-8c13.253906 0 24-10.746094 24-24s-10.746094-24-24-24zm0 0" fill="#ff5023"/><path d="m144 104h64v16h-64zm0 0" fill="#898890"/><path d="m144 72h32v16h-32zm0 0" fill="#787680"/><path d="m192 72h112v16h-112zm0 0" fill="#898890"/><path d="m224 104h80v16h-80zm0 0" fill="#787680"/><g fill="#00a691"><path d="m368.800781 408h-32.800781v-16h26.734375c4.820313-13.683594 15.582031-24.445312 29.265625-29.265625v-53.46875c-13.683594-4.820313-24.445312-15.582031-29.265625-29.265625h-26.734375v-16h32.800781c3.800781 0 7.078125 2.675781 7.839844 6.398438 2.5625 12.574218 12.386719 22.398437 24.960937 24.960937 3.722657.761719 6.398438 4.039063 6.398438 7.839844v65.601562c0 3.800781-2.675781 7.078125-6.398438 7.839844-12.574218 2.5625-22.398437 12.386719-24.960937 24.960937-.761719 3.722657-4.039063 6.398438-7.839844 6.398438zm0 0"/><path d="m160 408h-32.800781c-3.800781 0-7.078125-2.675781-7.839844-6.398438-2.5625-12.574218-12.386719-22.398437-24.960937-24.960937-3.722657-.761719-6.398438-4.039063-6.398438-7.839844v-65.601562c0-3.800781 2.675781-7.078125 6.398438-7.839844 12.574218-2.5625 22.398437-12.386719 24.960937-24.960937.761719-3.722657 4.039063-6.398438 7.839844-6.398438h32.800781v16h-26.734375c-4.820313 13.683594-15.582031 24.445312-29.265625 29.265625v53.46875c13.683594 4.820313 24.445312 15.582031 29.265625 29.265625h26.734375zm0 0"/><path d="m152 328h16v16h-16zm0 0"/><path d="m328 328h16v16h-16zm0 0"/></g><path d="m48 152h256v16h-256zm0 0" fill="#898890"/><path d="m48 184h64v16h-64zm0 0" fill="#787680"/><path d="m128 184h176v16h-176zm0 0" fill="#898890"/></svg>