<?xml version="1.0"?>
<svg xmlns="http://www.w3.org/2000/svg" xmlns:xlink="http://www.w3.org/1999/xlink" xmlns:svgjs="http://svgjs.com/svgjs" version="1.1" width="512" height="512" x="0" y="0" viewBox="0 0 497 497" style="enable-background:new 0 0 512 512" xml:space="preserve" class=""><g><g xmlns="http://www.w3.org/2000/svg"><path d="m294.771 3.794c-7.865-1.481-12.223 8.796-5.727 13.472 51.506 37.078 162.956 129.053 162.956 230.709 0 137.243-203.5 248.5-203.5 248.5 137.243 0 248.5-111.257 248.5-248.5 0-121.429-87.1-222.501-202.229-244.181z" fill="#e9e9e9" data-original="#53a143" style="" class=""/><path d="m467 247.975c0-128.942-85.593-234.93-195.14-247.28-4.454-.502-8.36 2.976-8.36 7.458v60.223c0 3.809 2.859 6.978 6.639 7.448 86.084 10.711 152.598 84.473 151.855 173.63-.796 95.484-78.008 172.021-173.495 172.021-40.157 0-77.12-13.651-106.521-36.555-2.966-2.311-7.202-2.007-9.861.651l-42.667 42.668c-3.131 3.131-2.875 8.271.533 11.098 43.021 35.679 98.259 57.139 158.517 57.139 120.674-.001 218.5-111.258 218.5-248.501z" fill="#ffffff" data-original="#60ba4d" style="" class=""/><circle cx="248.5" cy="247.975" fill="#dbebff" r="128.5" data-original="#dbebff" style="" class=""/><path d="m248.5 149.475v90c24.853 0 45-20.147 45-45s-20.147-45-45-45z" fill="#1b74d6" data-original="#1b74d6" style="" class=""/><path d="m263.5 194.475c0-24.853-6.716-45-15-45-24.853 0-45 20.147-45 45s20.147 45 45 45c8.284 0 15-20.147 15-45z" fill="#1e8aff" data-original="#1e8aff" style="" class=""/><path d="m195.996 269.475c-16.5 0-30 13.5-30 30v2.316c7.756 11.867 18.005 21.955 30 29.529l30-61.845z" fill="#54a5ff" data-original="#54a5ff" style=""/><path d="m301.004 269.475h-30l30 61.845c11.995-7.574 22.244-17.662 30-29.529v-2.316c0-16.5-13.5-30-30-30z" fill="#1b74d6" data-original="#1b74d6" style="" class=""/><path d="m271.004 269.475h-45.009c-16.5 0-30 13.5-30 30v31.845c15.198 9.597 33.201 15.155 52.504 15.155 19.304 0 37.306-5.558 52.504-15.155v-31.845c.001-16.5-13.499-30-29.999-30z" fill="#1e8aff" data-original="#1e8aff" style="" class=""/><path d="m225.361.557c-51.209 4.729-97.91 24.992-135.356 56.039-3.418 2.834-3.697 7.974-.558 11.113l42.669 42.669c2.658 2.658 6.893 2.965 9.858.655 24.036-18.724 53.128-31.257 84.887-35.209 3.78-.47 6.64-3.64 6.64-7.449v-60.342c-.001-4.394-3.765-7.88-8.14-7.476z" fill="#ffffff" data-original="#ffd17e" style="" class=""/><path d="m110.88 364.383c2.67-2.67 2.98-6.925.66-9.904-22.895-29.399-36.54-66.355-36.54-106.504s13.645-77.105 36.54-106.503c2.32-2.979 2.01-7.234-.66-9.904l-42.644-42.643c-3.131-3.131-8.271-2.875-11.098.533-35.678 43.021-57.138 98.259-57.138 158.517s21.46 115.496 57.139 158.517c2.827 3.408 7.966 3.665 11.098.533z" fill="#1b74d6" data-original="#1b74d6" style="" class=""/></g></g></svg>
