<svg enable-background="new 0 0 24 24" height="512" viewBox="0 0 24 24" width="512" xmlns="http://www.w3.org/2000/svg"><path d="m11 15c-1.654 0-3-1.346-3-3s1.346-3 3-3h5v-6.25c0-1.517-1.233-2.75-2.75-2.75h-10.5c-1.517 0-2.75 1.233-2.75 2.75v18.5c0 1.517 1.233 2.75 2.75 2.75h10.5c1.517 0 2.75-1.233 2.75-2.75v-6.25z" fill="#42a5f5"/><path d="m18.617 16.924c-.373-.155-.617-.52-.617-.924v-3h-7c-.552 0-1-.448-1-1s.448-1 1-1h7v-3c0-.404.244-.769.617-.924.374-.155.804-.069 1.09.217l4 4c.391.391.391 1.023 0 1.414l-4 4c-.286.286-.716.372-1.09.217z" fill="#78909c"/><path d="m8 12h-8v9.25c0 1.517 1.233 2.75 2.75 2.75h10.5c1.517 0 2.75-1.233 2.75-2.75v-6.25h-5c-1.654 0-3-1.346-3-3z" fill="#2196f3"/><path d="m24 12h-14c0 .552.448 1 1 1h7v3c0 .404.244.769.617.924.124.051.254.076.383.076.26 0 .516-.102.707-.293l4-4c.195-.195.293-.451.293-.707z" fill="#607d8b"/></svg>