<svg width="106" height="21" viewBox="0 0 106 21" fill="none" xmlns="http://www.w3.org/2000/svg">
<path d="M9.18581 11.4013L13.8688 16.1065C14.4197 16.6601 14.4197 17.5543 13.8688 18.1079L11.4108 20.5563C10.8598 21.1099 9.96984 21.1099 9.4189 20.5563L0.413203 11.4651C-0.137734 10.9116 -0.137734 10.0174 0.413203 9.46379L9.44009 0.415172C9.99103 -0.138391 10.881 -0.138391 11.4319 0.415172L13.8688 2.86362C14.4197 3.41719 14.4197 4.3114 13.8688 4.86496L9.18581 9.59154C8.69845 10.0812 8.69845 10.8903 9.18581 11.4013ZM19.0603 7.8031C19.6112 7.24954 19.6112 6.35533 19.0603 5.80176L18.1279 4.86496C17.577 4.3114 16.687 4.3114 16.1361 4.86496L11.5591 9.48508C11.0081 10.0386 11.0081 10.9329 11.5591 11.4864L16.1361 16.0853C16.687 16.6388 17.577 16.6388 18.1279 16.0853L19.0603 15.1485C19.6112 14.5949 19.6112 13.7007 19.0603 13.1471L17.0049 11.0819C16.6658 10.7412 16.6658 10.209 17.0049 9.86832L19.0603 7.8031ZM21.3064 7.84569L19.6536 9.50637C19.1027 10.0599 19.1027 10.9542 19.6536 11.5077L21.3064 13.1684C21.8574 13.722 22.7473 13.722 23.2983 13.1684L24.9511 11.5077C25.502 10.9542 25.502 10.0599 24.9511 9.50637L23.2983 7.84569C22.7473 7.27083 21.8574 7.27083 21.3064 7.84569Z" fill="url(#paint0_linear)"/>
<path d="M31 12.6669C31 9.11128 33.2673 6.76929 36.7425 6.76929C39.6667 6.76929 41.5949 8.25965 42.0399 10.8571V11.2404H39.1157C38.925 9.98421 38.035 9.26032 36.7425 9.26032C34.9837 9.26032 34.009 10.4739 34.009 12.6881C34.009 14.7747 35.0261 15.9882 36.7213 15.9882C38.0986 15.9882 38.9886 15.2005 39.2005 13.7953H42.1247V14.1785C41.6161 16.9463 39.6455 18.4793 36.6577 18.4793C33.1826 18.458 31 16.2011 31 12.6669Z" fill="#1D398C"/>
<path d="M44.7945 9.6647C44.7945 9.23889 44.6462 9.08985 44.2224 9.08985H43.7139V7.17367C43.7139 7.17367 44.286 6.85431 45.4091 6.85431C46.8288 6.85431 47.528 7.45045 47.528 8.64274V8.89823H47.6552C48.2909 7.45045 49.4139 6.72656 51.0456 6.72656C51.7448 6.72656 52.1051 6.83302 52.1051 6.83302V9.49438H51.1303C48.6511 9.49438 47.7399 10.6228 47.7399 13.6461V18.2023H44.7734L44.7945 9.6647Z" fill="#1D398C"/>
<path d="M60.8778 14.6682H63.802V15.094C63.2723 17.1592 61.2169 18.4792 58.5681 18.4792C55.093 18.4792 52.8257 16.2437 52.8257 12.8371C52.8257 9.00478 55.0506 6.79053 58.886 6.79053C61.8949 6.79053 63.908 8.21702 63.908 10.3461C63.908 12.901 62.2764 13.7739 55.9406 14.1359C56.2584 15.4985 57.1272 16.1798 58.5681 16.1798C59.8183 16.1798 60.6447 15.6262 60.8778 14.6682ZM55.8558 12.0068C59.8819 11.8578 60.9414 11.4532 60.9202 10.3248C60.899 9.51576 60.1574 9.04736 58.886 9.04736C57.106 9.04736 56.0677 10.048 55.8558 12.0068Z" fill="#1D398C"/>
<path d="M65.7305 12.5389C65.7305 9.04724 67.8283 6.72654 70.9432 6.72654C72.49 6.72654 73.6555 7.36526 74.2064 8.4511H74.3336L74.2488 7.02461V2.42578H77.2154V15.5623C77.2154 15.9881 77.3637 16.1371 77.7875 16.1371H78.2961V18.0533C78.2961 18.0533 77.7239 18.3726 76.6009 18.3726C75.1812 18.3726 74.4819 17.7765 74.4819 16.5842V16.5416H74.3548C73.6343 17.7765 72.3841 18.5004 70.8372 18.5004C67.7647 18.5004 65.7305 16.2223 65.7305 12.5389ZM74.3759 12.5389C74.3759 10.5802 73.2741 9.23886 71.6001 9.23886C69.7989 9.23886 68.7606 10.4099 68.7606 12.5389C68.7606 14.7106 69.7777 15.9668 71.5577 15.9668C73.2741 15.9881 74.3759 14.6255 74.3759 12.5389Z" fill="#1D398C"/>
<path d="M87.9799 14.6682H90.9041V15.094C90.3743 17.1592 88.3189 18.4792 85.6702 18.4792C82.1951 18.4792 79.9277 16.2437 79.9277 12.8371C79.9277 9.00478 82.1527 6.79053 85.988 6.79053C88.997 6.79053 91.01 8.21702 91.01 10.3461C91.01 12.901 89.3784 13.7739 83.0427 14.1359C83.3605 15.4985 84.2293 16.1798 85.6702 16.1798C86.9204 16.1798 87.7468 15.6262 87.9799 14.6682ZM82.9579 12.0068C86.984 11.8578 88.0435 11.4532 88.0223 10.3248C88.0011 9.51576 87.2594 9.04736 85.988 9.04736C84.1869 9.04736 83.1698 10.048 82.9579 12.0068Z" fill="#1D398C"/>
<path d="M105.249 16.1584V18.0746C105.249 18.0746 104.677 18.394 103.554 18.394C101.986 18.394 101.202 17.6062 101.202 16.0307V9.55826H97.5999V18.1811H94.6333V9.55826H92.3872V7.00336H94.6333V6.53496C94.6333 3.51165 96.2014 2 99.3587 2C101.012 2 101.923 2.34065 101.923 2.34065V4.93814H101.541C101.541 4.93814 100.863 4.59749 99.6553 4.59749C98.1509 4.59749 97.5999 5.15105 97.5999 6.70528V7.00336H104.169V15.5623C104.169 15.9881 104.317 16.1371 104.741 16.1371C104.741 16.1371 105.249 16.1371 105.249 16.1584Z" fill="#1D398C"/>
<defs>
<linearGradient id="paint0_linear" x1="0.0105949" y1="10.4858" x2="25.3258" y2="10.4858" gradientUnits="userSpaceOnUse">
<stop offset="0.0343869" stop-color="#1D398C"/>
<stop offset="0.2093" stop-color="#1E3D8F"/>
<stop offset="0.3812" stop-color="#214997"/>
<stop offset="0.5519" stop-color="#255CA4"/>
<stop offset="0.7219" stop-color="#2C78B7"/>
<stop offset="0.8897" stop-color="#349BCE"/>
<stop offset="1" stop-color="#3BB7E1"/>
</linearGradient>
</defs>
</svg>
