<svg width="63" height="96" viewBox="0 0 63 96" fill="none" xmlns="http://www.w3.org/2000/svg">
<path opacity="0.15" d="M67.9737 44.1455L48.5877 23.0058C46.307 20.5187 46.307 16.5012 48.5877 14.0142L58.7632 3.01391C61.0439 0.52688 64.7281 0.52688 67.0088 3.01391L104.289 43.8585C106.57 46.3455 106.57 50.363 104.289 52.8501L66.9211 93.5034C64.6404 95.9904 60.9561 95.9904 58.6754 93.5034L48.5 82.5031C46.2193 80.0161 46.2193 75.9986 48.5 73.5115L67.9737 52.2762C69.9912 50.0761 69.9912 46.4412 67.9737 44.1455ZM27.0965 60.3112C24.8158 62.7982 24.8158 66.8157 27.0965 69.3027L30.9561 73.5115C33.2368 75.9986 36.9211 75.9986 39.2018 73.5115L58.1491 52.7544C60.4298 50.2674 60.4298 46.2499 58.1491 43.7629L39.2018 23.1014C36.9211 20.6144 33.2368 20.6144 30.9561 23.1014L27.0965 27.3102C24.8158 29.7973 24.8158 33.8148 27.0965 36.3018L35.6053 45.5803C37.0088 47.1108 37.0088 49.5022 35.6053 51.0326L27.0965 60.3112ZM17.7982 60.1199L24.6404 52.7544C26.9211 50.2674 26.9211 46.2499 24.6404 43.7629L17.7982 36.3018C15.5175 33.8148 11.8333 33.8148 9.55263 36.3018L2.71053 43.7629C0.429829 46.2499 0.429829 50.2674 2.71053 52.7544L9.55263 60.2155C11.8333 62.7025 15.5175 62.7025 17.7982 60.1199Z" stroke="url(#paint0_linear)" stroke-width="0.847953" stroke-miterlimit="10"/>
<defs>
<linearGradient id="paint0_linear" x1="106.395" y1="48.2586" x2="0.605267" y2="48.2587" gradientUnits="userSpaceOnUse">
<stop offset="0.0343869" stop-color="#1D398C"/>
<stop offset="0.2093" stop-color="#1E3D8F"/>
<stop offset="0.3812" stop-color="#214997"/>
<stop offset="0.5519" stop-color="#255CA4"/>
<stop offset="0.7219" stop-color="#2C78B7"/>
<stop offset="0.8897" stop-color="#349BCE"/>
<stop offset="1" stop-color="#3BB7E1"/>
</linearGradient>
</defs>
</svg>
