<?xml version="1.0" encoding="UTF-8" standalone="no"?>
<svg
   width="32"
   height="37"
   viewBox="0 0 32 37"
   fill="none"
   version="1.1"
   id="svg9"
   sodipodi:docname="module-x-active.svg"
   inkscape:version="1.1.1 (1:1.1+202109281949+c3084ef5ed)"
   xmlns:inkscape="http://www.inkscape.org/namespaces/inkscape"
   xmlns:sodipodi="http://sodipodi.sourceforge.net/DTD/sodipodi-0.dtd"
   xmlns="http://www.w3.org/2000/svg"
   xmlns:svg="http://www.w3.org/2000/svg">
  <path
     d="m 16.519866,19.483019 3.255813,-3.240374 c 0.383069,-0.381162 1.001811,-0.381162 1.384788,0 l 1.694204,1.700833 c 0.383069,0.381253 0.383069,0.996996 0,1.378249 l -6.290577,6.231455 c -0.383068,0.381161 -1.001809,0.381161 -1.384788,0 L 8.9181364,19.307105 c -0.3830414,-0.381252 -0.3830414,-0.997087 0,-1.378248 l 1.6941856,-1.686212 c 0.383015,-0.381162 1.001755,-0.381162 1.384824,0 l 3.270526,3.240374 c 0.338841,0.337206 0.898641,0.337206 1.252194,0 z M 14.03019,12.650442 c -0.383069,-0.381252 -1.001809,-0.381252 -1.384878,0 l -0.648166,0.645078 c -0.383069,0.381254 -0.383069,0.997087 0,1.37825 l 3.196873,3.167084 c 0.382978,0.381161 1.00181,0.381161 1.384788,0 l 3.182161,-3.167084 c 0.383069,-0.381163 0.383069,-0.996996 0,-1.37825 L 19.11271,12.650442 c -0.382977,-0.381252 -1.001719,-0.381252 -1.384788,0 l -1.429015,1.422205 c -0.235672,0.234583 -0.604029,0.234583 -0.8397,0 z m 0.02943,-1.554252 1.149116,1.143666 c 0.383069,0.381252 1.001809,0.381252 1.384787,0 l 1.149116,-1.143666 c 0.383069,-0.381181 0.383069,-0.996998 0,-1.3782143 l -1.14912,-1.1436578 c -0.382978,-0.3812162 -1.001718,-0.3812162 -1.384787,0 l -1.149116,1.1436578 c -0.397782,0.3812163 -0.397782,0.9970333 0,1.3782143 z"
     fill="#bdc4d3"
     id="path2"
     style="stroke-width:0.908177" />
  <mask
     id="path-2-inside-1_2066:3208"
     fill="white">
    <path
       d="M31.5727 7.10261C31.4301 6.94284 31.2554 6.81367 31.0596 6.72318C30.8638 6.63268 30.6511 6.58281 30.4348 6.57668C27.0737 6.49046 22.8208 2.96416 20.009 1.58037C18.272 0.728253 17.1253 0.166402 16.2642 0.0183951C16.0894 -0.00660426 15.9117 -0.00612005 15.737 0.0198321C14.8759 0.167839 13.7292 0.72969 11.9937 1.58181C9.18187 2.96416 4.92894 6.49046 1.5679 6.57668C1.35141 6.58313 1.13857 6.63313 0.942574 6.7236C0.746581 6.81407 0.571615 6.94307 0.42852 7.10261C0.131918 7.43186 -0.0211134 7.8622 0.002349 8.30103C0.72435 22.7037 5.98924 31.6171 15.2273 36.7974C15.4675 36.931 15.7341 37 15.9991 37C16.2642 37 16.5308 36.931 16.7724 36.7974C26.0105 31.6171 31.2739 22.7037 31.9974 8.30103C32.0222 7.86227 31.8696 7.43161 31.5727 7.10261Z"
       id="path4" />
  </mask>
  <path
     d="M 31.5727,7.10261 C 31.4301,6.94284 31.2554,6.81367 31.0596,6.72318 30.8638,6.63268 30.6511,6.58281 30.4348,6.57668 27.0737,6.49046 22.8208,2.96416 20.009,1.58037 18.272,0.728253 17.1253,0.166402 16.2642,0.0183951 16.0894,-0.00660426 15.9117,-0.00612005 15.737,0.0198321 14.8759,0.167839 13.7292,0.72969 11.9937,1.58181 9.18187,2.96416 4.92894,6.49046 1.5679,6.57668 1.35141,6.58313 1.13857,6.63313 0.942574,6.7236 0.746581,6.81407 0.571615,6.94307 0.42852,7.10261 0.131918,7.43186 -0.0211134,7.8622 0.002349,8.30103 0.72435,22.7037 5.98924,31.6171 15.2273,36.7974 15.4675,36.931 15.7341,37 15.9991,37 16.2642,37 16.5308,36.931 16.7724,36.7974 26.0105,31.6171 31.2739,22.7037 31.9974,8.30103 32.0222,7.86227 31.8696,7.43161 31.5727,7.10261 Z"
     stroke="#bdc4d3"
     stroke-width="4"
     mask="url(#path-2-inside-1_2066:3208)"
     id="path7"
     transform="matrix(0.90817669,0,0,0.90817669,1.5756369,1.6553284)" />
</svg>
