<svg width="21" height="21" viewBox="0 0 21 21" fill="none" xmlns="http://www.w3.org/2000/svg">
<path d="M10.5 21C9.08291 21 7.70684 20.7231 6.41279 20.1756C5.16182 19.6465 4.04004 18.8877 3.07617 17.9238C2.1123 16.96 1.35352 15.8382 0.824414 14.5872C0.276855 13.2932 0 11.9171 0 10.5C0 10.0919 0.330176 9.76172 0.738281 9.76172C1.14639 9.76172 1.47656 10.0919 1.47656 10.5C1.47656 11.7182 1.71445 12.8994 2.18613 14.013C2.64141 15.0876 3.2915 16.0535 4.12002 16.882C4.94853 17.7105 5.91445 18.3627 6.98906 18.8159C8.10059 19.2855 9.28184 19.5234 10.5 19.5234C11.7182 19.5234 12.8994 19.2855 14.013 18.8139C15.0876 18.3586 16.0535 17.7085 16.882 16.88C17.7105 16.0515 18.3627 15.0855 18.8159 14.0109C19.2855 12.8994 19.5234 11.7182 19.5234 10.5C19.5234 9.28184 19.2855 8.10059 18.8139 6.98701C18.3601 5.91498 17.7035 4.94077 16.88 4.11797C16.0581 3.29338 15.0836 2.63656 14.0109 2.18408C12.8994 1.71445 11.7182 1.47656 10.5 1.47656C10.0919 1.47656 9.76172 1.14639 9.76172 0.738281C9.76172 0.330176 10.0919 0 10.5 0C11.9171 0 13.2932 0.276855 14.5872 0.824414C15.8382 1.35352 16.96 2.1123 17.9238 3.07617C18.8877 4.04004 19.6444 5.16387 20.1735 6.41279C20.7211 7.70684 20.9979 9.08291 20.9979 10.5C20.9979 11.9171 20.7211 13.2932 20.1735 14.5872C19.6465 15.8382 18.8877 16.96 17.9238 17.9238C16.96 18.8877 15.8361 19.6444 14.5872 20.1735C13.2932 20.7231 11.9171 21 10.5 21Z" fill="#1CB659"/>
<path d="M8.24844 12.5606L5.90806 10.2202C5.84686 10.1583 5.77398 10.1091 5.69363 10.0755C5.61328 10.0419 5.52707 10.0247 5.43999 10.0247C5.35291 10.0247 5.2667 10.0419 5.18635 10.0755C5.106 10.1091 5.03311 10.1583 4.97192 10.2202C4.90997 10.2814 4.86079 10.3543 4.82722 10.4346C4.79365 10.515 4.77637 10.6012 4.77637 10.6883C4.77637 10.7754 4.79365 10.8616 4.82722 10.9419C4.86079 11.0223 4.90997 11.0952 4.97192 11.1564L7.77368 13.9581C8.03446 14.2189 8.45573 14.2189 8.71651 13.9581L15.8045 6.87681C15.8664 6.81561 15.9156 6.74273 15.9492 6.66238C15.9828 6.58203 16 6.49582 16 6.40874C16 6.32166 15.9828 6.23545 15.9492 6.1551C15.9156 6.07475 15.8664 6.00186 15.8045 5.94067C15.7433 5.87872 15.6704 5.82954 15.5901 5.79597C15.5097 5.7624 15.4235 5.74512 15.3364 5.74512C15.2493 5.74512 15.1631 5.7624 15.0828 5.79597C15.0024 5.82954 14.9295 5.87872 14.8683 5.94067L8.24844 12.5606Z" fill="#1CB659"/>
</svg>
