<svg width="6" height="10" viewBox="0 0 6 10" fill="none" xmlns="http://www.w3.org/2000/svg">
<path d="M2.4999 5.49992C2.4999 5.63253 2.55258 5.7597 2.64635 5.85347C2.74011 5.94724 2.86729 5.99992 2.9999 5.99992C3.13251 5.99992 3.25968 5.94724 3.35345 5.85347C3.44722 5.7597 3.4999 5.63253 3.4999 5.49992V1.70692L4.6459 2.85392C4.69239 2.90041 4.74758 2.93728 4.80832 2.96244C4.86905 2.9876 4.93415 3.00055 4.9999 3.00055C5.06564 3.00055 5.13074 2.9876 5.19148 2.96244C5.25222 2.93728 5.30741 2.90041 5.3539 2.85392C5.40039 2.80743 5.43726 2.75224 5.46242 2.6915C5.48758 2.63076 5.50053 2.56566 5.50053 2.49992C5.50053 2.43417 5.48758 2.36907 5.46242 2.30833C5.43726 2.24759 5.40039 2.19241 5.3539 2.14592L3.3539 0.145917C3.30745 0.099354 3.25228 0.0624111 3.19153 0.0372047C3.13079 0.0119982 3.06567 -0.000976563 2.9999 -0.000976562C2.93413 -0.000976563 2.86901 0.0119982 2.80827 0.0372047C2.74752 0.0624111 2.69234 0.099354 2.6459 0.145917L0.645899 2.14592C0.599411 2.19241 0.562535 2.24759 0.537376 2.30833C0.512217 2.36907 0.499268 2.43417 0.499268 2.49992C0.499268 2.56566 0.512217 2.63076 0.537376 2.6915C0.562535 2.75224 0.599411 2.80743 0.645899 2.85392C0.692387 2.90041 0.747576 2.93728 0.808316 2.96244C0.869055 2.9876 0.934155 3.00055 0.999899 3.00055C1.06564 3.00055 1.13074 2.9876 1.19148 2.96244C1.25222 2.93728 1.30741 2.90041 1.3539 2.85392L2.4999 1.70692V5.49992ZM2.9999 9.99992C3.39772 9.99992 3.77925 9.84188 4.06056 9.56058C4.34186 9.27927 4.4999 8.89774 4.4999 8.49992C4.4999 8.10209 4.34186 7.72056 4.06056 7.43926C3.77925 7.15795 3.39772 6.99992 2.9999 6.99992C2.60207 6.99992 2.22054 7.15795 1.93924 7.43926C1.65793 7.72056 1.4999 8.10209 1.4999 8.49992C1.4999 8.89774 1.65793 9.27927 1.93924 9.56058C2.22054 9.84188 2.60207 9.99992 2.9999 9.99992Z" fill="#1F3C87"/>
</svg>
