<svg id="Capa_1" enable-background="new 0 0 512 512" height="512" viewBox="0 0 512 512" width="512" xmlns="http://www.w3.org/2000/svg"><g><g><g><g><g><path d="m346.638 93.885c1.652-6.388.683-13.209-2.833-18.792-23.72-37.667-62.312-65.061-107.472-73.899-80.374 9.74-142.856 78.371-142.856 161.33v194.305h48.779v-192.979c0-62.886 51.451-115.391 114.336-115.069 36.716.187 69.367 17.865 90.046 45.104z" fill="#eaf2ff"/><path d="m369.745 347.959v8.869h5.931z" fill="#e8e8e8"/></g><g><path d="m256 0c-9.661 0-19.126.852-28.329 2.476 52.807 9.321 96.892 44.227 118.967 91.409 14.493 19.091 23.107 42.876 23.107 68.638v194.305h48.779v-194.305c0-89.615-72.908-162.523-162.524-162.523z" fill="#c9e0fd"/></g><path d="m406.784 478.792v-197.656c0-18.341-14.868-33.208-33.208-33.208h-281.479c-18.34 0-33.208 14.868-33.208 33.208v197.656c0 18.34 14.868 33.208 33.208 33.208h281.479c18.34 0 33.208-14.868 33.208-33.208z" fill="#ffd064"/><path d="m419.903 247.928h-56.688c18.34 0 33.208 14.868 33.208 33.208v197.656c0 18.34-14.868 33.208-33.208 33.208h56.688c18.34 0 33.208-14.868 33.208-33.208v-197.656c0-18.341-14.868-33.208-33.208-33.208z" fill="#ffc250"/></g></g><circle cx="256" cy="379.964" fill="#fff" r="96.349"/><path d="m256 283.615c-9.859 0-19.371 1.484-28.329 4.236 39.386 12.099 68.02 48.761 68.02 92.113s-28.634 80.014-68.02 92.113c8.957 2.752 18.469 4.236 28.329 4.236 53.212 0 96.349-43.137 96.349-96.349s-43.137-96.349-96.349-96.349z" fill="#eaf2ff"/><path d="m284.579 358.587c0-16.397-13.809-29.569-30.432-28.52-14.314.903-25.907 12.611-26.682 26.932-.53 9.796 3.881 18.583 10.96 24.114l-7.69 40.317c-.84 4.406 2.537 8.488 7.022 8.488h36.488c4.485 0 7.863-4.083 7.022-8.488l-7.69-40.317c6.693-5.23 11.002-13.372 11.002-22.526z" fill="#60a0f7"/></g></g></svg>