<svg width="22" height="22" viewBox="0 0 22 22" fill="none" xmlns="http://www.w3.org/2000/svg">
<circle cx="10.9463" cy="10.7313" r="10.5992" fill="#48B9FF" fill-opacity="0.2"/>
<g clip-path="url(#clip0)">
<path d="M16.7966 11.117H10.8761V5.19654C10.8761 5.0713 10.7737 4.96883 10.6484 4.96883C7.12744 4.96883 4.27252 7.82375 4.27252 11.3447C4.27252 14.8657 7.12744 17.7206 10.6484 17.7206C14.1694 17.7206 17.0243 14.8657 17.0243 11.3447C17.0243 11.2195 16.9218 11.117 16.7966 11.117ZM10.6484 17.2652C7.37792 17.2652 4.72794 14.6152 4.7251 11.3447C4.7251 8.16247 7.23845 5.54949 10.4207 5.42709V11.3447C10.4207 11.47 10.5232 11.5724 10.6484 11.5724H16.5632C16.438 14.749 13.8278 17.2623 10.6484 17.2652Z" fill="#1F3C87"/>
<path d="M11.5593 4.05814C11.4341 4.05814 11.3316 4.16061 11.3316 4.28585V10.434C11.3316 10.5593 11.4341 10.6617 11.5593 10.6617H17.7075C17.8327 10.6617 17.9352 10.5593 17.9352 10.434C17.9324 6.91306 15.0803 4.06098 11.5593 4.05814ZM11.787 10.2063V4.51925C14.8754 4.64164 17.3517 7.118 17.4741 10.2063H11.787Z" fill="#1F3C87"/>
</g>
<defs>
<clipPath id="clip0">
<rect width="13.6626" height="13.6626" fill="white" transform="translate(4.27274 4.05803)"/>
</clipPath>
</defs>
</svg>
