<?xml version="1.0"?>
<svg xmlns="http://www.w3.org/2000/svg" xmlns:xlink="http://www.w3.org/1999/xlink" xmlns:svgjs="http://svgjs.com/svgjs" version="1.1" width="512" height="512" x="0" y="0" viewBox="0 0 512 512" style="enable-background:new 0 0 512 512" xml:space="preserve" class=""><g><path xmlns="http://www.w3.org/2000/svg" d="m256 0c-141.164062 0-256 114.835938-256 256s114.835938 256 256 256 256-114.835938 256-256-114.835938-256-256-256zm0 0" fill="#4175df" data-original="#4caf50" style="" class=""/><path xmlns="http://www.w3.org/2000/svg" d="m277.332031 273.40625v67.925781c0 11.777344-9.535156 21.335938-21.332031 21.335938s-21.332031-9.558594-21.332031-21.335938v-67.925781c-24.769531-8.832031-42.667969-32.296875-42.667969-60.074219 0-35.285156 28.714844-64 64-64s64 28.714844 64 64c0 27.777344-17.898438 51.242188-42.667969 60.074219zm0 0" fill="#fafafa" data-original="#fafafa" style="" class=""/></g></svg>
