<svg id="Layer_1" enable-background="new 0 0 140 140" height="512" viewBox="0 0 140 140" width="512" xmlns="http://www.w3.org/2000/svg"><g><g><path d="m94.1730728 40.097332-6.3544006-14.8000565-12.394722 3.9374847c-1.4747009-1.774292-3.1142578-3.3748379-4.8937073-4.7766361l3.6161728-12.4863234-14.9585228-5.971962-5.9775581 11.5435686c-2.2555695-.2092266-4.5466003-.1778736-6.8377838.0929337l-6.2749825-11.3911866-14.8001118 6.3544206 3.9375076 12.3947792c-1.774292 1.4747028-3.3748608 3.1142063-4.7765789 4.8936882l-12.4863557-3.6160964-5.9720421 14.9584884 11.5435991 5.9774818c-.2091446 2.2556-.1778488 4.5466537.0929585 6.8378372l-11.3911305 6.2749596 6.3543968 14.8000603 12.3947239-3.9374924c1.4747028 1.7742996 3.1142616 3.3748398 4.8937111 4.7766418l-3.6161518 12.4863739 14.9585228 5.971962 5.9775581-11.5435638c2.2555695.2092285 4.5465736.1778183 6.8377571-.0929871l6.2750092 11.391243 14.8001137-6.3544235-3.9375381-12.3948364c1.7742996-1.4747009 3.3748932-3.114151 4.7766113-4.893631l12.486351 3.6160965 5.9720459-14.9584885-11.5436249-5.9775391c.2091446-2.2556.1778488-4.5466537-.0929565-6.8378372zm-34.4821014 32.1956291c-12.1966515 5.2366257-26.3290253-.4055939-31.5656281-12.6021919s.4055424-26.3290024 12.6021957-31.56563 26.3290253.4055977 31.5656281 12.6021938-.4055405 26.3290024-12.6021957 31.5656281z" fill="#f05262"/></g><g><circle cx="50.209" cy="50.209" fill="#f05262" r="14.019"/></g><g><path d="m63.0915985 44.6780624c-1.1989746-2.7924194-3.2036133-4.984436-5.6192627-6.4464111.8479004 1.0172729 1.5700684 2.1673584 2.1192627 3.4464111 3.0546875 7.1146851-.2365723 15.3585815-7.3513184 18.413269-4.3222656 1.8557739-9.0550537 1.3579712-12.7941895-.9049072 3.8684082 4.6412354 10.4584961 6.4104614 16.2941895 3.9049072 7.1147461-3.0546874 10.4060059-11.2985839 7.3513184-18.413269z" fill="#d54957"/></g><g><g><path d="m134.0001068 110.0331116v-10.62426l-8.5373688-.8389816c-.4321136-1.4592056-1.0093613-2.8560028-1.7231216-4.1687393l5.441246-6.6271439-7.5125351-7.5124893-6.627182 5.4412003c-1.3126984-.7137985-2.7094955-1.291008-4.1687012-1.723114l-.8389816-8.5374146h-10.6243057l-.838974 8.5374146c-1.4592133.432106-2.8560104 1.0093155-4.1687012 1.723114l-6.6271896-5.4412003-7.5125275 7.5124893 5.4412384 6.6271439c-.7137604 1.3127365-1.291008 2.7095337-1.723114 4.1687393l-8.5373688.8389816v10.6242599l8.5373688.8389816c.432106 1.4592133 1.0093536 2.8560104 1.723114 4.1687469l-5.4412384 6.627182 7.5125275 7.5124893 6.6271896-5.4412003c1.3126907.7137985 2.7094879 1.2909698 4.1687012 1.7230759l.838974 8.5374451h10.6243057l.8389816-8.5374451c1.4592056-.432106 2.8560028-1.0092773 4.1687012-1.7230759l6.627182 5.4412003 7.5125351-7.5124893-5.441246-6.627182c.7137604-1.3127365 1.291008-2.7095337 1.7231216-4.1687469zm-29.2787933 10.5408935c-8.7554016 0-15.8529968-7.097641-15.8529968-15.8529968s7.0975952-15.8529968 15.8529968-15.8529968 15.8529968 7.0976334 15.8529968 15.8529968-7.0975952 15.8529968-15.8529968 15.8529968z" fill="#68a6df"/></g><g><circle cx="104.721" cy="104.721" fill="#68a6df" r="9.248"/><path d="m104.7217255 114.9685898c-5.6503906 0-10.2480469-4.597168-10.2480469-10.2475586s4.5976563-10.2475586 10.2480469-10.2475586 10.2470703 4.597168 10.2470703 10.2475586-4.5966797 10.2475586-10.2470703 10.2475586zm0-18.4951172c-4.5478516 0-8.2480469 3.699707-8.2480469 8.2475586s3.7001953 8.2475586 8.2480469 8.2475586 8.2470703-3.699707 8.2470703-8.2475586-3.6992188-8.2475586-8.2470703-8.2475586z" fill="#231f20"/></g><g><path d="m104.7212372 86.6400986c-9.9857178 0-18.0808105 8.0950928-18.0808105 18.0808716 0 9.9858398 8.0950928 18.0809326 18.0808105 18.0809326 9.9858398 0 18.0810547-8.0950928 18.0810547-18.0809326 0-9.9857789-8.0952149-18.0808716-18.0810547-18.0808716zm0 33.9338989c-8.7553711 0-15.8529053-7.0976563-15.8529053-15.8530273 0-8.7553101 7.0975342-15.8529663 15.8529053-15.8529663 8.7554932 0 15.8530273 7.0976563 15.8530273 15.8529663 0 8.755371-7.0975342 15.8530273-15.8530273 15.8530273z" fill="#5c94c6"/></g><g><path d="m110.0332489 134.9998322h-10.6240234c-.5146484 0-.9453125-.3901367-.9951172-.9023438l-.7744141-7.8784103c-1.0751953-.3530273-2.1191406-.7841797-3.1152344-1.2871094l-6.1152344 5.0214767c-.3984375.3256836-.9775391.2983398-1.3417969-.065918l-7.5126953-7.5126877c-.3642578-.3637695-.3925781-.9438477-.0654297-1.3417969l5.0205078-6.1152344c-.5029297-.9970703-.9335938-2.0400391-1.2871094-3.1152344l-7.8779297-.7744141c-.5117188-.050293-.9023438-.4804688-.9023438-.9951172v-10.6240232c0-.5141602.390625-.9448242.9023438-.9951172l7.8779297-.7744141c.3535156-1.0756836.7851563-2.1191406 1.2871094-3.1157227l-5.0205078-6.1152344c-.3271484-.3979492-.2988281-.9780273.0654297-1.3417969l7.5126953-7.512207c.3642578-.3642578.9433594-.3911133 1.3417969-.065918l6.1152344 5.0209961c.9980469-.503418 2.0410156-.934082 3.1152344-1.2871094l.7744141-7.8779297c.0498047-.512207.4804688-.9023438.9951172-.9023438h10.6240234c.5146484 0 .9453125.3901367.9951172.9023438l.7744141 7.8779297c1.0732422.3525391 2.1171875.7836914 3.1152344 1.2871094l6.1152344-5.0209961c.3974609-.3251953.9775391-.2983398 1.3417969.065918l7.5126953 7.512207c.3642578.3637695.3925781.9438477.0654297 1.3417969l-5.0205078 6.1152344c.5019531.996582.9335938 2.0400391 1.2871094 3.1157227l7.8779297.7744141c.5117188.050293.9023438.480957.9023438.9951172v10.6240234c0 .5146484-.390625.9448242-.9023438.9951172l-7.8779297.7744141c-.3535156 1.0751953-.7841797 2.1181641-1.2871094 3.1152344l5.0205078 6.1152344c.3271484.3979492.2988281.9780273-.0654297 1.3417969l-7.5126953 7.5126877c-.3642578.3642578-.9443359.3916016-1.3417969.065918l-6.1152344-5.0209885c-.9970703.5024414-2.0400391.9335938-3.1152344 1.2866211l-.7744141 7.8784103c-.0498047.5122069-.4804688.9023437-.9951172.9023437zm-9.7177734-2h8.8115234l.75-7.6352463c.0400391-.4052734.3212891-.7456055.7109375-.8613281 1.390625-.4111328 2.7275391-.9638672 3.9755859-1.6425781.3554688-.1938477.7978516-.1533203 1.1123047.1054688l5.9257813 4.8662109 6.2304688-6.2304688-4.8652344-5.9262695c-.2587891-.3149414-.3007813-.7548828-.1064453-1.1123047.6787109-1.2480469 1.2314453-2.5854492 1.6435547-3.9755859.1162109-.3901367.4560547-.6713867.8613281-.7109375l7.6347656-.7504883v-8.8105469l-7.6347656-.7509766c-.4052734-.0395508-.7451172-.3208008-.8613281-.7109375-.4121094-1.3911133-.9648438-2.7285156-1.6435547-3.9746094-.1943359-.3579102-.1523438-.7978516.1064453-1.112793l4.8652344-5.9267578-6.2304688-6.2299805-5.9257813 4.8657227c-.3134766.2583008-.7548828.3007813-1.1123047.1054688-1.25-.6791992-2.5878906-1.2319336-3.9746094-1.6420898-.390625-.1152344-.671875-.4560547-.7119141-.8613281l-.75-7.6352539h-8.8115234l-.75 7.6352539c-.0400391.4052734-.3212891.7456055-.7119141.8613281-1.3876953.4106445-2.7255859.9633789-3.9746094 1.6420898-.3564453.1948242-.7978516.1518555-1.1123047-.1054688l-5.9257813-4.8657227-6.2304688 6.2299805 4.8652344 5.9267578c.2587891.3149414.3007813.7548828.1064453 1.112793-.6787109 1.2460938-1.2314453 2.5834961-1.6435547 3.9746094-.1162109.3901367-.4560547.6713867-.8613281.7109375l-7.6347656.7509766v8.8105469l7.6347656.7504883c.4052734.0395508.7451172.3208008.8613281.7109375.4121094 1.3901367.9648438 2.7275391 1.6435547 3.9755859.1943359.3574219.1523438.7973633-.1064453 1.1123047l-4.8652344 5.9262695 6.2304688 6.2304688 5.9257813-4.8662109c.3154297-.2583008.7568359-.2988281 1.1123047-.1054688 1.2470703.6782227 2.5839844 1.230957 3.9755859 1.6425781.3896484.1157227.6708984.4560547.7109375.8613281zm33.6845703-22.9667893h.0097656zm-29.2783203 11.5410156c-9.2929688 0-16.8535156-7.5600586-16.8535156-16.8530273s7.5605469-16.8530273 16.8535156-16.8530273 16.8525391 7.5600586 16.8525391 16.8530273-7.5595704 16.8530273-16.8525391 16.8530273zm0-31.7060547c-8.1904297 0-14.8535156 6.6630859-14.8535156 14.8530273s6.6630859 14.8530273 14.8535156 14.8530273c8.1894531 0 14.8525391-6.6630859 14.8525391-14.8530273s-6.663086-14.8530273-14.8525391-14.8530273z" fill="#231f20"/></g></g><g><path d="m76.1223602 39.0832748c-6.1445312-14.3114624-22.727539-20.9319458-37.0388183-14.7873535-14.3115234 6.1445923-20.9320068 22.727478-14.7873535 37.0388794 6.1445313 14.3114014 22.727417 20.9319458 37.0388184 14.7873535 14.3115234-6.1445922 20.9318847-22.727478 14.7873534-37.0388794zm-16.4313965 33.2096558c-12.1966553 5.2366333-26.3291016-.4055786-31.5656738-12.6021729s.4055176-26.3289795 12.6022949-31.5656128c12.1965332-5.2366333 26.3289795.4055786 31.5656738 12.6021729 5.2365723 12.1965942-.4056396 26.3289795-12.6022949 31.5656128z" fill="#d54957"/></g><g><path d="m41.2305145 95.4182968c-.1240234 0-.25-.0229492-.3710938-.0712891l-14.9580078-5.972168c-.4775391-.190918-.7324219-.7128906-.5898438-1.2070313l3.4316406-11.8461914c-1.4589844-1.1982422-2.8271484-2.5341797-4.0810547-3.9833984l-11.7597656 3.7358398c-.4892578.1552734-1.0185547-.0849609-1.2216797-.5585938l-6.3544917-14.800293c-.203125-.4726563-.0136719-1.0224609.4365234-1.2705078l10.8076172-5.9536133c-.1875-1.90625-.2138672-3.8188477-.078125-5.7016602l-10.9521483-5.6708982c-.4570313-.2368164-.6591797-.78125-.46875-1.2587891l5.9716792-14.9584961c.1904297-.4775391.7089844-.7348633 1.2070313-.5898438l11.8466797 3.4311523c1.1992188-1.4589844 2.5351563-2.8271484 3.984375-4.0800781l-3.7363281-11.7602549c-.1552734-.4902344.0859375-1.0185547.5585938-1.2216797l14.7998047-6.3544922c.4707031-.2026367 1.0214844-.0151367 1.2705078.4365234l5.953125 10.8081064c1.90625-.1875 3.8193359-.2138672 5.7011719-.0786133l5.671875-10.9521494c.2363281-.4570313.7832031-.6582031 1.2587891-.46875l14.9589844 5.972168c.4775391.190918.7324219.7128906.5898438 1.2070313l-3.4316409 11.8466809c1.4580078 1.1982422 2.8261719 2.5336914 4.0800781 3.9829102l11.7597656-3.7358398c.4912109-.1542969 1.0195313.0859375 1.2216797.5585938l6.3544922 14.800293c.203125.4726563.0136719 1.0224609-.4365234 1.2705078l-10.8076172 5.9536131c.1875 1.90625.2138672 3.8183594.078125 5.7011719l10.953125 5.6713867c.4570313.2368164.6591797.78125.46875 1.2587891l-5.9726563 14.9584961c-.1904297.4770508-.7109375.734375-1.2070313.5898438l-11.8466797-3.4306641c-1.1982422 1.4580078-2.5341797 2.8261719-3.9833984 4.0795898l3.7363281 11.7602539c.1552734.4902344-.0859375 1.0185547-.5585938 1.2216797l-14.7998047 6.3544922c-.4697266.2021484-1.0224609.015625-1.2705078-.4365234l-5.9541014-10.8081056c-1.9042969.1870117-3.8183594.2138672-5.7011719.0786133l-5.671875 10.9521484c-.1757812.3408204-.524414.5400391-.8876953.5400391zm-13.7451172-7.5649414 13.2744141 5.300293 5.5605469-10.7387695c.1865234-.3608398.5761719-.5756836.9794922-.5356445 2.1855469.203125 4.4140625.1713867 6.6289063-.0908203.4013672-.0415039.796875.1547852.9931641.5107422l5.8378906 10.5976563 13.1337891-5.6391602-3.6630859-11.53125c-.1230469-.3876953.0009766-.8115234.3144531-1.0717773 1.7167969-1.4272461 3.2744141-3.0229492 4.6298828-4.7431641.2519531-.3198242.6728516-.456543 1.0634766-.3417969l11.6152344 3.3637695 5.3007813-13.2744141-10.7392578-5.5605469c-.3613281-.1875-.5732422-.5751953-.5361328-.9804688.2021484-2.1806641.171875-4.4106445-.0898438-6.628418-.0478516-.4038086.1542969-.796875.5107422-.9931641l10.5966797-5.8374023-5.6396484-13.1342773-11.5302734 3.6630859c-.3857422.1240234-.8115234-.0004883-1.0722656-.3139648-1.4267578-1.7172852-3.0224609-3.2753906-4.7431641-4.6298828-.3193359-.2519531-.4550781-.6728516-.3417969-1.0639648l3.3642578-11.6152353-13.2753906-5.300293-5.5605472 10.7387705c-.1865234.3613281-.5722656.5751953-.9794922.5356445-2.1806641-.2021484-4.4091797-.171875-6.6289063.0908203-.3964844.0454102-.7958984-.1538086-.9931641-.5107422l-5.8369139-10.5976572-13.1337891 5.6391602 3.6630859 11.531251c.1230469.3876953-.0009766.8115234-.3144531 1.0717773-1.7158203 1.4267578-3.2744141 3.0224609-4.6308594 4.7436523-.2519531.3203125-.6748047.4555664-1.0634766.3413086l-11.6152344-3.3637695-5.2998041 13.274414 10.7392573 5.5605469c.3613281.1875.5732422.5751953.5361328.980957-.203125 2.1801758-.1728516 4.4101563.0898438 6.6274414.0478516.4042969-.1542969.7973633-.5107422.9936523l-10.5976558 5.8374024 5.639648 13.1342773 11.5302734-3.6630859c.3857422-.1220703.8125.0009766 1.0712891.3139648 1.4287109 1.7177734 3.0244141 3.2753906 4.7451172 4.6298828.3193359.2519531.4550781.6728516.3417969 1.0639648zm22.7587891-12.6113281c-9.7109375 0-18.9697266-5.6826172-23.0380859-15.1567383-5.4453125-12.684082.4433594-27.4331055 13.1269531-32.8789063 6.1435547-2.637207 12.9482422-2.7255859 19.1582031-.246582 6.2099609 2.4794922 11.0830078 7.2285156 13.7207031 13.3730469 5.4453125 12.684082-.4423828 27.4335938-13.1259766 32.8789063-3.2099609 1.3779296-6.5517577 2.0302734-9.8417968 2.0302734zm-.0390625-48.0786133c-3.0839844 0-6.1640625.6274414-9.0830078 1.8808594-11.6699219 5.0102539-17.0888672 18.581543-12.078125 30.2519531 5.0117188 11.6704102 18.5830078 17.0854492 30.2529297 12.0776367 11.6699219-5.0102539 17.0878906-18.5810547 12.0771484-30.2519531-2.4267578-5.6533203-6.9101563-10.0234375-12.625-12.3041992-2.7626953-1.1035156-5.6552734-1.6542969-8.5439453-1.6542969z" fill="#231f20"/></g><g><path d="m50.2119598 65.2366562c-1.8837891 0-3.7695313-.359375-5.5712891-1.0786133-3.7255859-1.487793-6.6494141-4.3369141-8.2324219-8.0234375-3.2675781-7.6098633.265625-16.4589844 7.875-19.7265625 7.6103516-3.2680664 16.4609375.2661133 19.7275391 7.8754883 3.2675781 7.6098633-.265625 16.4589844-7.8759766 19.7265625-1.9033202.8168945-3.9121093 1.2265625-5.9228515 1.2265625zm-.0205078-28.046875c-1.7119141 0-3.4492188.3393555-5.1191406 1.0561523-6.5957031 2.8320313-9.6582031 10.5029297-6.8261719 17.0996094 1.3720703 3.1953125 3.90625 5.6655273 7.1357422 6.9550781 3.2304688 1.2890625 6.7675781 1.2436523 9.9638672-.128418 6.5966797-2.8325195 9.6591797-10.503418 6.8271484-17.0996094-2.1152343-4.9267577-6.930664-7.8828124-11.9814453-7.8828124z" fill="#231f20"/></g><g><ellipse cx="45" cy="46.125" fill="#f697a1" rx="2.75" ry="2.625"/></g></g></svg>