<svg width="22" height="22" viewBox="0 0 22 22" fill="none" xmlns="http://www.w3.org/2000/svg">
<circle cx="10.9468" cy="10.732" r="10.5992" fill="#48B9FF" fill-opacity="0.2"/>
<path d="M8.50503 11.4681L8.50497 11.4681L8.51097 11.4742L11.465 14.4423C11.6571 14.6353 11.6572 14.9468 11.4655 15.14C11.4653 15.1401 11.4652 15.1403 11.465 15.1404L9.9157 16.6837L9.91448 16.6849C9.72345 16.8769 9.41666 16.877 9.22545 16.6854C9.22531 16.6852 9.22517 16.6851 9.22503 16.6849L3.54483 10.9508L3.54417 10.9501C3.35201 10.7571 3.35194 10.4454 3.54397 10.2522C3.54404 10.2521 3.5441 10.2521 3.54417 10.252L9.23807 4.5444L9.2384 4.54406C9.42957 4.35198 9.73667 4.35198 9.92785 4.54406L11.465 6.08857C11.6572 6.2817 11.6572 6.59355 11.465 6.78669L11.4644 6.78733L8.51097 9.76825C8.51084 9.76838 8.5107 9.76852 8.51057 9.76865C8.04501 10.2369 8.05355 10.9947 8.50503 11.4681ZM10.5751 10.2654L10.5757 10.2648L13.4623 7.35103C13.4624 7.35091 13.4625 7.35078 13.4627 7.35066C13.6539 7.15894 13.9607 7.15907 14.1517 7.35103L14.7399 7.94197C14.9321 8.13511 14.9321 8.44695 14.7399 8.64009L13.4433 9.94285C13.0741 10.3138 13.0741 10.9018 13.4433 11.2727L14.7399 12.5755C14.9321 12.7686 14.9321 13.0805 14.7399 13.2736L14.1517 13.8645C13.9606 14.0566 13.6535 14.0566 13.4623 13.8645L10.5751 10.9636C10.3829 10.7704 10.3829 10.4586 10.5751 10.2654ZM16.7238 9.23129L16.7238 9.23134L16.7291 9.22589C16.9191 9.02758 17.2179 9.02758 17.408 9.22589L17.4079 9.22594L17.4132 9.23129L18.4558 10.2789C18.6481 10.472 18.6481 10.7839 18.4558 10.977L17.4132 12.0246C17.2221 12.2167 16.915 12.2167 16.7238 12.0246L15.6812 10.977C15.489 10.7839 15.489 10.472 15.6812 10.2789L16.7238 9.23129Z" stroke="#1F3C87" stroke-width="0.8"/>
</svg>
