<svg xml:space="preserve" width="802" height="800" xmlns="http://www.w3.org/2000/svg"><path d="M277.1 77.9c38.9-16 81.2-21.2 122.9-22.5 62.8.8 127.1 8.8 184.4 35.8 45 20.8 82.5 55.1 112.1 94.3-9.3-6.8-14.6-17.8-22.9-25.7-15.2-14.5-28.8-31.9-48.9-39.8-19.8-6.8-41.1-8.5-61.9-7.5-52.1 3.7-102.9 17.7-152 35.2-53.9 21.2-108.1 47.2-148.3 90.1-8 8-12.7 18.6-20.5 26.7-18.4-12.5-36.3-27.4-47.2-47.1-.5-1-1.6-3.1-2.1-4.2 33.8-15.8 66.7-35.2 92.6-62.4 13.4-14.5 25.9-34.8 19-55.1-4.1-11.7-17.5-13.2-27.2-17.8m144.4 405.9c50.5 18.6 101.5 35.8 153.2 50.7 45.3 12.3 91.6 24.3 138.8 24-4.9 11.9-10.7 23.4-17.3 34.4a541.51 541.51 0 0 0-118.7 54.8c-22.8 14.9-46 31.5-59.4 55.8-5.4 9.5-5.5 20.7-2.6 30.9-.6.7-1.8 2-2.3 2.7-16.2 4.2-33.1 13.2-50 6.7-28.3-9.1-51.6-29.1-71.1-50.8-23.8-28.2-43.3-62.5-45.7-100-.7-35.3 21.3-66.1 47.1-88.1 8.8-7.6 18.5-14.3 28-21.1z" style="fill:#2845ad"/><path d="M245.7 80c10.3-2.5 20.9-1.1 31.4-2 9.7 4.6 23.1 6.1 27.2 17.7 6.8 20.3-5.6 40.6-19 55.1-25.9 27.2-58.8 46.6-92.6 62.4.5 1 1.5 3.1 2.1 4.2-3.9-2.7-8.7-1.2-12.6.6-25.7 11.5-52.5 20.5-80 27-10.6 2.2-21.3 4.5-32.2 3.3 0-6.3 4.4-11.3 7-16.7 26-47.1 62-88 105.4-119.9 19.2-13.8 39.4-28.3 63.3-31.7m165.1 67.7c49-17.5 99.8-31.5 152-35.2 20.8-1 42.1.7 61.9 7.5 20.1 8 33.7 25.4 48.9 39.8 8.3 7.9 13.6 19 22.9 25.7 4.8 2.4 6.5 8.4 9.9 12.4 69.4 98.2 85.9 231.2 42.9 343.5-4.2 15-23 15.6-35.8 17.1-47.3.3-93.5-11.7-138.8-24-51.7-14.9-102.7-32.1-153.2-50.7-47.7-18.8-94.1-42.1-134.1-74.5-25-21.4-48.2-48.2-54.5-81.4-4.2-17.3-1.6-35.5 4.9-51.8 1.6-3.8 4.2-7.4 4.2-11.6 7.9-8.1 12.5-18.7 20.5-26.7 40.2-42.9 94.4-68.9 148.3-90.1M53.4 283.5l2 .8c15 18.3 30.3 36.5 45.4 54.6 31.8 36.4 59 76.4 84.5 117.4 35.7 55 67.7 115.3 74.2 181.5.6 35.7.8 71.7-5 107.1-10.3 2.6-20.5-4-29.7-8-68.7-37-124.8-96.6-158.3-167.2-42.1-88.5-47.1-194.1-13.1-286.2m642.8 309.4c9.1-2.4 18.2-6 27.8-5.6 2.6 6.6-2.4 12.2-5.5 17.6-30.2 48.8-71.4 90.8-120.3 120.9-16.4 10.3-33.9 21.7-54 20.7-9.6.7-18.9-3.4-26-9.7-1.2.1-3.8.3-5 .4.6-.7 1.8-2 2.3-2.7-2.8-10.2-2.7-21.5 2.6-30.9 13.4-24.3 36.6-40.9 59.4-55.8 37.2-23.1 77.1-41.5 118.7-54.9z" style="fill:#5494f8"/><path style="fill:none" d="M2 1h800v800H2z"/></svg>