<svg width="33" height="33" fill="none" xmlns="http://www.w3.org/2000/svg"><mask id="a" fill="#fff"><path d="M16.39.656C7.7.656.656 7.7.656 16.39c0 8.69 7.044 15.734 15.734 15.734 8.69 0 15.734-7.045 15.734-15.734C32.124 7.7 25.079.656 16.39.656Zm6.4 12.888c.007.135.008.27.008.4 0 4.098-3.116 8.82-8.816 8.82a8.744 8.744 0 0 1-4.75-1.394c.241.03.489.041.74.041a6.206 6.206 0 0 0 3.848-1.326 3.106 3.106 0 0 1-2.895-2.15c.464.088.943.07 1.398-.054a3.102 3.102 0 0 1-2.486-3.039v-.037c.418.23.897.372 1.405.388a3.098 3.098 0 0 1-.96-4.14 8.811 8.811 0 0 0 6.388 3.24 3.099 3.099 0 0 1 5.28-2.827 6.224 6.224 0 0 0 1.968-.752 3.114 3.114 0 0 1-1.363 1.716 6.225 6.225 0 0 0 1.78-.49 6.286 6.286 0 0 1-1.545 1.604Z"/></mask><path d="M16.39.656C7.7.656.656 7.7.656 16.39c0 8.69 7.044 15.734 15.734 15.734 8.69 0 15.734-7.045 15.734-15.734C32.124 7.7 25.079.656 16.39.656Zm6.4 12.888c.007.135.008.27.008.4 0 4.098-3.116 8.82-8.816 8.82a8.744 8.744 0 0 1-4.75-1.394c.241.03.489.041.74.041a6.206 6.206 0 0 0 3.848-1.326 3.106 3.106 0 0 1-2.895-2.15c.464.088.943.07 1.398-.054a3.102 3.102 0 0 1-2.486-3.039v-.037c.418.23.897.372 1.405.388a3.098 3.098 0 0 1-.96-4.14 8.811 8.811 0 0 0 6.388 3.24 3.099 3.099 0 0 1 5.28-2.827 6.224 6.224 0 0 0 1.968-.752 3.114 3.114 0 0 1-1.363 1.716 6.225 6.225 0 0 0 1.78-.49 6.286 6.286 0 0 1-1.545 1.604Z" fill="white" stroke="white" stroke-width="2" mask="url(#a)"/></svg>