<svg width="18" height="31" viewBox="0 0 18 31" fill="none" xmlns="http://www.w3.org/2000/svg">
<path d="M7.79095 26.2115C6.45262 26.1872 5.15079 26.0777 3.88545 25.883C2.62012 25.664 1.59812 25.372 0.819453 25.007V21.9045C1.64679 22.2938 2.70529 22.6345 3.99495 22.9265C5.28462 23.2185 6.54995 23.3767 7.79095 23.401V16.028C5.38195 15.371 3.61779 14.5437 2.49845 13.546C1.37912 12.5483 0.819453 11.1857 0.819453 9.458C0.819453 7.65733 1.43995 6.246 2.68095 5.224C3.94629 4.202 5.64962 3.63017 7.79095 3.5085V0.296498H10.127V3.472C11.4166 3.49633 12.5846 3.64233 13.631 3.91C14.7016 4.15333 15.675 4.4575 16.551 4.8225L15.5655 7.5235C14.7868 7.20717 13.923 6.9395 12.974 6.7205C12.0493 6.47717 11.1003 6.319 10.127 6.246V13.5825C11.733 14.0448 13.0713 14.5437 14.142 15.079C15.2126 15.59 16.0156 16.2348 16.551 17.0135C17.1106 17.7678 17.3905 18.7533 17.3905 19.97C17.3905 21.6733 16.7578 23.0603 15.4925 24.131C14.2271 25.1773 12.4386 25.8222 10.127 26.0655V30.117H7.79095V26.2115ZM7.79095 6.319C6.47695 6.41633 5.50362 6.7205 4.87095 7.2315C4.26262 7.7425 3.95845 8.3995 3.95845 9.2025C3.95845 10.1758 4.22612 10.9302 4.76145 11.4655C5.32112 11.9765 6.33095 12.4145 7.79095 12.7795V6.319ZM10.127 23.2185C11.5626 23.0725 12.609 22.744 13.266 22.233C13.923 21.6977 14.2515 21.0163 14.2515 20.189C14.2515 19.2643 13.9595 18.5708 13.3755 18.1085C12.7915 17.6218 11.7086 17.1838 10.127 16.7945V23.2185Z" fill="#1F3C87"/>
</svg>
