<svg width="31" height="30" viewBox="0 0 31 30" fill="none" xmlns="http://www.w3.org/2000/svg">
<g clip-path="url(#clip0)">
<path d="M26.4771 7.61584H4.52285C2.02832 7.61584 0 9.64552 0 12.1417V25.065C0 27.5612 2.02832 29.5909 4.52285 29.5909H26.4832C28.9777 29.5909 31.0061 27.5612 31.0061 25.065V12.1417C31 9.64552 28.9717 7.61584 26.4771 7.61584ZM29.7104 25.065C29.7104 26.8463 28.2633 28.2943 26.4832 28.2943H4.52285C2.74277 28.2943 1.2957 26.8463 1.2957 25.065V12.1417C1.2957 10.3605 2.74277 8.91242 4.52285 8.91242H26.4832C28.2633 8.91242 29.7104 10.3605 29.7104 12.1417V25.065Z" fill="#bdc4d3"/>
<path d="M25.1875 16.6676C24.1219 16.6676 23.25 17.5401 23.25 18.6064C23.25 19.6727 24.1219 20.5452 25.1875 20.5452C26.2531 20.5452 27.125 19.6727 27.125 18.6064C27.125 17.5401 26.2531 16.6676 25.1875 16.6676ZM25.1875 19.2486C24.8303 19.2486 24.5396 18.9578 24.5396 18.6003C24.5396 18.2429 24.8303 17.9521 25.1875 17.9521C25.5447 17.9521 25.8354 18.2429 25.8354 18.6003C25.8354 18.9578 25.5447 19.2486 25.1875 19.2486Z" fill="#bdc4d3"/>
<path d="M30.3525 14.0804H25.1879C22.6934 14.0804 20.665 16.1101 20.665 18.6063C20.665 21.1025 22.6934 23.1322 25.1879 23.1322H30.3525C30.7098 23.1322 31.0004 22.8414 31.0004 22.4839V14.7287C31.0004 14.3713 30.7098 14.0804 30.3525 14.0804ZM29.7107 21.8356H25.1879C23.4078 21.8356 21.9607 20.3876 21.9607 18.6063C21.9607 16.8251 23.4078 15.377 25.1879 15.377H29.7107V21.8356Z" fill="#bdc4d3"/>
<path d="M26.411 7.97338L23.6742 2.50233C23.1233 1.39964 22.1727 0.587772 20.9981 0.21213C19.8235 -0.157454 18.5762 -0.0423377 17.4924 0.539302L4.21448 7.69468C3.89964 7.86432 3.7846 8.25814 3.95413 8.56714C4.12366 8.88219 4.51721 8.99731 4.826 8.82766L18.1039 1.6844C18.8789 1.26635 19.769 1.18153 20.6106 1.44811C21.4522 1.7147 22.1303 2.29634 22.5239 3.08397L25.2606 8.55502C25.3756 8.77919 25.5996 8.91249 25.8358 8.91249C25.9326 8.91249 26.0295 8.88825 26.1264 8.84584C26.4412 8.68225 26.5684 8.2945 26.411 7.97338Z" fill="#bdc4d3"/>
<path d="M23.8188 2.78689C23.6492 2.47184 23.2557 2.35672 22.9408 2.52031L13.3502 7.69447C13.0354 7.86412 12.9203 8.25794 13.0899 8.56693C13.2049 8.78505 13.4289 8.90622 13.659 8.90622C13.7619 8.90622 13.8709 8.88199 13.9678 8.82746L23.5645 3.65935C23.8733 3.49576 23.9883 3.10195 23.8188 2.78689Z" fill="#bdc4d3"/>
<path d="M11.625 3.73853H7.10215C3.19082 3.73853 0 6.93148 0 10.8515V12.142C0 12.4995 0.290625 12.7903 0.647852 12.7903C1.00508 12.7903 1.2957 12.4995 1.2957 12.142V10.8515C1.2957 7.64642 3.90527 5.0351 7.1082 5.0351H11.625C11.9822 5.0351 12.2729 4.74428 12.2729 4.38681C12.2729 4.02935 11.9822 3.73853 11.625 3.73853Z" fill="#bdc4d3"/>
<path d="M23.8979 3.73853C23.5406 3.73853 23.25 4.02935 23.25 4.38681C23.25 4.74428 23.5406 5.0351 23.8979 5.0351C27.1008 5.0351 29.7104 7.64642 29.7104 10.8515V12.142C29.7104 12.4995 30.001 12.7903 30.3582 12.7903C30.7154 12.7903 31.0061 12.4995 31.0061 12.142V10.8515C31 6.93148 27.8092 3.73853 23.8979 3.73853Z" fill="#bdc4d3"/>
</g>
<defs>
<clipPath id="clip0">
<rect width="31" height="29.5909" fill="white"/>
</clipPath>
</defs>
</svg>
