<?xml version="1.0"?>
<svg xmlns="http://www.w3.org/2000/svg" xmlns:xlink="http://www.w3.org/1999/xlink" xmlns:svgjs="http://svgjs.com/svgjs" version="1.1" width="512" height="512" x="0" y="0" viewBox="0 0 24 24" style="enable-background:new 0 0 512 512" xml:space="preserve" class=""><g><path xmlns="http://www.w3.org/2000/svg" d="m19.298 21h-16.596c-1.49 0-2.702-1.208-2.702-2.691v-12.618c0-1.483 1.212-2.691 2.702-2.691h16.596c1.49 0 2.702 1.208 2.702 2.691v12.617c0 1.484-1.212 2.692-2.702 2.692z" fill="#4086f4" data-original="#cfd8dc" style="" class=""/><path xmlns="http://www.w3.org/2000/svg" d="m22.333 16h-5.833c-1.93 0-3.5-1.57-3.5-3.5s1.57-3.5 3.5-3.5h5.833c.919 0 1.667.748 1.667 1.667v3.667c0 .918-.748 1.666-1.667 1.666z" fill="#ffffff" data-original="#607d8b" style="" class=""/><path xmlns="http://www.w3.org/2000/svg" d="m17.5 12.5c0 .552-.448 1-1 1s-1-.448-1-1 .448-1 1-1 1 .448 1 1z" fill="#42a5f5" data-original="#42a5f5" style="" class=""/><path xmlns="http://www.w3.org/2000/svg" d="m13.005 12.684h-13.005v5.625c0 1.483 1.212 2.691 2.702 2.691h16.596c1.49 0 2.702-1.208 2.702-2.691v-2.309h-5.5c-1.868 0-3.399-1.472-3.495-3.316z" fill="#3a6edc" data-original="#b4bcc0" style="" class=""/><path xmlns="http://www.w3.org/2000/svg" d="m24 12.684h-6.517c-.086.464-.493.816-.983.816s-.897-.352-.983-.816h-2.512c.096 1.844 1.627 3.316 3.495 3.316h5.5.333c.919 0 1.667-.748 1.667-1.667z" fill="#efefef" data-original="#546d79" style="" class=""/><path xmlns="http://www.w3.org/2000/svg" d="m17.483 12.684h-1.966c.086.464.493.816.983.816s.897-.352.983-.816z" fill="#3990d5" data-original="#3990d5" style="" class=""/></g></svg>
