<svg width="230" height="206" viewBox="0 0 230 206" fill="none" xmlns="http://www.w3.org/2000/svg">
<circle cx="115.803" cy="102.554" r="102.554" fill="#48B9FF" fill-opacity="0.2"/>
<g clip-path="url(#clip0)">
<path d="M155.545 75.8862H77.7975C68.9636 75.8862 61.7806 83.121 61.7806 92.0186V138.083C61.7806 146.981 68.9636 154.216 77.7975 154.216H155.566C164.4 154.216 171.583 146.981 171.583 138.083V92.0186C171.562 83.121 164.379 75.8862 155.545 75.8862ZM166.995 138.083C166.995 144.433 161.87 149.594 155.566 149.594H77.7975C71.4937 149.594 66.3691 144.433 66.3691 138.083V92.0186C66.3691 85.6693 71.4937 80.5078 77.7975 80.5078H155.566C161.87 80.5078 166.995 85.6693 166.995 92.0186V138.083Z" fill="#1F3C87"/>
<path d="M150.978 108.151C147.204 108.151 144.116 111.261 144.116 115.062C144.116 118.863 147.204 121.972 150.978 121.972C154.751 121.972 157.839 118.863 157.839 115.062C157.839 111.261 154.751 108.151 150.978 108.151ZM150.978 117.351C149.713 117.351 148.683 116.314 148.683 115.04C148.683 113.766 149.713 112.729 150.978 112.729C152.243 112.729 153.272 113.766 153.272 115.04C153.272 116.314 152.243 117.351 150.978 117.351Z" fill="#1F3C87"/>
<path d="M169.267 98.9292H150.978C142.144 98.9292 134.961 106.164 134.961 115.062C134.961 123.959 142.144 131.194 150.978 131.194H169.267C170.532 131.194 171.562 130.157 171.562 128.883V101.24C171.562 99.9658 170.532 98.9292 169.267 98.9292ZM166.994 126.572H150.978C144.674 126.572 139.549 121.411 139.549 115.062C139.549 108.712 144.674 103.551 150.978 103.551H166.994V126.572Z" fill="#1F3C87"/>
<path d="M155.309 77.1615L145.617 57.6601C143.666 53.7296 140.299 50.8357 136.14 49.4967C131.98 48.1794 127.563 48.5897 123.725 50.6629L76.7036 76.168C75.5887 76.7727 75.1813 78.1765 75.7816 79.2779C76.382 80.4009 77.7757 80.8112 78.8692 80.2065L125.891 54.7446C128.635 53.2545 131.787 52.9521 134.767 53.9024C137.748 54.8526 140.149 56.9258 141.543 59.7333L151.235 79.2347C151.642 80.0338 152.435 80.5089 153.272 80.5089C153.615 80.5089 153.958 80.4225 154.301 80.2713C155.416 79.6882 155.866 78.3061 155.309 77.1615Z" fill="#1F3C87"/>
<path d="M146.132 58.6735C145.531 57.5505 144.137 57.1402 143.022 57.7233L109.059 76.1664C107.944 76.7711 107.537 78.1748 108.137 79.2763C108.544 80.0537 109.338 80.4856 110.153 80.4856C110.517 80.4856 110.903 80.3993 111.246 80.2049L145.231 61.7833C146.324 61.2002 146.732 59.7965 146.132 58.6735Z" fill="#1F3C87"/>
<path d="M102.949 62.0659H86.9316C73.0804 62.0659 61.7806 73.4471 61.7806 87.4199V92.0198C61.7806 93.294 62.8098 94.3306 64.0749 94.3306C65.3399 94.3306 66.3691 93.294 66.3691 92.0198V87.4199C66.3691 75.9955 75.6105 66.6875 86.9531 66.6875H102.949C104.214 66.6875 105.243 65.6509 105.243 64.3767C105.243 63.1025 104.214 62.0659 102.949 62.0659Z" fill="#1F3C87"/>
<path d="M146.411 62.0659C145.146 62.0659 144.116 63.1025 144.116 64.3767C144.116 65.6509 145.146 66.6875 146.411 66.6875C157.753 66.6875 166.995 75.9955 166.995 87.4199V92.0198C166.995 93.294 168.024 94.3306 169.289 94.3306C170.554 94.3306 171.583 93.294 171.583 92.0198V87.4199C171.562 73.4471 160.262 62.0659 146.411 62.0659Z" fill="#1F3C87"/>
</g>
<path d="M200.45 35.2695C200.927 35.2695 201.384 35.4625 201.721 35.8059C202.058 36.1493 202.248 36.6152 202.248 37.1008V48.0887H213.032C213.509 48.0887 213.966 48.2817 214.303 48.6251C214.64 48.9685 214.829 49.4343 214.829 49.92C214.829 50.4057 214.64 50.8715 214.303 51.215C213.966 51.5584 213.509 51.7514 213.032 51.7514H202.248V62.7392C202.248 63.2249 202.058 63.6907 201.721 64.0342C201.384 64.3776 200.927 64.5705 200.45 64.5705C199.973 64.5705 199.516 64.3776 199.179 64.0342C198.842 63.6907 198.653 63.2249 198.653 62.7392V51.7514H187.868C187.392 51.7514 186.934 51.5584 186.597 51.215C186.26 50.8715 186.071 50.4057 186.071 49.92C186.071 49.4343 186.26 48.9685 186.597 48.6251C186.934 48.2817 187.392 48.0887 187.868 48.0887H198.653V37.1008C198.653 36.6152 198.842 36.1493 199.179 35.8059C199.516 35.4625 199.973 35.2695 200.45 35.2695Z" fill="#1F3C87"/>
<path d="M33.5201 145.674C34.0757 145.674 34.6086 145.895 35.0015 146.288C35.3944 146.681 35.6151 147.214 35.6151 147.769V160.34H48.1853C48.7409 160.34 49.2738 160.56 49.6667 160.953C50.0596 161.346 50.2803 161.879 50.2803 162.435C50.2803 162.99 50.0596 163.523 49.6667 163.916C49.2738 164.309 48.7409 164.53 48.1853 164.53H35.6151V177.1C35.6151 177.655 35.3944 178.188 35.0015 178.581C34.6086 178.974 34.0757 179.195 33.5201 179.195C32.9645 179.195 32.4316 178.974 32.0387 178.581C31.6458 178.188 31.4251 177.655 31.4251 177.1V164.53H18.8549C18.2993 164.53 17.7664 164.309 17.3735 163.916C16.9806 163.523 16.7599 162.99 16.7599 162.435C16.7599 161.879 16.9806 161.346 17.3735 160.953C17.7664 160.56 18.2993 160.34 18.8549 160.34H31.4251V147.769C31.4251 147.214 31.6458 146.681 32.0387 146.288C32.4316 145.895 32.9645 145.674 33.5201 145.674Z" fill="#1F3C87"/>
<defs>
<clipPath id="clip0">
<rect width="109.781" height="105.476" fill="white" transform="translate(61.7806 48.7397)"/>
</clipPath>
</defs>
</svg>
