<svg width="12" height="13" viewBox="0 0 12 13" fill="none" xmlns="http://www.w3.org/2000/svg">
<path d="M5.12442 2.3335C5.00731 2.61414 4.92465 2.90795 4.87825 3.2085H2.64583C2.38964 3.20851 2.14281 3.30485 1.95436 3.47839C1.7659 3.65194 1.64958 3.89 1.6285 4.14533L1.625 4.22933V8.16683H4.25C4.35572 8.16683 4.45787 8.20512 4.53754 8.27461C4.61722 8.3441 4.66904 8.44009 4.68342 8.54483L4.6875 8.60433C4.68687 8.94506 4.81878 9.27268 5.05533 9.51793C5.29187 9.76317 5.61452 9.90681 5.95506 9.91847C6.29559 9.93014 6.62731 9.80892 6.88009 9.58044C7.13287 9.35196 7.28689 9.03414 7.30958 8.69416L7.3125 8.60433C7.3125 8.49861 7.35079 8.39646 7.42028 8.31679C7.48977 8.23711 7.58576 8.18529 7.6905 8.17091L7.75 8.16683H10.375L10.3756 7.15591C10.6956 6.98909 10.9902 6.77755 11.2506 6.52766L11.25 10.9377C11.25 11.4219 11.0648 11.8878 10.7322 12.2398C10.3996 12.5918 9.94497 12.8032 9.4615 12.8306L9.35417 12.8335H2.64583C2.16159 12.8335 1.69568 12.6483 1.3437 12.3157C0.991714 11.9831 0.780333 11.5285 0.752917 11.045L0.75 10.9377V4.22933C0.749968 3.74508 0.93524 3.27918 1.26781 2.92719C1.60038 2.57521 2.05503 2.36383 2.5385 2.33641L2.64583 2.3335H5.12442ZM10.375 9.04183H8.14375C8.04674 9.51626 7.79514 9.94512 7.42833 10.2613C7.06152 10.5774 6.60022 10.763 6.11667 10.7889L6 10.7918C5.49574 10.7918 5.00697 10.6176 4.61634 10.2988C4.22571 9.97989 3.95721 9.53588 3.85625 9.04183H1.625V10.9377C1.62501 11.1939 1.72135 11.4407 1.8949 11.6291C2.06844 11.8176 2.30651 11.9339 2.56183 11.955L2.64583 11.9585H9.35417C9.61045 11.9585 9.85736 11.8621 10.0458 11.6884C10.2343 11.5147 10.3506 11.2765 10.3715 11.0211L10.375 10.9377V9.04183ZM8.625 0.583496C9.04632 0.583496 9.46352 0.666482 9.85278 0.827716C10.242 0.98895 10.5957 1.22527 10.8936 1.5232C11.1916 1.82112 11.4279 2.1748 11.5891 2.56405C11.7503 2.95331 11.8333 3.37051 11.8333 3.79183C11.8333 4.21315 11.7503 4.63035 11.5891 5.01961C11.4279 5.40886 11.1916 5.76254 10.8936 6.06046C10.5957 6.35839 10.242 6.59471 9.85278 6.75594C9.46352 6.91718 9.04632 7.00016 8.625 7.00016C7.7741 7.00016 6.95805 6.66214 6.35637 6.06046C5.75469 5.45878 5.41667 4.64273 5.41667 3.79183C5.41667 2.94093 5.75469 2.12487 6.35637 1.5232C6.95805 0.921516 7.7741 0.583496 8.625 0.583496ZM8.751 2.09375L8.71017 2.127L8.67692 2.16783C8.6433 2.21654 8.6253 2.27432 8.6253 2.3335C8.6253 2.39268 8.6433 2.45046 8.67692 2.49916L8.71017 2.54L9.67033 3.50016H6.58333L6.53083 3.50483C6.47256 3.51548 6.4189 3.54362 6.37701 3.58551C6.33512 3.6274 6.30698 3.68105 6.29633 3.73933L6.29167 3.79183L6.29633 3.84433C6.30698 3.90261 6.33512 3.95626 6.37701 3.99815C6.4189 4.04004 6.47256 4.06818 6.53083 4.07883L6.58333 4.0835H9.67033L8.71017 5.04366L8.67692 5.0845C8.6385 5.14064 8.62092 5.20845 8.62721 5.27619C8.6335 5.34393 8.66328 5.40734 8.71139 5.45544C8.75949 5.50355 8.8229 5.53332 8.89064 5.53962C8.95838 5.54591 9.02619 5.52833 9.08233 5.48991L9.12317 5.45666L10.6054 3.97033L10.6247 3.94233L10.6445 3.90325L10.6568 3.8665L10.6655 3.81866L10.6667 3.79183L10.6649 3.76091L10.6568 3.71716L10.6392 3.66875L10.6147 3.62558L10.5885 3.59291L9.12317 2.127L9.08233 2.09375C9.03363 2.06013 8.97585 2.04213 8.91667 2.04213C8.85749 2.04213 8.79971 2.06013 8.751 2.09375Z" fill="#48B9FF"/>
</svg>
