<svg width="50" height="50" viewBox="0 0 50 50" fill="none" xmlns="http://www.w3.org/2000/svg">
<circle cx="25" cy="25" r="25" fill="#F6F5F8"/>
<path d="M35.56 25.25C35.56 24.47 35.49 23.72 35.36 23H25V27.26H30.92C30.66 28.63 29.88 29.79 28.71 30.57V33.34H32.28C34.36 31.42 35.56 28.6 35.56 25.25Z" fill="#4285F4"/>
<path d="M24.9997 35.9996C27.9697 35.9996 30.4597 35.0196 32.2797 33.3396L28.7097 30.5696C27.7297 31.2296 26.4797 31.6296 24.9997 31.6296C22.1397 31.6296 19.7097 29.6996 18.8397 27.0996H15.1797V29.9396C16.9897 33.5296 20.6997 35.9996 24.9997 35.9996Z" fill="#34A853"/>
<path d="M18.84 27.0903C18.62 26.4303 18.49 25.7303 18.49 25.0003C18.49 24.2703 18.62 23.5703 18.84 22.9103V20.0703H15.18C14.43 21.5503 14 23.2203 14 25.0003C14 26.7803 14.43 28.4503 15.18 29.9303L18.03 27.7103L18.84 27.0903Z" fill="#FBBC05"/>
<path d="M24.9997 18.38C26.6197 18.38 28.0597 18.94 29.2097 20.02L32.3597 16.87C30.4497 15.09 27.9697 14 24.9997 14C20.6997 14 16.9897 16.47 15.1797 20.07L18.8397 22.91C19.7097 20.31 22.1397 18.38 24.9997 18.38Z" fill="#EA4335"/>
</svg>
