<svg width="50" height="50" viewBox="0 0 50 50" fill="none" xmlns="http://www.w3.org/2000/svg">
<circle cx="25" cy="25" r="25" fill="#F3F4FA"/>
<path d="M29.2322 14C29.2834 14 29.3346 14 29.3887 14C29.5142 15.5515 28.922 16.7108 28.2023 17.5503C27.4961 18.384 26.5291 19.1926 24.9651 19.0699C24.8607 17.5406 25.4539 16.4673 26.1727 15.6297C26.8392 14.8492 28.0613 14.1546 29.2322 14Z" fill="#11121C"/>
<path d="M33.9671 30.1482C33.9671 30.1636 33.9671 30.1772 33.9671 30.1917C33.5275 31.5229 32.9005 32.6638 32.1354 33.7226C31.4369 34.6838 30.581 35.9774 29.0527 35.9774C27.7321 35.9774 26.8549 35.1282 25.5015 35.105C24.0698 35.0818 23.2825 35.8151 21.9735 35.9996C21.8237 35.9996 21.674 35.9996 21.5271 35.9996C20.5659 35.8605 19.7902 35.0992 19.225 34.4133C17.5586 32.3865 16.2708 29.7685 16.0312 26.4182C16.0312 26.0898 16.0312 25.7623 16.0312 25.4338C16.1327 23.0361 17.2977 21.0866 18.8463 20.1418C19.6636 19.6394 20.7871 19.2115 22.0382 19.4027C22.5743 19.4858 23.1221 19.6694 23.6022 19.851C24.0572 20.0259 24.6263 20.336 25.1653 20.3195C25.5305 20.3089 25.8937 20.1186 26.2618 19.9843C27.3399 19.595 28.3968 19.1487 29.7898 19.3583C31.464 19.6114 32.6522 20.3553 33.3865 21.503C31.9702 22.4043 30.8506 23.7626 31.0418 26.0821C31.2119 28.189 32.4368 29.4217 33.9671 30.1482Z" fill="#11121C"/>
</svg>
