<svg width="22" height="22" viewBox="0 0 22 22" fill="none" xmlns="http://www.w3.org/2000/svg">
<g clip-path="url(#clip0_4888_47426)">
<path d="M19.4791 22.0006H2.52089C1.13028 22.0006 0 20.8703 0 19.4797V4.35471C0 2.9641 1.13028 1.83398 2.52089 1.83398H19.4791C20.8697 1.83398 22 2.9641 22 4.35471V19.4797C22 20.8703 20.8697 22.0006 19.4791 22.0006ZM2.52089 3.20898C1.88928 3.20898 1.375 3.7231 1.375 4.35471V19.4797C1.375 20.1113 1.88928 20.6256 2.52089 20.6256H19.4791C20.1107 20.6256 20.625 20.1113 20.625 19.4797V4.35471C20.625 3.7231 20.1107 3.20898 19.4791 3.20898H2.52089Z" fill="white"/>
<path d="M21.3125 8.70898H0.6875C0.307999 8.70898 0 8.40099 0 8.02148C0 7.64198 0.307999 7.33398 0.6875 7.33398H21.3125C21.692 7.33398 22 7.64198 22 8.02148C22 8.40099 21.692 8.70898 21.3125 8.70898Z" fill="white"/>
<path d="M5.27051 5.5C4.89101 5.5 4.58301 5.192 4.58301 4.8125V0.6875C4.58301 0.307999 4.89101 0 5.27051 0C5.65001 0 5.95801 0.307999 5.95801 0.6875V4.8125C5.95801 5.192 5.65001 5.5 5.27051 5.5Z" fill="white"/>
<path d="M16.7295 5.5C16.35 5.5 16.042 5.192 16.042 4.8125V0.6875C16.042 0.307999 16.35 0 16.7295 0C17.109 0 17.417 0.307999 17.417 0.6875V4.8125C17.417 5.192 17.109 5.5 16.7295 5.5Z" fill="white"/>
</g>
<defs>
<clipPath id="clip0_4888_47426">
<rect width="22" height="22" fill="white"/>
</clipPath>
</defs>
</svg>
