<svg width="48" height="48" viewBox="0 0 48 48" fill="none" xmlns="http://www.w3.org/2000/svg">
<rect width="48" height="48" rx="24" fill="#F6F5F8"/>
<path d="M22.2593 16.6668C23.4166 15.5327 25.0017 14.8335 26.75 14.8335C30.2939 14.8335 33.1667 17.7063 33.1667 21.2502C33.1667 22.9986 32.4674 24.5836 31.3333 25.741M27.6667 26.7502C27.6667 30.294 24.7939 33.1668 21.25 33.1668C17.7062 33.1668 14.8334 30.294 14.8334 26.7502C14.8334 23.2063 17.7062 20.3335 21.25 20.3335C24.7939 20.3335 27.6667 23.2063 27.6667 26.7502Z" stroke="#FCFDFD" stroke-width="1.4" stroke-linecap="round" stroke-linejoin="round"/>
<path d="M22.2593 16.6668C23.4166 15.5327 25.0017 14.8335 26.75 14.8335C30.2939 14.8335 33.1667 17.7063 33.1667 21.2502C33.1667 22.9986 32.4674 24.5836 31.3333 25.741M27.6667 26.7502C27.6667 30.294 24.7939 33.1668 21.25 33.1668C17.7062 33.1668 14.8334 30.294 14.8334 26.7502C14.8334 23.2063 17.7062 20.3335 21.25 20.3335C24.7939 20.3335 27.6667 23.2063 27.6667 26.7502Z" stroke="#11121C" stroke-width="1.4" stroke-linecap="round" stroke-linejoin="round"/>
</svg>
