<svg width="86" height="26" viewBox="0 0 86 26" fill="none" xmlns="http://www.w3.org/2000/svg">
<rect width="86" height="26" fill="#1E1E1E"/>
<g id="Group 48099123">
<g id="Group 48099121">
<g id="Autonomous earning" clip-path="url(#clip0_0_1)">
<rect width="1366" height="2372" transform="translate(-340 -549)" fill="#F6F5F8"/>
<g id="Group 48098639">
<g id="Group 48098637">
<g id="Group 48098442">
<g id="Group 48098319">
<rect id="Rectangle 4542" x="-34" y="-88" width="656" height="559" rx="20" fill="#FCFDFD"/>
</g>
<g id="Group 48097036">
<rect id="Rectangle 1449" x="-2" y="-2" width="592" height="30" rx="15" fill="#F6F5F8"/>
<g id="Group 48097032">
<rect id="Rectangle 1448" width="86" height="26" rx="13" fill="#77CE9F"/>
<g id="Mask group">
<mask id="mask0_0_1" style="mask-type:alpha" maskUnits="userSpaceOnUse" x="0" y="0" width="86" height="26">
<rect id="Rectangle 1450" width="86" height="26" rx="13" fill="white"/>
</mask>
<g mask="url(#mask0_0_1)">
<rect id="Rectangle 4496" x="-0.0625" y="-10.707" width="5" height="40" transform="rotate(-15 -0.0625 -10.707)" fill="#070707" fill-opacity="0.1"/>
<rect id="Rectangle 4497" x="9" y="-10.707" width="5" height="40" transform="rotate(-15 9 -10.707)" fill="#070707" fill-opacity="0.1"/>
<rect id="Rectangle 4498" x="18.0625" y="-10.707" width="5" height="40" transform="rotate(-15 18.0625 -10.707)" fill="#070707" fill-opacity="0.1"/>
<rect id="Rectangle 4499" x="27.125" y="-10.707" width="5" height="40" transform="rotate(-15 27.125 -10.707)" fill="#070707" fill-opacity="0.1"/>
<rect id="Rectangle 4500" x="36.1875" y="-10.707" width="5" height="40" transform="rotate(-15 36.1875 -10.707)" fill="#070707" fill-opacity="0.1"/>
<rect id="Rectangle 4501" x="45.25" y="-10.707" width="5" height="40" transform="rotate(-15 45.25 -10.707)" fill="#070707" fill-opacity="0.1"/>
<rect id="Rectangle 4502" x="54.3125" y="-10.707" width="5" height="40" transform="rotate(-15 54.3125 -10.707)" fill="#070707" fill-opacity="0.1"/>
<rect id="Rectangle 4503" x="63.375" y="-10.707" width="5" height="40" transform="rotate(-15 63.375 -10.707)" fill="#070707" fill-opacity="0.1"/>
<rect id="Rectangle 4504" x="72.4375" y="-10.707" width="5" height="40" transform="rotate(-15 72.4375 -10.707)" fill="#070707" fill-opacity="0.1"/>
</g>
</g>
</g>
</g>
</g>
</g>
</g>
<g id="Sidebars">
<mask id="path-14-inside-1_0_1" fill="white">
<path d="M-340 -549H-94V1823H-340V-549Z"/>
</mask>
<path d="M-340 -549H-94V1823H-340V-549Z" fill="#FCFDFD"/>
<path d="M-95 -549V1823H-93V-549H-95Z" fill="#F2F2F2" mask="url(#path-14-inside-1_0_1)"/>
</g>
</g>
</g>
</g>
<defs>
<clipPath id="clip0_0_1">
<rect width="1366" height="2372" fill="white" transform="translate(-340 -549)"/>
</clipPath>
</defs>
</svg>
