<svg width="86" height="16" viewBox="0 0 86 16" fill="none" xmlns="http://www.w3.org/2000/svg">
<rect width="86" height="16" fill="#1E1E1E"/>
<g id="Group 48099123">
<g id="Group 48099121">
<g id="Autonomous earning" clip-path="url(#clip0_0_1)">
<rect width="360" height="2968" transform="translate(-46 -1072)" fill="#F6F5F8"/>
<g id="Group 48099094">
<g id="Group 48098784">
<rect id="Rectangle 4543" x="-22" y="-70" width="312" height="522" rx="20" fill="#FCFDFD"/>
<g id="Frame 48098735">
<g id="Group 48098629">
<rect id="Rectangle 1449" x="-2" y="-2" width="272" height="20" rx="10" fill="#F6F5F8"/>
<g id="Group 48097032">
<rect id="Rectangle 1448" y="0.5" width="86" height="15" rx="7.5" fill="#4FA677"/>
<g id="Mask group">
<mask id="mask0_0_1" style="mask-type:alpha" maskUnits="userSpaceOnUse" x="0" y="0" width="86" height="16">
<rect id="Rectangle 1450" y="0.5" width="86" height="15" rx="7.5" fill="white"/>
</mask>
<g mask="url(#mask0_0_1)">
<rect id="Rectangle 4496" width="4.97968" height="37.6727" transform="matrix(0.969867 -0.243633 0.274808 0.961499 -0.0625 -9.53662)" fill="#070707" fill-opacity="0.1"/>
<rect id="Rectangle 4497" width="4.97968" height="37.6727" transform="matrix(0.969867 -0.243633 0.274808 0.961499 9 -9.53662)" fill="#070707" fill-opacity="0.1"/>
<rect id="Rectangle 4498" width="4.97968" height="37.6727" transform="matrix(0.969867 -0.243633 0.274808 0.961499 18.0625 -9.53662)" fill="#070707" fill-opacity="0.1"/>
<rect id="Rectangle 4499" width="4.97968" height="37.6727" transform="matrix(0.969867 -0.243633 0.274808 0.961499 27.125 -9.53662)" fill="#070707" fill-opacity="0.1"/>
<rect id="Rectangle 4500" width="4.97968" height="37.6727" transform="matrix(0.969867 -0.243633 0.274808 0.961499 36.1875 -9.53662)" fill="#070707" fill-opacity="0.1"/>
<rect id="Rectangle 4501" width="4.97968" height="37.6727" transform="matrix(0.969867 -0.243633 0.274808 0.961499 45.25 -9.53662)" fill="#070707" fill-opacity="0.1"/>
<rect id="Rectangle 4502" width="4.97968" height="37.6727" transform="matrix(0.969867 -0.243633 0.274808 0.961499 54.3125 -9.53662)" fill="#070707" fill-opacity="0.1"/>
<rect id="Rectangle 4503" width="4.97968" height="37.6727" transform="matrix(0.969867 -0.243633 0.274808 0.961499 63.375 -9.53662)" fill="#070707" fill-opacity="0.1"/>
<rect id="Rectangle 4504" width="4.97968" height="37.6727" transform="matrix(0.969867 -0.243633 0.274808 0.961499 72.4375 -9.53662)" fill="#070707" fill-opacity="0.1"/>
</g>
</g>
</g>
</g>
</g>
</g>
</g>
</g>
</g>
</g>
<defs>
<clipPath id="clip0_0_1">
<rect width="360" height="2968" fill="white" transform="translate(-46 -1072)"/>
</clipPath>
</defs>
</svg>
