<svg width="48" height="48" viewBox="0 0 48 48" fill="none" xmlns="http://www.w3.org/2000/svg">
<rect width="48" height="48" rx="24" fill="#F6F5F8"/>
<path d="M30.4167 17.5835L17.5834 30.4168M19.875 18.9585C19.875 19.4648 19.4646 19.8752 18.9584 19.8752C18.4521 19.8752 18.0417 19.4648 18.0417 18.9585C18.0417 18.4522 18.4521 18.0418 18.9584 18.0418C19.4646 18.0418 19.875 18.4522 19.875 18.9585ZM29.9584 29.0418C29.9584 29.5481 29.548 29.9585 29.0417 29.9585C28.5354 29.9585 28.125 29.5481 28.125 29.0418C28.125 28.5356 28.5354 28.1252 29.0417 28.1252C29.548 28.1252 29.9584 28.5356 29.9584 29.0418Z" stroke="#11121C" stroke-width="1.4" stroke-linecap="round" stroke-linejoin="round"/>
</svg>
