<svg width="22" height="22" viewBox="0 0 22 22" fill="none" xmlns="http://www.w3.org/2000/svg">
<path d="M17.4163 9.16699L4.58295 9.16699M17.4163 9.16699L19.1251 12.015C19.5081 12.6533 19.6995 12.9724 19.799 13.316C19.8871 13.6204 19.9219 13.9377 19.902 14.254C19.8794 14.611 19.7617 14.964 19.5263 15.6702L19.3358 16.2417C18.9752 17.3236 18.7949 17.8645 18.4604 18.2645C18.1651 18.6176 17.7858 18.891 17.3574 19.0595C16.8722 19.2503 16.302 19.2503 15.1616 19.2503L6.83762 19.2503C5.69722 19.2503 5.12702 19.2503 4.64185 19.0595C4.21342 18.891 3.83414 18.6176 3.5388 18.2645C3.20435 17.8645 3.02404 17.3236 2.66341 16.2417L2.4729 15.6702C2.23751 14.964 2.11982 14.611 2.09727 14.254C2.07729 13.9377 2.11212 13.6204 2.20024 13.316C2.29969 12.9724 2.49117 12.6533 2.87414 12.015L4.58295 9.16699M17.4163 9.16699L17.7988 7.82825C17.9801 7.19356 18.0708 6.87622 17.9996 6.62515C17.9372 6.40521 17.7948 6.21653 17.6005 6.09612C17.3787 5.95866 17.0486 5.95866 16.3885 5.95866L5.61068 5.95866C4.9506 5.95866 4.62055 5.95866 4.39871 6.09612C4.20438 6.21653 4.06206 6.40521 3.99967 6.62515C3.92844 6.87622 4.01911 7.19356 4.20045 7.82825L4.58295 9.16699M10.9996 5.95866H7.75854C7.28099 5.95866 6.82301 5.7655 6.48533 5.42169C6.14765 5.07787 5.95795 4.61156 5.95795 4.12533C5.95795 3.6391 6.14765 3.17278 6.48533 2.82896C6.82301 2.48515 7.28099 2.29199 7.75854 2.29199C10.2794 2.29199 10.9996 5.95866 10.9996 5.95866ZM10.9996 5.95866H14.2407C14.7182 5.95866 15.1762 5.7655 15.5139 5.42169C15.8516 5.07787 16.0413 4.61156 16.0413 4.12533C16.0413 3.6391 15.8516 3.17278 15.5139 2.82896C15.1762 2.48515 14.7182 2.29199 14.2407 2.29199C11.7199 2.29199 10.9996 5.95866 10.9996 5.95866Z" stroke="white" stroke-width="1.4" stroke-linecap="round" stroke-linejoin="round"/>
</svg>
