<svg width="22" height="22" viewBox="0 0 22 22" fill="none" xmlns="http://www.w3.org/2000/svg">
<path d="M18.3332 4.58398C18.3332 6.10277 15.0499 7.33398 10.9998 7.33398C6.94975 7.33398 3.6665 6.10277 3.6665 4.58398M18.3332 4.58398C18.3332 3.0652 15.0499 1.83398 10.9998 1.83398C6.94975 1.83398 3.6665 3.0652 3.6665 4.58398M18.3332 4.58398V17.4173C18.3332 18.9361 15.0499 20.1673 10.9998 20.1673C6.94975 20.1673 3.6665 18.9361 3.6665 17.4173V4.58398M18.3332 8.8617C18.3332 10.3805 15.0499 11.6117 10.9998 11.6117C6.94975 11.6117 3.6665 10.3805 3.6665 8.8617M18.3332 13.1365C18.3332 14.6553 15.0499 15.8865 10.9998 15.8865C6.94975 15.8865 3.6665 14.6553 3.6665 13.1365" stroke="white" stroke-width="1.4" stroke-linecap="round" stroke-linejoin="round"/>
</svg>
