<svg width="18" height="18" viewBox="0 0 18 18" fill="none" xmlns="http://www.w3.org/2000/svg">
<path d="M17.7287 11.1771C16.5267 15.9986 11.6433 18.9329 6.82127 17.7306C2.00125 16.5285 -0.933006 11.6449 0.269537 6.82378C1.47102 2.00177 6.3544 -0.932704 11.175 0.269311C15.9966 1.47133 18.9307 6.35553 17.7286 11.1772L17.7287 11.1771H17.7287Z" fill="#50AF95"/>
<path fill-rule="evenodd" clip-rule="evenodd" d="M10.1376 10.0206C10.0739 10.0254 9.74513 10.045 9.0117 10.045C8.42835 10.045 8.01417 10.0275 7.86886 10.0206C5.61448 9.92143 3.93178 9.529 3.93178 9.05914C3.93178 8.58928 5.61448 8.19737 7.86886 8.09661V9.62976C8.01629 9.64037 8.43842 9.66529 9.02177 9.66529C9.72179 9.66529 10.0723 9.63612 10.1354 9.63029V8.09767C12.385 8.1979 14.064 8.59034 14.064 9.05914C14.064 9.52794 12.3856 9.92037 10.1354 10.0201L10.1376 10.0206ZM10.1387 7.93913V6.5672H13.2782V4.4751H4.73051V6.5672H7.86946V7.9386C5.3181 8.0558 3.39941 8.5612 3.39941 9.16682C3.39941 9.77244 5.3181 10.2773 7.86946 10.395V14.7914H10.1382V10.3934C12.6837 10.2762 14.5992 9.77138 14.5992 9.16629C14.5992 8.5612 12.6853 8.05633 10.1382 7.9386L10.1387 7.93913Z" fill="white"/>
</svg>
