<svg width="22" height="22" viewBox="0 0 22 22" fill="none" xmlns="http://www.w3.org/2000/svg">
<path d="M11.0002 13.75C8.09428 13.75 5.51009 15.1531 3.86485 17.3305C3.51075 17.7991 3.3337 18.0334 3.33949 18.3501C3.34397 18.5948 3.4976 18.9034 3.69011 19.0545C3.93928 19.25 4.28457 19.25 4.97515 19.25H17.0252C17.7158 19.25 18.0611 19.25 18.3103 19.0545C18.5028 18.9034 18.6564 18.5948 18.6609 18.3501C18.6667 18.0334 18.4896 17.7991 18.1355 17.3305C16.4903 15.1531 13.9061 13.75 11.0002 13.75Z" stroke="white" stroke-width="1.4" stroke-linecap="round" stroke-linejoin="round"/>
<path d="M11.0002 11C13.2784 11 15.1252 9.15317 15.1252 6.875C15.1252 4.59683 13.2784 2.75 11.0002 2.75C8.72201 2.75 6.87519 4.59683 6.87519 6.875C6.87519 9.15317 8.72201 11 11.0002 11Z" stroke="white" stroke-width="1.4" stroke-linecap="round" stroke-linejoin="round"/>
</svg>
