<svg width="48" height="48" viewBox="0 0 48 48" fill="none" xmlns="http://www.w3.org/2000/svg">
<rect width="48" height="48" rx="24" fill="#F6F5F8"/>
<path d="M30.4166 22.1665L17.5833 22.1665M30.4166 22.1665L32.1255 25.0145C32.5084 25.6528 32.6999 25.9719 32.7994 26.3155C32.8875 26.6199 32.9223 26.9373 32.9023 27.2535C32.8798 27.6105 32.7621 27.9635 32.5267 28.6697L32.3362 29.2412C31.9756 30.3231 31.7952 30.8641 31.4608 31.264C31.1655 31.6172 30.7862 31.8905 30.3577 32.059C29.8726 32.2498 29.3024 32.2498 28.162 32.2498L19.838 32.2498C18.6976 32.2498 18.1274 32.2498 17.6422 32.059C17.2138 31.8905 16.8345 31.6172 16.5392 31.264C16.2047 30.8641 16.0244 30.3231 15.6638 29.2412L15.4733 28.6697C15.2379 27.9635 15.1202 27.6105 15.0976 27.2535C15.0777 26.9372 15.1125 26.6199 15.2006 26.3155C15.3001 25.9719 15.4915 25.6528 15.8745 25.0145L17.5833 22.1665M30.4166 22.1665L30.7991 20.8278C30.9805 20.1931 31.0712 19.8757 30.9999 19.6247C30.9375 19.4047 30.7952 19.216 30.6009 19.0956C30.379 18.9582 30.049 18.9582 29.3889 18.9582L18.611 18.9582C17.951 18.9582 17.6209 18.9582 17.3991 19.0956C17.2047 19.216 17.0624 19.4047 17 19.6247C16.9288 19.8757 17.0195 20.1931 17.2008 20.8278L17.5833 22.1665M24 18.9582H20.7589C20.2814 18.9582 19.8234 18.765 19.4857 18.4212C19.148 18.0774 18.9583 17.6111 18.9583 17.1248C18.9583 16.6386 19.148 16.1723 19.4857 15.8285C19.8234 15.4847 20.2814 15.2915 20.7589 15.2915C23.2797 15.2915 24 18.9582 24 18.9582ZM24 18.9582H27.2411C27.7186 18.9582 28.1766 18.765 28.5143 18.4212C28.8519 18.0774 29.0416 17.6111 29.0416 17.1248C29.0416 16.6386 28.8519 16.1723 28.5143 15.8285C28.1766 15.4847 27.7186 15.2915 27.2411 15.2915C24.7202 15.2915 24 18.9582 24 18.9582Z" stroke="#11121C" stroke-width="1.4" stroke-linecap="round" stroke-linejoin="round"/>
</svg>
