<svg width="50" height="50" viewBox="0 0 50 50" fill="none" xmlns="http://www.w3.org/2000/svg">
<circle cx="25" cy="25" r="25" fill="#F3F4FA"/>
<path d="M25 25.916C25.5063 25.916 25.9167 25.5056 25.9167 24.9993C25.9167 24.4931 25.5063 24.0827 25 24.0827C24.4938 24.0827 24.0834 24.4931 24.0834 24.9993C24.0834 25.5056 24.4938 25.916 25 25.916Z" stroke="#11121C" stroke-width="1.4" stroke-linecap="round" stroke-linejoin="round"/>
<path d="M25 19.4993C25.5063 19.4993 25.9167 19.0889 25.9167 18.5827C25.9167 18.0764 25.5063 17.666 25 17.666C24.4938 17.666 24.0834 18.0764 24.0834 18.5827C24.0834 19.0889 24.4938 19.4993 25 19.4993Z" stroke="#11121C" stroke-width="1.4" stroke-linecap="round" stroke-linejoin="round"/>
<path d="M25 32.3327C25.5063 32.3327 25.9167 31.9223 25.9167 31.416C25.9167 30.9098 25.5063 30.4993 25 30.4993C24.4938 30.4993 24.0834 30.9098 24.0834 31.416C24.0834 31.9223 24.4938 32.3327 25 32.3327Z" stroke="#11121C" stroke-width="1.4" stroke-linecap="round" stroke-linejoin="round"/>
</svg>
