<svg width="65" height="32" viewBox="0 0 65 32" fill="none" xmlns="http://www.w3.org/2000/svg">
<rect x="0.5" y="0.5" width="64" height="31" rx="15.5" stroke="#F2F2F2"/>
<circle cx="16" cy="16" r="9" fill="#070707" fill-opacity="0.1"/>
<path d="M31.3397 16.058C31.3397 15.0127 31.517 14.1167 31.8717 13.37C32.2357 12.614 32.7537 12.0307 33.4257 11.62C34.107 11.2093 34.9237 11.004 35.8757 11.004C36.7997 11.004 37.6023 11.2093 38.2837 11.62C38.965 12.0307 39.4877 12.614 39.8517 13.37C40.225 14.1167 40.4117 15.008 40.4117 16.044C40.4117 17.0893 40.225 17.99 39.8517 18.746C39.4783 19.502 38.951 20.09 38.2697 20.51C37.5977 20.9207 36.7997 21.126 35.8757 21.126C34.9237 21.126 34.1117 20.9207 33.4397 20.51C32.7677 20.09 32.2497 19.502 31.8857 18.746C31.5217 17.99 31.3397 17.094 31.3397 16.058ZM32.5577 16.058C32.5577 17.3273 32.8377 18.3213 33.3977 19.04C33.9577 19.7493 34.7837 20.104 35.8757 20.104C36.921 20.104 37.733 19.7493 38.3117 19.04C38.8997 18.3213 39.1937 17.3273 39.1937 16.058C39.1937 14.7793 38.9043 13.79 38.3257 13.09C37.747 12.3807 36.9303 12.026 35.8757 12.026C34.7837 12.026 33.9577 12.3807 33.3977 13.09C32.8377 13.79 32.5577 14.7793 32.5577 16.058ZM42.7561 21V14.854H41.3841V13.972H43.0641L42.7561 14.266V13.09C42.7561 12.2967 42.9568 11.69 43.3581 11.27C43.7595 10.85 44.3335 10.64 45.0801 10.64C45.2668 10.64 45.4581 10.6587 45.6541 10.696C45.8595 10.724 46.0275 10.766 46.1581 10.822V11.76C46.0461 11.7133 45.9061 11.676 45.7381 11.648C45.5795 11.6107 45.4161 11.592 45.2481 11.592C44.9588 11.592 44.7115 11.6527 44.5061 11.774C44.3008 11.886 44.1468 12.0587 44.0441 12.292C43.9415 12.5253 43.8901 12.824 43.8901 13.188V14.21L43.7081 13.972H45.8501V14.854H43.8901V21H42.7561ZM47.2679 21V14.854H45.8959V13.972H47.5759L47.2679 14.266V13.09C47.2679 12.2967 47.4685 11.69 47.8699 11.27C48.2712 10.85 48.8452 10.64 49.5919 10.64C49.7785 10.64 49.9699 10.6587 50.1659 10.696C50.3712 10.724 50.5392 10.766 50.6699 10.822V11.76C50.5579 11.7133 50.4179 11.676 50.2499 11.648C50.0912 11.6107 49.9279 11.592 49.7599 11.592C49.4705 11.592 49.2232 11.6527 49.0179 11.774C48.8125 11.886 48.6585 12.0587 48.5559 12.292C48.4532 12.5253 48.4019 12.824 48.4019 13.188V14.21L48.2199 13.972H50.3619V14.854H48.4019V21H47.2679Z" fill="#070707" fill-opacity="0.4"/>
</svg>
