<svg width="50" height="50" viewBox="0 0 50 50" fill="none" xmlns="http://www.w3.org/2000/svg">
<circle cx="25" cy="25" r="25" fill="#F3F4FA"/>
<path d="M17.562 21.1348C17.1828 21.1348 16.8611 21.267 16.5967 21.5314C16.3322 21.7959 16.2 22.1132 16.2 22.4836V28.1703C16.2 28.5499 16.3322 28.8713 16.5967 29.1358C16.8611 29.4003 17.1828 29.5326 17.562 29.5326C17.9409 29.5326 18.2606 29.4003 18.521 29.1358C18.7808 28.8714 18.9111 28.5499 18.9111 28.1703V22.4836C18.9111 22.1132 18.7789 21.7959 18.5144 21.5314C18.2499 21.267 17.9324 21.1348 17.562 21.1348Z" fill="#11121C"/>
<path d="M28.5281 16.0232L29.4671 14.2911C29.5287 14.1764 29.5068 14.0884 29.4011 14.0266C29.2864 13.9733 29.1982 14.0003 29.1366 14.1058L28.1845 15.8518C27.3467 15.4814 26.4606 15.2958 25.5262 15.2958C24.5916 15.2958 23.7054 15.4814 22.868 15.8518L21.9158 14.1058C21.8539 14.0003 21.7658 13.9735 21.6513 14.0266C21.5454 14.0887 21.5235 14.1764 21.5854 14.2911L22.5244 16.0232C21.5722 16.5088 20.8139 17.1851 20.2497 18.0534C19.6854 18.9223 19.4032 19.8718 19.4032 20.9036H31.636C31.636 19.8721 31.3537 18.9225 30.7895 18.0534C30.2252 17.1851 29.4712 16.5088 28.5281 16.0232ZM23.0993 18.5427C22.9977 18.6445 22.8765 18.6952 22.7355 18.6952C22.5942 18.6952 22.4754 18.6445 22.3785 18.5427C22.2816 18.4414 22.2331 18.3206 22.2331 18.1791C22.2331 18.0382 22.2816 17.9171 22.3785 17.8156C22.4754 17.7143 22.5945 17.6636 22.7355 17.6636C22.8765 17.6636 22.9977 17.7143 23.0993 17.8156C23.2006 17.9174 23.2515 18.0382 23.2515 18.1791C23.2512 18.3204 23.2004 18.4414 23.0993 18.5427ZM28.6734 18.5427C28.5763 18.6445 28.4572 18.6952 28.3165 18.6952C28.1752 18.6952 28.0539 18.6445 27.9526 18.5427C27.8511 18.4414 27.8004 18.3206 27.8004 18.1791C27.8004 18.0382 27.8511 17.9171 27.9526 17.8156C28.0539 17.7143 28.1752 17.6636 28.3165 17.6636C28.4575 17.6636 28.5763 17.7143 28.6734 17.8156C28.7705 17.9174 28.8188 18.0382 28.8188 18.1791C28.8188 18.3204 28.7704 18.4414 28.6734 18.5427Z" fill="#11121C"/>
<path d="M19.4032 30.179C19.4032 30.5849 19.5442 30.9285 19.8262 31.2105C20.1084 31.4925 20.452 31.6335 20.8577 31.6335H21.8364L21.8498 34.6359C21.8498 35.015 21.982 35.337 22.2465 35.6015C22.5109 35.866 22.8285 35.9982 23.1987 35.9982C23.5776 35.9982 23.8995 35.866 24.164 35.6015C24.4285 35.337 24.5607 35.0151 24.5607 34.6359V31.6338H26.3857V34.6359C26.3857 35.015 26.5179 35.337 26.7823 35.6015C27.0468 35.866 27.3685 35.9982 27.7477 35.9982C28.1266 35.9982 28.4485 35.866 28.713 35.6015C28.9775 35.337 29.1097 35.0151 29.1097 34.6359V31.6338H30.1016C30.4983 31.6338 30.8375 31.4928 31.12 31.2108C31.4019 30.9288 31.543 30.5852 31.543 30.1792V21.3711H19.4032V30.179Z" fill="#11121C"/>
<path d="M33.4778 21.1348C33.1074 21.1348 32.7901 21.265 32.5256 21.5249C32.2611 21.7852 32.1289 22.1049 32.1289 22.4836V28.1703C32.1289 28.5499 32.2611 28.8713 32.5256 29.1358C32.7901 29.4003 33.1076 29.5326 33.4778 29.5326C33.8567 29.5326 34.1786 29.4003 34.4431 29.1358C34.7076 28.8713 34.8398 28.5499 34.8398 28.1703V22.4836C34.8398 22.1049 34.7076 21.7852 34.4431 21.5249C34.1786 21.265 33.8567 21.1348 33.4778 21.1348Z" fill="#11121C"/>
</svg>
