<svg width="50" height="50" viewBox="0 0 50 50" fill="none" xmlns="http://www.w3.org/2000/svg">
<circle cx="25" cy="25" r="25" fill="#F6F5F8"/>
<path d="M28.8471 15C28.8936 15 28.9401 15 28.9893 15C29.1035 16.4104 28.5651 17.4643 27.9109 18.2275C27.2689 18.9854 26.3898 19.7205 24.9679 19.609C24.8731 18.2187 25.4123 17.243 26.0657 16.4816C26.6717 15.772 27.7826 15.1405 28.8471 15Z" fill="#11121C"/>
<path d="M33.1529 29.68C33.1529 29.694 33.1529 29.7063 33.1529 29.7195C32.7533 30.9297 32.1834 31.9669 31.4878 32.9295C30.8528 33.8033 30.0747 34.9793 28.6854 34.9793C27.4848 34.9793 26.6874 34.2073 25.457 34.1862C24.1554 34.1651 23.4397 34.8317 22.2497 34.9995C22.1135 34.9995 21.9774 34.9995 21.8439 34.9995C20.9701 34.873 20.2649 34.1809 19.7511 33.5574C18.2361 31.7149 17.0655 29.3348 16.8477 26.2891C16.8477 25.9905 16.8477 25.6928 16.8477 25.3942C16.9399 23.2144 17.999 21.4422 19.4068 20.5833C20.1498 20.1266 21.1712 19.7375 22.3085 19.9114C22.7959 19.9869 23.2939 20.1538 23.7304 20.3189C24.144 20.4779 24.6613 20.7598 25.1513 20.7449C25.4833 20.7352 25.8135 20.5622 26.1481 20.4401C27.1283 20.0862 28.089 19.6804 29.3555 19.871C30.8774 20.1011 31.9577 20.7773 32.6251 21.8207C31.3376 22.6401 30.3197 23.8749 30.4936 25.9835C30.6482 27.8989 31.7618 29.0196 33.1529 29.68Z" fill="#11121C"/>
</svg>
