<svg width="40" height="40" viewBox="0 0 40 40" fill="none" xmlns="http://www.w3.org/2000/svg">
<circle cx="20" cy="20" r="20" fill="#F6F5F8"/>
<path d="M12 14.3333C12 13.8666 12 13.6333 12.0908 13.455C12.1707 13.2982 12.2982 13.1707 12.455 13.0908C12.6333 13 12.8666 13 13.3333 13H27.3333C27.8 13 28.0334 13 28.2117 13.0908C28.3685 13.1707 28.4959 13.2982 28.5758 13.455C28.6667 13.6333 28.6667 13.8666 28.6667 14.3333V14.8912C28.6667 15.1152 28.6667 15.2272 28.6393 15.3313C28.615 15.4236 28.5751 15.511 28.5213 15.5898C28.4605 15.6787 28.3758 15.752 28.2066 15.8987L22.8768 20.5179C22.7075 20.6646 22.6229 20.738 22.5621 20.8269C22.5082 20.9056 22.4683 20.9931 22.444 21.0854C22.4167 21.1895 22.4167 21.3015 22.4167 21.5255V25.882C22.4167 26.0449 22.4167 26.1264 22.3904 26.1969C22.3672 26.2591 22.3294 26.3149 22.2802 26.3596C22.2246 26.4102 22.1489 26.4404 21.9976 26.501L19.1643 27.6343C18.858 27.7568 18.7048 27.8181 18.5819 27.7925C18.4744 27.7702 18.38 27.7063 18.3194 27.6148C18.25 27.5101 18.25 27.3452 18.25 27.0153V21.5255C18.25 21.3015 18.25 21.1895 18.2226 21.0854C18.1984 20.9931 18.1584 20.9056 18.1046 20.8269C18.0438 20.738 17.9592 20.6646 17.7899 20.5179L12.4601 15.8987C12.2908 15.752 12.2062 15.6787 12.1454 15.5898C12.0916 15.511 12.0516 15.4236 12.0274 15.3313C12 15.2272 12 15.1152 12 14.8912V14.3333Z" stroke="#11121C" stroke-width="1.27273" stroke-linecap="round" stroke-linejoin="round"/>
</svg>
