<svg width="48" height="48" viewBox="0 0 48 48" fill="none" xmlns="http://www.w3.org/2000/svg">
<rect width="48" height="48" rx="24" fill="#F6F5F8"/>
<path d="M25.8332 23.0833H20.3332M22.1665 26.7499H20.3332M27.6665 19.4166H20.3332M31.3332 19.2333V28.7666C31.3332 30.3067 31.3332 31.0768 31.0334 31.6651C30.7698 32.1825 30.3491 32.6032 29.8316 32.8669C29.2434 33.1666 28.4733 33.1666 26.9332 33.1666H21.0665C19.5264 33.1666 18.7563 33.1666 18.168 32.8669C17.6506 32.6032 17.2299 32.1825 16.9662 31.6651C16.6665 31.0768 16.6665 30.3067 16.6665 28.7666V19.2333C16.6665 17.6931 16.6665 16.923 16.9662 16.3348C17.2299 15.8173 17.6506 15.3966 18.168 15.133C18.7563 14.8333 19.5264 14.8333 21.0665 14.8333H26.9332C28.4733 14.8333 29.2434 14.8333 29.8316 15.133C30.3491 15.3966 30.7698 15.8173 31.0334 16.3348C31.3332 16.923 31.3332 17.6931 31.3332 19.2333Z" stroke="#11121C" stroke-width="1.4" stroke-linecap="round" stroke-linejoin="round"/>
</svg>
