<svg width="48" height="48" viewBox="0 0 48 48" fill="none" xmlns="http://www.w3.org/2000/svg">
<rect width="48" height="48" rx="24" fill="#F6F5F8"/>
<path d="M33.1668 22.1666H14.8335M14.8335 20.5166L14.8335 27.4833C14.8335 28.51 14.8335 29.0234 15.0333 29.4156C15.2091 29.7605 15.4895 30.041 15.8345 30.2168C16.2267 30.4166 16.7401 30.4166 17.7668 30.4166L30.2335 30.4166C31.2603 30.4166 31.7736 30.4166 32.1658 30.2168C32.5108 30.041 32.7912 29.7605 32.967 29.4156C33.1668 29.0234 33.1668 28.51 33.1668 27.4833V20.5166C33.1668 19.4898 33.1668 18.9764 32.967 18.5843C32.7912 18.2393 32.5108 17.9588 32.1658 17.7831C31.7736 17.5833 31.2603 17.5833 30.2335 17.5833L17.7668 17.5833C16.7401 17.5833 16.2267 17.5833 15.8345 17.7831C15.4895 17.9588 15.2091 18.2393 15.0333 18.5843C14.8335 18.9764 14.8335 19.4898 14.8335 20.5166Z" stroke="#11121C" stroke-width="1.4" stroke-linecap="round" stroke-linejoin="round"/>
</svg>
