<svg width="48" height="48" viewBox="0 0 48 48" fill="none" xmlns="http://www.w3.org/2000/svg">
<rect width="48" height="48" rx="24" fill="#F6F5F8"/>
<path d="M25.4022 20.6558C24.8775 21.0299 24.2353 21.2499 23.5418 21.2499C21.7699 21.2499 20.3335 19.8135 20.3335 18.0416C20.3335 16.2697 21.7699 14.8333 23.5418 14.8333C24.6904 14.8333 25.698 15.4368 26.2648 16.344M18.5002 31.4131H20.8929C21.2049 31.4131 21.515 31.4503 21.8174 31.5245L24.3456 32.1389C24.8942 32.2725 25.4657 32.2855 26.02 32.1779L28.8154 31.634C29.5538 31.4902 30.2331 31.1366 30.7655 30.6187L32.7432 28.6948C33.308 28.1463 33.308 27.2563 32.7432 26.7069C32.2347 26.2122 31.4295 26.1565 30.8542 26.576L28.5492 28.2577C28.2191 28.499 27.8174 28.6289 27.4043 28.6289H25.1785L26.5953 28.6289C27.3938 28.6289 28.0407 27.9996 28.0407 27.2228V26.9416C28.0407 26.2966 27.5894 25.7342 26.9464 25.5783L24.7597 25.0465C24.4038 24.9602 24.0394 24.9166 23.673 24.9166C22.7886 24.9166 21.1877 25.6488 21.1877 25.6488L18.5002 26.7727M31.3335 18.9583C31.3335 20.7302 29.8971 22.1666 28.1252 22.1666C26.3532 22.1666 24.9168 20.7302 24.9168 18.9583C24.9168 17.1863 26.3532 15.7499 28.1252 15.7499C29.8971 15.7499 31.3335 17.1863 31.3335 18.9583ZM14.8335 26.3833L14.8335 31.6999C14.8335 32.2133 14.8335 32.47 14.9334 32.6661C15.0213 32.8386 15.1615 32.9788 15.334 33.0667C15.5301 33.1666 15.7868 33.1666 16.3002 33.1666H17.0335C17.5469 33.1666 17.8036 33.1666 17.9997 33.0667C18.1721 32.9788 18.3124 32.8386 18.4003 32.6661C18.5002 32.47 18.5002 32.2133 18.5002 31.6999V26.3833C18.5002 25.8699 18.5002 25.6132 18.4003 25.4171C18.3124 25.2446 18.1721 25.1044 17.9997 25.0165C17.8036 24.9166 17.5469 24.9166 17.0335 24.9166L16.3002 24.9166C15.7868 24.9166 15.5301 24.9166 15.334 25.0165C15.1615 25.1044 15.0213 25.2446 14.9334 25.4171C14.8335 25.6132 14.8335 25.8699 14.8335 26.3833Z" stroke="#11121C" stroke-width="1.4" stroke-linecap="round" stroke-linejoin="round"/>
<path d="M25.4022 20.6558C24.8775 21.0299 24.2353 21.2499 23.5418 21.2499C21.7699 21.2499 20.3335 19.8135 20.3335 18.0416C20.3335 16.2697 21.7699 14.8333 23.5418 14.8333C24.6904 14.8333 25.698 15.4368 26.2648 16.344M18.5002 31.4131H20.8929C21.2049 31.4131 21.515 31.4503 21.8174 31.5245L24.3456 32.1389C24.8942 32.2725 25.4657 32.2855 26.02 32.1779L28.8154 31.634C29.5538 31.4902 30.2331 31.1366 30.7655 30.6187L32.7432 28.6948C33.308 28.1463 33.308 27.2563 32.7432 26.7069C32.2347 26.2122 31.4295 26.1565 30.8542 26.576L28.5492 28.2577C28.2191 28.499 27.8174 28.6289 27.4043 28.6289H25.1785L26.5953 28.6289C27.3938 28.6289 28.0407 27.9996 28.0407 27.2228V26.9416C28.0407 26.2966 27.5894 25.7342 26.9464 25.5783L24.7597 25.0465C24.4038 24.9602 24.0394 24.9166 23.673 24.9166C22.7886 24.9166 21.1877 25.6488 21.1877 25.6488L18.5002 26.7727M31.3335 18.9583C31.3335 20.7302 29.8971 22.1666 28.1252 22.1666C26.3532 22.1666 24.9168 20.7302 24.9168 18.9583C24.9168 17.1863 26.3532 15.7499 28.1252 15.7499C29.8971 15.7499 31.3335 17.1863 31.3335 18.9583ZM14.8335 26.3833L14.8335 31.6999C14.8335 32.2133 14.8335 32.47 14.9334 32.6661C15.0213 32.8386 15.1615 32.9788 15.334 33.0667C15.5301 33.1666 15.7868 33.1666 16.3002 33.1666H17.0335C17.5469 33.1666 17.8036 33.1666 17.9997 33.0667C18.1721 32.9788 18.3124 32.8386 18.4003 32.6661C18.5002 32.47 18.5002 32.2133 18.5002 31.6999V26.3833C18.5002 25.8699 18.5002 25.6132 18.4003 25.4171C18.3124 25.2446 18.1721 25.1044 17.9997 25.0165C17.8036 24.9166 17.5469 24.9166 17.0335 24.9166L16.3002 24.9166C15.7868 24.9166 15.5301 24.9166 15.334 25.0165C15.1615 25.1044 15.0213 25.2446 14.9334 25.4171C14.8335 25.6132 14.8335 25.8699 14.8335 26.3833Z" stroke="#11121C" stroke-width="1.4" stroke-linecap="round" stroke-linejoin="round"/>
</svg>
