<svg width="48" height="48" viewBox="0 0 48 48" fill="none" xmlns="http://www.w3.org/2000/svg">
<rect width="48" height="48" rx="24" fill="#F6F5F8"/>
<path d="M30.4168 17.5833L17.5835 30.4166M19.8752 18.9583C19.8752 19.4645 19.4648 19.8749 18.9585 19.8749C18.4522 19.8749 18.0418 19.4645 18.0418 18.9583C18.0418 18.452 18.4522 18.0416 18.9585 18.0416C19.4648 18.0416 19.8752 18.452 19.8752 18.9583ZM29.9585 29.0416C29.9585 29.5478 29.5481 29.9583 29.0418 29.9583C28.5356 29.9583 28.1252 29.5478 28.1252 29.0416C28.1252 28.5353 28.5356 28.1249 29.0418 28.1249C29.5481 28.1249 29.9585 28.5353 29.9585 29.0416Z" stroke="#11121C" stroke-width="1.4" stroke-linecap="round" stroke-linejoin="round"/>
</svg>
