<svg width="48" height="48" viewBox="0 0 48 48" fill="none" xmlns="http://www.w3.org/2000/svg">
<rect width="48" height="48" rx="24" fill="#070707" fill-opacity="0.2"/>
<path d="M23.3426 17.1654C23.5539 16.7374 23.6595 16.5234 23.8029 16.455C23.9277 16.3955 24.0727 16.3955 24.1974 16.455C24.3408 16.5234 24.4465 16.7374 24.6578 17.1654L26.6622 21.2262C26.7246 21.3526 26.7558 21.4158 26.8014 21.4648C26.8417 21.5083 26.8901 21.5435 26.9439 21.5685C27.0046 21.5967 27.0743 21.6069 27.2137 21.6273L31.6974 22.2826C32.1696 22.3516 32.4056 22.3861 32.5149 22.5015C32.6099 22.6018 32.6546 22.7397 32.6365 22.8767C32.6157 23.0342 32.4448 23.2006 32.103 23.5336L28.8598 26.6924C28.7587 26.7909 28.7082 26.8402 28.6756 26.8987C28.6467 26.9506 28.6281 27.0076 28.621 27.0665C28.6129 27.1331 28.6249 27.2026 28.6487 27.3417L29.414 31.8035C29.4947 32.2741 29.535 32.5094 29.4592 32.649C29.3932 32.7705 29.2759 32.8557 29.14 32.8809C28.9837 32.9099 28.7724 32.7988 28.3498 32.5765L24.3415 30.4686C24.2166 30.4029 24.1542 30.3701 24.0884 30.3572C24.0301 30.3457 23.9702 30.3457 23.912 30.3572C23.8462 30.3701 23.7837 30.4029 23.6588 30.4686L19.6505 32.5765C19.2279 32.7988 19.0166 32.9099 18.8604 32.8809C18.7245 32.8557 18.6072 32.7705 18.5412 32.649C18.4653 32.5094 18.5057 32.2741 18.5864 31.8035L19.3516 27.3417C19.3755 27.2026 19.3874 27.1331 19.3794 27.0665C19.3722 27.0076 19.3537 26.9506 19.3248 26.8987C19.2922 26.8402 19.2416 26.7909 19.1405 26.6924L15.8973 23.5336C15.5555 23.2006 15.3846 23.0342 15.3638 22.8767C15.3457 22.7397 15.3904 22.6018 15.4855 22.5015C15.5947 22.3861 15.8308 22.3516 16.303 22.2826L20.7866 21.6273C20.9261 21.6069 20.9958 21.5967 21.0565 21.5685C21.1102 21.5435 21.1586 21.5083 21.199 21.4648C21.2446 21.4158 21.2758 21.3526 21.3381 21.2262L23.3426 17.1654Z" stroke="white" stroke-width="1.4" stroke-linecap="round" stroke-linejoin="round"/>
</svg>
