<svg width="20" height="20" viewBox="0 0 20 20" fill="none" xmlns="http://www.w3.org/2000/svg">
<path d="M11.9923 15.0116C12.3497 16.3453 11.5582 17.7161 10.2245 18.0735C8.89087 18.4308 7.52003 17.6394 7.16268 16.3057M9.07608 4.78331C9.32959 4.32722 9.4131 3.77597 9.26738 3.23214C8.96958 2.12076 7.82721 1.46121 6.71583 1.759C5.60444 2.0568 4.94489 3.19917 5.24269 4.31056C5.38841 4.85439 5.73635 5.29003 6.18393 5.55826M13.5297 7.87034C13.2323 6.76023 12.4382 5.83193 11.3221 5.28965C10.2061 4.74737 8.85945 4.63554 7.57856 4.97876C6.29766 5.32197 5.18739 6.09212 4.49199 7.11978C3.79659 8.14744 3.57302 9.34842 3.87048 10.4585C4.36262 12.2952 4.26706 13.7606 3.95626 14.874C3.60204 16.1431 3.42493 16.7776 3.47278 16.905C3.52752 17.0508 3.56712 17.0908 3.71232 17.147C3.83922 17.1962 4.37237 17.0533 5.43865 16.7676L15.3262 14.1183C16.3925 13.8326 16.9256 13.6897 17.011 13.5837C17.1086 13.4624 17.1229 13.4079 17.0974 13.2543C17.0751 13.12 16.6045 12.6591 15.6632 11.7372C14.8373 10.9283 14.0219 9.70705 13.5297 7.87034Z" stroke="#11121C" stroke-width="1.4" stroke-linecap="round" stroke-linejoin="round"/>
</svg>
