<svg width="20" height="20" viewBox="0 0 20 20" fill="none" xmlns="http://www.w3.org/2000/svg">
<path d="M17.207 2.22852L10.9609 6.86756L12.116 4.13059L17.207 2.22852Z" fill="#E2761B" stroke="#E2761B" stroke-linecap="round" stroke-linejoin="round"/>
<path d="M2.78804 2.22852L8.9839 6.9115L7.88534 4.13059L2.78804 2.22852ZM14.96 12.9818L13.2965 15.5305L16.8558 16.5097L17.8791 13.0383L14.96 12.9818ZM2.12891 13.0383L3.14586 16.5097L6.70518 15.5305L5.04165 12.9818L2.12891 13.0383Z" fill="#E4761B" stroke="#E4761B" stroke-linecap="round" stroke-linejoin="round"/>
<path d="M6.50356 8.67479L5.51172 10.1751L9.04593 10.332L8.92038 6.53418L6.50356 8.67479ZM13.4904 8.67479L11.0422 6.49023L10.9606 10.332L14.4885 10.1751L13.4904 8.67479ZM6.70444 15.5298L8.82622 14.494L6.9932 13.0627L6.70444 15.5298ZM11.1677 14.494L13.2958 15.5298L13.0007 13.0627L11.1677 14.494Z" fill="#E4761B" stroke="#E4761B" stroke-linecap="round" stroke-linejoin="round"/>
<path d="M13.2945 15.5299L11.1664 14.4941L11.3359 15.8815L11.3171 16.4653L13.2945 15.5299ZM6.70312 15.5299L8.68053 16.4653L8.66797 15.8815L8.82491 14.4941L6.70312 15.5299Z" fill="#D7C1B3" stroke="#D7C1B3" stroke-linecap="round" stroke-linejoin="round"/>
<path d="M8.71165 12.147L6.94141 11.6259L8.19062 11.0547L8.71165 12.147ZM11.2791 12.147L11.8002 11.0547L13.0557 11.6259L11.2791 12.147Z" fill="#233447" stroke="#233447" stroke-linecap="round" stroke-linejoin="round"/>
<path d="M6.70259 15.5305L7.00391 12.9818L5.03906 13.0383L6.70259 15.5305ZM12.9926 12.9818L13.2939 15.5305L14.9575 13.0383L12.9926 12.9818ZM14.4866 10.1758L10.9587 10.3327L11.2851 12.1469L11.8062 11.0546L13.0617 11.6259L14.4866 10.1758ZM6.94113 11.6259L8.19663 11.0546L8.71138 12.1469L9.04408 10.3327L5.50987 10.1758L6.94113 11.6259Z" fill="#CD6116" stroke="#CD6116" stroke-linecap="round" stroke-linejoin="round"/>
<path d="M5.51172 10.1758L6.9932 13.0634L6.94298 11.6259L5.51172 10.1758ZM13.0635 11.6259L13.0007 13.0634L14.4885 10.1758L13.0635 11.6259ZM9.04593 10.3327L8.71323 12.1469L9.12754 14.2875L9.2217 11.4689L9.04593 10.3327ZM10.9606 10.3327L10.7911 11.4627L10.8664 14.2875L11.287 12.1469L10.9606 10.3327Z" fill="#E4751F" stroke="#E4751F" stroke-linecap="round" stroke-linejoin="round"/>
<path d="M11.2854 12.146L10.8648 14.2866L11.1661 14.4938L12.9992 13.0625L13.0619 11.625L11.2854 12.146ZM6.94141 11.625L6.99163 13.0625L8.82465 14.4938L9.12596 14.2866L8.71165 12.146L6.94141 11.625Z" fill="#F6851B" stroke="#F6851B" stroke-linecap="round" stroke-linejoin="round"/>
<path d="M11.3171 16.4666L11.3359 15.8828L11.179 15.7447H8.81235L8.66797 15.8828L8.68053 16.4666L6.70312 15.5312L7.39365 16.0962L8.79352 17.0692H11.1978L12.6039 16.0962L13.2945 15.5312L11.3171 16.4666Z" fill="#C0AD9E" stroke="#C0AD9E" stroke-linecap="round" stroke-linejoin="round"/>
<path d="M11.1664 14.4943L10.8651 14.2871H9.12622L8.82491 14.4943L8.66797 15.8816L8.81235 15.7435H11.179L11.3359 15.8816L11.1664 14.4943Z" fill="#161616" stroke="#161616" stroke-linecap="round" stroke-linejoin="round"/>
<path d="M17.4703 7.16888L18.0039 4.60767L17.2066 2.22852L11.1677 6.71062L13.4904 8.67547L16.7735 9.63592L17.5017 8.78847L17.1878 8.56248L17.69 8.10422L17.3008 7.8029L17.803 7.41998L17.4703 7.16888ZM1.99634 4.60767L2.52992 7.16888L2.19094 7.41998L2.69314 7.8029L2.31021 8.10422L2.81241 8.56248L2.49853 8.78847L3.22044 9.63592L6.50356 8.67547L8.82622 6.71062L2.7873 2.22852L1.99634 4.60767Z" fill="#763D16" stroke="#763D16" stroke-linecap="round" stroke-linejoin="round"/>
<path d="M16.7742 9.63619L13.4911 8.67574L14.4892 10.1761L13.0015 13.0637L14.96 13.0386H17.8791L16.7742 9.63619ZM6.5043 8.67574L3.22118 9.63619L2.12891 13.0386H5.04165L6.99394 13.0637L5.51246 10.1761L6.5043 8.67574ZM10.9613 10.333L11.1685 6.7109L12.1226 4.13086H7.88534L8.82696 6.7109L9.04667 10.333L9.122 11.4755L9.12828 14.2878H10.8671L10.8797 11.4755L10.9613 10.333Z" fill="#F6851B" stroke="#F6851B" stroke-linecap="round" stroke-linejoin="round"/>
</svg>
