<svg width="20" height="18" viewBox="0 0 20 18" fill="none" xmlns="http://www.w3.org/2000/svg">
<path d="M16.4166 17.25L19.1666 14.5M19.1666 14.5L16.4166 11.75M19.1666 14.5H13.6666M13.2083 1.01653C14.552 1.56047 15.4999 2.87787 15.4999 4.41667C15.4999 5.95547 14.552 7.27287 13.2083 7.8168M9.99992 11.75H6.33325C4.6248 11.75 3.77057 11.75 3.09675 12.0291C2.19831 12.4013 1.4845 13.1151 1.11236 14.0135C0.833252 14.6873 0.833252 15.5415 0.833252 17.25M11.3749 4.41667C11.3749 6.44171 9.7333 8.08333 7.70825 8.08333C5.68321 8.08333 4.04159 6.44171 4.04159 4.41667C4.04159 2.39162 5.68321 0.75 7.70825 0.75C9.7333 0.75 11.3749 2.39162 11.3749 4.41667Z" stroke="#11121C" stroke-width="1.4" stroke-linecap="round" stroke-linejoin="round"/>
</svg>
