<svg width="20" height="20" viewBox="0 0 20 20" fill="none" xmlns="http://www.w3.org/2000/svg">
<path d="M10 4.375C8.88748 4.375 7.79994 4.7049 6.87492 5.32298C5.94989 5.94107 5.22892 6.81957 4.80318 7.84741C4.37743 8.87524 4.26604 10.0062 4.48308 11.0974C4.70012 12.1885 5.23585 13.1908 6.02252 13.9775C6.80919 14.7641 7.81147 15.2999 8.90262 15.5169C9.99376 15.734 11.1248 15.6226 12.1526 15.1968C13.1804 14.7711 14.0589 14.0501 14.677 13.1251C15.2951 12.2001 15.625 11.1125 15.625 10C15.6229 8.50879 15.0296 7.07925 13.9752 6.02481C12.9207 4.97036 11.4912 4.37707 10 4.375ZM10 13.75C9.25832 13.75 8.5333 13.5301 7.91661 13.118C7.29993 12.706 6.81928 12.1203 6.53545 11.4351C6.25162 10.7498 6.17736 9.99584 6.32206 9.26841C6.46675 8.54098 6.8239 7.8728 7.34835 7.34835C7.8728 6.8239 8.54098 6.46675 9.26841 6.32206C9.99584 6.17736 10.7498 6.25162 11.4351 6.53545C12.1203 6.81928 12.706 7.29993 13.118 7.91661C13.5301 8.5333 13.75 9.25832 13.75 10C13.75 10.9946 13.3549 11.9484 12.6517 12.6517C11.9484 13.3549 10.9946 13.75 10 13.75ZM9.0625 2.1875V0.9375C9.0625 0.68886 9.16127 0.450403 9.33709 0.274587C9.5129 0.098772 9.75136 0 10 0C10.2486 0 10.4871 0.098772 10.6629 0.274587C10.8387 0.450403 10.9375 0.68886 10.9375 0.9375V2.1875C10.9375 2.43614 10.8387 2.6746 10.6629 2.85041C10.4871 3.02623 10.2486 3.125 10 3.125C9.75136 3.125 9.5129 3.02623 9.33709 2.85041C9.16127 2.6746 9.0625 2.43614 9.0625 2.1875ZM14.8594 5.14063C14.772 5.05353 14.7026 4.95003 14.6553 4.83608C14.608 4.72213 14.5836 4.59995 14.5836 4.47656C14.5836 4.35317 14.608 4.231 14.6553 4.11705C14.7026 4.00309 14.772 3.8996 14.8594 3.8125L15.7422 2.92969C15.9183 2.75357 16.1572 2.65462 16.4062 2.65462C16.6553 2.65462 16.8942 2.75357 17.0703 2.92969C17.2464 3.10581 17.3454 3.34468 17.3454 3.59375C17.3454 3.84282 17.2464 4.08169 17.0703 4.25781L16.1875 5.14063C16.1002 5.22761 15.9966 5.29653 15.8827 5.34345C15.7687 5.39037 15.6467 5.41436 15.5234 5.41406C15.2749 5.41299 15.0366 5.31487 14.8594 5.14063V5.14063ZM20 10C20 10.2486 19.9012 10.4871 19.7254 10.6629C19.5496 10.8387 19.3111 10.9375 19.0625 10.9375H17.8125C17.5639 10.9375 17.3254 10.8387 17.1496 10.6629C16.9738 10.4871 16.875 10.2486 16.875 10C16.875 9.75136 16.9738 9.5129 17.1496 9.33709C17.3254 9.16127 17.5639 9.0625 17.8125 9.0625H19.0625C19.3111 9.0625 19.5496 9.16127 19.7254 9.33709C19.9012 9.5129 20 9.75136 20 10ZM17.0703 15.7422C17.1577 15.8293 17.2271 15.9328 17.2744 16.0467C17.3217 16.1607 17.3461 16.2829 17.3461 16.4062C17.3461 16.5296 17.3217 16.6518 17.2744 16.7658C17.2271 16.8797 17.1577 16.9832 17.0703 17.0703C16.9841 17.1587 16.8807 17.2286 16.7665 17.2756C16.6523 17.3226 16.5297 17.3458 16.4062 17.3438C16.283 17.3441 16.1609 17.3201 16.047 17.2731C15.9331 17.2262 15.8295 17.1573 15.7422 17.0703L14.8594 16.1875C14.6833 16.0114 14.5843 15.7725 14.5843 15.5234C14.5843 15.2744 14.6833 15.0355 14.8594 14.8594C15.0355 14.6833 15.2744 14.5843 15.5234 14.5843C15.7725 14.5843 16.0114 14.6833 16.1875 14.8594L17.0703 15.7422ZM10.9375 17.8125V19.0625C10.9375 19.3111 10.8387 19.5496 10.6629 19.7254C10.4871 19.9012 10.2486 20 10 20C9.75136 20 9.5129 19.9012 9.33709 19.7254C9.16127 19.5496 9.0625 19.3111 9.0625 19.0625V17.8125C9.0625 17.5639 9.16127 17.3254 9.33709 17.1496C9.5129 16.9738 9.75136 16.875 10 16.875C10.2486 16.875 10.4871 16.9738 10.6629 17.1496C10.8387 17.3254 10.9375 17.5639 10.9375 17.8125ZM5.14063 14.8594C5.22803 14.9465 5.29737 15.05 5.34469 15.1639C5.39201 15.2779 5.41636 15.4 5.41636 15.5234C5.41636 15.6468 5.39201 15.769 5.34469 15.883C5.29737 15.9969 5.22803 16.1004 5.14063 16.1875L4.25781 17.0703C4.17053 17.1573 4.06695 17.2262 3.953 17.2731C3.83906 17.3201 3.71698 17.3441 3.59375 17.3438C3.47027 17.3458 3.34767 17.3226 3.23348 17.2756C3.11928 17.2286 3.0159 17.1587 2.92969 17.0703C2.84229 16.9832 2.77294 16.8797 2.72562 16.7658C2.67831 16.6518 2.65395 16.5296 2.65395 16.4062C2.65395 16.2829 2.67831 16.1607 2.72562 16.0467C2.77294 15.9328 2.84229 15.8293 2.92969 15.7422L3.8125 14.8594C3.8996 14.772 4.00309 14.7026 4.11705 14.6553C4.231 14.608 4.35317 14.5836 4.47656 14.5836C4.59995 14.5836 4.72213 14.608 4.83608 14.6553C4.95003 14.7026 5.05353 14.772 5.14063 14.8594V14.8594ZM2.1875 10.9375H0.9375C0.68886 10.9375 0.450403 10.8387 0.274587 10.6629C0.098772 10.4871 0 10.2486 0 10C0 9.75136 0.098772 9.5129 0.274587 9.33709C0.450403 9.16127 0.68886 9.0625 0.9375 9.0625H2.1875C2.43614 9.0625 2.6746 9.16127 2.85041 9.33709C3.02623 9.5129 3.125 9.75136 3.125 10C3.125 10.2486 3.02623 10.4871 2.85041 10.6629C2.6746 10.8387 2.43614 10.9375 2.1875 10.9375ZM2.92969 4.25781C2.75357 4.08169 2.65462 3.84282 2.65462 3.59375C2.65462 3.34468 2.75357 3.10581 2.92969 2.92969C3.10581 2.75357 3.34468 2.65462 3.59375 2.65462C3.84282 2.65462 4.08169 2.75357 4.25781 2.92969L5.14063 3.8125C5.22803 3.8996 5.29737 4.00309 5.34469 4.11705C5.39201 4.231 5.41636 4.35317 5.41636 4.47656C5.41636 4.59995 5.39201 4.72213 5.34469 4.83608C5.29737 4.95003 5.22803 5.05353 5.14063 5.14063C4.96339 5.31487 4.7251 5.41299 4.47656 5.41406C4.35333 5.41436 4.23126 5.39037 4.11731 5.34345C4.00336 5.29653 3.89979 5.22761 3.8125 5.14063L2.92969 4.25781Z" fill="#11121C"/>
</svg>
