<svg width="18" height="20" viewBox="0 0 18 20" fill="none" xmlns="http://www.w3.org/2000/svg">
<path d="M10.8334 9.08398H5.33341M7.16675 12.7507H5.33341M12.6667 5.41732H5.33341M16.3334 5.23398V14.7673C16.3334 16.3075 16.3334 17.0775 16.0337 17.6658C15.77 18.1832 15.3493 18.6039 14.8319 18.8676C14.2436 19.1673 13.4736 19.1673 11.9334 19.1673H6.06675C4.5266 19.1673 3.75653 19.1673 3.16827 18.8676C2.65083 18.6039 2.23013 18.1832 1.96648 17.6658C1.66675 17.0775 1.66675 16.3075 1.66675 14.7673V5.23398C1.66675 3.69384 1.66675 2.92377 1.96648 2.33551C2.23013 1.81806 2.65083 1.39737 3.16827 1.13372C3.75653 0.833984 4.5266 0.833984 6.06675 0.833984H11.9334C13.4736 0.833984 14.2436 0.833984 14.8319 1.13372C15.3493 1.39737 15.77 1.81806 16.0337 2.33551C16.3334 2.92377 16.3334 3.69384 16.3334 5.23398Z" stroke="#11121C" stroke-width="1.4" stroke-linecap="round" stroke-linejoin="round"/>
</svg>
