<svg width="56" height="56" viewBox="0 0 56 56" fill="none" xmlns="http://www.w3.org/2000/svg">
<rect width="56" height="56" rx="28" fill="#F6F5F8"/>
<path d="M34.4163 26.167L21.5829 26.167M34.4163 26.167L36.1251 29.015C36.5081 29.6533 36.6995 29.9724 36.799 30.316C36.8871 30.6204 36.9219 30.9377 36.902 31.254C36.8794 31.611 36.7617 31.964 36.5263 32.6702L36.3358 33.2417C35.9752 34.3236 35.7949 34.8645 35.4604 35.2645C35.1651 35.6176 34.7858 35.891 34.3574 36.0595C33.8722 36.2503 33.302 36.2503 32.1616 36.2503L23.8376 36.2503C22.6972 36.2503 22.127 36.2503 21.6419 36.0595C21.2134 35.891 20.8341 35.6176 20.5388 35.2645C20.2044 34.8645 20.024 34.3236 19.6634 33.2417L19.4729 32.6702C19.2375 31.964 19.1198 31.611 19.0973 31.254C19.0773 30.9377 19.1121 30.6204 19.2002 30.316C19.2997 29.9724 19.4912 29.6533 19.8741 29.015L21.5829 26.167M34.4163 26.167L34.7988 24.8282C34.9801 24.1936 35.0708 23.8762 34.9996 23.6251C34.9372 23.4052 34.7948 23.2165 34.6005 23.0961C34.3787 22.9587 34.0486 22.9587 33.3885 22.9587L22.6107 22.9587C21.9506 22.9587 21.6206 22.9587 21.3987 23.0961C21.2044 23.2165 21.0621 23.4052 20.9997 23.6251C20.9284 23.8762 21.0191 24.1936 21.2004 24.8283L21.5829 26.167M27.9996 22.9587H24.7585C24.281 22.9587 23.823 22.7655 23.4853 22.4217C23.1477 22.0779 22.9579 21.6116 22.9579 21.1253C22.9579 20.6391 23.1477 20.1728 23.4853 19.829C23.823 19.4851 24.281 19.292 24.7585 19.292C27.2794 19.292 27.9996 22.9587 27.9996 22.9587ZM27.9996 22.9587H31.2407C31.7182 22.9587 32.1762 22.7655 32.5139 22.4217C32.8516 22.0779 33.0413 21.6116 33.0413 21.1253C33.0413 20.6391 32.8516 20.1728 32.5139 19.829C32.1762 19.4851 31.7182 19.292 31.2407 19.292C28.7199 19.292 27.9996 22.9587 27.9996 22.9587Z" stroke="#11121C" stroke-width="1.4" stroke-linecap="round" stroke-linejoin="round"/>
</svg>
