<svg width="48" height="48" viewBox="0 0 48 48" fill="none" xmlns="http://www.w3.org/2000/svg">
<rect width="48" height="48" rx="24" fill="#F6F5F8"/>
<path d="M18.4999 18.5002L20.3333 16.6668M20.3333 16.6668L18.4999 14.8335M20.3333 16.6668H18.4999C16.4749 16.6668 14.8333 18.3085 14.8333 20.3335M29.4999 29.5002L27.6666 31.3335M27.6666 31.3335L29.4999 33.1668M27.6666 31.3335H29.4999C31.525 31.3335 33.1666 29.6919 33.1666 27.6668M25.299 25.2992C26.0161 25.6417 26.8189 25.8335 27.6666 25.8335C30.7042 25.8335 33.1666 23.3711 33.1666 20.3335C33.1666 17.2959 30.7042 14.8335 27.6666 14.8335C24.629 14.8335 22.1666 17.2959 22.1666 20.3335C22.1666 21.1812 22.3583 21.984 22.7008 22.7011M25.8333 27.6668C25.8333 30.7044 23.3708 33.1668 20.3333 33.1668C17.2957 33.1668 14.8333 30.7044 14.8333 27.6668C14.8333 24.6293 17.2957 22.1668 20.3333 22.1668C23.3708 22.1668 25.8333 24.6293 25.8333 27.6668Z" stroke="#11121C" stroke-width="1.4" stroke-linecap="round" stroke-linejoin="round"/>
</svg>
