<svg width="48" height="48" viewBox="0 0 48 48" fill="none" xmlns="http://www.w3.org/2000/svg">
<rect width="48" height="48" rx="24" fill="#F6F5F8"/>
<path d="M30.4168 17.5835L17.5835 30.4168M19.8752 18.9585C19.8752 19.4648 19.4648 19.8752 18.9585 19.8752C18.4522 19.8752 18.0418 19.4648 18.0418 18.9585C18.0418 18.4522 18.4522 18.0418 18.9585 18.0418C19.4648 18.0418 19.8752 18.4522 19.8752 18.9585ZM29.9585 29.0418C29.9585 29.5481 29.5481 29.9585 29.0418 29.9585C28.5356 29.9585 28.1252 29.5481 28.1252 29.0418C28.1252 28.5356 28.5356 28.1252 29.0418 28.1252C29.5481 28.1252 29.9585 28.5356 29.9585 29.0418Z" stroke="#FCFDFD" stroke-width="1.4" stroke-linecap="round" stroke-linejoin="round"/>
<path d="M30.4168 17.5835L17.5835 30.4168M19.8752 18.9585C19.8752 19.4648 19.4648 19.8752 18.9585 19.8752C18.4522 19.8752 18.0418 19.4648 18.0418 18.9585C18.0418 18.4522 18.4522 18.0418 18.9585 18.0418C19.4648 18.0418 19.8752 18.4522 19.8752 18.9585ZM29.9585 29.0418C29.9585 29.5481 29.5481 29.9585 29.0418 29.9585C28.5356 29.9585 28.1252 29.5481 28.1252 29.0418C28.1252 28.5356 28.5356 28.1252 29.0418 28.1252C29.5481 28.1252 29.9585 28.5356 29.9585 29.0418Z" stroke="#11121C" stroke-width="1.4" stroke-linecap="round" stroke-linejoin="round"/>
</svg>
