<svg width="56" height="56" viewBox="0 0 56 56" fill="none" xmlns="http://www.w3.org/2000/svg">
<rect width="56" height="56" rx="28" fill="#F6F5F8"/>
<path d="M27.9999 32.5833C27.9999 35.1146 30.0519 37.1667 32.5833 37.1667C35.1146 37.1667 37.1666 35.1146 37.1666 32.5833C37.1666 30.052 35.1146 28 32.5833 28C30.0519 28 27.9999 30.052 27.9999 32.5833ZM27.9999 32.5833C27.9999 31.5513 28.341 30.599 28.9166 29.8329V21.5833M27.9999 32.5833C27.9999 33.3399 28.1832 34.0537 28.5079 34.6826C27.7356 35.3349 25.9519 35.7917 23.8749 35.7917C21.0905 35.7917 18.8333 34.9709 18.8333 33.9583V21.5833M28.9166 21.5833C28.9166 22.5959 26.6594 23.4167 23.8749 23.4167C21.0905 23.4167 18.8333 22.5959 18.8333 21.5833M28.9166 21.5833C28.9166 20.5708 26.6594 19.75 23.8749 19.75C21.0905 19.75 18.8333 20.5708 18.8333 21.5833M18.8333 29.8333C18.8333 30.8459 21.0905 31.6667 23.8749 31.6667C25.8815 31.6667 27.6143 31.2404 28.4258 30.6233M28.9166 25.7083C28.9166 26.7209 26.6594 27.5417 23.8749 27.5417C21.0905 27.5417 18.8333 26.7209 18.8333 25.7083" stroke="#11121C" stroke-width="1.4" stroke-linecap="round" stroke-linejoin="round"/>
</svg>
