<svg width="48" height="48" viewBox="0 0 48 48" fill="none" xmlns="http://www.w3.org/2000/svg">
<rect width="48" height="48" rx="24" fill="#F6F5F8"/>
<path d="M31.3334 17.5835C31.3334 19.1023 28.0502 20.3335 24.0001 20.3335C19.95 20.3335 16.6667 19.1023 16.6667 17.5835M31.3334 17.5835C31.3334 16.0647 28.0502 14.8335 24.0001 14.8335C19.95 14.8335 16.6667 16.0647 16.6667 17.5835M31.3334 17.5835V30.4168C31.3334 31.9356 28.0502 33.1668 24.0001 33.1668C19.95 33.1668 16.6667 31.9356 16.6667 30.4168V17.5835M31.3334 21.8612C31.3334 23.38 28.0502 24.6112 24.0001 24.6112C19.95 24.6112 16.6667 23.38 16.6667 21.8612M31.3334 26.136C31.3334 27.6548 28.0502 28.886 24.0001 28.886C19.95 28.886 16.6667 27.6548 16.6667 26.136" stroke="#11121C" stroke-width="1.4" stroke-linecap="round" stroke-linejoin="round"/>
</svg>
