<svg width="16" height="16" viewBox="0 0 16 16" fill="none" xmlns="http://www.w3.org/2000/svg">
<g clip-path="url(#clip0_737_2500)">
<path d="M6.99992 1.33585C6.54989 1.34195 6.27972 1.368 6.06126 1.47931C5.81038 1.60714 5.60641 1.81111 5.47858 2.062C5.36727 2.28045 5.34121 2.55062 5.33512 3.00065M12.9999 1.33585C13.45 1.34195 13.7201 1.368 13.9386 1.47931C14.1895 1.60714 14.3934 1.81111 14.5213 2.062C14.6326 2.28045 14.6586 2.55061 14.6647 3.00064M14.6647 9.00064C14.6586 9.45068 14.6326 9.72085 14.5213 9.9393C14.3934 10.1902 14.1895 10.3942 13.9386 10.522C13.7201 10.6333 13.45 10.6594 12.9999 10.6655M14.6666 5.33398V6.66731M9.33329 1.33398H10.6666M3.46659 14.6673H8.53325C9.27999 14.6673 9.65336 14.6673 9.93857 14.522C10.1895 14.3942 10.3934 14.1902 10.5213 13.9393C10.6666 13.6541 10.6666 13.2807 10.6666 12.534V7.46732C10.6666 6.72058 10.6666 6.34721 10.5213 6.062C10.3934 5.81111 10.1895 5.60714 9.93857 5.47931C9.65336 5.33398 9.27999 5.33398 8.53325 5.33398H3.46659C2.71985 5.33398 2.34648 5.33398 2.06126 5.47931C1.81038 5.60714 1.60641 5.81111 1.47858 6.062C1.33325 6.34721 1.33325 6.72058 1.33325 7.46732V12.534C1.33325 13.2807 1.33325 13.6541 1.47858 13.9393C1.60641 14.1902 1.81038 14.3942 2.06126 14.522C2.34648 14.6673 2.71985 14.6673 3.46659 14.6673Z" stroke="#11121C" stroke-width="1.4" stroke-linecap="round" stroke-linejoin="round"/>
</g>
<defs>
<clipPath id="clip0_737_2500">
<rect width="16" height="16" fill="white"/>
</clipPath>
</defs>
</svg>
