<svg width="57" height="56" viewBox="0 0 57 56" fill="none" xmlns="http://www.w3.org/2000/svg">
<rect x="0.00390625" width="56" height="56" rx="28" fill="#F6F5F8"/>
<path d="M34.4168 26.166L21.5834 26.166M34.4168 26.166L36.1256 29.014C36.5085 29.6523 36.7 29.9714 36.7995 30.315C36.8876 30.6194 36.9224 30.9368 36.9024 31.253C36.8799 31.61 36.7622 31.9631 36.5268 32.6692L36.3363 33.2408C35.9757 34.3226 35.7954 34.8636 35.4609 35.2635C35.1656 35.6167 34.7863 35.89 34.3579 36.0585C33.8727 36.2493 33.3025 36.2493 32.1621 36.2493L23.8381 36.2493C22.6977 36.2493 22.1275 36.2493 21.6423 36.0585C21.2139 35.89 20.8346 35.6167 20.5393 35.2635C20.2048 34.8636 20.0245 34.3226 19.6639 33.2407L19.4734 32.6692C19.238 31.9631 19.1203 31.61 19.0978 31.253C19.0778 30.9368 19.1126 30.6194 19.2007 30.315C19.3002 29.9714 19.4917 29.6523 19.8746 29.014L21.5834 26.166M34.4168 26.166L34.7993 24.8273C34.9806 24.1926 35.0713 23.8752 35 23.6242C34.9377 23.4042 34.7953 23.2156 34.601 23.0951C34.3792 22.9577 34.0491 22.9577 33.389 22.9577L22.6112 22.9577C21.9511 22.9577 21.621 22.9577 21.3992 23.0951C21.2049 23.2156 21.0625 23.4042 21.0002 23.6242C20.9289 23.8752 21.0196 24.1926 21.2009 24.8273L21.5834 26.166M28.0001 22.9577H24.759C24.2815 22.9577 23.8235 22.7645 23.4858 22.4207C23.1481 22.0769 22.9584 21.6106 22.9584 21.1243C22.9584 20.6381 23.1481 20.1718 23.4858 19.828C23.8235 19.4842 24.2815 19.291 24.759 19.291C27.2799 19.291 28.0001 22.9577 28.0001 22.9577ZM28.0001 22.9577H31.2412C31.7187 22.9577 32.1767 22.7645 32.5144 22.4207C32.8521 22.0769 33.0418 21.6106 33.0418 21.1243C33.0418 20.6381 32.8521 20.1718 32.5144 19.828C32.1767 19.4842 31.7187 19.291 31.2412 19.291C28.7203 19.291 28.0001 22.9577 28.0001 22.9577Z" stroke="#11121C" stroke-width="1.4" stroke-linecap="round" stroke-linejoin="round"/>
</svg>
