<svg width="56" height="56" viewBox="0 0 56 56" fill="none" xmlns="http://www.w3.org/2000/svg">
<rect width="56" height="56" rx="28" fill="#F6F5F8"/>
<path d="M28 32.5833C28 35.1146 30.0521 37.1667 32.5834 37.1667C35.1147 37.1667 37.1667 35.1146 37.1667 32.5833C37.1667 30.052 35.1147 28 32.5834 28C30.0521 28 28 30.052 28 32.5833ZM28 32.5833C28 31.5513 28.3411 30.599 28.9167 29.8329V21.5833M28 32.5833C28 33.3399 28.1834 34.0537 28.508 34.6826C27.7357 35.3349 25.9521 35.7917 23.875 35.7917C21.0906 35.7917 18.8334 34.9709 18.8334 33.9583V21.5833M28.9167 21.5833C28.9167 22.5959 26.6595 23.4167 23.875 23.4167C21.0906 23.4167 18.8334 22.5959 18.8334 21.5833M28.9167 21.5833C28.9167 20.5708 26.6595 19.75 23.875 19.75C21.0906 19.75 18.8334 20.5708 18.8334 21.5833M18.8334 29.8333C18.8334 30.8459 21.0906 31.6667 23.875 31.6667C25.8816 31.6667 27.6144 31.2404 28.426 30.6233M28.9167 25.7083C28.9167 26.7209 26.6595 27.5417 23.875 27.5417C21.0906 27.5417 18.8334 26.7209 18.8334 25.7083" stroke="#11121C" stroke-width="1.4" stroke-linecap="round" stroke-linejoin="round"/>
</svg>
