<svg width="48" height="48" viewBox="0 0 48 48" fill="none" xmlns="http://www.w3.org/2000/svg">
<rect width="48" height="48" rx="24" fill="#F6F5F8"/>
<path d="M29.5 27.5171C30.8345 28.1876 31.9788 29.2635 32.8139 30.6088C32.9793 30.8752 33.062 31.0085 33.0906 31.1929C33.1487 31.5678 32.8924 32.0287 32.5432 32.177C32.3714 32.25 32.1782 32.25 31.7916 32.25M27.6666 23.5712C29.0249 22.8962 29.9583 21.4946 29.9583 19.875C29.9583 18.2554 29.0249 16.8538 27.6666 16.1788M25.8333 19.875C25.8333 22.1532 23.9865 24 21.7083 24C19.4301 24 17.5833 22.1532 17.5833 19.875C17.5833 17.5968 19.4301 15.75 21.7083 15.75C23.9865 15.75 25.8333 17.5968 25.8333 19.875ZM15.3459 30.3601C16.8074 28.1658 19.1136 26.75 21.7083 26.75C24.303 26.75 26.6092 28.1658 28.0707 30.3601C28.3908 30.8409 28.5509 31.0812 28.5325 31.3883C28.5181 31.6273 28.3614 31.92 28.1704 32.0645C27.9251 32.25 27.5876 32.25 26.9128 32.25H16.5038C15.829 32.25 15.4915 32.25 15.2462 32.0645C15.0552 31.92 14.8985 31.6273 14.8841 31.3883C14.8657 31.0812 15.0258 30.8409 15.3459 30.3601Z" stroke="#11121C" stroke-width="1.4" stroke-linecap="round" stroke-linejoin="round"/>
</svg>
