<svg width="50" height="50" viewBox="0 0 50 50" fill="none" xmlns="http://www.w3.org/2000/svg">
<rect width="50" height="50" rx="25" fill="#FCFDFD"/>
<path d="M15.8335 25.0002H34.1668M15.8335 25.0002C15.8335 30.0628 19.9376 34.1668 25.0002 34.1668M15.8335 25.0002C15.8335 19.9376 19.9376 15.8335 25.0002 15.8335M34.1668 25.0002C34.1668 30.0628 30.0628 34.1668 25.0002 34.1668M34.1668 25.0002C34.1668 19.9376 30.0628 15.8335 25.0002 15.8335M25.0002 15.8335C27.293 18.3437 28.596 21.6012 28.6668 25.0002C28.596 28.3991 27.293 31.6567 25.0002 34.1668M25.0002 15.8335C22.7073 18.3437 21.4043 21.6012 21.3335 25.0002C21.4043 28.3991 22.7073 31.6567 25.0002 34.1668" stroke="#11121C" stroke-width="1.4" stroke-linecap="round" stroke-linejoin="round"/>
</svg>
