<svg width="50" height="50" viewBox="0 0 50 50" fill="none" xmlns="http://www.w3.org/2000/svg">
<rect width="50" height="50" rx="25" fill="#FCFDFD"/>
<path d="M21.3335 21.3335H21.3427M18.1827 16.6926L16.6926 18.1827C16.3756 18.4998 16.217 18.6583 16.1037 18.8433C16.0031 19.0073 15.9291 19.1862 15.8842 19.3732C15.8335 19.5842 15.8335 19.8084 15.8335 20.2569L15.8335 22.8685C15.8335 23.3169 15.8335 23.5411 15.8842 23.7521C15.9291 23.9392 16.0031 24.118 16.1037 24.282C16.217 24.467 16.3756 24.6256 16.6926 24.9426L23.7222 31.9722C24.8113 33.0613 25.3558 33.6058 25.9837 33.8098C26.536 33.9893 27.131 33.9893 27.6833 33.8098C28.3112 33.6058 28.8557 33.0613 29.9448 31.9722L31.9722 29.9448C33.0613 28.8557 33.6058 28.3112 33.8098 27.6833C33.9893 27.131 33.9893 26.536 33.8098 25.9837C33.6058 25.3558 33.0613 24.8113 31.9722 23.7222L24.9426 16.6927C24.6256 16.3756 24.467 16.217 24.282 16.1037C24.118 16.0031 23.9392 15.9291 23.7521 15.8842C23.5411 15.8335 23.3169 15.8335 22.8685 15.8335L20.2569 15.8335C19.8084 15.8335 19.5842 15.8335 19.3732 15.8842C19.1862 15.9291 19.0073 16.0031 18.8433 16.1037C18.6583 16.217 18.4998 16.3756 18.1827 16.6926ZM21.7918 21.3335C21.7918 21.5866 21.5866 21.7918 21.3335 21.7918C21.0804 21.7918 20.8752 21.5866 20.8752 21.3335C20.8752 21.0804 21.0804 20.8752 21.3335 20.8752C21.5866 20.8752 21.7918 21.0804 21.7918 21.3335Z" stroke="#11121C" stroke-width="1.4" stroke-linecap="round" stroke-linejoin="round"/>
</svg>
