<svg width="50" height="50" viewBox="0 0 50 50" fill="none" xmlns="http://www.w3.org/2000/svg">
<rect width="50" height="50" rx="25" fill="#FCFDFD"/>
<path d="M15.8335 20.4165L23.318 25.6557C23.9241 26.0799 24.2271 26.292 24.5567 26.3742C24.8479 26.4468 25.1524 26.4468 25.4436 26.3742C25.7732 26.292 26.0762 26.0799 26.6823 25.6557L34.1668 20.4165M20.2335 32.3332H29.7668C31.307 32.3332 32.077 32.3332 32.6653 32.0334C33.1827 31.7698 33.6034 31.3491 33.8671 30.8316C34.1668 30.2434 34.1668 29.4733 34.1668 27.9332V22.0665C34.1668 20.5264 34.1668 19.7563 33.8671 19.168C33.6034 18.6506 33.1827 18.2299 32.6653 17.9662C32.077 17.6665 31.307 17.6665 29.7668 17.6665H20.2335C18.6934 17.6665 17.9233 17.6665 17.335 17.9662C16.8176 18.2299 16.3969 18.6506 16.1332 19.168C15.8335 19.7563 15.8335 20.5264 15.8335 22.0665V27.9332C15.8335 29.4733 15.8335 30.2434 16.1332 30.8316C16.3969 31.3491 16.8176 31.7698 17.335 32.0334C17.9233 32.3332 18.6934 32.3332 20.2335 32.3332Z" stroke="#11121C" stroke-width="1.4" stroke-linecap="round" stroke-linejoin="round"/>
</svg>
