<svg width="50" height="50" viewBox="0 0 50 50" fill="none" xmlns="http://www.w3.org/2000/svg">
<rect width="50" height="50" rx="25" fill="#FCFDFD"/>
<path d="M24.9997 27.75C22.0938 27.75 19.5096 29.1531 17.8644 31.3305C17.5103 31.7991 17.3332 32.0334 17.339 32.3501C17.3435 32.5948 17.4971 32.9034 17.6896 33.0545C17.9388 33.25 18.2841 33.25 18.9747 33.25H31.0247C31.7153 33.25 32.0606 33.25 32.3098 33.0545C32.5023 32.9034 32.6559 32.5948 32.6604 32.3501C32.6662 32.0334 32.4891 31.7991 32.135 31.3305C30.4898 29.1531 27.9056 27.75 24.9997 27.75Z" stroke="#11121C" stroke-width="1.4" stroke-linecap="round" stroke-linejoin="round"/>
<path d="M24.9997 25C27.2779 25 29.1247 23.1532 29.1247 20.875C29.1247 18.5968 27.2779 16.75 24.9997 16.75C22.7215 16.75 20.8747 18.5968 20.8747 20.875C20.8747 23.1532 22.7215 25 24.9997 25Z" stroke="#11121C" stroke-width="1.4" stroke-linecap="round" stroke-linejoin="round"/>
</svg>
