<svg width="50" height="50" viewBox="0 0 50 50" fill="none" xmlns="http://www.w3.org/2000/svg">
<rect width="50" height="50" rx="25" fill="#FCFDFD"/>
<path d="M25.0002 27.7502C26.5189 27.7502 27.7502 26.5189 27.7502 25.0002C27.7502 23.4814 26.5189 22.2502 25.0002 22.2502C23.4814 22.2502 22.2502 23.4814 22.2502 25.0002C22.2502 26.5189 23.4814 27.7502 25.0002 27.7502Z" stroke="#11121C" stroke-width="1.4" stroke-linecap="round" stroke-linejoin="round"/>
<path d="M31.1668 27.5002C31.0559 27.7515 31.0228 28.0303 31.0718 28.3007C31.1208 28.571 31.2497 28.8204 31.4418 29.0168L31.4918 29.0668C31.6468 29.2216 31.7697 29.4054 31.8536 29.6078C31.9375 29.8101 31.9806 30.027 31.9806 30.246C31.9806 30.465 31.9375 30.6819 31.8536 30.8842C31.7697 31.0866 31.6468 31.2704 31.4918 31.4252C31.337 31.5801 31.1532 31.7031 30.9509 31.7869C30.7486 31.8708 30.5317 31.914 30.3127 31.914C30.0936 31.914 29.8768 31.8708 29.6744 31.7869C29.4721 31.7031 29.2883 31.5801 29.1335 31.4252L29.0835 31.3752C28.8871 31.183 28.6376 31.0542 28.3673 31.0052C28.097 30.9561 27.8182 30.9892 27.5668 31.1002C27.3204 31.2058 27.1101 31.3812 26.9621 31.6048C26.814 31.8284 26.7346 32.0903 26.7335 32.3585V32.5002C26.7335 32.9422 26.5579 33.3661 26.2453 33.6787C25.9328 33.9912 25.5089 34.1668 25.0668 34.1668C24.6248 34.1668 24.2009 33.9912 23.8883 33.6787C23.5758 33.3661 23.4002 32.9422 23.4002 32.5002V32.4252C23.3937 32.1493 23.3044 31.8818 23.1439 31.6574C22.9834 31.433 22.7591 31.2621 22.5002 31.1668C22.2488 31.0559 21.97 31.0228 21.6997 31.0718C21.4293 31.1208 21.1799 31.2497 20.9835 31.4418L20.9335 31.4918C20.7787 31.6468 20.5949 31.7697 20.3926 31.8536C20.1902 31.9375 19.9734 31.9806 19.7543 31.9806C19.5353 31.9806 19.3184 31.9375 19.1161 31.8536C18.9138 31.7697 18.73 31.6468 18.5752 31.4918C18.4202 31.337 18.2973 31.1532 18.2134 30.9509C18.1295 30.7486 18.0864 30.5317 18.0864 30.3127C18.0864 30.0936 18.1295 29.8768 18.2134 29.6744C18.2973 29.4721 18.4202 29.2883 18.5752 29.1335L18.6252 29.0835C18.8173 28.8871 18.9462 28.6376 18.9952 28.3673C19.0442 28.097 19.0111 27.8182 18.9002 27.5668C18.7945 27.3204 18.6191 27.1101 18.3956 26.9621C18.172 26.814 17.91 26.7346 17.6418 26.7335H17.5002C17.0581 26.7335 16.6342 26.5579 16.3217 26.2453C16.0091 25.9328 15.8335 25.5089 15.8335 25.0668C15.8335 24.6248 16.0091 24.2009 16.3217 23.8883C16.6342 23.5758 17.0581 23.4002 17.5002 23.4002H17.5752C17.851 23.3937 18.1185 23.3044 18.3429 23.1439C18.5673 22.9834 18.7383 22.7591 18.8335 22.5002C18.9444 22.2488 18.9775 21.97 18.9285 21.6997C18.8795 21.4293 18.7506 21.1799 18.5585 20.9835L18.5085 20.9335C18.3535 20.7787 18.2306 20.5949 18.1467 20.3926C18.0629 20.1902 18.0197 19.9734 18.0197 19.7543C18.0197 19.5353 18.0629 19.3184 18.1467 19.1161C18.2306 18.9138 18.3535 18.73 18.5085 18.5752C18.6633 18.4202 18.8471 18.2973 19.0494 18.2134C19.2518 18.1295 19.4686 18.0864 19.6877 18.0864C19.9067 18.0864 20.1236 18.1295 20.3259 18.2134C20.5282 18.2973 20.712 18.4202 20.8668 18.5752L20.9168 18.6252C21.1132 18.8173 21.3627 18.9462 21.633 18.9952C21.9033 19.0442 22.1821 19.0111 22.4335 18.9002H22.5002C22.7466 18.7945 22.9568 18.6191 23.1049 18.3956C23.253 18.172 23.3324 17.91 23.3335 17.6418V17.5002C23.3335 17.0581 23.5091 16.6342 23.8217 16.3217C24.1342 16.0091 24.5581 15.8335 25.0002 15.8335C25.4422 15.8335 25.8661 16.0091 26.1787 16.3217C26.4912 16.6342 26.6668 17.0581 26.6668 17.5002V17.5752C26.6679 17.8433 26.7474 18.1053 26.8954 18.3289C27.0435 18.5525 27.2537 18.7279 27.5002 18.8335C27.7515 18.9444 28.0303 18.9775 28.3007 18.9285C28.571 18.8795 28.8204 18.7506 29.0168 18.5585L29.0668 18.5085C29.2216 18.3535 29.4054 18.2306 29.6078 18.1467C29.8101 18.0629 30.027 18.0197 30.246 18.0197C30.465 18.0197 30.6819 18.0629 30.8842 18.1467C31.0866 18.2306 31.2704 18.3535 31.4252 18.5085C31.5801 18.6633 31.7031 18.8471 31.7869 19.0494C31.8708 19.2518 31.914 19.4686 31.914 19.6877C31.914 19.9067 31.8708 20.1236 31.7869 20.3259C31.7031 20.5282 31.5801 20.712 31.4252 20.8668L31.3752 20.9168C31.183 21.1132 31.0542 21.3627 31.0052 21.633C30.9561 21.9033 30.9892 22.1821 31.1002 22.4335V22.5002C31.2058 22.7466 31.3812 22.9568 31.6048 23.1049C31.8284 23.253 32.0903 23.3324 32.3585 23.3335H32.5002C32.9422 23.3335 33.3661 23.5091 33.6787 23.8217C33.9912 24.1342 34.1668 24.5581 34.1668 25.0002C34.1668 25.4422 33.9912 25.8661 33.6787 26.1787C33.3661 26.4912 32.9422 26.6668 32.5002 26.6668H32.4252C32.157 26.6679 31.895 26.7474 31.6714 26.8954C31.4479 27.0435 31.2725 27.2537 31.1668 27.5002Z" stroke="#11121C" stroke-width="1.4" stroke-linecap="round" stroke-linejoin="round"/>
</svg>
