<svg width="50" height="50" viewBox="0 0 50 50" fill="none" xmlns="http://www.w3.org/2000/svg">
<rect width="50" height="50" rx="25" fill="#FCFDFD"/>
<path d="M30.5001 28.5171C31.8347 29.1876 32.9789 30.2635 33.8141 31.6088C33.9795 31.8752 34.0622 32.0085 34.0907 32.1929C34.1488 32.5678 33.8925 33.0287 33.5434 33.177C33.3716 33.25 33.1783 33.25 32.7918 33.25M28.6668 24.5712C30.025 23.8962 30.9584 22.4946 30.9584 20.875C30.9584 19.2554 30.025 17.8538 28.6668 17.1788M26.8334 20.875C26.8334 23.1532 24.9866 25 22.7084 25C20.4303 25 18.5834 23.1532 18.5834 20.875C18.5834 18.5968 20.4303 16.75 22.7084 16.75C24.9866 16.75 26.8334 18.5968 26.8334 20.875ZM16.3461 31.3601C17.8075 29.1658 20.1137 27.75 22.7084 27.75C25.3032 27.75 27.6094 29.1658 29.0708 31.3601C29.391 31.8409 29.551 32.0812 29.5326 32.3883C29.5183 32.6273 29.3616 32.92 29.1705 33.0645C28.9252 33.25 28.5878 33.25 27.9129 33.25H17.5039C16.8291 33.25 16.4917 33.25 16.2463 33.0645C16.0553 32.92 15.8986 32.6273 15.8842 32.3883C15.8658 32.0812 16.0259 31.8409 16.3461 31.3601Z" stroke="#11121C" stroke-width="1.4" stroke-linecap="round" stroke-linejoin="round"/>
</svg>
