<svg width="50" height="50" viewBox="0 0 50 50" fill="none" xmlns="http://www.w3.org/2000/svg">
<rect width="50" height="50" rx="25" fill="#FCFDFD"/>
<path d="M31.4168 18.5835L18.5835 31.4168M20.8752 19.9585C20.8752 20.4648 20.4648 20.8752 19.9585 20.8752C19.4522 20.8752 19.0418 20.4648 19.0418 19.9585C19.0418 19.4522 19.4522 19.0418 19.9585 19.0418C20.4648 19.0418 20.8752 19.4522 20.8752 19.9585ZM30.9585 30.0418C30.9585 30.5481 30.5481 30.9585 30.0418 30.9585C29.5356 30.9585 29.1252 30.5481 29.1252 30.0418C29.1252 29.5356 29.5356 29.1252 30.0418 29.1252C30.5481 29.1252 30.9585 29.5356 30.9585 30.0418Z" stroke="#11121C" stroke-width="1.4" stroke-linecap="round" stroke-linejoin="round"/>
</svg>
