<svg width="50" height="50" viewBox="0 0 50 50" fill="none" xmlns="http://www.w3.org/2000/svg">
<rect width="50" height="50" rx="25" fill="#FCFDFD"/>
<path d="M29.5833 22.7085V19.5918C29.5833 19.0784 29.5833 18.8218 29.4834 18.6257C29.3955 18.4532 29.2553 18.313 29.0828 18.2251C28.8867 18.1252 28.63 18.1252 28.1167 18.1252H16.75M25.9167 27.2918V30.4085C25.9167 30.9219 25.9167 31.1786 25.8168 31.3747C25.7289 31.5471 25.5886 31.6874 25.4162 31.7753C25.2201 31.8752 24.9634 31.8752 24.45 31.8752H16.75M16.75 15.8335L16.75 34.1668M16.75 27.2918L31.7833 27.2918C32.2967 27.2918 32.5534 27.2918 32.7495 27.1919C32.922 27.104 33.0622 26.9638 33.1501 26.7913C33.25 26.5952 33.25 26.3385 33.25 25.8252V24.1752C33.25 23.6618 33.25 23.4051 33.1501 23.209C33.0622 23.0365 32.922 22.8963 32.7495 22.8084C32.5534 22.7085 32.2967 22.7085 31.7833 22.7085L16.75 22.7085L16.75 27.2918Z" stroke="#11121C" stroke-width="1.4" stroke-linecap="round" stroke-linejoin="round"/>
</svg>
