<svg width="50" height="50" viewBox="0 0 50 50" fill="none" xmlns="http://www.w3.org/2000/svg">
<rect width="50" height="50" rx="25" fill="#FCFDFD"/>
<path d="M25.9004 16.5338C25.5784 16.2834 25.4174 16.1581 25.2396 16.11C25.0827 16.0675 24.9173 16.0675 24.7604 16.11C24.5826 16.1581 24.4216 16.2834 24.0996 16.5338L17.8824 21.3694C17.4669 21.6926 17.2591 21.8542 17.1094 22.0566C16.9768 22.2359 16.878 22.4379 16.8179 22.6526C16.75 22.8951 16.75 23.1583 16.75 23.6848V30.3168C16.75 31.3436 16.75 31.857 16.9498 32.2492C17.1256 32.5941 17.4061 32.8746 17.751 33.0503C18.1432 33.2502 18.6566 33.2502 19.6833 33.2502H21.5167C21.7734 33.2502 21.9017 33.2502 21.9997 33.2002C22.086 33.1563 22.1561 33.0862 22.2 32.9999C22.25 32.9019 22.25 32.7735 22.25 32.5168V26.4668C22.25 25.9535 22.25 25.6968 22.3499 25.5007C22.4378 25.3282 22.578 25.188 22.7505 25.1001C22.9466 25.0002 23.2033 25.0002 23.7167 25.0002H26.2833C26.7967 25.0002 27.0534 25.0002 27.2495 25.1001C27.422 25.188 27.5622 25.3282 27.6501 25.5007C27.75 25.6968 27.75 25.9535 27.75 26.4668V32.5168C27.75 32.7735 27.75 32.9019 27.8 32.9999C27.8439 33.0862 27.914 33.1563 28.0003 33.2002C28.0983 33.2502 28.2266 33.2502 28.4833 33.2502H30.3167C31.3434 33.2502 31.8568 33.2502 32.249 33.0503C32.5939 32.8746 32.8744 32.5941 33.0502 32.2492C33.25 31.857 33.25 31.3436 33.25 30.3168V23.6848C33.25 23.1583 33.25 22.8951 33.1821 22.6526C33.122 22.4379 33.0232 22.2359 32.8906 22.0566C32.7409 21.8542 32.5331 21.6926 32.1176 21.3694L25.9004 16.5338Z" stroke="#11121C" stroke-width="1.4" stroke-linecap="round" stroke-linejoin="round"/>
</svg>
