<svg width="50" height="50" viewBox="0 0 50 50" fill="none" xmlns="http://www.w3.org/2000/svg">
<rect width="50" height="50" rx="25" fill="#FCFDFD"/>
<path d="M26.402 21.656C25.8772 22.0301 25.2351 22.2502 24.5416 22.2502C22.7697 22.2502 21.3333 20.8137 21.3333 19.0418C21.3333 17.2699 22.7697 15.8335 24.5416 15.8335C25.6902 15.8335 26.6978 16.437 27.2646 17.3443M19.4999 32.4134H21.8927C22.2047 32.4134 22.5147 32.4505 22.8172 32.5248L25.3454 33.1391C25.894 33.2728 26.4655 33.2858 27.0198 33.1781L29.8151 32.6343C30.5536 32.4904 31.2329 32.1368 31.7652 31.619L33.743 29.6951C34.3078 29.1466 34.3078 28.2566 33.743 27.7071C33.2345 27.2125 32.4293 27.1568 31.854 27.5763L29.549 29.2579C29.2189 29.4992 28.8172 29.6292 28.4041 29.6292H26.1783L27.5951 29.6291C28.3936 29.6291 29.0405 28.9999 29.0405 28.2231V27.9419C29.0405 27.2969 28.5892 26.7345 27.9462 26.5785L25.7595 26.0468C25.4036 25.9604 25.0392 25.9168 24.6728 25.9168C23.7884 25.9168 22.1875 26.6491 22.1875 26.6491L19.4999 27.773M32.3333 19.9585C32.3333 21.7304 30.8968 23.1668 29.1249 23.1668C27.353 23.1668 25.9166 21.7304 25.9166 19.9585C25.9166 18.1866 27.353 16.7502 29.1249 16.7502C30.8968 16.7502 32.3333 18.1866 32.3333 19.9585ZM15.8333 27.3835L15.8333 32.7002C15.8333 33.2135 15.8333 33.4702 15.9332 33.6663C16.021 33.8388 16.1613 33.979 16.3338 34.0669C16.5298 34.1668 16.7865 34.1668 17.2999 34.1668H18.0333C18.5466 34.1668 18.8033 34.1668 18.9994 34.0669C19.1719 33.979 19.3121 33.8388 19.4 33.6663C19.4999 33.4702 19.4999 33.2135 19.4999 32.7002V27.3835C19.4999 26.8701 19.4999 26.6134 19.4 26.4173C19.3121 26.2449 19.1719 26.1046 18.9994 26.0167C18.8033 25.9168 18.5466 25.9168 18.0333 25.9168L17.2999 25.9168C16.7865 25.9168 16.5298 25.9168 16.3338 26.0167C16.1613 26.1046 16.021 26.2449 15.9332 26.4173C15.8333 26.6134 15.8333 26.8701 15.8333 27.3835Z" stroke="#11121C" stroke-width="1.4" stroke-linecap="round" stroke-linejoin="round"/>
</svg>
