<svg width="50" height="50" viewBox="0 0 50 50" fill="none" xmlns="http://www.w3.org/2000/svg">
<rect width="50" height="50" rx="25" fill="#FCFDFD"/>
<path d="M33.25 23.1668H16.75M28.6667 15.8335V19.5002M21.3333 15.8335V19.5002M21.15 34.1668H28.85C30.3901 34.1668 31.1602 34.1668 31.7485 33.8671C32.2659 33.6034 32.6866 33.1827 32.9503 32.6653C33.25 32.077 33.25 31.307 33.25 29.7668V22.0668C33.25 20.5267 33.25 19.7566 32.9503 19.1684C32.6866 18.6509 32.2659 18.2302 31.7485 17.9666C31.1602 17.6668 30.3901 17.6668 28.85 17.6668H21.15C19.6099 17.6668 18.8398 17.6668 18.2515 17.9666C17.7341 18.2302 17.3134 18.6509 17.0497 19.1684C16.75 19.7566 16.75 20.5267 16.75 22.0668V29.7668C16.75 31.307 16.75 32.077 17.0497 32.6653C17.3134 33.1827 17.7341 33.6034 18.2515 33.8671C18.8398 34.1668 19.6099 34.1668 21.15 34.1668Z" stroke="#11121C" stroke-width="1.4" stroke-linecap="round" stroke-linejoin="round"/>
</svg>
