<svg width="50" height="50" viewBox="0 0 50 50" fill="none" xmlns="http://www.w3.org/2000/svg">
<circle cx="25" cy="25" r="25" fill="#F6F5F8"/>
<g clip-path="url(#clip0_1_7415)">
<path d="M30.2882 27.1181L23.9141 16.5172L28.4933 14.0002L36.4195 27.1181H30.2882Z" fill="#070707"/>
<path d="M13.3125 25.6318L17.8917 23.0978L20.3146 27.1171H14.2011L13.3125 25.6318Z" fill="#070707"/>
<path d="M22.2969 33.8814H23.6001V28.8361H22.2969V33.8814Z" fill="#070707"/>
<path d="M38.6314 34.0007C37.1741 34.0007 36.2974 33.2808 36.25 32.266H37.6244C37.6244 32.5835 37.8317 33.0483 38.7203 33.0654C39.3127 33.0654 39.5911 32.7309 39.5911 32.4815C39.5556 32.0846 39.0343 32.0506 38.4774 31.9656C37.9206 31.8805 37.4466 31.7842 37.1031 31.6141C36.6647 31.3987 36.3685 30.9338 36.3685 30.401C36.3685 29.4996 37.186 28.7853 38.5485 28.7853C39.8695 28.7853 40.7048 29.4486 40.7937 30.435H39.4667C39.4549 30.1685 39.4015 29.749 38.6196 29.749C38.0923 29.749 37.7428 29.8511 37.7132 30.2025C37.7132 30.7184 38.8091 30.6844 39.6622 30.8998C40.4797 31.0982 41.001 31.5858 41.001 32.266C41.001 33.5189 39.9406 34.0007 38.6314 34.0007Z" fill="#070707"/>
<path d="M18.6797 21.132L23.2589 18.6037L28.395 27.1184H23.6025V28.3656H22.2992V27.1127L18.6797 21.132Z" fill="#070707"/>
<path fill-rule="evenodd" clip-rule="evenodd" d="M18.7956 33.9994C17.2791 33.9994 16.0469 32.8146 16.0469 31.3804C16.0469 29.9291 17.2791 28.784 18.7956 28.784C19.3702 28.784 19.8915 28.9314 20.3477 29.2319V27.1173H21.6509V33.8804H20.3477V33.5459C19.8915 33.8294 19.3702 33.9994 18.7956 33.9994ZM17.2968 31.3804C17.2968 32.1627 17.9959 32.8146 18.8311 32.8146C19.6486 32.8146 20.3477 32.1627 20.3477 31.3804C20.3477 30.5981 19.6486 29.9291 18.8311 29.9291C17.9959 29.9291 17.2968 30.5981 17.2968 31.3804Z" fill="#070707"/>
<path fill-rule="evenodd" clip-rule="evenodd" d="M28.4297 27.1173H29.7152V33.8804H28.4297V33.5459C27.9913 33.8294 27.4522 33.9994 26.8598 33.9994C25.3611 33.9994 24.1289 32.8146 24.1289 31.3804C24.1289 29.9291 25.3611 28.784 26.8598 28.784C27.4522 28.784 27.9735 28.9314 28.4297 29.2319V27.1173ZM25.3966 31.3804C25.3966 32.1627 26.0957 32.8146 26.8954 32.8146C27.7307 32.8146 28.4297 32.1627 28.4297 31.3804C28.4297 30.5981 27.7307 29.9291 26.8954 29.9291C26.0957 29.9291 25.3966 30.5981 25.3966 31.3804Z" fill="#070707"/>
<path fill-rule="evenodd" clip-rule="evenodd" d="M32.8833 34.0007C31.3904 34.0007 30.1523 32.8159 30.1523 31.3817C30.1523 29.9304 31.3904 28.7853 32.8833 28.7853C33.4579 28.7853 33.997 28.9327 34.4354 29.2332V28.8307H35.7386V33.8817H34.4354V33.5472C33.997 33.8307 33.4757 34.0007 32.8833 34.0007ZM31.4201 31.3817C31.4201 32.164 32.1191 32.8159 32.9366 32.8159C33.7541 32.8159 34.4354 32.164 34.4354 31.3817C34.4354 30.5994 33.7541 29.9304 32.9366 29.9304C32.1191 29.9304 31.4201 30.5994 31.4201 31.3817Z" fill="#070707"/>
<path fill-rule="evenodd" clip-rule="evenodd" d="M11.2559 31.3817C11.2559 32.164 11.9549 32.8159 12.7724 32.8159C13.6077 32.8159 14.3067 32.164 14.3067 31.3817C14.3067 30.5994 13.6077 29.9304 12.7724 29.9304C11.9549 29.9304 11.2559 30.5994 11.2559 31.3817ZM12.7369 34.0007C11.2381 34.0007 10 32.8159 10 31.3817C10 29.9304 11.2381 28.7853 12.7369 28.7853C13.3115 28.7853 13.8506 28.9327 14.3067 29.2332V28.8307H15.5922V33.8817H14.3067V33.5472C13.8683 33.8307 13.3293 34.0007 12.7369 34.0007Z" fill="#070707"/>
</g>
<defs>
<clipPath id="clip0_1_7415">
<rect width="31" height="20" fill="white" transform="translate(10 14)"/>
</clipPath>
</defs>
</svg>
