<svg width="50" height="50" viewBox="0 0 50 50" fill="none" xmlns="http://www.w3.org/2000/svg">
<circle cx="25" cy="25" r="25" fill="#F6F5F8"/>
<path d="M29.6172 13C29.6731 13 29.729 13 29.788 13C29.925 14.6925 29.279 15.9572 28.4938 16.873C27.7234 17.7825 26.6685 18.6646 24.9623 18.5308C24.8484 16.8625 25.4955 15.6916 26.2796 14.7779C27.0068 13.9264 28.3399 13.1686 29.6172 13Z" fill="#070707"/>
<path d="M34.7812 30.6163C34.7812 30.6331 34.7812 30.6479 34.7812 30.6637C34.3017 32.1159 33.6177 33.3606 32.783 34.5156C32.0211 35.5642 31.0873 36.9754 29.4201 36.9754C27.9794 36.9754 27.0225 36.049 25.546 36.0237C23.9842 35.9984 23.1253 36.7983 21.6973 36.9996C21.5339 36.9996 21.3706 36.9996 21.2104 36.9996C20.1618 36.8479 19.3155 36.0174 18.699 35.2691C16.881 33.0581 15.4762 30.2021 15.2148 26.5472C15.2148 26.1889 15.2148 25.8316 15.2148 25.4733C15.3255 22.8576 16.5965 20.7309 18.2858 19.7002C19.1774 19.1522 20.4031 18.6853 21.7679 18.894C22.3528 18.9846 22.9503 19.1848 23.4741 19.383C23.9705 19.5737 24.5912 19.912 25.1793 19.8941C25.5776 19.8825 25.9739 19.6749 26.3754 19.5284C27.5516 19.1037 28.7045 18.6168 30.2242 18.8455C32.0506 19.1216 33.3468 19.9331 34.1478 21.1851C32.6028 22.1684 31.3814 23.6501 31.59 26.1805C31.7755 28.479 33.1118 29.8237 34.7812 30.6163Z" fill="#070707"/>
</svg>
