<svg width="48" height="48" viewBox="0 0 48 48" fill="none" xmlns="http://www.w3.org/2000/svg">
<rect width="48" height="48" rx="24" fill="#F6F5F8"/>
<path d="M23.3426 16.1656C23.5539 15.7375 23.6595 15.5235 23.8029 15.4551C23.9277 15.3956 24.0727 15.3956 24.1974 15.4551C24.3408 15.5235 24.4465 15.7375 24.6578 16.1656L26.6622 20.2264C26.7246 20.3527 26.7558 20.4159 26.8014 20.465C26.8417 20.5084 26.8901 20.5436 26.9439 20.5686C27.0046 20.5968 27.0743 20.607 27.2137 20.6274L31.6974 21.2828C32.1696 21.3518 32.4056 21.3863 32.5149 21.5016C32.6099 21.6019 32.6546 21.7398 32.6365 21.8768C32.6157 22.0343 32.4448 22.2008 32.103 22.5337L28.8598 25.6926C28.7587 25.791 28.7082 25.8403 28.6756 25.8989C28.6467 25.9507 28.6281 26.0077 28.621 26.0667C28.6129 26.1332 28.6249 26.2028 28.6487 26.3419L29.414 30.8036C29.4947 31.2742 29.535 31.5095 29.4592 31.6491C29.3932 31.7706 29.2759 31.8558 29.14 31.881C28.9837 31.91 28.7724 31.7989 28.3498 31.5766L24.3415 29.4687C24.2166 29.403 24.1542 29.3702 24.0884 29.3573C24.0301 29.3459 23.9702 29.3459 23.912 29.3573C23.8462 29.3702 23.7837 29.403 23.6588 29.4687L19.6505 31.5766C19.2279 31.7989 19.0166 31.91 18.8604 31.881C18.7245 31.8558 18.6072 31.7706 18.5412 31.6491C18.4653 31.5095 18.5057 31.2742 18.5864 30.8036L19.3516 26.3419C19.3755 26.2028 19.3874 26.1332 19.3794 26.0667C19.3722 26.0077 19.3537 25.9507 19.3248 25.8989C19.2922 25.8403 19.2416 25.791 19.1405 25.6926L15.8973 22.5337C15.5555 22.2008 15.3846 22.0343 15.3638 21.8768C15.3457 21.7398 15.3904 21.6019 15.4855 21.5016C15.5947 21.3863 15.8308 21.3518 16.303 21.2828L20.7866 20.6274C20.9261 20.607 20.9958 20.5968 21.0565 20.5686C21.1102 20.5436 21.1586 20.5084 21.199 20.465C21.2446 20.4159 21.2758 20.3527 21.3381 20.2264L23.3426 16.1656Z" stroke="#11121C" stroke-width="1.4" stroke-linecap="round" stroke-linejoin="round"/>
</svg>
