<svg width="22" height="22" viewBox="0 0 22 22" fill="none" xmlns="http://www.w3.org/2000/svg">
<path d="M22 11C22 9.55546 21.7155 8.12506 21.1627 6.79048C20.6099 5.4559 19.7996 4.24327 18.7782 3.22183C17.7567 2.20038 16.5441 1.39013 15.2095 0.837325C13.8749 0.284523 12.4445 -6.31429e-08 11 0L11 11H22Z" fill="#2C5E8B"/>
<path d="M11 22C12.4445 22 13.8749 21.7155 15.2095 21.1627C16.5441 20.6099 17.7567 19.7996 18.7782 18.7782C19.7996 17.7567 20.6099 16.5441 21.1627 15.2095C21.7155 13.8749 22 12.4445 22 11H11L11 22Z" fill="#887F2C"/>
<path d="M0 11C-1.26286e-07 12.4445 0.284523 13.8749 0.837325 15.2095C1.39013 16.5441 2.20038 17.7567 3.22182 18.7782C4.24327 19.7996 5.4559 20.6099 6.79048 21.1627C8.12506 21.7155 9.55546 22 11 22L11 11L0 11Z" fill="#A24343"/>
<path d="M11 0C8.08262 -3.47894e-08 5.28473 1.15893 3.22183 3.22183C1.15893 5.28472 2.55046e-07 8.08262 0 11L11 11L11 0Z" fill="#312D8D"/>
</svg>
