<svg width="216" height="104" viewBox="0 0 216 104" fill="none" xmlns="http://www.w3.org/2000/svg">
<rect width="216" height="104" rx="20" fill="#5C68FF"/>
<path d="M93.53 75.126C92.5407 75.126 91.7007 74.9207 91.01 74.51C90.3193 74.0993 89.7873 73.516 89.414 72.76C89.05 72.004 88.868 71.1033 88.868 70.058C88.868 69.0127 89.05 68.1167 89.414 67.37C89.7873 66.614 90.3193 66.0307 91.01 65.62C91.7007 65.2093 92.5407 65.004 93.53 65.004C94.23 65.004 94.8553 65.1113 95.406 65.326C95.9567 65.5407 96.4373 65.8533 96.848 66.264L96.414 67.188C95.966 66.796 95.5227 66.5113 95.084 66.334C94.6453 66.1473 94.132 66.054 93.544 66.054C92.4147 66.054 91.556 66.404 90.968 67.104C90.38 67.804 90.086 68.7887 90.086 70.058C90.086 71.3273 90.38 72.3167 90.968 73.026C91.556 73.726 92.4147 74.076 93.544 74.076C94.132 74.076 94.6453 73.9873 95.084 73.81C95.5227 73.6233 95.966 73.3293 96.414 72.928L96.848 73.866C96.4373 74.2673 95.9567 74.58 95.406 74.804C94.8553 75.0187 94.23 75.126 93.53 75.126ZM101.068 75.126C100.396 75.126 99.8081 74.9813 99.3041 74.692C98.8095 74.3933 98.4268 73.9733 98.1561 73.432C97.8855 72.8813 97.7501 72.2327 97.7501 71.486C97.7501 70.73 97.8855 70.0813 98.1561 69.54C98.4268 68.9987 98.8095 68.5833 99.3041 68.294C99.8081 67.9953 100.396 67.846 101.068 67.846C101.749 67.846 102.337 67.9953 102.832 68.294C103.336 68.5833 103.723 68.9987 103.994 69.54C104.274 70.0813 104.414 70.73 104.414 71.486C104.414 72.2327 104.274 72.8813 103.994 73.432C103.723 73.9733 103.336 74.3933 102.832 74.692C102.337 74.9813 101.749 75.126 101.068 75.126ZM101.068 74.202C101.74 74.202 102.272 73.9733 102.664 73.516C103.056 73.0493 103.252 72.3727 103.252 71.486C103.252 70.59 103.051 69.9133 102.65 69.456C102.258 68.9893 101.731 68.756 101.068 68.756C100.405 68.756 99.8781 68.9893 99.4861 69.456C99.0941 69.9133 98.8981 70.59 98.8981 71.486C98.8981 72.3727 99.0941 73.0493 99.4861 73.516C99.8781 73.9733 100.405 74.202 101.068 74.202ZM108.66 75.126C107.83 75.126 107.2 74.8973 106.77 74.44C106.35 73.9827 106.14 73.2827 106.14 72.34V67.972H107.274V72.312C107.274 72.956 107.405 73.432 107.666 73.74C107.928 74.0387 108.334 74.188 108.884 74.188C109.5 74.188 109.995 73.9873 110.368 73.586C110.742 73.1847 110.928 72.648 110.928 71.976V67.972H112.062V75H110.956V73.418H111.138C110.942 73.9593 110.625 74.3793 110.186 74.678C109.757 74.9767 109.248 75.126 108.66 75.126ZM114.262 78.024V69.596C114.262 69.3347 114.248 69.0687 114.22 68.798C114.202 68.518 114.178 68.2427 114.15 67.972H115.242L115.396 69.638H115.228C115.378 69.0873 115.681 68.6533 116.138 68.336C116.596 68.0093 117.142 67.846 117.776 67.846C118.411 67.846 118.957 67.9907 119.414 68.28C119.881 68.5693 120.245 68.9847 120.506 69.526C120.768 70.0673 120.898 70.7207 120.898 71.486C120.898 72.242 120.768 72.8907 120.506 73.432C120.254 73.9733 119.895 74.3933 119.428 74.692C118.962 74.9813 118.411 75.126 117.776 75.126C117.151 75.126 116.61 74.9673 116.152 74.65C115.695 74.3327 115.392 73.8987 115.242 73.348H115.396V78.024H114.262ZM117.552 74.202C118.224 74.202 118.756 73.9733 119.148 73.516C119.55 73.0493 119.75 72.3727 119.75 71.486C119.75 70.59 119.55 69.9133 119.148 69.456C118.756 68.9893 118.224 68.756 117.552 68.756C116.89 68.756 116.358 68.9893 115.956 69.456C115.564 69.9133 115.368 70.59 115.368 71.486C115.368 72.3727 115.564 73.0493 115.956 73.516C116.358 73.9733 116.89 74.202 117.552 74.202ZM125.541 75.126C124.869 75.126 124.281 74.9813 123.777 74.692C123.282 74.3933 122.899 73.9733 122.629 73.432C122.358 72.8813 122.223 72.2327 122.223 71.486C122.223 70.73 122.358 70.0813 122.629 69.54C122.899 68.9987 123.282 68.5833 123.777 68.294C124.281 67.9953 124.869 67.846 125.541 67.846C126.222 67.846 126.81 67.9953 127.305 68.294C127.809 68.5833 128.196 68.9987 128.467 69.54C128.747 70.0813 128.887 70.73 128.887 71.486C128.887 72.2327 128.747 72.8813 128.467 73.432C128.196 73.9733 127.809 74.3933 127.305 74.692C126.81 74.9813 126.222 75.126 125.541 75.126ZM125.541 74.202C126.213 74.202 126.745 73.9733 127.137 73.516C127.529 73.0493 127.725 72.3727 127.725 71.486C127.725 70.59 127.524 69.9133 127.123 69.456C126.731 68.9893 126.203 68.756 125.541 68.756C124.878 68.756 124.351 68.9893 123.959 69.456C123.567 69.9133 123.371 70.59 123.371 71.486C123.371 72.3727 123.567 73.0493 123.959 73.516C124.351 73.9733 124.878 74.202 125.541 74.202ZM130.655 75V69.596C130.655 69.3347 130.641 69.0687 130.613 68.798C130.594 68.518 130.571 68.2427 130.543 67.972H131.635L131.775 69.512H131.607C131.812 68.9707 132.139 68.56 132.587 68.28C133.044 67.9907 133.571 67.846 134.169 67.846C134.999 67.846 135.625 68.07 136.045 68.518C136.474 68.9567 136.689 69.652 136.689 70.604V75H135.555V70.674C135.555 70.0113 135.419 69.5307 135.149 69.232C134.887 68.924 134.477 68.77 133.917 68.77C133.263 68.77 132.745 68.9707 132.363 69.372C131.98 69.7733 131.789 70.31 131.789 70.982V75H130.655ZM142.48 75V69.666C142.48 69.386 142.471 69.1013 142.452 68.812C142.443 68.5227 142.424 68.2427 142.396 67.972H143.488L143.628 69.68L143.432 69.694C143.526 69.274 143.689 68.9287 143.922 68.658C144.156 68.3873 144.431 68.1867 144.748 68.056C145.066 67.916 145.397 67.846 145.742 67.846C145.882 67.846 146.004 67.8507 146.106 67.86C146.218 67.8693 146.321 67.8927 146.414 67.93L146.4 68.938C146.26 68.8913 146.13 68.8633 146.008 68.854C145.896 68.8353 145.766 68.826 145.616 68.826C145.206 68.826 144.846 68.924 144.538 69.12C144.24 69.316 144.011 69.568 143.852 69.876C143.703 70.184 143.628 70.5107 143.628 70.856V75H142.48ZM150.2 75.126C149.575 75.126 149.029 74.9813 148.562 74.692C148.095 74.3933 147.731 73.9733 147.47 73.432C147.218 72.8907 147.092 72.242 147.092 71.486C147.092 70.7207 147.218 70.0673 147.47 69.526C147.731 68.9847 148.095 68.5693 148.562 68.28C149.029 67.9907 149.575 67.846 150.2 67.846C150.835 67.846 151.381 68.0093 151.838 68.336C152.305 68.6533 152.613 69.0873 152.762 69.638H152.594L152.748 67.972H153.84C153.812 68.2427 153.784 68.518 153.756 68.798C153.737 69.0687 153.728 69.3347 153.728 69.596V75H152.594V73.348H152.748C152.599 73.8987 152.291 74.3327 151.824 74.65C151.357 74.9673 150.816 75.126 150.2 75.126ZM150.424 74.202C151.096 74.202 151.628 73.9733 152.02 73.516C152.412 73.0493 152.608 72.3727 152.608 71.486C152.608 70.59 152.412 69.9133 152.02 69.456C151.628 68.9893 151.096 68.756 150.424 68.756C149.761 68.756 149.229 68.9893 148.828 69.456C148.436 69.9133 148.24 70.59 148.24 71.486C148.24 72.3727 148.436 73.0493 148.828 73.516C149.229 73.9733 149.761 74.202 150.424 74.202ZM158.412 75.126C157.722 75.126 157.194 74.93 156.83 74.538C156.466 74.1367 156.284 73.5347 156.284 72.732V68.854H154.912V67.972H156.284V66.054L157.418 65.732V67.972H159.434V68.854H157.418V72.606C157.418 73.166 157.512 73.5673 157.698 73.81C157.894 74.0433 158.184 74.16 158.566 74.16C158.744 74.16 158.902 74.146 159.042 74.118C159.182 74.0807 159.308 74.0387 159.42 73.992V74.944C159.29 75 159.131 75.042 158.944 75.07C158.767 75.1073 158.59 75.126 158.412 75.126ZM163.869 75.126C162.767 75.126 161.899 74.8087 161.265 74.174C160.63 73.53 160.313 72.6387 160.313 71.5C160.313 70.7627 160.453 70.1233 160.733 69.582C161.013 69.0313 161.405 68.6067 161.909 68.308C162.413 68 162.991 67.846 163.645 67.846C164.289 67.846 164.83 67.9813 165.269 68.252C165.707 68.5227 166.043 68.91 166.277 69.414C166.51 69.9087 166.627 70.4967 166.627 71.178V71.598H161.181V70.884H165.885L165.647 71.066C165.647 70.3193 165.479 69.736 165.143 69.316C164.807 68.896 164.307 68.686 163.645 68.686C162.945 68.686 162.399 68.9333 162.007 69.428C161.615 69.9133 161.419 70.5713 161.419 71.402V71.528C161.419 72.4053 161.633 73.0727 162.063 73.53C162.501 73.978 163.113 74.202 163.897 74.202C164.317 74.202 164.709 74.1413 165.073 74.02C165.446 73.8893 165.801 73.6793 166.137 73.39L166.529 74.188C166.221 74.4867 165.829 74.72 165.353 74.888C164.886 75.0467 164.391 75.126 163.869 75.126Z" fill="white" fill-opacity="0.5"/>
<path d="M89.872 50V47.72L95.488 41.864C96.192 41.128 96.712 40.448 97.048 39.824C97.384 39.2 97.552 38.56 97.552 37.904C97.552 37.088 97.296 36.472 96.784 36.056C96.272 35.64 95.528 35.432 94.552 35.432C93.768 35.432 93.016 35.576 92.296 35.864C91.576 36.136 90.872 36.568 90.184 37.16L89.176 34.856C89.864 34.248 90.712 33.76 91.72 33.392C92.744 33.024 93.816 32.84 94.936 32.84C96.76 32.84 98.16 33.248 99.136 34.064C100.112 34.88 100.6 36.048 100.6 37.568C100.6 38.624 100.352 39.632 99.856 40.592C99.36 41.536 98.592 42.528 97.552 43.568L92.872 48.248V47.432H101.272V50H89.872ZM109.711 50.24C108.975 50.24 108.239 50.16 107.503 50C106.783 49.84 106.103 49.616 105.463 49.328C104.839 49.04 104.303 48.696 103.855 48.296L104.863 45.968C105.615 46.528 106.383 46.952 107.167 47.24C107.967 47.512 108.799 47.648 109.663 47.648C110.703 47.648 111.511 47.392 112.087 46.88C112.679 46.352 112.975 45.648 112.975 44.768C112.975 43.872 112.695 43.152 112.135 42.608C111.575 42.048 110.807 41.768 109.831 41.768C109.143 41.768 108.511 41.904 107.935 42.176C107.375 42.432 106.871 42.832 106.423 43.376H104.383V33.08H114.895V35.624H107.311V41H106.567C106.983 40.44 107.535 40.008 108.223 39.704C108.927 39.4 109.711 39.248 110.575 39.248C111.663 39.248 112.607 39.472 113.407 39.92C114.207 40.368 114.831 41 115.279 41.816C115.727 42.616 115.951 43.56 115.951 44.648C115.951 45.752 115.695 46.728 115.183 47.576C114.687 48.408 113.967 49.064 113.023 49.544C112.095 50.008 110.991 50.24 109.711 50.24ZM118.077 50V46.664H121.437V50H118.077ZM130.534 50.24C128.406 50.24 126.758 49.504 125.59 48.032C124.438 46.56 123.862 44.496 123.862 41.84C123.862 39.92 124.158 38.296 124.75 36.968C125.342 35.624 126.182 34.6 127.27 33.896C128.374 33.192 129.694 32.84 131.23 32.84C132.142 32.84 133.046 33.008 133.942 33.344C134.838 33.664 135.606 34.128 136.246 34.736L135.214 37.04C134.622 36.496 133.982 36.096 133.294 35.84C132.606 35.568 131.91 35.432 131.206 35.432C129.766 35.432 128.67 35.92 127.918 36.896C127.166 37.872 126.79 39.328 126.79 41.264V43.064H126.502C126.63 42.248 126.902 41.552 127.318 40.976C127.734 40.384 128.27 39.936 128.926 39.632C129.582 39.312 130.31 39.152 131.11 39.152C132.102 39.152 132.982 39.384 133.75 39.848C134.518 40.312 135.118 40.952 135.55 41.768C135.998 42.584 136.222 43.52 136.222 44.576C136.222 45.664 135.974 46.64 135.478 47.504C134.998 48.352 134.334 49.024 133.486 49.52C132.638 50 131.654 50.24 130.534 50.24ZM130.366 47.792C130.958 47.792 131.478 47.664 131.926 47.408C132.374 47.152 132.718 46.792 132.958 46.328C133.214 45.848 133.342 45.304 133.342 44.696C133.342 44.072 133.214 43.528 132.958 43.064C132.718 42.6 132.374 42.24 131.926 41.984C131.478 41.712 130.958 41.576 130.366 41.576C129.774 41.576 129.254 41.712 128.806 41.984C128.358 42.24 128.006 42.6 127.75 43.064C127.494 43.528 127.366 44.072 127.366 44.696C127.366 45.304 127.494 45.848 127.75 46.328C128.006 46.792 128.358 47.152 128.806 47.408C129.254 47.664 129.774 47.792 130.366 47.792ZM139.789 50V47.432H143.677V35.672H145.165L140.173 38.648V35.72L144.565 33.08H146.773V47.432H150.421V50H139.789ZM159.22 50H156.652L166.636 33.08H169.204L159.22 50ZM156.844 43.184C155.484 43.184 154.42 42.72 153.652 41.792C152.884 40.864 152.5 39.6 152.5 38C152.5 36.384 152.884 35.12 153.652 34.208C154.436 33.296 155.5 32.84 156.844 32.84C158.204 32.84 159.268 33.304 160.036 34.232C160.804 35.16 161.188 36.416 161.188 38C161.188 39.6 160.804 40.864 160.036 41.792C159.268 42.72 158.204 43.184 156.844 43.184ZM156.844 41.264C157.436 41.264 157.892 41 158.212 40.472C158.548 39.944 158.716 39.12 158.716 38C158.716 36.864 158.548 36.048 158.212 35.552C157.892 35.04 157.436 34.784 156.844 34.784C156.252 34.784 155.788 35.032 155.452 35.528C155.132 36.024 154.972 36.848 154.972 38C154.972 39.152 155.132 39.984 155.452 40.496C155.788 41.008 156.252 41.264 156.844 41.264ZM169.012 50.24C167.652 50.24 166.588 49.776 165.82 48.848C165.052 47.904 164.668 46.632 164.668 45.032C164.668 43.416 165.052 42.16 165.82 41.264C166.604 40.352 167.668 39.896 169.012 39.896C170.372 39.896 171.436 40.36 172.204 41.288C172.972 42.2 173.356 43.448 173.356 45.032C173.356 46.632 172.972 47.904 172.204 48.848C171.436 49.776 170.372 50.24 169.012 50.24ZM169.012 48.296C169.604 48.296 170.06 48.04 170.38 47.528C170.716 47 170.884 46.168 170.884 45.032C170.884 43.896 170.716 43.08 170.38 42.584C170.06 42.072 169.604 41.816 169.012 41.816C168.42 41.816 167.956 42.072 167.62 42.584C167.3 43.08 167.14 43.896 167.14 45.032C167.14 46.184 167.3 47.016 167.62 47.528C167.956 48.04 168.42 48.296 169.012 48.296Z" fill="white"/>
<rect x="24" y="28" width="48" height="48" rx="24" fill="white"/>
<path d="M54.4168 45.5834L41.5835 58.4167M43.8752 46.9584C43.8752 47.4646 43.4648 47.875 42.9585 47.875C42.4522 47.875 42.0418 47.4646 42.0418 46.9584C42.0418 46.4521 42.4522 46.0417 42.9585 46.0417C43.4648 46.0417 43.8752 46.4521 43.8752 46.9584ZM53.9585 57.0417C53.9585 57.548 53.5481 57.9584 53.0418 57.9584C52.5356 57.9584 52.1252 57.548 52.1252 57.0417C52.1252 56.5354 52.5356 56.125 53.0418 56.125C53.5481 56.125 53.9585 56.5354 53.9585 57.0417Z" stroke="url(#paint0_linear_1_8263)" stroke-width="1.4" stroke-linecap="round" stroke-linejoin="round"/>
<g clip-path="url(#clip0_1_8263)">
<path d="M193.351 -14.928C203.575 -3.54143 202.678 16.1086 192.618 38.8818C182.58 61.6081 163.493 87.2453 137.725 110.384C111.956 133.523 84.4201 149.75 60.7484 157.294C37.0279 164.853 17.3949 163.639 7.17039 152.252C-3.05416 140.866 -2.15653 121.216 7.90268 98.4425C17.9412 75.7162 37.0275 50.079 62.7962 26.94C88.5649 3.80109 116.101 -12.4262 139.773 -19.9699C163.493 -27.5291 183.126 -26.3146 193.351 -14.928Z" stroke="url(#paint1_linear_1_8263)" stroke-opacity="0.15"/>
<path d="M84.6492 57.3622C80.0886 54.7291 77.2724 49.415 76.1755 41.9005C75.0797 34.3929 75.7161 24.7765 77.9763 13.693C82.4956 -8.46884 93.4832 -36.3828 109.88 -64.7826C126.276 -93.1824 144.957 -116.655 161.89 -131.65C170.358 -139.149 178.368 -144.508 185.418 -147.313C192.474 -150.12 198.484 -150.338 203.045 -147.705C207.606 -145.072 210.422 -139.758 211.519 -132.244C212.615 -124.736 211.978 -115.12 209.718 -104.036C205.199 -81.8744 194.211 -53.9604 177.814 -25.5606C161.418 2.83925 142.737 26.3117 125.804 41.3065C117.336 48.8056 109.326 54.165 102.276 56.9698C95.2201 59.7771 89.2098 59.9952 84.6492 57.3622Z" stroke="url(#paint2_linear_1_8263)" stroke-opacity="0.15"/>
</g>
<defs>
<linearGradient id="paint0_linear_1_8263" x1="41.5835" y1="45.5834" x2="49.324" y2="75.5698" gradientUnits="userSpaceOnUse">
<stop stop-color="#6FACFF"/>
<stop offset="0.0001" stop-color="#5C68FF"/>
<stop offset="1" stop-color="#2984FE"/>
</linearGradient>
<linearGradient id="paint1_linear_1_8263" x1="62.4621" y1="26.568" x2="162.913" y2="99.4913" gradientUnits="userSpaceOnUse">
<stop stop-color="white"/>
<stop offset="1" stop-color="white" stop-opacity="0"/>
</linearGradient>
<linearGradient id="paint2_linear_1_8263" x1="200.919" y1="-1.38959" x2="124.427" y2="19.8433" gradientUnits="userSpaceOnUse">
<stop/>
<stop offset="1" stop-opacity="0"/>
</linearGradient>
<clipPath id="clip0_1_8263">
<rect width="216" height="104" fill="white"/>
</clipPath>
</defs>
</svg>
