<svg width="48" height="48" viewBox="0 0 48 48" fill="none" xmlns="http://www.w3.org/2000/svg">
<rect width="48" height="48" rx="24" fill="#F6F5F8"/>
<path d="M24.0002 28.5833C24.0002 31.1146 26.0522 33.1667 28.5835 33.1667C31.1148 33.1667 33.1668 31.1146 33.1668 28.5833C33.1668 26.052 31.1148 24 28.5835 24C26.0522 24 24.0002 26.052 24.0002 28.5833ZM24.0002 28.5833C24.0002 27.5513 24.3412 26.599 24.9168 25.8329V17.5833M24.0002 28.5833C24.0002 29.3399 24.1835 30.0537 24.5081 30.6826C23.7359 31.3349 21.9522 31.7917 19.8752 31.7917C17.0907 31.7917 14.8335 30.9709 14.8335 29.9583V17.5833M24.9168 17.5833C24.9168 18.5959 22.6596 19.4167 19.8752 19.4167C17.0907 19.4167 14.8335 18.5959 14.8335 17.5833M24.9168 17.5833C24.9168 16.5708 22.6596 15.75 19.8752 15.75C17.0907 15.75 14.8335 16.5708 14.8335 17.5833M14.8335 25.8333C14.8335 26.8459 17.0907 27.6667 19.8752 27.6667C21.8817 27.6667 23.6145 27.2404 24.4261 26.6233M24.9168 21.7083C24.9168 22.7209 22.6596 23.5417 19.8752 23.5417C17.0907 23.5417 14.8335 22.7209 14.8335 21.7083" stroke="#11121C" stroke-width="1.4" stroke-linecap="round" stroke-linejoin="round"/>
</svg>
