<svg width="48" height="48" viewBox="0 0 48 48" fill="none" xmlns="http://www.w3.org/2000/svg">
<rect width="48" height="48" rx="24" fill="#F6F5F8"/>
<path d="M32.25 22.1667H15.75M27.6667 14.8334V18.5M20.3333 14.8334V18.5M20.15 33.1667H27.85C29.3901 33.1667 30.1602 33.1667 30.7485 32.867C31.2659 32.6033 31.6866 32.1826 31.9503 31.6652C32.25 31.0769 32.25 30.3069 32.25 28.7667V21.0667C32.25 19.5266 32.25 18.7565 31.9503 18.1682C31.6866 17.6508 31.2659 17.2301 30.7485 16.9664C30.1602 16.6667 29.3901 16.6667 27.85 16.6667H20.15C18.6099 16.6667 17.8398 16.6667 17.2515 16.9664C16.7341 17.2301 16.3134 17.6508 16.0497 18.1682C15.75 18.7565 15.75 19.5266 15.75 21.0667V28.7667C15.75 30.3069 15.75 31.0769 16.0497 31.6652C16.3134 32.1826 16.7341 32.6033 17.2515 32.867C17.8398 33.1667 18.6099 33.1667 20.15 33.1667Z" stroke="#11121C" stroke-width="1.4" stroke-linecap="round" stroke-linejoin="round"/>
</svg>
