<svg width="50" height="50" viewBox="0 0 50 50" fill="none" xmlns="http://www.w3.org/2000/svg">
<circle cx="25" cy="25" r="25" fill="#F6F5F8"/>
<g clip-path="url(#clip0_1_7373)">
<path d="M12.6401 30.9956C11.6569 30.9591 10.8524 30.7074 10.2234 30.24C10.1034 30.1508 9.8173 29.883 9.72134 29.7701C9.46626 29.4701 9.29284 29.1782 9.17717 28.8543C8.82124 27.8571 9.00443 26.5487 9.70113 25.1127C10.2977 23.8833 11.2181 22.6639 12.824 20.9752C13.0606 20.7267 13.765 19.9999 13.7696 19.9999C13.7712 19.9999 13.7328 20.0621 13.6845 20.1379C13.267 20.792 12.9097 21.5626 12.7151 22.2296C12.4024 23.3 12.4401 24.2185 12.8255 24.9308C13.0914 25.4215 13.5471 25.8465 14.0597 26.0814C14.9569 26.4926 16.2705 26.5266 17.8747 26.181C17.9851 26.157 23.4581 24.7982 30.0368 23.1612C36.6156 21.5241 41.9992 20.1858 42 20.1869C42.0019 20.1883 26.7156 26.3062 18.7803 29.4801C17.5236 29.9826 17.1876 30.1095 16.5968 30.3035C15.0865 30.7995 13.7337 31.0362 12.6401 30.9956Z" fill="#070707"/>
</g>
<defs>
<clipPath id="clip0_1_7373">
<rect width="33" height="11" fill="white" transform="translate(9 20)"/>
</clipPath>
</defs>
</svg>
