<svg width="50" height="50" viewBox="0 0 50 50" fill="none" xmlns="http://www.w3.org/2000/svg">
<circle cx="25" cy="25" r="25" fill="#F6F5F8"/>
<path d="M33.4837 33.4837C28.7954 38.1721 21.2047 38.1721 16.5163 33.4837C11.8279 28.7954 11.8279 21.2047 16.5163 16.5163C21.2047 11.8279 28.7954 11.8279 33.4837 16.5163C38.1721 21.2047 38.1721 28.7954 33.4837 33.4837Z" fill="white"/>
<path d="M34.5726 18.8047C34.7959 19.5582 34.9354 20.3396 34.9354 21.1489C34.9354 23.8 33.6238 26.1163 31.6424 27.5954C28.2098 30.1349 23.1866 30.1349 16.2656 32.3117C18.3586 34.8233 21.4842 36.414 25.0005 36.414C31.3075 36.414 36.3866 31.307 36.3866 25.0279C36.3866 22.7117 35.7168 20.5907 34.5726 18.8047Z" fill="#005992"/>
<path d="M31.8365 15.8743C29.9389 14.4511 27.5668 13.5859 24.9993 13.5859C18.6924 13.5859 13.6133 18.6929 13.6133 24.9999C13.6133 27.5394 14.4505 29.8836 15.8458 31.7534C23.4924 29.5208 29.5482 23.5208 31.8365 15.8743Z" fill="#ED1A38"/>
</svg>
