<svg width="50" height="50" viewBox="0 0 50 50" fill="none" xmlns="http://www.w3.org/2000/svg">
<circle cx="25" cy="25" r="25" fill="#F6F5F8"/>
<g clip-path="url(#clip0_1_7287)">
<path d="M25.1818 37.0012L28.3104 19.6185C31.2925 19.6185 32.2332 19.9416 32.369 21.2602C32.369 21.2602 34.3695 20.5233 35.3784 19.0267C31.4412 17.2243 27.4851 17.143 27.4851 17.143L25.1766 19.9207L25.1818 19.9203L22.8734 17.1426C22.8734 17.1426 18.9172 17.224 14.9805 19.0264C15.9886 20.523 17.9898 21.2598 17.9898 21.2598C18.1264 19.9411 19.0659 19.6181 22.028 19.616L25.1818 37.0012Z" fill="#E82127"/>
<path d="M25.1817 16.3382C28.3644 16.3142 32.0074 16.8246 35.7368 18.4304C36.2352 17.5441 36.3634 17.1524 36.3634 17.1524C32.2866 15.559 28.4688 15.0137 25.1812 15C21.8938 15.0137 18.0762 15.5591 14 17.1524C14 17.1524 14.1818 17.6349 14.6261 18.4304C18.3548 16.8246 21.9984 16.3142 25.1812 16.3382H25.1817Z" fill="#E82127"/>
</g>
<defs>
<clipPath id="clip0_1_7287">
<rect width="23" height="23" fill="white" transform="translate(14 14)"/>
</clipPath>
</defs>
</svg>
