<svg width="50" height="50" viewBox="0 0 50 50" fill="none" xmlns="http://www.w3.org/2000/svg">
<circle cx="25" cy="25" r="25" fill="#F6F5F8"/>
<g clip-path="url(#clip0_1_7338)">
<path d="M25 36C31.0751 36 36 31.0751 36 25C36 18.9249 31.0751 14 25 14C18.9249 14 14 18.9249 14 25C14 31.0751 18.9249 36 25 36Z" fill="#03A9F4"/>
<path d="M32.1254 20.5807C31.5894 20.8148 31.0224 20.9703 30.4421 21.0424C31.0539 20.6796 31.5112 20.1048 31.7273 19.4271C31.1547 19.767 30.5281 20.0064 29.8747 20.1349C29.4743 19.7067 28.9543 19.4089 28.3824 19.2802C27.8104 19.1515 27.213 19.1979 26.6678 19.4134C26.1226 19.6289 25.6548 20.0034 25.3254 20.4883C24.9959 20.9732 24.82 21.546 24.8205 22.1323C24.8184 22.356 24.8412 22.5793 24.8885 22.7981C23.7262 22.741 22.5891 22.4393 21.5513 21.9128C20.5135 21.3864 19.5985 20.6469 18.866 19.7427C18.4895 20.3859 18.3728 21.1486 18.5399 21.875C18.707 22.6013 19.1451 23.2365 19.7648 23.6506C19.3023 23.6381 18.8495 23.5145 18.4448 23.2902V23.322C18.4461 23.9962 18.6795 24.6494 19.1057 25.1719C19.5319 25.6943 20.125 26.0541 20.7852 26.1907C20.5354 26.2563 20.2779 26.2885 20.0196 26.2862C19.8336 26.2897 19.6477 26.2732 19.4652 26.237C19.6544 26.8169 20.0185 27.3239 20.5076 27.6883C20.9967 28.0527 21.5867 28.2566 22.1964 28.272C21.1632 29.0796 19.8894 29.5183 18.578 29.5182C18.3443 29.5202 18.1108 29.5066 17.8789 29.4777C19.2161 30.3398 20.7747 30.7953 22.3657 30.789C27.7427 30.789 30.6823 26.3354 30.6823 22.4753C30.6823 22.3465 30.6823 22.222 30.6722 22.0975C31.2447 21.6844 31.7371 21.1704 32.1254 20.5807Z" fill="white"/>
</g>
<defs>
<clipPath id="clip0_1_7338">
<rect width="22" height="22" fill="white" transform="translate(14 14)"/>
</clipPath>
</defs>
</svg>
