<svg width="50" height="50" viewBox="0 0 50 50" fill="none" xmlns="http://www.w3.org/2000/svg">
<circle cx="25" cy="25" r="25" fill="#F6F5F8"/>
<g clip-path="url(#clip0_1_7450)">
<path d="M23.8033 36.9506C21.9546 36.7737 20.083 36.1101 18.4751 35.0617C17.1278 34.1831 16.8235 33.8219 16.8235 33.1012C16.8235 31.6534 18.4162 29.1176 21.1413 26.2269C22.689 24.5851 24.8448 22.6608 25.0779 22.7129C25.5311 22.8141 29.1546 26.3467 30.511 28.0096C32.656 30.6392 33.6422 32.7922 33.1412 33.7521C32.7604 34.4818 30.3973 35.908 28.6613 36.4559C27.2304 36.9074 25.3513 37.0988 23.8033 36.9506ZM15.0038 31.5959C13.8842 29.8792 13.3185 28.1892 13.0454 25.7448C12.9552 24.9376 12.9875 24.476 13.2502 22.8193C13.5775 20.7545 14.7541 18.3657 16.1678 16.8957C16.7699 16.2695 16.8236 16.2543 17.5576 16.5014C18.4488 16.8015 19.4006 17.4585 20.8768 18.7925L21.738 19.5708L21.2677 20.1483C19.0845 22.8288 16.7799 26.6284 15.9114 28.9791C15.4392 30.2571 15.2487 31.5399 15.4519 32.074C15.5891 32.4345 15.4631 32.3001 15.0038 31.5959ZM34.6563 31.8879C34.7669 31.3482 34.627 30.3572 34.2991 29.3576C33.5891 27.1928 31.2158 23.1655 29.0364 20.4274L28.3504 19.5655L29.0926 18.8843C30.0617 17.9949 30.7346 17.4624 31.4606 17.0101C32.0335 16.6533 32.8522 16.3373 33.2041 16.3373C33.4211 16.3373 34.1849 17.1296 34.8015 17.9942C35.7565 19.3332 36.4591 20.9565 36.815 22.6463C37.045 23.7382 37.0642 26.0753 36.8521 27.1645C36.678 28.0583 36.3105 29.2178 35.9519 30.0041C35.6833 30.5933 35.0151 31.7376 34.7223 32.11C34.5717 32.3014 34.5716 32.301 34.6563 31.8879H34.6563ZM24.0013 15.9285C22.9957 15.4182 21.4445 14.8704 20.5876 14.723C20.2871 14.6713 19.7747 14.6425 19.4488 14.6589C18.7417 14.6946 18.7733 14.6577 19.9075 14.1221C20.8505 13.6768 21.637 13.415 22.7048 13.1909C23.9059 12.9389 26.1637 12.9359 27.3457 13.1849C28.6224 13.4537 30.1257 14.0129 30.9728 14.5339L31.2246 14.6888L30.6469 14.6596C29.499 14.6017 27.8261 15.0652 26.03 15.9388C25.4883 16.2023 25.017 16.4127 24.9827 16.4064C24.9484 16.4001 24.5068 16.1851 24.0013 15.9285V15.9285Z" fill="#4FA677"/>
</g>
<defs>
<clipPath id="clip0_1_7450">
<rect width="24" height="24" fill="white" transform="translate(13 13)"/>
</clipPath>
</defs>
</svg>
