<svg width="70" height="70" viewBox="0 0 70 70" fill="none" xmlns="http://www.w3.org/2000/svg">
<path d="M37.8212 38.5673C37.6613 38.7828 37.3387 38.7828 37.1788 38.5673L34.0768 34.3884C33.8809 34.1245 34.0693 33.75 34.398 33.75L40.602 33.75C40.9307 33.75 41.1191 34.1245 40.9232 34.3884L37.8212 38.5673Z" fill="#11121C"/>
<path d="M39.6169 23C39.6727 23 39.7286 23 39.7876 23C39.9246 24.6925 39.2786 25.9572 38.4934 26.873C37.7231 27.7825 36.6681 28.6646 34.9619 28.5308C34.8481 26.8625 35.4952 25.6916 36.2792 24.7779C37.0064 23.9264 38.3396 23.1686 39.6169 23Z" fill="#11121C"/>
<path d="M44.7823 40.6164C44.7823 40.6332 44.7823 40.648 44.7823 40.6638C44.3028 42.1161 43.6188 43.3607 42.7841 44.5157C42.0222 45.5643 41.0884 46.9755 39.4212 46.9755C37.9805 46.9755 37.0236 46.0491 35.5471 46.0238C33.9853 45.9985 33.1264 46.7984 31.6984 46.9997C31.535 46.9997 31.3717 46.9997 31.2115 46.9997C30.1629 46.848 29.3166 46.0175 28.7001 45.2693C26.8821 43.0582 25.4773 40.2022 25.2159 36.5474C25.2159 36.189 25.2159 35.8318 25.2159 35.4735C25.3266 32.8577 26.5976 30.731 28.2869 29.7003C29.1785 29.1523 30.4042 28.6854 31.769 28.8941C32.3539 28.9847 32.9514 29.185 33.4752 29.3831C33.9716 29.5738 34.5923 29.9121 35.1804 29.8942C35.5787 29.8826 35.975 29.675 36.3765 29.5285C37.5527 29.1038 38.7056 28.6169 40.2253 28.8456C42.0517 29.1217 43.3479 29.9332 44.1489 31.1852C42.6039 32.1685 41.3825 33.6502 41.5911 36.1806C41.7766 38.4791 43.1129 39.8239 44.7823 40.6164Z" fill="#11121C"/>
<rect x="0.5" y="0.5" width="69" height="69" rx="34.5" stroke="#070707" stroke-opacity="0.1"/>
</svg>
