<svg width="48" height="48" viewBox="0 0 48 48" fill="none" xmlns="http://www.w3.org/2000/svg">
<rect width="48" height="48" rx="24" fill="#F6F5F8"/>
<path d="M32.25 22.1663H15.75M27.6667 14.833V18.4997M20.3333 14.833V18.4997M20.15 33.1663H27.85C29.3901 33.1663 30.1602 33.1663 30.7485 32.8666C31.2659 32.603 31.6866 32.1823 31.9503 31.6648C32.25 31.0766 32.25 30.3065 32.25 28.7663V21.0663C32.25 19.5262 32.25 18.7561 31.9503 18.1679C31.6866 17.6504 31.2659 17.2297 30.7485 16.9661C30.1602 16.6663 29.3901 16.6663 27.85 16.6663H20.15C18.6099 16.6663 17.8398 16.6663 17.2515 16.9661C16.7341 17.2297 16.3134 17.6504 16.0497 18.1679C15.75 18.7561 15.75 19.5262 15.75 21.0663V28.7663C15.75 30.3065 15.75 31.0766 16.0497 31.6648C16.3134 32.1823 16.7341 32.603 17.2515 32.8666C17.8398 33.1663 18.6099 33.1663 20.15 33.1663Z" stroke="#11121C" stroke-width="1.4" stroke-linecap="round" stroke-linejoin="round"/>
</svg>
