<?xml version="1.0" encoding="UTF-8" standalone="no"?>
<svg
   width="50"
   height="50"
   viewBox="0 0 50 50"
   fill="none"
   version="1.1"
   id="svg6"
   sodipodi:docname="currency.svg"
   inkscape:version="1.1.2 (0a00cf5339, 2022-02-04)"
   xmlns:inkscape="http://www.inkscape.org/namespaces/inkscape"
   xmlns:sodipodi="http://sodipodi.sourceforge.net/DTD/sodipodi-0.dtd"
   xmlns="http://www.w3.org/2000/svg"
   xmlns:svg="http://www.w3.org/2000/svg">
  <defs
     id="defs10" />
  <sodipodi:namedview
     id="namedview8"
     pagecolor="#ffffff"
     bordercolor="#666666"
     borderopacity="1.0"
     inkscape:pageshadow="2"
     inkscape:pageopacity="0.0"
     inkscape:pagecheckerboard="0"
     showgrid="false"
     inkscape:zoom="4.22"
     inkscape:cx="-20.379147"
     inkscape:cy="-16.113744"
     inkscape:window-width="1863"
     inkscape:window-height="1043"
     inkscape:window-x="1977"
     inkscape:window-y="0"
     inkscape:window-maximized="1"
     inkscape:current-layer="svg6" />
  <path
     d="m 29.00471,16.617148 c -1.384412,0.986869 -3.078259,1.567488 -4.907699,1.567488 -4.674238,0 -8.463435,-3.78946 -8.463435,-8.4636987 0,-4.674238 3.789197,-8.4634332 8.463435,-8.4634332 3.029984,0 5.688014,1.5920216 7.183222,3.9854611 M 10.797103,44.994963 h 6.31216 c 0.823051,0 1.640824,0.09787 2.438813,0.293872 l 6.669344,1.620511 c 1.447196,0.352698 2.954802,0.386992 4.417036,0.102878 l 7.373947,-1.434535 c 1.94815,-0.379604 3.74013,-1.312395 5.144327,-2.678342 l 5.217399,-5.075211 c 1.489932,-1.446933 1.489932,-3.794735 0,-5.244306 -1.341413,-1.304746 -3.465516,-1.451681 -4.983146,-0.345048 l -6.080547,4.436028 c -0.870797,0.636545 -1.930474,0.979483 -3.020224,0.979483 h -5.871617 l 3.73749,-2.64e-4 c 2.106429,0 3.812938,-1.659817 3.812938,-3.709001 v -0.7418 c 0,-1.701497 -1.19052,-3.185098 -2.886742,-3.596624 l -5.768473,-1.40261 c -0.938858,-0.227922 -1.900138,-0.342938 -2.866694,-0.342938 -2.33303,0 -6.556174,1.931794 -6.556174,1.931794 l -7.089837,2.964827 M 44.651366,12.139175 c 0,4.674238 -3.789459,8.463434 -8.463697,8.463434 -4.674238,0 -8.463435,-3.789196 -8.463435,-8.463434 0,-4.6742382 3.789197,-8.4634345 8.463435,-8.4634345 4.674238,0 8.463697,3.7891963 8.463697,8.4634345 z M 1.1246822,31.726184 v 14.025352 c 0,1.354076 0,2.031246 0.2635341,2.548554 0.2316149,0.455051 0.6017235,0.824897 1.0567749,1.056775 0.5170437,0.263534 1.1942138,0.263534 2.5485529,0.263534 h 1.9346953 c 1.354076,0 2.0312461,0 2.5485541,-0.263534 0.4550514,-0.231878 0.8248955,-0.601724 1.0567745,-1.056775 0.263535,-0.517308 0.263535,-1.194478 0.263535,-2.548554 V 31.726184 c 0,-1.354341 0,-2.03151 -0.263535,-2.548817 C 10.301689,28.722578 9.9318449,28.35247 9.4767935,28.12059 8.9594855,27.857056 8.2823154,27.857056 6.9282394,27.857056 H 4.9935441 c -1.3543391,0 -2.0315092,0 -2.5485529,0.263534 -0.4550514,0.23188 -0.82516,0.601988 -1.0567749,1.056777 -0.2635341,0.517307 -0.2635341,1.194476 -0.2635341,2.548817 z"
     stroke="#11121c"
     stroke-width="1.68949"
     stroke-linecap="round"
     stroke-linejoin="round"
     id="path4" />
</svg>
