<svg width="667" height="229" viewBox="0 0 667 229" fill="none" xmlns="http://www.w3.org/2000/svg">
<path d="M-93.7848 163.151C-98.8021 144.426 -91.9839 123.393 -75.1691 101.342C-58.3595 79.2974 -31.6146 56.3126 3.04053 33.7327C72.346 -11.4238 173.19 -54.8974 289.144 -85.9673C405.098 -117.037 514.169 -129.81 596.767 -125.356C638.069 -123.129 672.723 -116.596 698.303 -105.909C723.891 -95.2197 740.312 -80.4139 745.33 -61.6888C750.347 -42.9637 743.529 -21.9309 726.714 0.120536C709.904 22.1651 683.159 45.15 648.504 67.7298C579.199 112.886 478.355 156.36 362.401 187.43C246.446 218.5 137.376 231.272 54.7777 226.818C13.4756 224.591 -21.1786 218.058 -46.7584 207.372C-72.3462 196.682 -88.7674 181.876 -93.7848 163.151Z" stroke="url(#paint0_linear_1_924)" stroke-opacity="0.15"/>
<defs>
<linearGradient id="paint0_linear_1_924" x1="362.53" y1="187.913" x2="235.271" y2="-100.134" gradientUnits="userSpaceOnUse">
<stop stop-color="white"/>
<stop offset="1" stop-color="white" stop-opacity="0"/>
</linearGradient>
</defs>
</svg>
