<svg width="656" height="417" viewBox="0 0 656 417" fill="none" xmlns="http://www.w3.org/2000/svg">
<path d="M4.34235 56.2755C11.2886 36.9621 29.6481 22.7019 57.0742 13.513C84.4936 4.32637 120.892 0.239924 163.748 1.21807C249.456 3.17428 360.878 25.383 477.689 67.395C594.5 109.407 694.544 163.254 761.864 216.335C795.526 242.878 820.983 269.211 836.271 293.757C851.561 318.31 856.632 340.997 849.686 360.31C842.74 379.624 824.38 393.884 796.954 403.073C769.535 412.259 733.137 416.346 690.28 415.368C604.573 413.411 493.15 391.203 376.339 349.191C259.528 307.179 159.485 253.332 92.1647 200.251C58.5025 173.708 33.0451 147.375 17.758 122.828C2.46726 98.2761 -2.60387 75.5889 4.34235 56.2755Z" stroke="url(#paint0_linear_1_923)" stroke-opacity="0.15"/>
<defs>
<linearGradient id="paint0_linear_1_923" x1="302.345" y1="450.097" x2="171.99" y2="179.629" gradientUnits="userSpaceOnUse">
<stop stop-color="white"/>
<stop offset="1" stop-color="white" stop-opacity="0"/>
</linearGradient>
</defs>
</svg>
