<svg width="22" height="22" viewBox="0 0 22 22" fill="none" xmlns="http://www.w3.org/2000/svg">
<path d="M1.83337 6.41602L9.31788 11.6552C9.92396 12.0794 10.227 12.2916 10.5566 12.3737C10.8478 12.4463 11.1523 12.4463 11.4435 12.3737C11.7731 12.2916 12.0761 12.0794 12.6822 11.6552L20.1667 6.41602M6.23337 18.3327H15.7667C17.3069 18.3327 18.0769 18.3327 18.6652 18.033C19.1826 17.7693 19.6033 17.3486 19.867 16.8312C20.1667 16.2429 20.1667 15.4728 20.1667 13.9327V8.06602C20.1667 6.52587 20.1667 5.7558 19.867 5.16754C19.6033 4.6501 19.1826 4.2294 18.6652 3.96575C18.0769 3.66602 17.3069 3.66602 15.7667 3.66602H6.23337C4.69323 3.66602 3.92316 3.66602 3.3349 3.96575C2.81745 4.2294 2.39676 4.6501 2.13311 5.16754C1.83337 5.7558 1.83337 6.52587 1.83337 8.06602V13.9327C1.83337 15.4728 1.83337 16.2429 2.13311 16.8312C2.39676 17.3486 2.81745 17.7693 3.3349 18.033C3.92316 18.3327 4.69323 18.3327 6.23337 18.3327Z" stroke="#11121C" stroke-width="1.4" stroke-linecap="round" stroke-linejoin="round"/>
</svg>
