<svg width="50" height="50" viewBox="0 0 50 50" fill="none" xmlns="http://www.w3.org/2000/svg">
<circle cx="25" cy="25" r="25" fill="white"/>
<path d="M35.9985 25C35.9985 31.0747 31.0732 36 24.9985 36C18.9238 36 14 31.0747 14 25C14 18.9253 18.9253 14 25 14C31.0747 14 36 18.9253 36 25H35.9985Z" fill="#8ED2C5"/>
<path d="M28.6306 28.6422C27.8569 29.5506 26.7958 30.1118 25.6239 30.1118C23.2563 30.1118 21.7492 27.822 21.7492 24.9994C21.7492 22.1769 23.2548 19.8871 25.6239 19.8871C26.7958 19.8871 27.8569 20.4483 28.6306 21.3567L29.9147 20.0726C28.8222 18.7018 27.2792 17.8457 25.5671 17.8457C22.2536 17.8457 19.9668 21.0484 19.9668 24.9994C19.9668 28.9505 22.2521 32.1532 25.5671 32.1532C27.2792 32.1532 28.8222 31.2971 29.9147 29.9262L28.6306 28.6422Z" fill="white"/>
<path d="M27.2661 22.9434H18.2461V24.6166H27.2661V22.9434Z" fill="white"/>
<path d="M27.2661 25.3828H18.2461V27.056H27.2661V25.3828Z" fill="white"/>
</svg>
