<svg width="70" height="70" viewBox="0 0 70 70" fill="none" xmlns="http://www.w3.org/2000/svg">
<g clip-path="url(#clip0_1_965)">
<path d="M47 35C47 40.9897 42.6116 45.9542 36.875 46.8542V38.4688H39.6711L40.2031 35H36.875V32.7491C36.875 31.7998 37.34 30.875 38.8306 30.875H40.3438V27.9219C40.3438 27.9219 38.9703 27.6875 37.6573 27.6875C34.9166 27.6875 33.125 29.3488 33.125 32.3563V35H30.0781V38.4688H33.125V46.8542C27.3884 45.9542 23 40.9897 23 35C23 28.3728 28.3728 23 35 23C41.6272 23 47 28.3728 47 35Z" fill="#11121C"/>
<path d="M39.6711 38.4688L40.2031 35H36.875V32.749C36.875 31.8 37.3399 30.875 38.8306 30.875H40.3438V27.9219C40.3438 27.9219 38.9705 27.6875 37.6576 27.6875C34.9165 27.6875 33.125 29.3488 33.125 32.3563V35H30.0781V38.4688H33.125V46.8542C33.736 46.95 34.3621 47 35 47C35.6379 47 36.264 46.95 36.875 46.8542V38.4688H39.6711Z" fill="#FCFDFD"/>
</g>
<rect x="0.5" y="0.5" width="69" height="69" rx="34.5" stroke="#070707" stroke-opacity="0.1"/>
<defs>
<clipPath id="clip0_1_965">
<rect width="24" height="24" fill="white" transform="translate(23 23)"/>
</clipPath>
</defs>
</svg>
