<svg width="50" height="50" viewBox="0 0 50 50" fill="none" xmlns="http://www.w3.org/2000/svg">
<rect width="50" height="50" rx="25" fill="#FCFDFD"/>
<path d="M31.4163 23.167L18.5829 23.167M31.4163 23.167L33.1251 26.015C33.5081 26.6533 33.6995 26.9724 33.799 27.316C33.8871 27.6204 33.9219 27.9377 33.902 28.254C33.8794 28.611 33.7617 28.964 33.5263 29.6702L33.3358 30.2417C32.9752 31.3236 32.7949 31.8645 32.4604 32.2645C32.1651 32.6176 31.7858 32.891 31.3574 33.0595C30.8722 33.2503 30.302 33.2503 29.1616 33.2503L20.8376 33.2503C19.6972 33.2503 19.127 33.2503 18.6419 33.0595C18.2134 32.891 17.8341 32.6176 17.5388 32.2645C17.2044 31.8645 17.024 31.3236 16.6634 30.2417L16.4729 29.6702C16.2375 28.964 16.1198 28.611 16.0973 28.254C16.0773 27.9377 16.1121 27.6204 16.2002 27.316C16.2997 26.9724 16.4912 26.6533 16.8741 26.015L18.5829 23.167M31.4163 23.167L31.7988 21.8282C31.9801 21.1936 32.0708 20.8762 31.9996 20.6251C31.9372 20.4052 31.7948 20.2165 31.6005 20.0961C31.3787 19.9587 31.0486 19.9587 30.3885 19.9587L19.6107 19.9587C18.9506 19.9587 18.6206 19.9587 18.3987 20.0961C18.2044 20.2165 18.0621 20.4052 17.9997 20.6251C17.9284 20.8762 18.0191 21.1936 18.2004 21.8283L18.5829 23.167M24.9996 19.9587H21.7585C21.281 19.9587 20.823 19.7655 20.4853 19.4217C20.1477 19.0779 19.9579 18.6116 19.9579 18.1253C19.9579 17.6391 20.1477 17.1728 20.4853 16.829C20.823 16.4851 21.281 16.292 21.7585 16.292C24.2794 16.292 24.9996 19.9587 24.9996 19.9587ZM24.9996 19.9587H28.2407C28.7182 19.9587 29.1762 19.7655 29.5139 19.4217C29.8516 19.0779 30.0413 18.6116 30.0413 18.1253C30.0413 17.6391 29.8516 17.1728 29.5139 16.829C29.1762 16.4851 28.7182 16.292 28.2407 16.292C25.7199 16.292 24.9996 19.9587 24.9996 19.9587Z" stroke="#11121C" stroke-width="1.4" stroke-linecap="round" stroke-linejoin="round"/>
</svg>
