<svg width="70" height="70" viewBox="0 0 70 70" fill="none" xmlns="http://www.w3.org/2000/svg">
<g clip-path="url(#clip0_1_957)">
<path d="M45.1693 33.0883L36.1957 33.0879C35.7995 33.0879 35.4783 33.409 35.4783 33.8053V36.672C35.4783 37.0681 35.7995 37.3894 36.1957 37.3894H41.2491C40.6957 38.8254 39.6629 40.0281 38.3452 40.7922L40.5 44.5223C43.9565 42.5233 46 39.0158 46 35.0894C46 34.5303 45.9588 34.1307 45.8764 33.6806C45.8137 33.3387 45.5169 33.0883 45.1693 33.0883Z" fill="#11121C"/>
<path d="M34.9999 41.6944C32.5269 41.6944 30.368 40.3432 29.2085 38.3438L25.4785 40.4936C27.3767 43.7834 30.9325 45.9988 34.9999 45.9988C36.9953 45.9988 38.878 45.4615 40.4999 44.5253V44.5202L38.3452 40.79C37.3595 41.3617 36.219 41.6944 34.9999 41.6944Z" fill="#11121C"/>
<path d="M40.5 44.5262V44.5211L38.3452 40.791C37.3596 41.3626 36.2192 41.6954 35 41.6954V45.9997C36.9953 45.9997 38.8782 45.4625 40.5 44.5262Z" fill="#11121C"/>
<path d="M28.3044 35.0007C28.3044 33.7818 28.637 32.6413 29.2085 31.6558L25.4786 29.5059C24.5372 31.1226 24 33.0003 24 35.0007C24 37.0012 24.5372 38.8788 25.4786 40.4956L29.2085 38.3457C28.637 37.3602 28.3044 36.2197 28.3044 35.0007Z" fill="#11121C"/>
<path d="M35 28.3044C36.6127 28.3044 38.094 28.8774 39.251 29.8306C39.5365 30.0657 39.9513 30.0487 40.2128 29.7872L42.2439 27.7561C42.5406 27.4595 42.5194 26.9739 42.2025 26.699C40.264 25.0172 37.7417 24 35 24C30.9326 24 27.3768 26.2153 25.4786 29.5051L29.2086 31.655C30.3681 29.6555 32.527 28.3044 35 28.3044Z" fill="#11121C"/>
<path d="M39.251 29.8306C39.5364 30.0657 39.9513 30.0487 40.2128 29.7872L42.2439 27.7561C42.5405 27.4595 42.5194 26.9739 42.2025 26.699C40.264 25.0172 37.7417 24 35 24V28.3044C36.6126 28.3044 38.094 28.8774 39.251 29.8306Z" fill="#11121C"/>
</g>
<rect x="0.5" y="0.5" width="69" height="69" rx="34.5" stroke="#070707" stroke-opacity="0.1"/>
<defs>
<clipPath id="clip0_1_957">
<rect width="22" height="22" fill="white" transform="translate(24 24)"/>
</clipPath>
</defs>
</svg>
