<svg width="20" height="18" viewBox="0 0 20 18" fill="none" xmlns="http://www.w3.org/2000/svg">
<path d="M8.8477 2.66796C9.22024 2.61288 9.60456 2.58333 10.0004 2.58333C14.68 2.58333 17.7507 6.71277 18.7823 8.34625C18.9072 8.54396 18.9696 8.64281 19.0045 8.79528C19.0308 8.90979 19.0308 9.09044 19.0045 9.20494C18.9695 9.35741 18.9067 9.45692 18.7809 9.65594C18.5061 10.091 18.087 10.7023 17.5318 11.3654M5.16396 4.15545C3.18206 5.49989 1.83658 7.36776 1.21935 8.34484C1.09393 8.54338 1.03122 8.64265 0.996261 8.79511C0.970006 8.90961 0.969995 9.09024 0.996237 9.20475C1.03118 9.35721 1.0936 9.45605 1.21846 9.65375C2.25008 11.2872 5.3208 15.4167 10.0004 15.4167C11.8873 15.4167 13.5126 14.7453 14.8481 13.8369M1.75038 0.75L18.2504 17.25M8.05584 7.05546C7.55819 7.55311 7.25038 8.24061 7.25038 9C7.25038 10.5188 8.4816 11.75 10.0004 11.75C10.7598 11.75 11.4473 11.4422 11.9449 10.9445" stroke="#070707" stroke-opacity="0.4" stroke-width="1.4" stroke-linecap="round" stroke-linejoin="round"/>
</svg>
