<svg width="56" height="56" viewBox="0 0 56 56" fill="none" xmlns="http://www.w3.org/2000/svg">
<rect width="56" height="56" rx="28" fill="#F3F4FA"/>
<path fill-rule="evenodd" clip-rule="evenodd" d="M22.1562 18.375C21.207 18.375 20.4375 19.1445 20.4375 20.0937V35.9062C20.4375 36.8555 21.207 37.625 22.1562 37.625H33.8438C34.793 37.625 35.5625 36.8555 35.5625 35.9062V28.6875C35.5625 26.789 34.0235 25.25 32.125 25.25H30.4062C29.457 25.25 28.6875 24.4805 28.6875 23.5312V21.8125C28.6875 19.914 27.1485 18.375 25.25 18.375H22.1562ZM23.875 30.75C23.875 30.3703 24.1828 30.0625 24.5625 30.0625H31.4375C31.8172 30.0625 32.125 30.3703 32.125 30.75C32.125 31.1297 31.8172 31.4375 31.4375 31.4375H24.5625C24.1828 31.4375 23.875 31.1297 23.875 30.75ZM24.5625 32.8125C24.1828 32.8125 23.875 33.1203 23.875 33.5C23.875 33.8797 24.1828 34.1875 24.5625 34.1875H28C28.3797 34.1875 28.6875 33.8797 28.6875 33.5C28.6875 33.1203 28.3797 32.8125 28 32.8125H24.5625Z" fill="#0F172A"/>
<path d="M28.8903 18.6646C29.6206 19.5084 30.0625 20.6089 30.0625 21.8125V23.5312C30.0625 23.7211 30.2164 23.875 30.4062 23.875H32.125C33.3286 23.875 34.4291 24.3169 35.2729 25.0472C34.459 21.9316 32.0059 19.4785 28.8903 18.6646Z" fill="#0F172A"/>
</svg>
