<svg width="22" height="22" viewBox="0 0 22 22" fill="none" xmlns="http://www.w3.org/2000/svg">
<path d="M15.5834 9.16667V7.33333C15.5834 4.80203 13.5314 2.75 11.0001 2.75C8.46878 2.75 6.41675 4.80203 6.41675 7.33333V9.16667M11.0001 13.2917V15.125M8.06675 19.25H13.9334C15.4736 19.25 16.2436 19.25 16.8319 18.9503C17.3493 18.6866 17.77 18.2659 18.0337 17.7485C18.3334 17.1602 18.3334 16.3901 18.3334 14.85V13.5667C18.3334 12.0265 18.3334 11.2564 18.0337 10.6682C17.77 10.1507 17.3493 9.73005 16.8319 9.4664C16.2436 9.16667 15.4736 9.16667 13.9334 9.16667H8.06675C6.5266 9.16667 5.75653 9.16667 5.16827 9.4664C4.65083 9.73005 4.23013 10.1507 3.96648 10.6682C3.66675 11.2564 3.66675 12.0265 3.66675 13.5667V14.85C3.66675 16.3901 3.66675 17.1602 3.96648 17.7485C4.23013 18.2659 4.65083 18.6866 5.16827 18.9503C5.75653 19.25 6.5266 19.25 8.06675 19.25Z" stroke="#11121C" stroke-width="1.4" stroke-linecap="round" stroke-linejoin="round"/>
</svg>
