<svg width="63" height="39" viewBox="0 0 63 39" fill="none" xmlns="http://www.w3.org/2000/svg">
<path d="M29.0083 10.1194L32.9818 14.2957C33.4493 14.787 33.4493 15.5807 32.9818 16.072L30.8962 18.2452C30.4287 18.7365 29.6736 18.7365 29.2061 18.2452L21.5647 10.1761C21.0972 9.68478 21.0972 8.8911 21.5647 8.39978L29.2241 0.368494C29.6915 -0.122831 30.4467 -0.122831 30.9142 0.368494L32.9818 2.54166C33.4493 3.03299 33.4493 3.82667 32.9818 4.318L29.0083 8.51316C28.5948 8.94779 28.5948 9.66588 29.0083 10.1194ZM37.3868 6.9258C37.8543 6.43447 37.8543 5.64079 37.3868 5.14947L36.5957 4.318C36.1283 3.82667 35.3731 3.82667 34.9056 4.318L31.022 8.41867C30.5546 8.91 30.5546 9.70368 31.022 10.195L34.9056 14.2768C35.3731 14.7681 36.1283 14.7681 36.5957 14.2768L37.3868 13.4453C37.8543 12.954 37.8543 12.1603 37.3868 11.669L35.6428 9.83596C35.3551 9.5336 35.3551 9.06118 35.6428 8.75882L37.3868 6.9258ZM39.2927 6.96359L37.8903 8.43757C37.4228 8.9289 37.4228 9.72258 37.8903 10.2139L39.2927 11.6879C39.7602 12.1792 40.5153 12.1792 40.9828 11.6879L42.3852 10.2139C42.8527 9.72258 42.8527 8.9289 42.3852 8.43757L40.9828 6.96359C40.5153 6.45337 39.7602 6.45337 39.2927 6.96359Z" fill="#11121C"/>
<path d="M0 33.8243C0 30.6685 1.92383 28.5898 4.8725 28.5898C7.35369 28.5898 8.98985 29.9126 9.36742 32.2181V32.5582H6.88622C6.7244 31.4433 5.96926 30.8008 4.8725 30.8008C3.38018 30.8008 2.55312 31.8779 2.55312 33.8432C2.55312 35.6952 3.41614 36.7723 4.85452 36.7723C6.0232 36.7723 6.77835 36.0731 6.95814 34.8259H9.43934V35.166C9.00783 37.6227 7.33572 38.9833 4.80058 38.9833C1.85191 38.9644 0 36.9613 0 33.8243Z" fill="#11121C"/>
<path d="M11.705 31.1586C11.705 30.7806 11.5792 30.6484 11.2196 30.6484H10.7881V28.9476C10.7881 28.9476 11.2735 28.6642 12.2265 28.6642C13.4311 28.6642 14.0244 29.1933 14.0244 30.2515V30.4783H14.1323C14.6717 29.1933 15.6246 28.5508 17.0091 28.5508C17.6024 28.5508 17.908 28.6453 17.908 28.6453V31.0074H17.081C14.9774 31.0074 14.2042 32.009 14.2042 34.6924V38.7363H11.6871L11.705 31.1586Z" fill="#11121C"/>
<path d="M25.3508 35.5994H27.832V35.9773C27.3825 37.8103 25.6385 38.9819 23.391 38.9819C20.4424 38.9819 18.5186 36.9977 18.5186 33.9742C18.5186 30.5727 20.4064 28.6074 23.6607 28.6074C26.2139 28.6074 27.9219 29.8735 27.9219 31.7632C27.9219 34.0309 26.5375 34.8057 21.1616 35.1269C21.4313 36.3363 22.1684 36.9411 23.391 36.9411C24.4518 36.9411 25.1531 36.4497 25.3508 35.5994ZM21.0896 33.2372C24.5058 33.1049 25.4048 32.7459 25.3868 31.7443C25.3688 31.0263 24.7395 30.6105 23.6607 30.6105C22.1504 30.6105 21.2694 31.4987 21.0896 33.2372Z" fill="#11121C"/>
<path d="M29.4697 33.7086C29.4697 30.6094 31.2497 28.5496 33.8927 28.5496C35.2052 28.5496 36.1941 29.1166 36.6616 30.0803H36.7695L36.6976 28.8142V24.7324H39.2147V36.392C39.2147 36.7699 39.3406 36.9022 39.7002 36.9022H40.1317V38.6029C40.1317 38.6029 39.6462 38.8864 38.6933 38.8864C37.4887 38.8864 36.8953 38.3573 36.8953 37.299V37.2612H36.7875C36.1762 38.3573 35.1154 38.9998 33.8028 38.9998C31.1958 38.9998 29.4697 36.9778 29.4697 33.7086ZM36.8054 33.7086C36.8054 31.97 35.8705 30.7795 34.4501 30.7795C32.9218 30.7795 32.0408 31.8188 32.0408 33.7086C32.0408 35.6361 32.9038 36.751 34.4141 36.751C35.8705 36.7699 36.8054 35.5605 36.8054 33.7086Z" fill="#11121C"/>
<path d="M48.3469 35.5994H50.8281V35.9773C50.3786 37.8103 48.6346 38.9819 46.3871 38.9819C43.4385 38.9819 41.5146 36.9977 41.5146 33.9742C41.5146 30.5727 43.4025 28.6074 46.6568 28.6074C49.21 28.6074 50.918 29.8735 50.918 31.7632C50.918 34.0309 49.5336 34.8057 44.1577 35.1269C44.4274 36.3363 45.1645 36.9411 46.3871 36.9411C47.4479 36.9411 48.1492 36.4497 48.3469 35.5994ZM44.0857 33.2372C47.5019 33.1049 48.4009 32.7459 48.3829 31.7443C48.3649 31.0263 47.7356 30.6105 46.6568 30.6105C45.1286 30.6105 44.2655 31.4987 44.0857 33.2372Z" fill="#11121C"/>
<path d="M62.9996 36.9221V38.6228C62.9996 38.6228 62.5142 38.9063 61.5612 38.9063C60.2307 38.9063 59.5655 38.2071 59.5655 36.8087V31.0639H56.5089V38.7173H53.9918V31.0639H52.0859V28.7963H53.9918V28.3806C53.9918 25.6972 55.3223 24.3555 58.0013 24.3555C59.4037 24.3555 60.1768 24.6578 60.1768 24.6578V26.9633H59.8532C59.8532 26.9633 59.2778 26.6609 58.253 26.6609C56.9764 26.6609 56.5089 27.1522 56.5089 28.5317V28.7963H62.0827V36.3929C62.0827 36.7709 62.2085 36.9032 62.5681 36.9032C62.5681 36.9032 62.9996 36.9032 62.9996 36.9221Z" fill="#11121C"/>
</svg>
