<svg width="85" height="52" viewBox="0 0 85 52" fill="none" xmlns="http://www.w3.org/2000/svg">
<path d="M39.137 13.4926L44.4981 19.061C45.1288 19.7161 45.1288 20.7743 44.4981 21.4294L41.6841 24.327C41.0534 24.9821 40.0346 24.9821 39.4039 24.327L29.0941 13.5682C28.4634 12.9131 28.4634 11.8549 29.0941 11.1998L39.4281 0.491328C40.0588 -0.163776 41.0777 -0.163776 41.7084 0.491328L44.4981 3.3889C45.1288 4.044 45.1288 5.10225 44.4981 5.75735L39.137 11.3509C38.5791 11.9304 38.5791 12.8879 39.137 13.4926ZM50.4413 9.23444C51.072 8.57934 51.072 7.52109 50.4413 6.86599L49.374 5.75735C48.7433 5.10225 47.7244 5.10225 47.0937 5.75735L41.8539 11.2249C41.2232 11.8801 41.2232 12.9383 41.8539 13.5934L47.0937 19.0358C47.7244 19.6909 48.7433 19.6909 49.374 19.0358L50.4413 17.9272C51.072 17.2721 51.072 16.2138 50.4413 15.5587L48.0883 13.1147C47.7002 12.7115 47.7002 12.0816 48.0883 11.6785L50.4413 9.23444ZM53.0127 9.28483L51.1206 11.2501C50.4898 11.9052 50.4898 12.9635 51.1206 13.6186L53.0127 15.5839C53.6434 16.239 54.6623 16.239 55.293 15.5839L57.1851 13.6186C57.8158 12.9635 57.8158 11.9052 57.1851 11.2501L55.293 9.28483C54.6623 8.60453 53.6434 8.60453 53.0127 9.28483Z" fill="white"/>
<path d="M-0.00012207 45.0966C-0.00012207 40.8888 2.5955 38.1172 6.57385 38.1172C9.92148 38.1172 12.129 39.8809 12.6384 42.9549V43.4084H9.29076C9.07244 41.9218 8.0536 41.0652 6.57385 41.0652C4.56042 41.0652 3.44454 42.5013 3.44454 45.1218C3.44454 47.591 4.60893 49.0272 6.54959 49.0272C8.12637 49.0272 9.14522 48.0949 9.3878 46.432H12.7354V46.8855C12.1532 50.161 9.89722 51.9751 6.47681 51.9751C2.49847 51.95 -0.00012207 49.2791 -0.00012207 45.0966Z" fill="white"/>
<path d="M15.7919 41.5435C15.7919 41.0396 15.622 40.8632 15.1369 40.8632H14.5547V38.5955C14.5547 38.5955 15.2097 38.2176 16.4953 38.2176C18.1206 38.2176 18.9212 38.9231 18.9212 40.3341V40.6364H19.0667C19.7945 38.9231 21.0801 38.0664 22.948 38.0664C23.7485 38.0664 24.1609 38.1924 24.1609 38.1924V41.3419H23.0451C20.2068 41.3419 19.1637 42.6773 19.1637 46.2552V51.6472H15.7676L15.7919 41.5435Z" fill="white"/>
<path d="M34.2025 47.4652H37.5501V47.9691C36.9436 50.4132 34.5906 51.9753 31.5583 51.9753C27.58 51.9753 24.9844 49.3297 24.9844 45.2983C24.9844 40.763 27.5315 38.1426 31.9222 38.1426C35.3669 38.1426 37.6714 39.8307 37.6714 42.3504C37.6714 45.3739 35.8035 46.407 28.5503 46.8353C28.9142 48.4479 29.9088 49.2541 31.5583 49.2541C32.9896 49.2541 33.9356 48.599 34.2025 47.4652ZM28.4533 44.3157C33.0623 44.1393 34.2752 43.6606 34.251 42.3252C34.2267 41.3677 33.3777 40.8134 31.9222 40.8134C29.8845 40.8134 28.6959 41.9976 28.4533 44.3157Z" fill="white"/>
<path d="M39.7578 44.9448C39.7578 40.8126 42.1594 38.0662 45.7253 38.0662C47.4962 38.0662 48.8304 38.8221 49.4611 40.1071H49.6066L49.5096 38.419V32.9766H52.9058V48.5227C52.9058 49.0266 53.0756 49.203 53.5607 49.203H54.1429V51.4706C54.1429 51.4706 53.4879 51.8486 52.2023 51.8486C50.577 51.8486 49.7764 51.1431 49.7764 49.7321V49.6817H49.6309C48.8061 51.1431 47.3749 51.9998 45.604 51.9998C42.0866 51.9998 39.7578 49.3038 39.7578 44.9448ZM49.6552 44.9448C49.6552 42.6267 48.3937 41.0394 46.4773 41.0394C44.4154 41.0394 43.2267 42.4252 43.2267 44.9448C43.2267 47.5148 44.3911 49.0014 46.4288 49.0014C48.3937 49.0266 49.6552 47.414 49.6552 44.9448Z" fill="white"/>
<path d="M65.2298 47.4652H68.5775V47.9691C67.971 50.4132 65.618 51.9753 62.5857 51.9753C58.6073 51.9753 56.0117 49.3297 56.0117 45.2983C56.0117 40.763 58.5588 38.1426 62.9496 38.1426C66.3942 38.1426 68.6988 39.8307 68.6988 42.3504C68.6988 45.3739 66.8309 46.407 59.5777 46.8353C59.9415 48.4479 60.9361 49.2541 62.5857 49.2541C64.0169 49.2541 64.963 48.599 65.2298 47.4652ZM59.4806 44.3157C64.0897 44.1393 65.3026 43.6606 65.2784 42.3252C65.2541 41.3677 64.4051 40.8134 62.9496 40.8134C60.8876 40.8134 59.7232 41.9976 59.4806 44.3157Z" fill="white"/>
<path d="M84.9982 49.2282V51.4959C84.9982 51.4959 84.3432 51.8738 83.0575 51.8738C81.2624 51.8738 80.3649 50.9415 80.3649 49.077V41.4173H76.241V51.6218H72.8448V41.4173H70.2734V38.3938H72.8448V37.8395C72.8448 34.2616 74.6399 32.4727 78.2544 32.4727C80.1465 32.4727 81.1896 32.8758 81.1896 32.8758V35.9497H80.753C80.753 35.9497 79.9767 35.5466 78.594 35.5466C76.8717 35.5466 76.241 36.2017 76.241 38.041V38.3938H83.761V48.5227C83.761 49.0266 83.9308 49.203 84.416 49.203C84.416 49.203 84.9982 49.203 84.9982 49.2282Z" fill="white"/>
</svg>
