<svg width="50" height="50" viewBox="0 0 50 50" fill="none" xmlns="http://www.w3.org/2000/svg">
<rect width="50" height="50" rx="25" fill="#FCFDFD"/>
<path d="M31.75 23.5H18.25M28 17.5V20.5M22 17.5V20.5M21.85 32.5H28.15C29.4101 32.5 30.0402 32.5 30.5215 32.2548C30.9448 32.039 31.289 31.6948 31.5048 31.2715C31.75 30.7902 31.75 30.1601 31.75 28.9V22.6C31.75 21.3399 31.75 20.7098 31.5048 20.2285C31.289 19.8052 30.9448 19.461 30.5215 19.2452C30.0402 19 29.4101 19 28.15 19H21.85C20.5899 19 19.9598 19 19.4785 19.2452C19.0552 19.461 18.711 19.8052 18.4952 20.2285C18.25 20.7098 18.25 21.3399 18.25 22.6V28.9C18.25 30.1601 18.25 30.7902 18.4952 31.2715C18.711 31.6948 19.0552 32.039 19.4785 32.2548C19.9598 32.5 20.5899 32.5 21.85 32.5Z" stroke="#11121C" stroke-width="1.26" stroke-linecap="round" stroke-linejoin="round"/>
</svg>
