<svg width="50" height="50" viewBox="0 0 50 50" fill="none" xmlns="http://www.w3.org/2000/svg">
<rect width="50" height="50" rx="25" fill="#070707" fill-opacity="0.2"/>
<path d="M24.9999 27.75C22.094 27.75 19.5098 29.1531 17.8646 31.3305C17.5105 31.7991 17.3335 32.0334 17.3392 32.3501C17.3437 32.5948 17.4974 32.9034 17.6899 33.0545C17.939 33.25 18.2843 33.25 18.9749 33.25H31.025C31.7156 33.25 32.0609 33.25 32.31 33.0545C32.5025 32.9034 32.6562 32.5948 32.6606 32.3501C32.6664 32.0334 32.4894 31.7991 32.1353 31.3305C30.49 29.1531 27.9058 27.75 24.9999 27.75Z" stroke="white" stroke-width="1.4" stroke-linecap="round" stroke-linejoin="round"/>
<path d="M24.9999 25C27.2781 25 29.1249 23.1532 29.1249 20.875C29.1249 18.5968 27.2781 16.75 24.9999 16.75C22.7218 16.75 20.8749 18.5968 20.8749 20.875C20.8749 23.1532 22.7218 25 24.9999 25Z" stroke="white" stroke-width="1.4" stroke-linecap="round" stroke-linejoin="round"/>
</svg>
