<svg width="48" height="48" viewBox="0 0 48 48" fill="none" xmlns="http://www.w3.org/2000/svg">
<rect width="48" height="48" rx="24" fill="#F6F5F8"/>
<path d="M23.3426 16.1652C23.5539 15.7372 23.6595 15.5232 23.8029 15.4548C23.9277 15.3953 24.0727 15.3953 24.1974 15.4548C24.3408 15.5232 24.4465 15.7372 24.6578 16.1652L26.6622 20.226C26.7246 20.3524 26.7558 20.4155 26.8014 20.4646C26.8417 20.508 26.8901 20.5432 26.9439 20.5682C27.0046 20.5965 27.0743 20.6066 27.2137 20.627L31.6974 21.2824C32.1696 21.3514 32.4056 21.3859 32.5149 21.5012C32.6099 21.6016 32.6546 21.7394 32.6365 21.8764C32.6157 22.0339 32.4448 22.2004 32.103 22.5333L28.8598 25.6922C28.7587 25.7907 28.7082 25.8399 28.6756 25.8985C28.6467 25.9504 28.6281 26.0073 28.621 26.0663C28.6129 26.1328 28.6249 26.2024 28.6487 26.3415L29.414 30.8033C29.4947 31.2739 29.535 31.5091 29.4592 31.6488C29.3932 31.7703 29.2759 31.8555 29.14 31.8807C28.9837 31.9096 28.7724 31.7985 28.3498 31.5763L24.3415 29.4683C24.2166 29.4027 24.1542 29.3698 24.0884 29.3569C24.0301 29.3455 23.9702 29.3455 23.912 29.3569C23.8462 29.3698 23.7837 29.4027 23.6588 29.4683L19.6505 31.5763C19.2279 31.7985 19.0166 31.9096 18.8604 31.8807C18.7245 31.8555 18.6072 31.7703 18.5412 31.6488C18.4653 31.5091 18.5057 31.2739 18.5864 30.8033L19.3516 26.3415C19.3755 26.2024 19.3874 26.1328 19.3794 26.0663C19.3722 26.0073 19.3537 25.9504 19.3248 25.8985C19.2922 25.8399 19.2416 25.7907 19.1405 25.6922L15.8973 22.5333C15.5555 22.2004 15.3846 22.0339 15.3638 21.8764C15.3457 21.7394 15.3904 21.6016 15.4855 21.5012C15.5947 21.3859 15.8308 21.3514 16.303 21.2824L20.7866 20.627C20.9261 20.6066 20.9958 20.5965 21.0565 20.5682C21.1102 20.5432 21.1586 20.508 21.199 20.4646C21.2446 20.4155 21.2758 20.3524 21.3381 20.226L23.3426 16.1652Z" stroke="#11121C" stroke-width="1.4" stroke-linecap="round" stroke-linejoin="round"/>
</svg>
