<svg width="60" height="60" viewBox="0 0 60 60" fill="none" xmlns="http://www.w3.org/2000/svg">
<circle cx="30" cy="30" r="30" fill="white"/>
<path d="M23.2922 53.0436C19.0122 51.7977 15.1638 49.3845 12.1782 46.0744C9.19268 42.7642 7.18798 38.6881 6.38883 34.3027C5.58968 29.9172 6.02766 25.3959 7.65368 21.2454C9.27971 17.095 12.0295 13.4793 15.5949 10.8038C19.1603 8.1283 23.4004 6.49861 27.8399 6.09741C32.2794 5.6962 36.743 6.53934 40.7303 8.53232C44.7176 10.5253 48.071 13.5894 50.4148 17.3811C52.7585 21.1728 54 25.5424 54 30" stroke="#4874FF" stroke-width="2"/>
<path d="M18.776 36V34.288H21.368V26.448H22.36L19.032 28.432V26.48L21.96 24.72H23.432V34.288H25.864V36H18.776ZM27.8418 36.944H26.1937L30.4018 23.968H32.0498L27.8418 36.944ZM36.2803 36.16C35.5016 36.16 34.7549 36.048 34.0403 35.824C33.3256 35.5893 32.7389 35.2693 32.2803 34.864L32.9523 33.312C33.4536 33.696 33.9709 33.9787 34.5043 34.16C35.0483 34.3413 35.6189 34.432 36.2163 34.432C36.9416 34.432 37.4909 34.288 37.8643 34C38.2376 33.712 38.4243 33.2907 38.4243 32.736C38.4243 32.2027 38.2376 31.8027 37.8643 31.536C37.5016 31.2587 36.9683 31.12 36.2643 31.12H34.4403V29.472H36.0883C36.6963 29.472 37.1816 29.3227 37.5443 29.024C37.9069 28.7253 38.0883 28.3147 38.0883 27.792C38.0883 27.3013 37.9176 26.928 37.5763 26.672C37.2456 26.416 36.7656 26.288 36.1363 26.288C35.0056 26.288 34.0083 26.672 33.1443 27.44L32.4723 25.904C32.9309 25.4773 33.4963 25.1467 34.1683 24.912C34.8509 24.6773 35.5656 24.56 36.3123 24.56C37.4856 24.56 38.4029 24.8267 39.0643 25.36C39.7363 25.8827 40.0723 26.6133 40.0723 27.552C40.0723 28.224 39.8803 28.8053 39.4963 29.296C39.1229 29.776 38.6056 30.096 37.9443 30.256V30.064C38.7229 30.192 39.3256 30.512 39.7523 31.024C40.1896 31.5253 40.4083 32.1547 40.4083 32.912C40.4083 33.9147 40.0403 34.7093 39.3043 35.296C38.5683 35.872 37.5603 36.16 36.2803 36.16Z" fill="#4874FF"/>
</svg>
