<svg width="50" height="50" viewBox="0 0 50 50" fill="none" xmlns="http://www.w3.org/2000/svg">
<circle cx="25" cy="25" r="25" fill="white"/>
<path d="M34.9079 26.0927C35.5111 20.6207 31.5641 15.6958 26.0921 15.0927C20.6201 14.4895 15.6952 18.4365 15.0921 23.9085C14.4889 29.3805 18.4359 34.3054 23.9079 34.9085C29.3799 35.5116 34.3048 31.5647 34.9079 26.0927Z" fill="#B7D432"/>
<path d="M27.3979 28.0734C27.3979 27.5106 27.2108 27.158 26.8378 26.7769C26.4649 26.3971 25.921 26.0771 24.9704 25.818C23.819 25.5061 22.9212 25.045 22.2756 24.4375C21.6301 23.8299 21.188 22.9457 21.188 22.0248C21.188 21.0592 21.6545 20.1329 22.3502 19.4847C23.0446 18.8364 23.9451 18.5137 25.0517 18.5137C26.2425 18.5137 27.3098 18.8853 28.015 19.6271C28.7202 20.3703 28.9399 21.3508 28.9155 22.3313L28.9006 22.3828H27.3762C27.3762 21.6573 27.166 21.0714 26.7442 20.6225C26.3238 20.175 25.8383 20.0706 25.0517 20.0706C24.3194 20.0706 23.7579 20.2591 23.3674 20.6361C22.9768 21.0131 22.7801 21.3847 22.7801 21.9909C22.7801 22.5293 22.9917 22.8589 23.4148 23.2183C23.838 23.5776 24.5255 23.8936 25.4776 24.1662C26.6235 24.489 27.4956 25.0857 28.0936 25.7136C28.6917 26.3429 28.9901 27.1227 28.9901 28.0517C28.9901 29.0498 28.632 29.8513 27.9133 30.4575C27.1959 31.0638 26.2587 31.3675 25.1033 31.3675C24.017 31.3675 23.0568 31.0312 22.2227 30.3599C21.3887 29.6886 20.9832 28.7908 21.009 27.6692L21.0239 27.6177H22.5482C22.5482 28.4111 22.6852 28.7759 23.1978 29.1895C23.7105 29.6031 24.3465 29.8106 25.1033 29.8106C25.86 29.8106 26.3143 29.7523 26.747 29.3984C27.1809 29.043 27.3966 28.6809 27.3966 28.0734H27.3979Z" fill="white"/>
<path d="M25.7957 17.3984H24.2266V32.6053H25.7957V17.3984Z" fill="white"/>
</svg>
