<svg width="50" height="50" viewBox="0 0 50 50" fill="none" xmlns="http://www.w3.org/2000/svg">
<rect width="50" height="50" rx="25" fill="#FCFDFD"/>
<path d="M28.3333 21.6663V18.7502C28.3333 18.057 28.3333 17.7105 28.1873 17.4975C28.0598 17.3114 27.8622 17.185 27.6398 17.1472C27.3852 17.1039 27.0706 17.2491 26.4413 17.5395L19.0492 20.9513C18.4879 21.2103 18.2073 21.3398 18.0018 21.5407C17.82 21.7183 17.6813 21.9351 17.5963 22.1745C17.5 22.4453 17.5 22.7543 17.5 23.3725V27.4996M28.75 27.0829H28.7583M17.5 24.3329L17.5 29.8329C17.5 30.7664 17.5 31.2331 17.6817 31.5896C17.8414 31.9032 18.0964 32.1582 18.41 32.318C18.7665 32.4996 19.2332 32.4996 20.1667 32.4996H29.8333C30.7668 32.4996 31.2335 32.4996 31.59 32.318C31.9036 32.1582 32.1586 31.9032 32.3183 31.5896C32.5 31.2331 32.5 30.7664 32.5 29.8329V24.3329C32.5 23.3995 32.5 22.9328 32.3183 22.5763C32.1586 22.2627 31.9036 22.0077 31.59 21.8479C31.2335 21.6663 30.7668 21.6663 29.8333 21.6663L20.1667 21.6663C19.2332 21.6663 18.7665 21.6663 18.41 21.8479C18.0964 22.0077 17.8414 22.2627 17.6817 22.5763C17.5 22.9328 17.5 23.3995 17.5 24.3329ZM29.1667 27.0829C29.1667 27.3131 28.9801 27.4996 28.75 27.4996C28.5199 27.4996 28.3333 27.3131 28.3333 27.0829C28.3333 26.8528 28.5199 26.6663 28.75 26.6663C28.9801 26.6663 29.1667 26.8528 29.1667 27.0829Z" stroke="#11121C" stroke-width="1.4" stroke-linecap="round" stroke-linejoin="round"/>
</svg>
