<?xml version="1.0" encoding="UTF-8" standalone="no"?>
<!-- Generator: Adobe Illustrator 25.0.1, SVG Export Plug-In . SVG Version: 6.00 Build 0)  -->

<svg
   version="1.0"
   id="katman_1"
   x="0px"
   y="0px"
   viewBox="0 0 514 513"
   xml:space="preserve"
   sodipodi:docname="walletconnect.svg"
   width="514"
   height="513"
   inkscape:version="1.1.2 (0a00cf5339, 2022-02-04)"
   xmlns:inkscape="http://www.inkscape.org/namespaces/inkscape"
   xmlns:sodipodi="http://sodipodi.sourceforge.net/DTD/sodipodi-0.dtd"
   xmlns="http://www.w3.org/2000/svg"
   xmlns:svg="http://www.w3.org/2000/svg"><defs
   id="defs18" /><sodipodi:namedview
   id="namedview16"
   pagecolor="#ffffff"
   bordercolor="#666666"
   borderopacity="1.0"
   inkscape:pageshadow="2"
   inkscape:pageopacity="0.0"
   inkscape:pagecheckerboard="0"
   showgrid="false"
   inkscape:zoom="1.4126214"
   inkscape:cx="412"
   inkscape:cy="308.64605"
   inkscape:window-width="2495"
   inkscape:window-height="1403"
   inkscape:window-x="2625"
   inkscape:window-y="0"
   inkscape:window-maximized="1"
   inkscape:current-layer="katman_1" />
<style
   type="text/css"
   id="style2">
	.st0{fill-rule:evenodd;clip-rule:evenodd;fill:url(#SVGID_1_);}
	.st1{fill:#FFFFFF;}
</style>
<g
   id="g13"
   transform="translate(-154.61424,-53.003129)">
	
		<radialGradient
   id="SVGID_1_"
   cx="13.2793"
   cy="609.41602"
   r="1"
   gradientTransform="matrix(512,0,0,-512,-6643,312330)"
   gradientUnits="userSpaceOnUse">
		<stop
   offset="0"
   style="stop-color:#5D9DF6"
   id="stop4" />
		<stop
   offset="1"
   style="stop-color:#006FFF"
   id="stop6" />
	</radialGradient>
	<path
   class="st0"
   d="M 412,53 C 553.4,53 668,167.6 668,309 668,450.4 553.4,565 412,565 270.6,565 156,450.4 156,309 156,167.6 270.6,53 412,53 Z"
   id="path9"
   style="fill:url(#SVGID_1_)" />
	<path
   class="st1"
   d="m 318.7,250.7 c 51.5,-50.3 135.1,-50.3 186.6,0 l 6.2,6.1 c 2.6,2.5 2.6,6.6 0,9.1 l -21.2,20.7 c -1.3,1.3 -3.4,1.3 -4.7,0 l -8.5,-8.3 c -36,-35.1 -94.2,-35.1 -130.2,0 l -9.1,8.9 c -1.3,1.3 -3.4,1.3 -4.7,0 l -21.2,-20.7 c -2.6,-2.5 -2.6,-6.6 0,-9.1 z m 230.5,42.8 18.9,18.4 c 2.6,2.5 2.6,6.6 0,9.1 L 483,404.1 c -2.6,2.5 -6.8,2.5 -9.3,0 0,0 0,0 0,0 l -60.4,-59 c -0.6,-0.6 -1.7,-0.6 -2.3,0 0,0 0,0 0,0 l -60.4,59 c -2.6,2.5 -6.8,2.5 -9.3,0 0,0 0,0 0,0 L 255.9,321 c -2.6,-2.5 -2.6,-6.6 0,-9.1 l 18.9,-18.4 c 2.6,-2.5 6.8,-2.5 9.3,0 l 60.4,59 c 0.6,0.6 1.7,0.6 2.3,0 0,0 0,0 0,0 l 60.4,-59 c 2.6,-2.5 6.8,-2.5 9.3,0 0,0 0,0 0,0 l 60.4,59 c 0.6,0.6 1.7,0.6 2.3,0 l 60.4,-59 c 2.8,-2.5 7,-2.5 9.6,0 z"
   id="path11" />
</g>
</svg>
