<svg width="22" height="22" viewBox="0 0 22 22" fill="none" xmlns="http://www.w3.org/2000/svg">
<path d="M12.8334 10.084H7.33341M9.16675 13.7507H7.33341M14.6667 6.41732H7.33341M18.3334 6.23398V15.7673C18.3334 17.3075 18.3334 18.0775 18.0337 18.6658C17.77 19.1832 17.3493 19.6039 16.8319 19.8676C16.2436 20.1673 15.4736 20.1673 13.9334 20.1673H8.06675C6.5266 20.1673 5.75653 20.1673 5.16827 19.8676C4.65083 19.6039 4.23013 19.1832 3.96648 18.6658C3.66675 18.0775 3.66675 17.3075 3.66675 15.7673V6.23398C3.66675 4.69384 3.66675 3.92377 3.96648 3.33551C4.23013 2.81806 4.65083 2.39737 5.16827 2.13372C5.75653 1.83398 6.5266 1.83398 8.06675 1.83398H13.9334C15.4736 1.83398 16.2436 1.83398 16.8319 2.13372C17.3493 2.39737 17.77 2.81806 18.0337 3.33551C18.3334 3.92377 18.3334 4.69384 18.3334 6.23398Z" stroke="#11121C" stroke-width="1.4" stroke-linecap="round" stroke-linejoin="round"/>
</svg>
