<svg width="22" height="22" viewBox="0 0 22 22" fill="none" xmlns="http://www.w3.org/2000/svg">
<path d="M8 3.5H4.83333C4.36662 3.5 4.13327 3.5 3.95501 3.59083C3.79821 3.67072 3.67072 3.79821 3.59083 3.95501C3.5 4.13327 3.5 4.36662 3.5 4.83333V8C3.5 8.46671 3.5 8.70007 3.59083 8.87833C3.67072 9.03513 3.79821 9.16261 3.95501 9.24251C4.13327 9.33333 4.36662 9.33333 4.83333 9.33333H8C8.46671 9.33333 8.70007 9.33333 8.87833 9.24251C9.03513 9.16261 9.16261 9.03513 9.24251 8.87833C9.33333 8.70007 9.33333 8.46671 9.33333 8V4.83333C9.33333 4.36662 9.33333 4.13327 9.24251 3.95501C9.16261 3.79821 9.03513 3.67072 8.87833 3.59083C8.70007 3.5 8.46671 3.5 8 3.5Z" stroke="#11121C" stroke-width="1.4" stroke-linecap="round" stroke-linejoin="round"/>
<path d="M17.1667 3.5H14C13.5333 3.5 13.2999 3.5 13.1217 3.59083C12.9649 3.67072 12.8374 3.79821 12.7575 3.95501C12.6667 4.13327 12.6667 4.36662 12.6667 4.83333V8C12.6667 8.46671 12.6667 8.70007 12.7575 8.87833C12.8374 9.03513 12.9649 9.16261 13.1217 9.24251C13.2999 9.33333 13.5333 9.33333 14 9.33333H17.1667C17.6334 9.33333 17.8667 9.33333 18.045 9.24251C18.2018 9.16261 18.3293 9.03513 18.4092 8.87833C18.5 8.70007 18.5 8.46671 18.5 8V4.83333C18.5 4.36662 18.5 4.13327 18.4092 3.95501C18.3293 3.79821 18.2018 3.67072 18.045 3.59083C17.8667 3.5 17.6334 3.5 17.1667 3.5Z" stroke="#11121C" stroke-width="1.4" stroke-linecap="round" stroke-linejoin="round"/>
<path d="M17.1667 12.6667H14C13.5333 12.6667 13.2999 12.6667 13.1217 12.7575C12.9649 12.8374 12.8374 12.9649 12.7575 13.1217C12.6667 13.2999 12.6667 13.5333 12.6667 14V17.1667C12.6667 17.6334 12.6667 17.8667 12.7575 18.045C12.8374 18.2018 12.9649 18.3293 13.1217 18.4092C13.2999 18.5 13.5333 18.5 14 18.5H17.1667C17.6334 18.5 17.8667 18.5 18.045 18.4092C18.2018 18.3293 18.3293 18.2018 18.4092 18.045C18.5 17.8667 18.5 17.6334 18.5 17.1667V14C18.5 13.5333 18.5 13.2999 18.4092 13.1217C18.3293 12.9649 18.2018 12.8374 18.045 12.7575C17.8667 12.6667 17.6334 12.6667 17.1667 12.6667Z" stroke="#11121C" stroke-width="1.4" stroke-linecap="round" stroke-linejoin="round"/>
<path d="M8 12.6667H4.83333C4.36662 12.6667 4.13327 12.6667 3.95501 12.7575C3.79821 12.8374 3.67072 12.9649 3.59083 13.1217C3.5 13.2999 3.5 13.5333 3.5 14V17.1667C3.5 17.6334 3.5 17.8667 3.59083 18.045C3.67072 18.2018 3.79821 18.3293 3.95501 18.4092C4.13327 18.5 4.36662 18.5 4.83333 18.5H8C8.46671 18.5 8.70007 18.5 8.87833 18.4092C9.03513 18.3293 9.16261 18.2018 9.24251 18.045C9.33333 17.8667 9.33333 17.6334 9.33333 17.1667V14C9.33333 13.5333 9.33333 13.2999 9.24251 13.1217C9.16261 12.9649 9.03513 12.8374 8.87833 12.7575C8.70007 12.6667 8.46671 12.6667 8 12.6667Z" stroke="#11121C" stroke-width="1.4" stroke-linecap="round" stroke-linejoin="round"/>
</svg>
