<svg width="22" height="22" viewBox="0 0 22 22" fill="none" xmlns="http://www.w3.org/2000/svg">
<path d="M14.3333 7.66726V4.75113C14.3333 4.05802 14.3333 3.71146 14.1873 3.49848C14.0598 3.31241 13.8622 3.186 13.6398 3.14816C13.3852 3.10484 13.0706 3.25007 12.4413 3.54052L5.04918 6.95225C4.48792 7.21129 4.20729 7.34081 4.00175 7.54169C3.82005 7.71927 3.68135 7.93605 3.59625 8.17545C3.5 8.44625 3.5 8.75532 3.5 9.37348V13.5006M14.75 13.0839H14.7583M3.5 10.3339L3.5 15.8339C3.5 16.7673 3.5 17.2341 3.68166 17.5906C3.84144 17.9042 4.09641 18.1591 4.41002 18.3189C4.76654 18.5006 5.23325 18.5006 6.16667 18.5006H15.8333C16.7668 18.5006 17.2335 18.5006 17.59 18.3189C17.9036 18.1591 18.1586 17.9042 18.3183 17.5906C18.5 17.2341 18.5 16.7673 18.5 15.8339V10.3339C18.5 9.4005 18.5 8.93379 18.3183 8.57727C18.1586 8.26367 17.9036 8.0087 17.59 7.84891C17.2335 7.66726 16.7668 7.66726 15.8333 7.66726L6.16667 7.66726C5.23325 7.66726 4.76654 7.66726 4.41002 7.84891C4.09641 8.0087 3.84144 8.26367 3.68166 8.57727C3.5 8.93379 3.5 9.4005 3.5 10.3339ZM15.1667 13.0839C15.1667 13.314 14.9801 13.5006 14.75 13.5006C14.5199 13.5006 14.3333 13.314 14.3333 13.0839C14.3333 12.8538 14.5199 12.6673 14.75 12.6673C14.9801 12.6673 15.1667 12.8538 15.1667 13.0839Z" stroke="#11121C" stroke-width="1.4" stroke-linecap="round" stroke-linejoin="round"/>
</svg>
