<svg width="50" height="50" viewBox="0 0 50 50" fill="none" xmlns="http://www.w3.org/2000/svg">
<rect width="50" height="50" rx="25" fill="#FCFDFD"/>
<path d="M16.6665 20.832L23.4706 25.5949C24.0216 25.9806 24.2971 26.1734 24.5967 26.2481C24.8614 26.3141 25.1383 26.3141 25.403 26.2481C25.7026 26.1734 25.9781 25.9806 26.5291 25.5949L33.3332 20.832M20.6665 31.6654H29.3332C30.7333 31.6654 31.4334 31.6654 31.9681 31.3929C32.4386 31.1532 32.821 30.7707 33.0607 30.3003C33.3332 29.7656 33.3332 29.0655 33.3332 27.6654V22.332C33.3332 20.9319 33.3332 20.2318 33.0607 19.6971C32.821 19.2266 32.4386 18.8442 31.9681 18.6045C31.4334 18.332 30.7333 18.332 29.3332 18.332H20.6665C19.2664 18.332 18.5663 18.332 18.0315 18.6045C17.5611 18.8442 17.1787 19.2266 16.939 19.6971C16.6665 20.2318 16.6665 20.9319 16.6665 22.332V27.6654C16.6665 29.0655 16.6665 29.7656 16.939 30.3003C17.1787 30.7707 17.5611 31.1532 18.0315 31.3929C18.5663 31.6654 19.2664 31.6654 20.6665 31.6654Z" stroke="#070707" stroke-width="1.4" stroke-linecap="round" stroke-linejoin="round"/>
</svg>
