<svg width="20" height="20" viewBox="0 0 20 20" fill="none" xmlns="http://www.w3.org/2000/svg">
<path d="M5.67664 11.6142H7.77497V19.3742C7.77497 19.7192 8.05414 19.9992 8.39997 19.9992L11.7391 20C12.085 20 12.3641 19.7192 12.3641 19.375V11.615H14.3533C14.6683 11.615 14.9341 11.38 14.9733 11.0675L15.3883 7.73417C15.435 7.3625 15.1441 7.03167 14.7683 7.03167H12.3641C12.4583 4.9725 12.0016 4.36333 13.3408 4.36333C14.2475 4.255 15.6775 4.71417 15.6775 3.73833V0.7575C15.6775 0.445 15.4466 0.180833 15.1375 0.138333C14.8758 0.1025 13.8416 0 12.5591 0C6.71747 0 7.91997 6.47667 7.7758 7.03083H5.67664C5.33164 7.03083 5.05164 7.31083 5.05164 7.65583V10.9892C5.05164 11.3342 5.33164 11.6142 5.67664 11.6142ZM6.30164 8.28167H8.39997C8.74497 8.28167 9.02497 8.00167 9.02497 7.65667V5.03083C9.02497 2.62833 10.3125 1.25083 12.5583 1.25083C13.29 1.25083 13.9633 1.28667 14.4266 1.32333V3.11417C14.0916 3.285 11.1133 2.3775 11.1133 5.36167V7.6575C11.1133 8.0025 11.3933 8.2825 11.7383 8.2825H14.06L13.8 10.3658H11.7383C11.3933 10.3658 11.1133 10.6458 11.1133 10.9908V18.75H9.0258V10.99C9.0258 10.645 8.7458 10.365 8.4008 10.365H6.30164V8.28167Z" fill="#11121C"/>
</svg>
