<svg width="50" height="50" viewBox="0 0 50 50" fill="none" xmlns="http://www.w3.org/2000/svg">
<g clip-path="url(#clip0_1_1034)">
<path d="M36 25C36 30.4905 31.9773 35.0414 26.7188 35.8664V28.1797H29.2818L29.7695 25H26.7188V22.9366C26.7188 22.0665 27.145 21.2188 28.5114 21.2188H29.8984V18.5117C29.8984 18.5117 28.6395 18.2969 27.4359 18.2969C24.9235 18.2969 23.2812 19.8197 23.2812 22.5766V25H20.4883V28.1797H23.2812V35.8664C18.0227 35.0414 14 30.4905 14 25C14 18.9251 18.9251 14 25 14C31.0749 14 36 18.9251 36 25Z" fill="#11121C"/>
<path d="M29.2818 28.1797L29.7695 25H26.7188V22.9366C26.7188 22.0667 27.1449 21.2188 28.5114 21.2188H29.8984V18.5117C29.8984 18.5117 28.6396 18.2969 27.4361 18.2969C24.9235 18.2969 23.2812 19.8197 23.2812 22.5766V25H20.4883V28.1797H23.2812V35.8663C23.8413 35.9542 24.4153 36 25 36C25.5847 36 26.1587 35.9542 26.7188 35.8663V28.1797H29.2818Z" fill="#FCFDFD"/>
</g>
<rect x="0.5" y="0.5" width="49" height="49" rx="24.5" stroke="#070707" stroke-opacity="0.1"/>
<defs>
<clipPath id="clip0_1_1034">
<rect width="22" height="22" fill="white" transform="translate(14 14)"/>
</clipPath>
</defs>
</svg>
