<svg width="50" height="50" viewBox="0 0 50 50" fill="none" xmlns="http://www.w3.org/2000/svg">
<g clip-path="url(#clip0_1_1026)">
<path d="M35.2076 23.6742L26.6419 23.6738C26.2636 23.6738 25.957 23.9804 25.957 24.3586V27.095C25.957 27.4731 26.2636 27.7798 26.6418 27.7798H31.4655C30.9373 29.1506 29.9515 30.2985 28.6937 31.028L30.7505 34.5885C34.0499 32.6803 36.0005 29.3323 36.0005 25.5843C36.0005 25.0507 35.9612 24.6692 35.8825 24.2396C35.8227 23.9133 35.5393 23.6742 35.2076 23.6742Z" fill="#11121C"/>
<path d="M25.4988 31.8917C23.1382 31.8917 21.0774 30.6019 19.9706 28.6934L16.4102 30.7455C18.222 33.8858 21.6162 36.0004 25.4988 36.0004C27.4034 36.0004 29.2006 35.4876 30.7488 34.5939V34.589L28.692 31.0285C27.7511 31.5741 26.6624 31.8917 25.4988 31.8917Z" fill="#11121C"/>
<path d="M30.75 34.5928V34.5879L28.6932 31.0273C27.7524 31.573 26.6637 31.8906 25.5 31.8906V35.9993C27.4046 35.9993 29.2019 35.4865 30.75 34.5928Z" fill="#11121C"/>
<path d="M19.1087 25.499C19.1087 24.3355 19.4262 23.2469 19.9718 22.3061L16.4114 20.2539C15.5128 21.7972 15 23.5895 15 25.499C15 27.4085 15.5128 29.2009 16.4114 30.7441L19.9718 28.692C19.4262 27.7512 19.1087 26.6626 19.1087 25.499Z" fill="#11121C"/>
<path d="M25.4988 19.1087C27.0381 19.1087 28.4521 19.6557 29.5565 20.5655C29.829 20.79 30.225 20.7738 30.4746 20.5242L32.4134 18.5854C32.6966 18.3022 32.6764 17.8387 32.3739 17.5763C30.5235 15.971 28.1159 15 25.4988 15C21.6162 15 18.222 17.1146 16.4102 20.2549L19.9706 22.3071C21.0774 20.3985 23.1382 19.1087 25.4988 19.1087Z" fill="#11121C"/>
<path d="M29.5578 20.5655C29.8302 20.79 30.2263 20.7738 30.4758 20.5242L32.4146 18.5854C32.6977 18.3022 32.6776 17.8387 32.3751 17.5763C30.5247 15.9709 28.1171 15 25.5 15V19.1087C27.0393 19.1087 28.4533 19.6557 29.5578 20.5655Z" fill="#11121C"/>
</g>
<rect x="0.5" y="0.5" width="49" height="49" rx="24.5" stroke="#070707" stroke-opacity="0.1"/>
<defs>
<clipPath id="clip0_1_1026">
<rect width="21" height="21" fill="white" transform="translate(15 15)"/>
</clipPath>
</defs>
</svg>
