<svg width="20" height="20" viewBox="0 0 20 20" fill="none" xmlns="http://www.w3.org/2000/svg">
<path d="M15.4914 20.0005C15.5772 20.0005 19.4597 19.9996 19.3747 19.9996C19.7197 19.9996 19.9997 19.7196 19.9997 19.3746C19.708 12.8271 21.5347 5.91797 14.718 5.91797C13.4072 5.91797 12.363 6.36547 11.6105 6.95714C11.6105 5.73964 10.2947 6.41297 7.25718 6.23214C6.91218 6.23214 6.63218 6.51214 6.63218 6.85714C6.88385 18.6621 6.07052 19.9996 7.25718 19.9996H11.1405C12.268 19.9996 11.5505 18.4096 11.7655 13.1763C11.7655 11.0146 12.3905 10.5913 13.4705 10.5913C14.6655 10.5913 14.8664 11.4213 14.8664 13.2813C15.0805 18.4205 14.368 20.0005 15.4914 20.0005ZM13.4705 9.3413C9.72802 9.3413 10.5155 13.4563 10.5155 18.7496H7.88218V7.48214H10.3605V8.5638C10.3605 9.1638 11.2747 9.4588 11.593 8.85547C12.003 8.07714 13.068 7.16797 14.718 7.16797C17.6572 7.16797 18.7497 8.61214 18.7497 12.498V18.7505H16.1164C16.1164 12.7971 16.7464 9.3413 13.4705 9.3413Z" fill="#11121C"/>
<path d="M0.934546 6.23275C-0.248787 6.23275 0.561213 7.55358 0.309546 19.3752C0.309546 19.7202 0.589546 20.0002 0.934546 20.0002H4.82205C6.00538 20.0002 5.19538 18.6794 5.44705 6.85775C5.44705 5.77858 3.87955 6.41525 0.934546 6.23275ZM4.19705 18.7502H1.55955V7.48275H4.19705V18.7502Z" fill="#11121C"/>
<path d="M2.87665 0C-0.936686 0 -0.913353 5.77417 2.87665 5.77417C6.66415 5.77417 6.69415 0 2.87665 0ZM2.87665 4.52417C0.736647 4.52417 0.716647 1.25 2.87665 1.25C5.04081 1.25 5.01331 4.52417 2.87665 4.52417Z" fill="#11121C"/>
</svg>
