<svg width="68" height="42" viewBox="0 0 68 42" fill="none" xmlns="http://www.w3.org/2000/svg">
<path d="M31.4174 11.3791L35.5414 15.6625C36.0265 16.1665 36.0265 16.9805 35.5414 17.4844L33.3768 19.7134C32.8916 20.2173 32.1079 20.2173 31.6227 19.7134L23.692 11.4372C23.2068 10.9333 23.2068 10.1193 23.692 9.61532L31.6413 1.37795C32.1265 0.874017 32.9103 0.874017 33.3954 1.37795L35.5414 3.60689C36.0265 4.11082 36.0265 4.92487 35.5414 5.4288L31.4174 9.73162C30.9882 10.1774 30.9882 10.9139 31.4174 11.3791ZM40.1132 8.10352C40.5983 7.59959 40.5983 6.78554 40.1132 6.28161L39.2921 5.4288C38.8069 4.92487 38.0232 4.92487 37.538 5.4288L33.5074 9.63471C33.0222 10.1386 33.0222 10.9527 33.5074 11.4566L37.538 15.6431C38.0232 16.1471 38.8069 16.1471 39.2921 15.6431L40.1132 14.7903C40.5983 14.2864 40.5983 13.4724 40.1132 12.9684L38.3031 11.0884C38.0045 10.7782 38.0045 10.2937 38.3031 9.98358L40.1132 8.10352ZM42.0912 8.14229L40.6357 9.65409C40.1505 10.158 40.1505 10.9721 40.6357 11.476L42.0912 12.9878C42.5764 13.4917 43.3601 13.4917 43.8453 12.9878L45.3008 11.476C45.7859 10.9721 45.7859 10.158 45.3008 9.65409L43.8453 8.14229C43.3601 7.61897 42.5764 7.61897 42.0912 8.14229Z" fill="#11121C"/>
<path d="M1.30859 35.6891C1.30859 32.4523 3.30526 30.3203 6.36557 30.3203C8.94071 30.3203 10.6388 31.6771 11.0307 34.0417V34.3905H8.45554C8.28759 33.247 7.50385 32.588 6.36557 32.588C4.81675 32.588 3.95837 33.6928 3.95837 35.7085C3.95837 37.608 4.85408 38.7127 6.34691 38.7127C7.55984 38.7127 8.34358 37.9956 8.53018 36.7164H11.1053V37.0653C10.6575 39.5849 8.92205 40.9804 6.29093 40.9804C3.23062 40.9611 1.30859 38.9066 1.30859 35.6891Z" fill="#11121C"/>
<path d="M13.4556 32.956C13.4556 32.5683 13.325 32.4327 12.9518 32.4327H12.5039V30.6883C12.5039 30.6883 13.0077 30.3975 13.9967 30.3975C15.247 30.3975 15.8628 30.9402 15.8628 32.0256V32.2582H15.9747C16.5346 30.9402 17.5236 30.2812 18.9604 30.2812C19.5762 30.2812 19.8934 30.3782 19.8934 30.3782V32.8009H19.0351C16.8518 32.8009 16.0494 33.8282 16.0494 36.5804V40.7282H13.4369L13.4556 32.956Z" fill="#11121C"/>
<path d="M27.6183 37.5112H30.1934V37.8988C29.7269 39.7789 27.9169 40.9806 25.5843 40.9806C22.524 40.9806 20.5273 38.9455 20.5273 35.8443C20.5273 32.3556 22.4867 30.3398 25.8642 30.3398C28.514 30.3398 30.2867 31.6384 30.2867 33.5766C30.2867 35.9025 28.8499 36.6972 23.2704 37.0267C23.5503 38.2671 24.3154 38.8873 25.5843 38.8873C26.6853 38.8873 27.413 38.3834 27.6183 37.5112ZM23.1958 35.0884C26.7413 34.9528 27.6743 34.5845 27.6556 33.5573C27.637 32.8207 26.9838 32.3943 25.8642 32.3943C24.2967 32.3943 23.3824 33.3053 23.1958 35.0884Z" fill="#11121C"/>
<path d="M31.8906 35.5717C31.8906 32.3931 33.738 30.2804 36.4811 30.2804C37.8433 30.2804 38.8696 30.8619 39.3548 31.8504H39.4668L39.3921 30.5518V26.3652H42.0046V38.324C42.0046 38.7116 42.1352 38.8473 42.5084 38.8473H42.9563V40.5917C42.9563 40.5917 42.4524 40.8824 41.4634 40.8824C40.2132 40.8824 39.5974 40.3397 39.5974 39.2543V39.2155H39.4854C38.851 40.3397 37.75 40.9987 36.3878 40.9987C33.682 40.9987 31.8906 38.9248 31.8906 35.5717ZM39.5041 35.5717C39.5041 33.7886 38.5337 32.5675 37.0596 32.5675C35.4734 32.5675 34.5591 33.6335 34.5591 35.5717C34.5591 37.5487 35.4548 38.6922 37.0222 38.6922C38.5337 38.7116 39.5041 37.4712 39.5041 35.5717Z" fill="#11121C"/>
<path d="M51.4855 37.5112H54.0606V37.8988C53.5941 39.7789 51.7841 40.9806 49.4515 40.9806C46.3912 40.9806 44.3945 38.9455 44.3945 35.8443C44.3945 32.3556 46.3539 30.3398 49.7314 30.3398C52.3812 30.3398 54.1539 31.6384 54.1539 33.5766C54.1539 35.9025 52.7171 36.6972 47.1376 37.0267C47.4175 38.2671 48.1826 38.8873 49.4515 38.8873C50.5525 38.8873 51.2802 38.3834 51.4855 37.5112ZM47.063 35.0884C50.6085 34.9528 51.5415 34.5845 51.5228 33.5573C51.5042 32.8207 50.851 32.3943 49.7314 32.3943C48.1453 32.3943 47.2496 33.3053 47.063 35.0884Z" fill="#11121C"/>
<path d="M66.6941 38.8676V40.612C66.6941 40.612 66.1902 40.9027 65.2012 40.9027C63.8204 40.9027 63.1299 40.1856 63.1299 38.7513V32.8591H59.9577V40.7089H57.3452V32.8591H55.3672V30.5333H57.3452V30.1069C57.3452 27.3546 58.7261 25.9785 61.5065 25.9785C62.962 25.9785 63.7644 26.2886 63.7644 26.2886V28.6532H63.4285C63.4285 28.6532 62.8314 28.3431 61.7677 28.3431C60.4428 28.3431 59.9577 28.8471 59.9577 30.2619V30.5333H65.7424V38.3249C65.7424 38.7125 65.873 38.8482 66.2462 38.8482C66.2462 38.8482 66.6941 38.8482 66.6941 38.8676Z" fill="#11121C"/>
</svg>
