<svg width="68" height="42" viewBox="0 0 68 42" fill="none" xmlns="http://www.w3.org/2000/svg">
<path d="M29.6754 22.3096L36.1374 29.0406C36.8977 29.8325 36.8977 31.1117 36.1374 31.9036L32.7456 35.4061C31.9854 36.198 30.7573 36.198 29.9971 35.4061L17.5702 22.401C16.8099 21.6091 16.8099 20.3299 17.5702 19.5381L30.0263 6.59391C30.7866 5.80203 32.0146 5.80203 32.7749 6.59391L36.1374 10.0964C36.8977 10.8883 36.8977 12.1675 36.1374 12.9594L29.6754 19.7208C29.0029 20.4213 29.0029 21.5787 29.6754 22.3096ZM43.3012 17.1624C44.0614 16.3706 44.0614 15.0914 43.3012 14.2995L42.0146 12.9594C41.2544 12.1675 40.0263 12.1675 39.2661 12.9594L32.9503 19.5685C32.1901 20.3604 32.1901 21.6396 32.9503 22.4315L39.2661 29.0102C40.0263 29.802 41.2544 29.802 42.0146 29.0102L43.3012 27.6701C44.0614 26.8782 44.0614 25.599 43.3012 24.8071L40.4649 21.8528C39.9971 21.3655 39.9971 20.6041 40.4649 20.1168L43.3012 17.1624ZM46.4006 17.2233L44.1199 19.599C43.3597 20.3909 43.3597 21.6701 44.1199 22.4619L46.4006 24.8376C47.1608 25.6294 48.3889 25.6294 49.1491 24.8376L51.4298 22.4619C52.1901 21.6701 52.1901 20.3909 51.4298 19.599L49.1491 17.2233C48.3889 16.401 47.1608 16.401 46.4006 17.2233Z" fill="#11121C"/>
</svg>
