<svg width="42" height="42" viewBox="0 0 42 42" fill="none" xmlns="http://www.w3.org/2000/svg">
<circle cx="21" cy="21" r="21" fill="white"/>
<path d="M11 12.384L6.15589 17.2281C5.97465 17.4094 5.74398 17.5 5.46388 17.5C5.18378 17.5 4.9531 17.4094 4.77186 17.2281C4.59062 17.0469 4.5 16.8162 4.5 16.5361C4.5 16.256 4.59062 16.0253 4.77186 15.8441L9.61597 11L4.77186 6.15589C4.59062 5.97465 4.5 5.74398 4.5 5.46388C4.5 5.18378 4.59062 4.9531 4.77186 4.77186C4.9531 4.59062 5.18378 4.5 5.46388 4.5C5.74398 4.5 5.97465 4.59062 6.15589 4.77186L11 9.61597L15.8441 4.77186C16.0253 4.59062 16.256 4.5 16.5361 4.5C16.8162 4.5 17.0469 4.59062 17.2281 4.77186C17.4094 4.9531 17.5 5.18378 17.5 5.46388C17.5 5.74398 17.4094 5.97465 17.2281 6.15589L12.384 11L17.2281 15.8441C17.4094 16.0253 17.5 16.256 17.5 16.5361C17.5 16.8162 17.4094 17.0469 17.2281 17.2281C17.0469 17.4094 16.8162 17.5 16.5361 17.5C16.256 17.5 16.0253 17.4094 15.8441 17.2281L11 12.384Z" fill="#070707" transform="translate(11, 11)"/>
</svg>
