<svg width="50" height="50" viewBox="0 0 50 50" fill="none" xmlns="http://www.w3.org/2000/svg">
<rect width="50" height="50" rx="25" fill="#FCFDFD"/>
<path d="M29.1667 22.5C29.1667 22.0734 29.0039 21.6469 28.6785 21.3215C28.3531 20.9961 27.9265 20.8333 27.5 20.8333M27.5 27.5C30.2614 27.5 32.5 25.2614 32.5 22.5C32.5 19.7386 30.2614 17.5 27.5 17.5C24.7386 17.5 22.5 19.7386 22.5 22.5C22.5 22.7281 22.5153 22.9526 22.5448 23.1725C22.5935 23.5343 22.6178 23.7152 22.6014 23.8297C22.5844 23.9489 22.5627 24.0131 22.5039 24.1182C22.4475 24.2192 22.3481 24.3186 22.1493 24.5174L17.8905 28.7761C17.7464 28.9203 17.6743 28.9923 17.6228 29.0764C17.5771 29.151 17.5434 29.2323 17.523 29.3173C17.5 29.4132 17.5 29.5151 17.5 29.719V31.1667C17.5 31.6334 17.5 31.8667 17.5908 32.045C17.6707 32.2018 17.7982 32.3293 17.955 32.4092C18.1333 32.5 18.3666 32.5 18.8333 32.5H20.8333V30.8333H22.5V29.1667H24.1667L25.4826 27.8507C25.6814 27.6519 25.7808 27.5525 25.8818 27.4961C25.9869 27.4373 26.0511 27.4156 26.1703 27.3986C26.2848 27.3822 26.4657 27.4065 26.8275 27.4552C27.0474 27.4847 27.2719 27.5 27.5 27.5Z" stroke="#070707" stroke-width="1.4" stroke-linecap="round" stroke-linejoin="round"/>
</svg>
