<svg width="22" height="22" viewBox="0 0 22 22" fill="none" xmlns="http://www.w3.org/2000/svg">
<path d="M10.4183 19.0117C10.6028 19.1194 10.695 19.1732 10.8252 19.2011C10.9262 19.2228 11.0736 19.2228 11.1747 19.2011C11.3048 19.1732 11.3971 19.1194 11.5816 19.0117C13.205 18.0647 17.6666 15.0897 17.6666 10.9993V7.01399C17.6666 6.34773 17.6666 6.0146 17.5576 5.72824C17.4614 5.47527 17.3049 5.24955 17.1019 5.0706C16.872 4.86802 16.5601 4.75105 15.9362 4.51711L11.4681 2.84155C11.2948 2.77658 11.2082 2.7441 11.1191 2.73122C11.0401 2.7198 10.9598 2.7198 10.8807 2.73122C10.7916 2.7441 10.705 2.77658 10.5318 2.84155L6.06359 4.51711C5.43975 4.75105 5.12783 4.86802 4.89797 5.0706C4.6949 5.24955 4.53848 5.47527 4.44222 5.72824C4.33325 6.0146 4.33325 6.34773 4.33325 7.01399V10.9993C4.33325 15.0897 8.79489 18.0647 10.4183 19.0117Z" stroke="#11121C" stroke-width="1.4" stroke-linecap="round" stroke-linejoin="round"/>
</svg>
