<svg width="20" height="20" viewBox="0 0 20 20" fill="none" xmlns="http://www.w3.org/2000/svg">
<path d="M0.346128 9.33097L5.23696 11.7685C5.42613 11.8618 5.64946 11.8551 5.83029 11.7493L10.1836 9.21847L7.54863 11.5535C7.41446 11.6726 7.33779 11.8426 7.33779 12.0218V17.7093C7.33779 18.3093 8.10363 18.5618 8.46279 18.0851L10.577 15.2743L15.8053 18.2518C16.172 18.4626 16.642 18.251 16.727 17.8318L19.9878 1.58181C20.0853 1.09347 19.5995 0.695139 19.1478 0.876805L0.397794 8.18931C-0.105539 8.38597 -0.138039 9.09014 0.346128 9.33097ZM18.5378 2.45681L15.672 16.7376L10.7178 13.916C10.4478 13.7618 10.1003 13.8301 9.90863 14.0835L8.58779 15.8393V12.3026L15.7136 5.98931C16.2778 5.49014 15.6295 4.60264 14.9853 4.98097L5.49363 10.4993L2.16696 8.84181L18.5378 2.45681Z" fill="#11121C"/>
</svg>
