<svg width="20" height="20" viewBox="0 0 20 20" fill="none" xmlns="http://www.w3.org/2000/svg">
<path d="M0.394018 16.3279C2.24568 17.5029 4.40068 18.1237 6.62569 18.1237C9.88402 18.1237 12.8699 16.872 15.034 14.5995C17.1049 12.4245 18.244 9.50202 18.1874 6.53619C18.9724 5.86452 19.8957 4.58202 19.8957 3.33202C19.8957 2.85286 19.3757 2.54869 18.954 2.79286C18.2165 3.22619 17.544 3.33952 16.8524 3.14536C15.4399 1.76869 13.3374 1.47869 11.5657 2.43369C10.0174 3.26702 9.15652 4.79202 9.23402 6.45869C6.61819 6.13952 4.20152 4.82786 2.51652 2.78952C2.23985 2.45702 1.71485 2.49619 1.49485 2.87286C0.683185 4.26286 0.691518 5.87369 1.39735 7.17452C1.06152 7.23369 0.854018 7.51619 0.854018 7.82202C0.854018 9.12952 1.44235 10.3312 2.38985 11.1512C2.21318 11.3212 2.15485 11.5737 2.22985 11.7987C2.64652 13.0504 3.58985 14.0287 4.76902 14.5187C3.48652 15.1312 2.06818 15.3354 0.805685 15.1804C0.152351 15.092 -0.170149 15.9704 0.394018 16.3279ZM6.79652 14.7329C7.26402 14.3737 7.01569 13.6254 6.42902 13.6129C5.39568 13.5912 4.45485 13.082 3.86902 12.2812C4.15152 12.2629 4.44402 12.2195 4.72235 12.1445C5.35652 11.9729 5.32652 11.0579 4.68235 10.9287C3.51318 10.6937 2.59568 9.84202 2.25152 8.74536C2.56568 8.82286 2.88568 8.86619 3.20485 8.87202C3.83735 8.87536 4.07652 8.06452 3.56068 7.72536C2.39818 6.95952 1.90235 5.60702 2.23068 4.33536C4.26068 6.39202 7.01485 7.63119 9.92818 7.77119C10.3457 7.79702 10.659 7.40452 10.5674 7.00702C10.1715 5.29119 11.1299 4.08869 12.159 3.53452C13.1774 2.98452 14.8124 2.81286 16.0657 4.12786C16.4382 4.52036 17.6949 4.53536 18.334 4.38619C18.0474 4.92619 17.6065 5.43869 17.194 5.72702C17.0182 5.85036 16.9174 6.05536 16.9282 6.26952C17.0624 9.00702 16.0424 11.7287 14.1299 13.7362C12.2032 15.7587 9.53902 16.8729 6.62652 16.8729C5.46818 16.8729 4.33235 16.6845 3.25902 16.3212C4.54235 16.0729 5.76152 15.5295 6.79652 14.7329Z" fill="#11121C"/>
</svg>
