<?xml version="1.0" standalone="no"?>
<!DOCTYPE svg PUBLIC "-//W3C//DTD SVG 20010904//EN"
 "http://www.w3.org/TR/2001/REC-SVG-20010904/DTD/svg10.dtd">
<svg version="1.0" xmlns="http://www.w3.org/2000/svg"
 width="512.000000pt" height="512.000000pt" viewBox="0 0 512.000000 512.000000"
 preserveAspectRatio="xMidYMid meet">

<g transform="translate(0.000000,512.000000) scale(0.100000,-0.100000)"
fill="#000000" stroke="none">
<path d="M1836 4784 c-145 -26 -311 -109 -427 -212 -64 -57 -150 -173 -193
-258 -37 -75 -86 -229 -86 -273 0 -58 -10 -69 -69 -86 -74 -22 -206 -84 -278
-132 -78 -51 -202 -171 -262 -252 -227 -308 -262 -720 -91 -1066 61 -125 128
-213 235 -312 l83 -77 -28 -50 c-45 -80 -71 -173 -77 -271 -15 -262 130 -503
371 -616 64 -30 177 -59 232 -59 31 0 31 0 37 -67 24 -248 156 -467 365 -604
258 -169 605 -169 865 0 89 59 173 139 192 185 13 31 15 288 15 1901 0 1643
-2 1870 -15 1902 -8 20 -48 68 -88 107 -207 204 -493 292 -781 240z m298 -324
c86 -22 158 -59 224 -115 l42 -37 0 -613 0 -613 -42 -17 c-24 -9 -66 -19 -94
-22 -67 -7 -139 25 -217 95 -60 55 -101 69 -164 57 -49 -9 -109 -69 -118 -118
-14 -73 1 -106 79 -183 83 -82 198 -144 304 -165 60 -11 176 -8 230 7 l22 6 0
-990 0 -990 -61 -41 c-190 -127 -443 -98 -601 67 -86 90 -138 212 -138 323 0
86 8 106 61 139 64 42 115 100 130 149 33 112 -74 222 -192 196 -17 -4 -53
-27 -80 -51 -27 -24 -73 -56 -102 -71 -45 -23 -64 -27 -137 -27 -72 0 -93 4
-136 26 -75 40 -107 70 -145 140 -30 57 -33 71 -34 148 0 70 5 94 25 135 34
68 92 123 175 165 87 44 118 88 112 163 -10 115 -117 175 -234 131 -42 -16
-44 -16 -81 8 -115 77 -222 210 -272 342 -77 200 -60 432 47 616 49 83 180
214 263 263 135 78 326 114 470 87 132 -24 172 -24 209 2 76 52 98 122 63 201
-11 25 -32 53 -47 63 -33 21 -111 42 -187 51 -68 7 -69 11 -37 106 29 87 78
164 146 228 147 140 326 188 517 139z"/>
<path d="M3401 4784 c-253 -68 -410 -331 -346 -577 18 -69 47 -128 88 -181
l30 -38 -36 -73 -36 -72 -60 -5 c-65 -5 -98 -22 -135 -72 -29 -39 -29 -133 0
-172 44 -60 66 -69 186 -72 60 -2 125 -1 144 3 58 10 94 54 163 192 l63 129
33 -4 c19 -2 66 1 105 8 205 35 363 198 393 406 48 331 -270 615 -592 528z
m182 -318 c104 -43 129 -180 46 -258 -67 -64 -156 -64 -220 1 -124 123 13 325
174 257z"/>
<path d="M4203 3505 c-127 -35 -253 -136 -307 -247 l-28 -57 -443 -3 c-430 -3
-444 -4 -471 -24 -53 -39 -69 -71 -69 -134 0 -63 16 -95 69 -134 27 -20 41
-21 471 -24 l443 -3 28 -57 c34 -71 132 -171 202 -206 280 -142 608 7 687 311
89 341 -242 669 -582 578z m180 -319 c104 -43 129 -180 46 -258 -67 -64 -156
-64 -220 1 -124 123 13 325 174 257z"/>
<path d="M2975 2546 c-94 -41 -124 -168 -58 -247 46 -54 70 -59 307 -59 l216
0 79 -106 80 -106 -24 -49 c-97 -191 -59 -416 94 -562 195 -186 491 -180 674
12 182 191 182 472 -1 663 -98 103 -240 157 -377 143 -38 -4 -80 -8 -91 -8
-17 -2 -47 32 -135 148 -79 103 -125 155 -149 167 -31 16 -68 18 -310 18 -206
-1 -283 -4 -305 -14z m1088 -640 c104 -43 129 -180 46 -258 -67 -64 -156 -64
-220 1 -124 123 13 325 174 257z"/>
<path d="M2974 1906 c-17 -8 -44 -30 -59 -50 -50 -65 -47 -85 56 -394 l93
-280 -49 -54 c-184 -201 -178 -488 14 -671 190 -182 472 -182 662 0 192 183
198 479 12 674 -67 71 -149 115 -255 138 l-82 17 -95 284 c-91 269 -98 285
-133 313 -44 35 -115 45 -164 23z m449 -960 c104 -43 129 -180 46 -258 -67
-64 -156 -64 -220 1 -124 123 13 325 174 257z"/>
</g>
</svg>
