<svg width="14" height="14" viewBox="0 0 14 14" fill="none" xmlns="http://www.w3.org/2000/svg">
<path d="M7 8.38403L2.15589 13.2281C1.97465 13.4094 1.74398 13.5 1.46388 13.5C1.18378 13.5 0.953105 13.4094 0.771863 13.2281C0.590621 13.0469 0.5 12.8162 0.5 12.5361C0.5 12.256 0.590621 12.0253 0.771863 11.8441L5.61597 7L0.771863 2.15589C0.590621 1.97465 0.5 1.74398 0.5 1.46388C0.5 1.18378 0.590621 0.953105 0.771863 0.771863C0.953105 0.590621 1.18378 0.5 1.46388 0.5C1.74398 0.5 1.97465 0.590621 2.15589 0.771863L7 5.61597L11.8441 0.771863C12.0253 0.590621 12.256 0.5 12.5361 0.5C12.8162 0.5 13.0469 0.590621 13.2281 0.771863C13.4094 0.953105 13.5 1.18378 13.5 1.46388C13.5 1.74398 13.4094 1.97465 13.2281 2.15589L8.38403 7L13.2281 11.8441C13.4094 12.0253 13.5 12.256 13.5 12.5361C13.5 12.8162 13.4094 13.0469 13.2281 13.2281C13.0469 13.4094 12.8162 13.5 12.5361 13.5C12.256 13.5 12.0253 13.4094 11.8441 13.2281L7 8.38403Z" fill="#070707"/>
</svg>
