<svg height="512pt" viewBox="0 -7 512 512" width="512pt" xmlns="http://www.w3.org/2000/svg"><path d="m0 110.144531h358.945312v386.855469h-358.945312zm0 0" fill="#ffe07f"/><path d="m0 110.144531h358.945312v96.710938h-358.945312zm0 0" fill="#ffe07f"/><path d="m0 206.855469h358.945312v96.714843h-358.945312zm0 0" fill="#ffd23a"/><path d="m179.472656 206.855469h179.472656v96.714843h-179.472656zm0 0" fill="#fdb538"/><path d="m0 303.570312h358.945312v96.714844h-358.945312zm0 0" fill="#ffe07f"/><path d="m179.472656 303.570312h179.472656v96.714844h-179.472656zm0 0" fill="#ffd23a"/><path d="m0 400.285156h358.945312v96.714844h-358.945312zm0 0" fill="#ffd23a"/><path d="m179.472656 400.285156h179.472656v96.714844h-179.472656zm0 0" fill="#fdb538"/><path d="m332.5 0c-98.976562 0-179.5 80.492188-179.5 179.433594s80.523438 179.433594 179.5 179.433594 179.5-80.492188 179.5-179.433594-80.523438-179.433594-179.5-179.433594zm0 0" fill="#ffe07f"/><path d="m332.5 0v358.867188c98.976562 0 179.5-80.496094 179.5-179.433594 0-98.941406-80.523438-179.433594-179.5-179.433594zm0 0" fill="#ffd23a"/><path d="m332.5 68.136719c-61.394531 0-111.339844 49.925781-111.339844 111.296875s49.945313 111.300781 111.339844 111.300781 111.339844-49.929687 111.339844-111.300781-49.945313-111.296875-111.339844-111.296875zm0 0" fill="#ffd23a"/><path d="m332.5 68.136719v222.597656c61.394531 0 111.339844-49.929687 111.339844-111.300781s-49.945313-111.296875-111.339844-111.296875zm0 0" fill="#fdb538"/></svg>