<svg width="10" height="9" viewBox="0 0 10 9" fill="none" xmlns="http://www.w3.org/2000/svg">
<path d="M3.35011 4.55518L3.35007 4.55522L3.35382 4.55899L5.15394 6.36769C5.26854 6.48283 5.26865 6.66867 5.15428 6.78395C5.15417 6.78407 5.15406 6.78418 5.15394 6.78429L4.20985 7.72471L4.20908 7.72547C4.09509 7.84001 3.91207 7.84007 3.798 7.72566C3.79794 7.7256 3.79787 7.72554 3.79781 7.72547L0.336445 4.23124L0.336031 4.23083C0.221355 4.1156 0.221323 3.92959 0.335933 3.81432C0.335966 3.81429 0.335998 3.81426 0.336031 3.81423L3.80575 0.336156L3.80596 0.335948C3.92001 0.221351 4.10317 0.221351 4.21723 0.335948L5.15394 1.27713C5.26865 1.39238 5.26865 1.57848 5.15394 1.69373L5.15355 1.69413L3.35382 3.51062C3.35375 3.51069 3.35368 3.51075 3.35362 3.51082C3.06739 3.79863 3.07272 4.26435 3.35011 4.55518ZM4.62049 3.82241L4.6209 3.822L6.37989 2.04644C6.37995 2.04638 6.38001 2.04632 6.38007 2.04626C6.49413 1.93185 6.67717 1.9319 6.79116 2.04644L7.14956 2.40655C7.26427 2.5218 7.26427 2.70789 7.14956 2.82315L6.35946 3.61701C6.13206 3.84549 6.13206 4.20774 6.35946 4.43622L7.14956 5.23009C7.26427 5.34534 7.26427 5.53144 7.14956 5.64669L6.79116 6.00679C6.67711 6.12139 6.49394 6.12139 6.37989 6.00679L4.62049 4.23901C4.50578 4.12376 4.50578 3.93766 4.62049 3.82241ZM8.36736 3.19223L8.36739 3.19226L8.37066 3.18885C8.48402 3.07057 8.66197 3.07057 8.77534 3.18885L8.7753 3.18888L8.77863 3.19223L9.41397 3.83059C9.52868 3.94585 9.52868 4.13194 9.41397 4.24719L8.77863 4.88556C8.66458 5.00016 8.48141 5.00016 8.36736 4.88556L7.73202 4.2472C7.61731 4.13194 7.61731 3.94585 7.73202 3.83059L8.36736 3.19223Z" stroke="#1F3C87" stroke-width="0.5"/>
</svg>
