<svg width="20" height="21" viewBox="0 0 20 21" fill="none" xmlns="http://www.w3.org/2000/svg">
<circle cx="10" cy="10.6328" r="10" fill="#48B9FF" fill-opacity="0.2"/>
<path d="M12.8818 12.7827C12.8818 13.3625 12.666 13.8428 12.2344 14.2236C11.807 14.6045 11.1955 14.8436 10.3999 14.9409V16.3882H9.56836V14.998C9.08594 14.9896 8.62256 14.9494 8.17822 14.8774C7.73812 14.8013 7.37419 14.6976 7.08643 14.5664V13.5C7.40381 13.6481 7.79102 13.7772 8.24805 13.8872C8.70931 13.993 9.14941 14.0501 9.56836 14.0586V11.3418C8.70085 11.0667 8.08724 10.7451 7.72754 10.377C7.36784 10.0046 7.18799 9.52848 7.18799 8.94873C7.18799 8.39014 7.40169 7.93099 7.8291 7.57129C8.25651 7.21159 8.83626 6.99154 9.56836 6.91113V5.76855H10.3999V6.89844C11.2039 6.9196 11.9678 7.0804 12.6914 7.38086L12.3359 8.27588C11.68 8.01774 11.0347 7.8654 10.3999 7.81885V10.4976C11.077 10.7261 11.5806 10.9419 11.9106 11.145C12.245 11.3481 12.4904 11.5809 12.647 11.8433C12.8035 12.1014 12.8818 12.4146 12.8818 12.7827ZM11.7266 12.8652C11.7266 12.5605 11.6271 12.3193 11.4282 12.1416C11.2293 11.9596 10.8866 11.784 10.3999 11.6147V13.9951C11.2843 13.8597 11.7266 13.4831 11.7266 12.8652ZM8.34961 8.93604C8.34961 9.24495 8.44059 9.49463 8.62256 9.68506C8.80452 9.87549 9.11979 10.0511 9.56836 10.2119V7.84424C9.17057 7.91195 8.868 8.04102 8.66064 8.23145C8.45329 8.42188 8.34961 8.65674 8.34961 8.93604Z" fill="#1F3C87"/>
</svg>
