<svg width="90" height="90" fill="none" viewBox="0 0 30.938 30.938" xmlns="http://www.w3.org/2000/svg"><circle cx="15.472" cy="15.809" r="10.599" fill="#48b9ff" fill-opacity=".2"/><path d="m13.03 16.545.006.006 2.954 2.968a.495.495 0 0 1 0 .698l-1.55 1.544a.484.484 0 0 1-.69.001l-5.68-5.734v-.001a.495.495 0 0 1-.001-.698l5.694-5.708a.484.484 0 0 1 .69 0l1.537 1.544a.495.495 0 0 1 0 .699l-2.954 2.981a1.222 1.222 0 0 0-.006 1.7zm2.07-1.203 2.887-2.914a.484.484 0 0 1 .69 0l.588.59a.495.495 0 0 1 0 .699l-1.297 1.303a.937.937 0 0 0 0 1.33l1.297 1.302a.495.495 0 0 1 0 .698l-.588.591a.484.484 0 0 1-.69 0l-2.887-2.9a.495.495 0 0 1 0-.699zm6.149-1.034.005-.005a.462.462 0 0 1 .679 0l.005.005 1.043 1.048a.494.494 0 0 1 0 .698l-1.043 1.048a.484.484 0 0 1-.69 0l-1.042-1.048a.495.495 0 0 1 0-.698z" stroke="#1f3c87" stroke-width=".8"/></svg>