<svg width="1070" height="647" fill="none" xmlns="http://www.w3.org/2000/svg"><g opacity=".4"><mask id="b" fill="#fff"><path d="M838.128 495.591 595.526 251.93c-28.541-28.666-28.541-74.973 0-103.639L722.865 21.499c28.541-28.666 74.646-28.666 103.188 0l466.537 470.784c28.55 28.666 28.55 74.973 0 103.639L824.955 1064.5c-28.541 28.67-74.647 28.67-103.188 0L595.526 937.709c-28.541-28.666-28.541-74.973 0-103.639l242.602-244.763c25.248-25.359 25.248-67.255 0-93.716ZM326.579 681.92c-28.541 28.666-28.541 74.972 0 103.638l48.301 48.512c28.541 28.666 74.646 28.666 103.188 0L715.18 594.819c28.542-28.666 28.542-74.972 0-103.638L478.068 253.033c-28.542-28.666-74.647-28.666-103.188 0l-48.301 48.511c-28.541 28.666-28.541 74.973 0 103.639L433.06 512.129c17.564 17.641 17.564 45.204 0 62.845L326.579 681.92Zm-116.361-2.205 85.624-85.998c28.541-28.666 28.541-74.973 0-103.639l-85.624-85.998c-28.541-28.666-74.647-28.666-103.188 0l-85.624 85.998c-28.541 28.666-28.541 74.973 0 103.639l85.624 85.998c28.541 29.768 74.647 29.768 103.188 0Z"/></mask><path d="M838.128 495.591 595.526 251.93c-28.541-28.666-28.541-74.973 0-103.639L722.865 21.499c28.541-28.666 74.646-28.666 103.188 0l466.537 470.784c28.55 28.666 28.55 74.973 0 103.639L824.955 1064.5c-28.541 28.67-74.647 28.67-103.188 0L595.526 937.709c-28.541-28.666-28.541-74.973 0-103.639l242.602-244.763c25.248-25.359 25.248-67.255 0-93.716ZM326.579 681.92c-28.541 28.666-28.541 74.972 0 103.638l48.301 48.512c28.541 28.666 74.646 28.666 103.188 0L715.18 594.819c28.542-28.666 28.542-74.972 0-103.638L478.068 253.033c-28.542-28.666-74.647-28.666-103.188 0l-48.301 48.511c-28.541 28.666-28.541 74.973 0 103.639L433.06 512.129c17.564 17.641 17.564 45.204 0 62.845L326.579 681.92Zm-116.361-2.205 85.624-85.998c28.541-28.666 28.541-74.973 0-103.639l-85.624-85.998c-28.541-28.666-74.647-28.666-103.188 0l-85.624 85.998c-28.541 28.666-28.541 74.973 0 103.639l85.624 85.998c28.541 29.768 74.647 29.768 103.188 0Z" fill="#EBEFFA" fill-opacity=".4" stroke="url(#a)" stroke-width="2" mask="url(#b)"/></g><defs><linearGradient id="a" x1="-246.5" y1="901.5" x2="1282" y2="543" gradientUnits="userSpaceOnUse"><stop stop-color="#1E3D8F" stop-opacity=".6"/><stop offset="1" stop-color="#48B9FF" stop-opacity=".4"/></linearGradient></defs></svg>