<svg width="75" height="44" viewBox="0 0 75 44" fill="none" xmlns="http://www.w3.org/2000/svg">
<path d="M34.1858 11.4013L38.8688 16.1065C39.4197 16.6601 39.4197 17.5543 38.8688 18.1079L36.4108 20.5563C35.8598 21.1099 34.9698 21.1099 34.4189 20.5563L25.4132 11.4651C24.8623 10.9116 24.8623 10.0174 25.4132 9.46379L34.4401 0.415172C34.991 -0.138391 35.881 -0.138391 36.4319 0.415172L38.8688 2.86362C39.4197 3.41719 39.4197 4.3114 38.8688 4.86496L34.1858 9.59154C33.6984 10.0812 33.6984 10.8903 34.1858 11.4013ZM44.0603 7.8031C44.6112 7.24954 44.6112 6.35533 44.0603 5.80176L43.1279 4.86496C42.577 4.3114 41.687 4.3114 41.1361 4.86496L36.5591 9.48508C36.0081 10.0386 36.0081 10.9329 36.5591 11.4864L41.1361 16.0853C41.687 16.6388 42.577 16.6388 43.1279 16.0853L44.0603 15.1485C44.6112 14.5949 44.6112 13.7007 44.0603 13.1471L42.0049 11.0819C41.6658 10.7412 41.6658 10.209 42.0049 9.86832L44.0603 7.8031ZM46.3064 7.84569L44.6536 9.50637C44.1027 10.0599 44.1027 10.9542 44.6536 11.5077L46.3064 13.1684C46.8574 13.722 47.7473 13.722 48.2983 13.1684L49.9511 11.5077C50.502 10.9542 50.502 10.0599 49.9511 9.50637L48.2983 7.84569C47.7473 7.27083 46.8574 7.27083 46.3064 7.84569Z" fill="url(#paint0_linear)"/>
<path d="M0 38.1061C0 34.5505 2.26732 32.2085 5.74246 32.2085C8.66666 32.2085 10.5949 33.6989 11.0399 36.2963V36.6796H8.11573C7.92502 35.4234 7.03504 34.6995 5.74246 34.6995C3.9837 34.6995 3.00896 35.9131 3.00896 38.1274C3.00896 40.2139 4.02608 41.4274 5.72127 41.4274C7.09861 41.4274 7.98859 40.6397 8.20049 39.2345H11.1247V39.6177C10.6161 42.3855 8.64547 43.9185 5.6577 43.9185C2.18256 43.8972 0 41.6404 0 38.1061Z" fill="#1D398C"/>
<path d="M13.7945 35.1039C13.7945 34.6781 13.6462 34.5291 13.2224 34.5291H12.7139V32.6129C12.7139 32.6129 13.286 32.2935 14.4091 32.2935C15.8288 32.2935 16.528 32.8897 16.528 34.082V34.3374H16.6552C17.2909 32.8897 18.4139 32.1658 20.0456 32.1658C20.7448 32.1658 21.1051 32.2722 21.1051 32.2722V34.9336H20.1303C17.6511 34.9336 16.7399 36.062 16.7399 39.0853V43.6416H13.7734L13.7945 35.1039Z" fill="#1D398C"/>
<path d="M29.8778 40.1074H32.802V40.5332C32.2723 42.5984 30.2169 43.9184 27.5681 43.9184C24.093 43.9184 21.8257 41.6829 21.8257 38.2763C21.8257 34.444 24.0506 32.2297 27.886 32.2297C30.8949 32.2297 32.908 33.6562 32.908 35.7853C32.908 38.3402 31.2764 39.2131 24.9406 39.5751C25.2584 40.9377 26.1272 41.619 27.5681 41.619C28.8183 41.619 29.6447 41.0654 29.8778 40.1074ZM24.8558 37.446C28.8819 37.297 29.9414 36.8924 29.9202 35.764C29.899 34.955 29.1574 34.4866 27.886 34.4866C26.106 34.4866 25.0677 35.4872 24.8558 37.446Z" fill="#1D398C"/>
<path d="M34.7305 37.9782C34.7305 34.4865 36.8283 32.1657 39.9432 32.1657C41.49 32.1657 42.6555 32.8045 43.2064 33.8903H43.3336L43.2488 32.4638V27.865H46.2154V41.0015C46.2154 41.4273 46.3637 41.5763 46.7875 41.5763H47.2961V43.4925C47.2961 43.4925 46.7239 43.8119 45.6009 43.8119C44.1812 43.8119 43.4819 43.2157 43.4819 42.0234V41.9808H43.3548C42.6343 43.2157 41.3841 43.9396 39.8372 43.9396C36.7647 43.9396 34.7305 41.6615 34.7305 37.9782ZM43.3759 37.9782C43.3759 36.0194 42.2741 34.6781 40.6001 34.6781C38.7989 34.6781 37.7606 35.8491 37.7606 37.9782C37.7606 40.1498 38.7777 41.406 40.5577 41.406C42.2741 41.4273 43.3759 40.0647 43.3759 37.9782Z" fill="#1D398C"/>
<path d="M56.9799 40.1074H59.9041V40.5332C59.3743 42.5984 57.3189 43.9184 54.6702 43.9184C51.1951 43.9184 48.9277 41.6829 48.9277 38.2763C48.9277 34.444 51.1527 32.2297 54.988 32.2297C57.997 32.2297 60.01 33.6562 60.01 35.7853C60.01 38.3402 58.3784 39.2131 52.0427 39.5751C52.3605 40.9377 53.2293 41.619 54.6702 41.619C55.9204 41.619 56.7468 41.0654 56.9799 40.1074ZM51.9579 37.446C55.984 37.297 57.0435 36.8924 57.0223 35.764C57.0011 34.955 56.2594 34.4866 54.988 34.4866C53.1869 34.4866 52.1698 35.4872 51.9579 37.446Z" fill="#1D398C"/>
<path d="M74.2495 41.5976V43.5138C74.2495 43.5138 73.6774 43.8332 72.5543 43.8332C70.9862 43.8332 70.2022 43.0454 70.2022 41.4699V34.9975H66.5999V43.6203H63.6333V34.9975H61.3872V32.4426H63.6333V31.9742C63.6333 28.9509 65.2014 27.4392 68.3587 27.4392C70.0115 27.4392 70.9227 27.7799 70.9227 27.7799V30.3773H70.5412C70.5412 30.3773 69.8632 30.0367 68.6553 30.0367C67.1509 30.0367 66.5999 30.5903 66.5999 32.1445V32.4426H73.1688V41.0015C73.1688 41.4273 73.3171 41.5763 73.7409 41.5763C73.7409 41.5763 74.2495 41.5763 74.2495 41.5976Z" fill="#1D398C"/>
<defs>
<linearGradient id="paint0_linear" x1="25.0106" y1="10.4858" x2="50.3258" y2="10.4858" gradientUnits="userSpaceOnUse">
<stop offset="0.0343869" stop-color="#1D398C"/>
<stop offset="0.2093" stop-color="#1E3D8F"/>
<stop offset="0.3812" stop-color="#214997"/>
<stop offset="0.5519" stop-color="#255CA4"/>
<stop offset="0.7219" stop-color="#2C78B7"/>
<stop offset="0.8897" stop-color="#349BCE"/>
<stop offset="1" stop-color="#3BB7E1"/>
</linearGradient>
</defs>
</svg>
