<?xml version="1.0" standalone="no"?>
<!DOCTYPE svg PUBLIC "-//W3C//DTD SVG 20010904//EN"
 "http://www.w3.org/TR/2001/REC-SVG-20010904/DTD/svg10.dtd">
<svg version="1.0" xmlns="http://www.w3.org/2000/svg"
 width="512.000000pt" height="512.000000pt" viewBox="0 0 512.000000 512.000000"
 preserveAspectRatio="xMidYMid meet">

<g transform="translate(0.000000,512.000000) scale(0.100000,-0.100000)"
fill="#000000" stroke="none">
<path d="M2439 5052 c-302 -79 -452 -437 -298 -711 l31 -54 -250 -250 -250
-250 -330 173 -331 173 6 96 c9 159 -34 278 -141 385 -227 225 -617 161 -760
-125 -84 -167 -69 -351 41 -513 86 -126 208 -194 363 -203 147 -9 273 37 385
139 l64 59 293 -155 c161 -85 294 -158 295 -163 2 -4 -156 -167 -350 -361
l-353 -352 -57 31 c-242 131 -543 38 -662 -205 -94 -191 -59 -413 90 -562 154
-155 381 -188 574 -83 l55 29 348 -347 c192 -191 347 -352 345 -357 -1 -4
-135 -78 -296 -163 l-293 -154 -57 54 c-196 187 -489 182 -692 -14 -107 -103
-157 -265 -130 -417 42 -238 235 -402 471 -402 214 0 392 128 460 330 20 57
22 79 17 181 l-5 116 317 166 316 166 256 -255 256 -256 -30 -55 c-16 -30 -35
-77 -43 -106 -27 -103 -12 -254 36 -347 118 -232 415 -324 652 -204 118 60
220 196 249 331 11 55 8 190 -5 223 -5 12 129 84 577 312 l582 296 60 -58
c101 -97 189 -131 335 -131 247 0 437 165 472 411 40 272 -119 520 -369 576
-122 27 -237 6 -356 -66 -58 -35 -70 -39 -85 -28 -48 34 -732 603 -732 608 0
6 684 574 731 608 15 11 26 7 71 -21 156 -99 342 -111 499 -32 78 40 163 126
203 206 124 247 26 539 -220 656 -69 33 -87 37 -179 41 -85 4 -115 1 -173 -17
-80 -24 -162 -74 -212 -131 l-35 -40 -588 303 c-460 236 -586 305 -580 317 3
8 8 50 11 92 14 248 -138 458 -370 513 -81 19 -147 18 -229 -3z m188 -303 c34
-13 80 -55 99 -91 25 -47 18 -128 -15 -179 -60 -95 -174 -113 -269 -42 -49 37
-65 75 -60 149 3 52 9 70 34 100 54 67 136 91 211 63z m-1997 -329 c44 -23 84
-77 95 -128 11 -53 -43 -154 -99 -187 -93 -54 -207 -23 -245 66 -60 138 19
267 162 269 29 0 63 -8 87 -20z m3207 -582 l271 -138 -5 -113 c-5 -103 -3
-119 21 -190 14 -42 26 -79 26 -81 0 -7 -750 -637 -765 -642 -12 -5 -138 93
-351 272 l-52 44 26 62 c23 55 27 77 26 173 0 87 -4 122 -21 167 -79 213 -299
343 -525 309 -91 -14 -198 -65 -268 -128 l-52 -47 -179 89 c-98 49 -179 91
-179 93 0 3 104 111 230 242 l231 238 42 -24 c70 -40 161 -64 246 -64 140 1
237 38 335 130 l61 58 305 -155 c168 -86 427 -218 577 -295z m837 -133 c72
-35 113 -138 87 -218 -36 -108 -154 -156 -258 -106 -79 38 -114 112 -93 199
29 122 150 179 264 125z m-2770 -215 l194 -101 -9 -32 c-5 -17 -9 -68 -9 -113
l0 -80 -556 -183 c-512 -169 -558 -182 -572 -167 -15 15 13 46 363 396 209
209 383 380 387 380 4 0 95 -45 202 -100z m731 -99 c72 -33 105 -86 105 -167
0 -150 -176 -236 -295 -142 -76 60 -87 195 -22 267 30 32 94 61 137 61 19 0
53 -9 75 -19z m-483 -419 c46 -68 130 -142 204 -178 148 -71 315 -62 471 26
29 17 56 30 61 30 13 0 367 -299 367 -310 0 -10 -353 -290 -366 -290 -4 0 -30
16 -59 35 -138 93 -348 102 -504 23 -53 -27 -142 -112 -173 -166 -14 -23 -30
-41 -37 -39 -6 2 -255 85 -553 183 l-543 179 0 95 0 95 548 176 c301 98 550
177 553 178 4 1 18 -16 31 -37z m-1532 -262 c47 -24 75 -62 91 -123 10 -43 9
-51 -16 -102 -34 -70 -88 -105 -162 -105 -160 0 -243 179 -135 294 54 58 149
73 222 36z m3159 -589 c210 -172 381 -316 381 -321 0 -4 -12 -34 -27 -66 -26
-55 -28 -68 -28 -193 l0 -133 -577 -294 -577 -294 -41 44 c-146 158 -403 194
-596 82 l-42 -24 -238 239 c-193 193 -236 241 -224 249 8 6 92 50 187 97 l172
87 58 -56 c150 -142 362 -175 548 -83 110 54 189 141 236 260 19 50 23 79 23
170 1 97 -3 118 -26 173 l-26 63 192 159 c112 94 198 158 207 156 9 -2 188
-144 398 -315z m-2255 8 l551 -181 0 -77 c0 -42 2 -91 5 -109 l5 -34 -209
-101 -209 -102 -367 375 c-342 349 -367 376 -353 393 9 9 18 17 21 17 3 0 253
-82 556 -181z m1112 -78 c61 -28 97 -80 102 -150 6 -89 -32 -153 -111 -186
-52 -22 -96 -19 -155 11 -71 35 -96 82 -90 169 3 50 10 70 32 100 33 43 95 75
146 75 19 0 54 -9 76 -19z m2024 -333 c106 -54 131 -182 54 -268 -67 -74 -151
-86 -241 -34 -53 31 -77 74 -77 139 0 141 138 226 264 163z m-4040 -708 c47
-24 75 -62 91 -123 10 -43 9 -51 -16 -102 -48 -100 -156 -134 -256 -82 -73 38
-108 135 -78 214 37 98 161 143 259 93z m1985 -311 c92 -26 141 -95 132 -187
-14 -131 -150 -201 -268 -139 -138 73 -111 281 41 325 47 14 49 14 95 1z"/>
</g>
</svg>
