<?xml version="1.0" standalone="no"?>
<!DOCTYPE svg PUBLIC "-//W3C//DTD SVG 20010904//EN"
 "http://www.w3.org/TR/2001/REC-SVG-20010904/DTD/svg10.dtd">
<svg version="1.0" xmlns="http://www.w3.org/2000/svg"
 width="512.000000pt" height="512.000000pt" viewBox="0 0 512.000000 512.000000"
 preserveAspectRatio="xMidYMid meet">

<g transform="translate(0.000000,512.000000) scale(0.100000,-0.100000)"
fill="#000000" stroke="none">
<path d="M1430 4789 c-290 -33 -552 -225 -657 -481 -138 -336 -73 -689 172
-933 171 -171 394 -256 638 -242 398 22 719 319 778 719 29 196 -33 442 -155
611 -130 183 -338 300 -581 327 -49 5 -97 9 -105 9 -8 -1 -49 -5 -90 -10z
m290 -174 c131 -40 271 -136 347 -238 161 -218 185 -479 65 -727 -50 -104
-176 -230 -282 -282 -111 -54 -187 -71 -315 -71 -126 0 -203 17 -310 68 -234
113 -376 361 -362 635 15 307 226 555 532 626 76 17 249 11 325 -11z"/>
<path d="M1485 4528 c-21 -19 -29 -35 -32 -74 l-5 -51 -57 -19 c-82 -27 -164
-111 -180 -182 -26 -121 40 -235 165 -288 21 -9 85 -22 141 -29 114 -14 162
-36 177 -78 16 -43 -3 -79 -54 -104 -110 -56 -280 -4 -280 85 0 31 -43 72 -75
72 -16 0 -39 -12 -57 -30 -26 -27 -29 -35 -23 -68 11 -58 39 -116 77 -154 37
-36 115 -78 147 -78 15 0 19 -10 23 -52 9 -85 73 -123 132 -77 22 17 26 28 26
70 0 31 5 51 13 53 109 32 180 85 217 164 44 92 23 187 -57 264 -53 52 -118
77 -226 89 -101 11 -151 30 -179 70 -27 36 -15 74 35 107 34 23 50 27 116 27
105 0 150 -23 172 -90 28 -83 91 -111 139 -60 29 31 29 76 -1 145 -34 80 -105
134 -216 166 -8 2 -13 21 -13 48 0 81 -69 122 -125 74z"/>
<path d="M3319 4340 c-26 -26 -30 -36 -25 -63 10 -55 36 -67 138 -67 l89 0
-93 -107 c-138 -159 -531 -550 -708 -704 -588 -513 -1160 -899 -1829 -1233
-94 -47 -175 -94 -181 -105 -26 -50 11 -121 63 -121 47 0 486 229 791 412 721
433 1461 1047 1981 1642 l60 69 6 -67 c7 -88 30 -112 102 -107 9 0 26 10 37
21 19 19 20 33 20 214 0 260 19 240 -229 244 l-191 3 -31 -31z"/>
<path d="M3660 3387 c-13 -7 -30 -24 -37 -37 -10 -20 -13 -327 -13 -1447 l0
-1423 -80 0 -80 0 0 1108 c-1 854 -3 1111 -13 1123 -28 37 -49 39 -397 39
l-342 0 -29 -29 -29 -29 0 -1106 0 -1106 -80 0 -80 0 0 776 c0 570 -3 781 -12
797 -24 46 -25 46 -396 47 l-353 0 -24 -25 -25 -24 0 -786 0 -785 -80 0 -80 0
0 444 c0 284 -4 455 -10 472 -21 54 -18 53 -398 54 l-353 0 -24 -25 -25 -24 0
-461 0 -460 -134 0 c-127 0 -136 -1 -162 -23 -37 -33 -37 -81 0 -114 l27 -23
2128 0 2128 0 27 21 c37 29 37 89 0 118 -24 19 -40 21 -160 21 l-134 0 0 1433
c-1 1547 3 1455 -54 1477 -42 15 -674 13 -706 -3z m600 -1527 l0 -1380 -245 0
-245 0 0 1373 c0 756 3 1377 7 1380 3 4 114 7 245 7 l238 0 0 -1380z m-970
-325 l0 -1055 -245 0 -245 0 0 1055 0 1055 245 0 245 0 0 -1055z m-970 -325
l0 -730 -245 0 -245 0 0 730 0 730 245 0 245 0 0 -730z m-970 -325 l0 -405
-245 0 -245 0 0 405 0 405 245 0 245 0 0 -405z"/>
</g>
</svg>
