<?xml version="1.0" standalone="no"?>
<!DOCTYPE svg PUBLIC "-//W3C//DTD SVG 20010904//EN"
 "http://www.w3.org/TR/2001/REC-SVG-20010904/DTD/svg10.dtd">
<svg version="1.0" xmlns="http://www.w3.org/2000/svg"
 width="512.000000pt" height="512.000000pt" viewBox="0 0 512.000000 512.000000"
 preserveAspectRatio="xMidYMid meet">

<g transform="translate(0.000000,512.000000) scale(0.100000,-0.100000)"
fill="#000000" stroke="none">
<path d="M2515 4901 c-16 -4 -520 -253 -1120 -553 -1125 -564 -1138 -571
-1165 -643 -29 -77 -5 -179 55 -235 14 -14 185 -104 378 -201 l351 -177 -361
-181 c-396 -198 -404 -204 -429 -302 -10 -40 -10 -58 0 -98 25 -98 33 -104
429 -302 l361 -181 -351 -177 c-193 -97 -364 -187 -378 -201 -60 -56 -84 -158
-55 -235 27 -72 39 -79 1175 -647 1054 -528 1102 -551 1155 -551 53 0 101 23
1155 551 1136 568 1148 575 1175 647 29 77 5 179 -55 235 -14 14 -185 104
-378 201 l-351 177 361 181 c396 198 404 204 429 302 10 40 10 58 0 98 -25 98
-33 104 -429 302 l-361 181 354 178 c295 148 361 185 392 219 67 77 71 175 10
264 -24 36 -112 82 -1131 592 -694 347 -1121 555 -1146 558 -22 3 -53 2 -70
-2z m877 -862 l823 -412 -828 -413 -827 -414 -827 414 -828 413 820 411 c451
226 826 411 833 411 6 1 382 -184 834 -410z m-1392 -1439 c475 -237 504 -250
558 -250 55 -1 77 9 565 252 l507 253 290 -145 c160 -80 290 -147 290 -150 0
-3 -370 -190 -822 -416 l-823 -411 -822 410 c-453 226 -823 413 -823 417 0 7
558 289 572 290 4 0 233 -112 508 -250z m560 -1314 c65 0 65 0 565 251 l500
251 295 -148 295 -148 -828 -413 -827 -414 -827 414 -828 413 295 148 295 148
500 -251 c500 -251 500 -251 565 -251z"/>
</g>
</svg>
