<?xml version="1.0" standalone="no"?>
<!DOCTYPE svg PUBLIC "-//W3C//DTD SVG 20010904//EN"
 "http://www.w3.org/TR/2001/REC-SVG-20010904/DTD/svg10.dtd">
<svg version="1.0" xmlns="http://www.w3.org/2000/svg"
 width="512.000000pt" height="512.000000pt" viewBox="0 0 512.000000 512.000000"
 preserveAspectRatio="xMidYMid meet">

<g transform="translate(0.000000,512.000000) scale(0.100000,-0.100000)"
fill="#000000" stroke="none">
<path d="M2861 4470 c-324 -32 -604 -111 -806 -228 -104 -61 -222 -177 -261
-257 l-29 -60 -3 -257 -3 -258 25 -25 c33 -33 79 -33 111 0 21 20 25 34 25 85
l0 61 64 -46 c166 -118 424 -209 731 -257 188 -29 596 -32 780 -5 335 50 582
135 763 263 l62 45 0 -386 c0 -330 -2 -392 -16 -420 -77 -163 -376 -311 -768
-381 -77 -13 -151 -27 -164 -30 -13 -3 -29 -19 -39 -39 -16 -33 -16 -37 0 -70
22 -46 45 -50 174 -30 306 48 588 148 758 269 l50 36 3 -367 c2 -234 -1 -381
-7 -404 -43 -146 -296 -297 -621 -369 -52 -12 -157 -30 -233 -40 -158 -21
-177 -31 -177 -91 0 -53 30 -79 88 -79 24 0 92 7 151 16 473 69 814 240 923
462 l33 67 0 1125 0 1125 -29 59 c-109 223 -448 396 -913 466 -159 24 -518 34
-672 20z m654 -179 c322 -49 580 -150 712 -278 122 -118 122 -229 -1 -346
-293 -282 -1114 -391 -1735 -231 -339 88 -571 252 -571 404 0 214 415 417 959
470 141 14 489 3 636 -19z"/>
<path d="M1637 3185 c-576 -94 -1019 -521 -1134 -1093 -24 -120 -24 -384 0
-504 84 -418 354 -775 730 -965 108 -54 289 -110 417 -129 133 -19 314 -15
448 11 542 105 969 534 1079 1085 24 118 24 383 0 502 -110 549 -536 977
-1080 1083 -116 23 -350 28 -460 10z m463 -174 c414 -94 750 -399 879 -798 44
-138 56 -215 56 -373 0 -158 -12 -235 -56 -373 -131 -404 -476 -712 -899 -803
-106 -23 -352 -26 -455 -5 -486 96 -857 459 -961 941 -14 62 -18 127 -18 240
0 113 4 178 18 240 76 353 299 650 610 816 135 71 261 112 431 138 68 10 312
-4 395 -23z"/>
<path d="M1481 2465 c-184 -106 -341 -201 -348 -211 -10 -14 -13 -104 -13
-415 0 -364 1 -398 18 -417 26 -30 676 -402 702 -402 27 0 677 372 703 402 16
19 17 54 17 418 0 364 -1 399 -17 418 -27 31 -678 402 -704 402 -13 -1 -175
-88 -358 -195z m600 -116 c134 -77 245 -142 247 -144 2 -1 -107 -66 -242 -144
l-245 -141 -246 142 -246 141 98 57 c95 56 387 227 389 229 1 1 111 -62 245
-140z m-556 -433 l230 -134 3 -270 2 -271 -239 137 -240 137 -1 268 c0 147 3
267 8 267 4 0 111 -60 237 -134z m875 -133 l-1 -268 -192 -110 c-105 -60 -213
-123 -239 -138 l-48 -28 2 272 3 271 230 134 c127 73 233 133 238 134 4 0 7
-120 7 -267z"/>
</g>
</svg>
