<?xml version="1.0" encoding="iso-8859-1"?>
<!-- Generator: Adobe Illustrator 19.0.0, SVG Export Plug-In . SVG Version: 6.00 Build 0)  -->
<svg version="1.1" id="Capa_1" xmlns="http://www.w3.org/2000/svg" xmlns:xlink="http://www.w3.org/1999/xlink" x="0px" y="0px"
	 viewBox="0 0 512 512" style="enable-background:new 0 0 512 512;" xml:space="preserve">
<path style="fill:#FEDB41;" d="M205.035,299.104H20V196.999c0-24.472,19.909-44.381,44.381-44.381h96.273
	c24.472,0,44.381,19.909,44.381,44.381L205.035,299.104L205.035,299.104z"/>
<path style="fill:#FCBF29;" d="M205.035,299.104h-92.518V152.618h48.136c24.472,0,44.381,19.909,44.381,44.381L205.035,299.104
	L205.035,299.104z"/>
<path style="fill:#FEDB41;" d="M112.518,129.823c-29.058,0-52.699-23.641-52.699-52.699s23.641-52.699,52.699-52.699
	s52.699,23.641,52.699,52.699C165.216,106.182,141.576,129.823,112.518,129.823z"/>
<path style="fill:#FCBF29;" d="M112.518,129.823V24.425c29.058,0,52.699,23.641,52.699,52.699
	C165.216,106.182,141.576,129.823,112.518,129.823z"/>
<path style="fill:#FE7858;" d="M491.407,299.104H306.372V196.999c0-24.472,19.909-44.381,44.381-44.381h96.273
	c24.472,0,44.381,19.909,44.381,44.381L491.407,299.104L491.407,299.104z"/>
<path style="fill:#FD4E26;" d="M491.407,299.104H398.89V152.618h48.136c24.472,0,44.381,19.909,44.381,44.381V299.104z"/>
<path style="fill:#FE7858;" d="M398.89,129.823c-29.058,0-52.699-23.641-52.699-52.699s23.641-52.699,52.699-52.699
	s52.699,23.641,52.699,52.699C451.589,106.182,427.948,129.823,398.89,129.823z"/>
<path style="fill:#FD4E26;" d="M398.89,129.823V24.425c29.058,0,52.699,23.641,52.699,52.699
	C451.589,106.182,427.948,129.823,398.89,129.823z"/>
<path style="fill:#81C8EE;" d="M356.744,299.104H155.256V187.92c0-26.648,21.68-48.328,48.328-48.328h104.833
	c26.648,0,48.328,21.68,48.328,48.328v111.184H356.744z"/>
<path style="fill:#159CE4;" d="M356.744,299.104H256V139.592h52.417c26.648,0,48.328,21.68,48.328,48.328v111.184H356.744z"/>
<path style="fill:#81C8EE;" d="M256,114.77c-31.642,0-57.385-25.743-57.385-57.385S224.358,0,256,0s57.385,25.743,57.385,57.385
	S287.642,114.77,256,114.77z"/>
<path style="fill:#159CE4;" d="M256,114.77V0c31.642,0,57.385,25.743,57.385,57.385S287.642,114.77,256,114.77z"/>
<path style="fill:#C8C6CD;" d="M20,276v33.943l67.947,7.195c4.238,17.374,11.1,33.719,20.143,48.592l-42.968,53.146l48.003,48.003
	l53.146-42.968c14.874,9.042,31.219,15.905,48.592,20.143L222.057,512h67.886l7.195-67.947c17.374-4.238,33.719-11.1,48.592-20.143
	l53.146,42.968l48.003-48.003L403.91,365.73c9.042-14.874,15.905-31.219,20.143-48.592L492,309.943V276H20z"/>
<path style="fill:#AEADB3;" d="M256,276v236h33.943l7.195-67.947c17.374-4.238,33.719-11.1,48.592-20.143l53.146,42.968
	l48.003-48.003L403.91,365.73c9.042-14.874,15.905-31.219,20.143-48.592L492,309.943V276H256z"/>
<path style="fill:#8B8892;" d="M155.256,276c0,55.64,45.105,100.744,100.744,100.744S356.744,331.64,356.744,276H155.256z"/>
<path style="fill:#787780;" d="M256,276v100.744c55.64,0,100.744-45.105,100.744-100.744H256z"/>
<g>
</g>
<g>
</g>
<g>
</g>
<g>
</g>
<g>
</g>
<g>
</g>
<g>
</g>
<g>
</g>
<g>
</g>
<g>
</g>
<g>
</g>
<g>
</g>
<g>
</g>
<g>
</g>
<g>
</g>
</svg>
