<svg width="10" height="10" viewBox="0 0 10 10" fill="none" xmlns="http://www.w3.org/2000/svg">
<path d="M6.52373 0.0285714C6.41282 -0.0285715 6.3019 0.0285714 6.27463 0.144286C6.2469 0.173333 6.2469 0.202381 6.2469 0.26V0.664762L6.25144 0.714286C6.27517 0.812252 6.33265 0.897564 6.41282 0.953809C8.57386 1.76333 9.68211 4.27762 8.87842 6.50286C8.46294 7.71714 7.5488 8.64143 6.41282 9.07524C6.3019 9.13286 6.2469 9.21952 6.2469 9.36429V9.76905L6.24917 9.81095C6.25349 9.85668 6.27173 9.89974 6.3012 9.93378C6.33066 9.96782 6.36979 9.99103 6.41282 10C6.44055 10 6.496 10 6.52373 9.97143C7.14721 9.76746 7.72602 9.43632 8.22683 8.99706C8.72764 8.5578 9.14055 8.0191 9.4418 7.41199C9.74305 6.80487 9.92669 6.14133 9.98213 5.45956C10.0376 4.77779 9.96372 4.09127 9.76484 3.43952C9.26663 1.7919 8.04746 0.548571 6.52373 0.0285714ZM3.58718 0C3.55946 0 3.504 -2.66092e-08 3.47627 0.0285714C2.85279 0.232535 2.27398 0.56368 1.77317 1.00294C1.27236 1.4422 0.859446 1.9809 0.558196 2.58801C0.256947 3.19513 0.0733144 3.85867 0.0178731 4.54044C-0.0375681 5.22221 0.0362767 5.90873 0.235156 6.56048C0.733369 8.17952 1.92481 9.42238 3.47627 9.94238C3.58718 10 3.6981 9.94238 3.72537 9.82667C3.7531 9.79809 3.7531 9.76857 3.7531 9.71095V9.30619L3.74856 9.2681C3.72947 9.18762 3.6581 9.09571 3.58718 9.04619C1.42614 8.23667 0.317888 5.72238 1.12157 3.49714C1.53706 2.28286 2.4512 1.35857 3.58718 0.924762C3.6981 0.867143 3.7531 0.780476 3.7531 0.635714V0.230952L3.75083 0.189048C3.74651 0.143321 3.72827 0.100261 3.6988 0.0662216C3.66934 0.0321822 3.63021 0.00896639 3.58718 0ZM5.1941 1.50286H4.77817L4.73817 1.50667C4.64725 1.52571 4.58088 1.60762 4.55634 1.73429V2.39905L4.46224 2.41429C3.68583 2.55905 3.19943 3.12048 3.19943 3.81524C3.19943 4.76857 3.7531 5.14429 4.91681 5.28905C5.69277 5.43333 5.94188 5.60714 5.94188 6.06952C5.94188 6.53143 5.55413 6.84952 5.02773 6.84952C4.30723 6.84952 4.05812 6.5319 3.97494 6.09809C3.94766 5.98286 3.86402 5.92476 3.78083 5.92476H3.30989L3.27398 5.92809C3.22916 5.93568 3.18848 5.96003 3.15947 5.99663C3.13047 6.03322 3.11511 6.07959 3.11625 6.12714V6.15571L3.13125 6.24143C3.26307 6.91952 3.70674 7.40476 4.58452 7.54333V8.23714L4.58816 8.27905C4.60634 8.37333 4.68498 8.44286 4.80635 8.4681H5.22183L5.26183 8.46429C5.35275 8.44524 5.41912 8.36333 5.44366 8.23714V7.54286L5.53776 7.52381C6.31645 7.35143 6.82875 6.76143 6.82875 6.01095C6.82875 4.99952 6.2469 4.65286 5.08319 4.5081C4.25177 4.39238 4.08585 4.16143 4.08585 3.75667C4.08585 3.3519 4.36314 3.0919 4.91681 3.0919C5.41548 3.0919 5.69277 3.26524 5.83096 3.69905C5.84536 3.741 5.87169 3.77731 5.90639 3.80311C5.94109 3.82891 5.98251 3.84295 6.02506 3.84333H6.46827L6.50419 3.84048C6.54917 3.83298 6.59002 3.80861 6.61913 3.7719C6.64823 3.73519 6.6636 3.68865 6.66238 3.64095V3.61238L6.64556 3.53C6.57731 3.23401 6.42169 2.9681 6.20085 2.77009C5.98001 2.57209 5.70519 2.45209 5.41548 2.42714V1.73429L5.41184 1.69238C5.39366 1.59762 5.31547 1.5281 5.1941 1.50286Z" fill="#1F3C87"/>
</svg>
