<svg width="22" height="22" viewBox="0 0 22 22" fill="none" xmlns="http://www.w3.org/2000/svg">
<path d="M21.6684 13.661C20.1993 19.5539 14.2307 23.1402 8.33711 21.6707C2.44597 20.2015 -1.14034 14.2326 0.329434 8.34017C1.79792 2.44661 7.76649 -1.13997 13.6583 0.329158C19.5515 1.79829 23.1376 7.76788 21.6683 13.6611L21.6684 13.661H21.6684Z" fill="#F3BA2F"/>
<path fill-rule="evenodd" clip-rule="evenodd" d="M10.9978 6.98068L8.1494 9.82907L8.14946 9.82895L6.49219 8.17162L10.9978 3.66602L15.5049 8.17297L13.8475 9.8303L10.9978 6.98068ZM5.32145 9.34082L3.66406 10.9984L5.32134 12.6555L6.97873 10.9981L5.32145 9.34082ZM8.15175 12.1693L11.0001 15.0175L13.8498 12.168L15.508 13.8244L15.5072 13.8253L11.0001 18.3322L6.49453 13.8266L6.49219 13.8242L8.15175 12.1693ZM16.673 9.34277L15.0156 11.0002L16.673 12.6574L18.3303 11L16.673 9.34277Z" fill="white"/>
<path d="M12.6799 10.9991H12.6806L10.999 9.31738L9.75605 10.56L9.61326 10.7029L9.31875 10.9974L9.31641 10.9997L9.31875 11.0021L10.999 12.6826L12.6808 11.0009L12.6816 10.9999L12.6801 10.9991" fill="white"/>
</svg>
