<svg width="50" height="50" viewBox="0 0 50 50" fill="none" xmlns="http://www.w3.org/2000/svg">
<circle cx="25" cy="25" r="25" fill="white"/>
<path d="M35.6709 27.661C34.2017 33.5539 28.2332 37.1402 22.3396 35.6707C16.4484 34.2015 12.8621 28.2326 14.3319 22.3402C15.8004 16.4466 21.7689 12.86 27.6607 14.3292C33.5539 15.7983 37.14 21.7679 35.6707 27.6611L35.6708 27.661L35.6709 27.661Z" fill="#F7931A"/>
<path fill-rule="evenodd" clip-rule="evenodd" d="M29.8517 23.4326C30.0706 21.9687 28.9561 21.1818 27.4322 20.6569L27.9265 18.674L26.7195 18.3732L26.2382 20.3039C25.9209 20.2248 25.595 20.1502 25.2711 20.0763L25.7559 18.1328L24.5495 17.832L24.0549 19.8143C23.7923 19.7545 23.5344 19.6954 23.2841 19.6332L23.2855 19.6269L21.621 19.2113L21.2999 20.5005C21.2999 20.5005 22.1954 20.7058 22.1765 20.7184C22.6653 20.8404 22.7537 21.164 22.739 21.4204L22.1759 23.6795C22.2095 23.688 22.2532 23.7004 22.3014 23.7197L22.2663 23.711L22.2662 23.711C22.2365 23.7035 22.2056 23.6958 22.1738 23.6882L21.3844 26.8527C21.3247 27.0012 21.1731 27.2241 20.8313 27.1395C20.8434 27.157 19.954 26.9205 19.954 26.9205L19.3547 28.3022L20.9255 28.6938C21.0976 28.737 21.2675 28.7813 21.4358 28.8251L21.4358 28.8251C21.5534 28.8558 21.6701 28.8862 21.7861 28.9159L21.2866 30.9216L22.4923 31.2223L22.987 29.2379C23.3163 29.3274 23.636 29.4098 23.9489 29.4876L23.4559 31.4626L24.663 31.7634L25.1625 29.7615C27.2208 30.151 28.7685 29.994 29.4199 28.1322C29.9448 26.6333 29.3938 25.7687 28.3109 25.2049C29.0996 25.023 29.6937 24.5043 29.8521 23.4327L29.8517 23.4325L29.8517 23.4326ZM27.0939 27.2997C26.7516 28.6749 24.599 28.1064 23.6142 27.8462C23.5256 27.8228 23.4464 27.8019 23.3789 27.7852L24.0417 25.128C24.124 25.1485 24.2246 25.1711 24.3385 25.1967C25.3573 25.4253 27.4445 25.8937 27.0939 27.2997L27.0939 27.2997ZM24.5429 23.964C25.364 24.1831 27.1552 24.6611 27.4671 23.4113L27.4672 23.4113C27.7858 22.1329 26.045 21.7475 25.1948 21.5593C25.0992 21.5381 25.0148 21.5194 24.9459 21.5023L24.3449 23.9121C24.4017 23.9263 24.4683 23.9441 24.5429 23.964Z" fill="white"/>
</svg>
