<svg width="22" height="22" viewBox="0 0 22 22" fill="none" xmlns="http://www.w3.org/2000/svg">
<circle cx="11" cy="11" r="11" fill="#F6F5F8"/>
<path d="M7.68524 10.9445C7.65395 11.4881 8.07242 11.9535 8.61604 11.9848C8.6356 11.9848 8.65515 11.9848 8.67471 11.9848C9.22224 11.9848 9.66417 11.5429 9.66026 10.9953C9.66026 10.4478 9.21833 10.0059 8.6708 10.0098C8.14673 10.0098 7.71262 10.4204 7.68524 10.9445Z" fill="#0033AD"/>
<path d="M4.00073 10.6902C3.82474 10.6784 3.67221 10.8153 3.66439 10.9913C3.65657 11.1673 3.78954 11.3198 3.96553 11.3276C4.14152 11.3394 4.29014 11.2025 4.30187 11.0265C4.31361 10.8505 4.17672 10.7019 4.00073 10.6902Z" fill="#0033AD"/>
<path d="M7.62013 5.21112C7.77656 5.1329 7.83914 4.93735 7.76092 4.78091C7.6827 4.62448 7.48716 4.5619 7.33072 4.64012C7.17428 4.71834 7.11171 4.90997 7.18992 5.06641C7.26814 5.22676 7.45978 5.29325 7.62013 5.21112C7.62013 5.21112 7.61622 5.21112 7.62013 5.21112Z" fill="#0033AD"/>
<path d="M8.62314 6.95934C8.86562 6.8381 8.96339 6.54087 8.84215 6.29839C8.72091 6.05591 8.42368 5.95814 8.1812 6.07938C7.93872 6.20062 7.84095 6.49785 7.96219 6.74033C8.08343 6.9828 8.38066 7.08058 8.62314 6.95934Z" fill="#0033AD"/>
<path d="M5.25115 8.15928C5.43888 8.28052 5.68918 8.22968 5.81433 8.04195C5.93557 7.85423 5.88472 7.60393 5.697 7.47878C5.50927 7.35754 5.25897 7.40838 5.13382 7.59611C5.00867 7.78383 5.06343 8.03804 5.25115 8.15928Z" fill="#0033AD"/>
<path d="M5.84911 10.5135C5.57534 10.4979 5.3446 10.7052 5.32896 10.9789C5.31331 11.2527 5.52059 11.4834 5.79436 11.4991C6.06812 11.5147 6.29887 11.3074 6.31451 11.0337C6.33015 10.7638 6.12288 10.5292 5.84911 10.5135Z" fill="#0033AD"/>
<path d="M5.30565 13.8269C5.10619 13.9286 5.02406 14.1711 5.12574 14.3744C5.22743 14.5739 5.46991 14.656 5.67327 14.5543C5.87273 14.4527 5.95486 14.2102 5.85318 14.0068C5.75149 13.8074 5.5051 13.7252 5.30565 13.8269Z" fill="#0033AD"/>
<path d="M7.22444 9.49298C7.4943 9.66897 7.8541 9.59467 8.02619 9.32481C8.20218 9.05496 8.12787 8.69515 7.85802 8.52307C7.58816 8.34708 7.22835 8.42139 7.05627 8.69124C6.88028 8.95718 6.95459 9.31699 7.22444 9.49298Z" fill="#0033AD"/>
<path d="M13.3062 6.91949C13.533 7.06811 13.842 7.00553 13.9906 6.7787C14.1392 6.55186 14.0766 6.2429 13.8498 6.09428C13.623 5.94567 13.314 6.00824 13.1654 6.23508C13.0128 6.46582 13.0754 6.77087 13.3062 6.91949Z" fill="#0033AD"/>
<path d="M14.3155 5.17931C14.4641 5.27708 14.6597 5.23406 14.7575 5.08545C14.8552 4.93683 14.8122 4.74129 14.6636 4.64351C14.515 4.54574 14.3194 4.58876 14.2217 4.73346C14.1278 4.88208 14.1708 5.08154 14.3155 5.17931Z" fill="#0033AD"/>
<path d="M13.3779 10.0016C12.8343 9.97036 12.365 10.3888 12.3376 10.9324C12.3063 11.4761 12.7248 11.9454 13.2684 11.9728C13.2879 11.9728 13.3075 11.9728 13.3231 11.9728C13.8668 11.9728 14.3087 11.5308 14.3087 10.9833C14.3126 10.4631 13.902 10.029 13.3779 10.0016Z" fill="#0033AD"/>
<path d="M8.95024 9.42254C9.11842 9.75497 9.45867 9.96616 9.83412 9.96616C10.3777 9.96616 10.8197 9.52423 10.8197 8.97669C10.8197 8.82417 10.7845 8.67164 10.7141 8.53085C10.4677 8.04198 9.87323 7.84643 9.38827 8.09282C8.8994 8.34312 8.70386 8.93759 8.95024 9.42254Z" fill="#0033AD"/>
<path d="M16.6872 8.15966C16.8866 8.05797 16.9649 7.81158 16.8632 7.61212C16.7615 7.41267 16.5151 7.33445 16.3156 7.43613C16.1162 7.53782 16.038 7.78029 16.1357 7.97975C16.2413 8.17921 16.4838 8.26134 16.6872 8.15966Z" fill="#0033AD"/>
<path d="M14.1835 8.47247C13.898 8.61717 13.7806 8.96524 13.9254 9.25074C14.0701 9.53624 14.4181 9.65357 14.7036 9.50886C14.9891 9.36416 15.1065 9.01609 14.9618 8.73059C14.817 8.44509 14.469 8.33167 14.1835 8.47247Z" fill="#0033AD"/>
<path d="M10.9579 5.03085C11.1809 5.04258 11.3725 4.8705 11.3881 4.64758C11.4038 4.42465 11.2278 4.23302 11.0049 4.21738C10.7819 4.20564 10.5903 4.37381 10.5747 4.59674C10.5629 4.82357 10.735 5.01521 10.9579 5.03085Z" fill="#0033AD"/>
<path d="M10.9545 7.58451C11.2752 7.60406 11.549 7.35767 11.5646 7.03698C11.5842 6.71628 11.3378 6.44251 11.0171 6.42687C10.6964 6.40731 10.4226 6.6537 10.407 6.9744C10.3913 7.2951 10.6338 7.56886 10.9545 7.58451Z" fill="#0033AD"/>
<path d="M7.8091 13.5135C8.0946 13.3688 8.21193 13.0207 8.06722 12.7352C7.92252 12.4497 7.57444 12.3324 7.28894 12.4771C7.00345 12.6218 6.88612 12.9699 7.03082 13.2554C7.17553 13.5409 7.5236 13.6582 7.8091 13.5135Z" fill="#0033AD"/>
<path d="M11.329 8.43315C11.0318 8.89073 11.1569 9.50084 11.6145 9.79807C12.0721 10.0953 12.6822 9.97015 12.9794 9.51257C13.2766 9.05499 13.1515 8.44488 12.6939 8.14765C12.5336 8.04206 12.3458 7.9873 12.1542 7.9873C11.8218 7.9873 11.5128 8.15547 11.329 8.43315Z" fill="#0033AD"/>
<path d="M13.0461 12.5631C12.7997 12.0742 12.2053 11.8787 11.7203 12.125C11.2314 12.3714 11.0359 12.9659 11.2823 13.4509C11.5287 13.9397 12.1231 14.1353 12.6081 13.8889C13.093 13.6464 13.2925 13.0598 13.05 12.5709C13.05 12.567 13.05 12.567 13.0461 12.5631Z" fill="#0033AD"/>
<path d="M14.7721 12.4928C14.5022 12.3168 14.1424 12.3911 13.9703 12.661C13.7943 12.9308 13.8687 13.2906 14.1385 13.4627C14.4084 13.6387 14.7682 13.5644 14.9402 13.2945C15.1162 13.0286 15.0419 12.6688 14.7721 12.4928Z" fill="#0033AD"/>
<path d="M16.6661 11.0102C16.6817 10.7365 16.4744 10.5057 16.2007 10.4901C15.9269 10.4744 15.6962 10.6817 15.6805 10.9555C15.6649 11.2293 15.8722 11.46 16.1459 11.4756C16.4158 11.4913 16.6504 11.2801 16.6661 11.0102Z" fill="#0033AD"/>
<path d="M18.0281 10.6589C17.8521 10.6472 17.6996 10.7841 17.6917 10.96C17.6839 11.136 17.8169 11.2886 17.9929 11.2964C18.1689 11.3081 18.3175 11.1712 18.3292 10.9952C18.337 10.8193 18.2041 10.6706 18.0281 10.6589Z" fill="#0033AD"/>
<path d="M16.7421 13.8264C16.5544 13.7052 16.3041 13.756 16.179 13.9438C16.0577 14.1315 16.1086 14.3818 16.2963 14.5069C16.484 14.6282 16.7343 14.5773 16.8595 14.3896C16.9846 14.2019 16.9299 13.9477 16.7421 13.8264Z" fill="#0033AD"/>
<path d="M7.67822 16.8066C7.52961 16.7088 7.33406 16.7518 7.23629 16.8965C7.13851 17.0452 7.18153 17.2407 7.32624 17.3385C7.47485 17.4363 7.6704 17.3932 7.76817 17.2485C7.86986 17.1038 7.82684 16.9044 7.67822 16.8066Z" fill="#0033AD"/>
<path d="M14.3737 16.7755C14.2172 16.8537 14.1547 17.0493 14.2329 17.2057C14.3111 17.3622 14.5067 17.4247 14.6631 17.3465C14.8195 17.2683 14.8821 17.0767 14.8039 16.9202C14.7257 16.7599 14.534 16.6934 14.3737 16.7755C14.3776 16.7755 14.3737 16.7755 14.3737 16.7755Z" fill="#0033AD"/>
<path d="M10.6647 13.5533C10.962 13.0957 10.8368 12.4856 10.3792 12.1845C9.92166 11.8872 9.31155 12.0124 9.01041 12.47C8.70927 12.9275 8.83833 13.5376 9.29591 13.8388C9.45626 13.9444 9.64398 13.9991 9.83562 13.9991C10.172 14.0031 10.4809 13.8349 10.6647 13.5533Z" fill="#0033AD"/>
<path d="M8.69081 15.066C8.46397 14.9173 8.15501 14.9799 8.00639 15.2068C7.85778 15.4336 7.92035 15.7426 8.14719 15.8912C8.37402 16.0398 8.68298 15.9772 8.8316 15.7504C8.98413 15.5235 8.92155 15.2146 8.69081 15.066Z" fill="#0033AD"/>
<path d="M10.9937 16.9556C10.7707 16.9439 10.5791 17.116 10.5635 17.3389C10.5478 17.5618 10.7238 17.7535 10.9467 17.7691C11.1697 17.7809 11.3613 17.6127 11.3769 17.3898C11.3887 17.1629 11.2166 16.9713 10.9937 16.9556Z" fill="#0033AD"/>
<path d="M10.9977 14.4015C10.677 14.3819 10.4032 14.6283 10.3876 14.949C10.368 15.2697 10.6144 15.5435 10.9351 15.5591C11.2558 15.5748 11.5296 15.3323 11.5452 15.0116C11.5648 14.6948 11.3184 14.4171 10.9977 14.4015Z" fill="#0033AD"/>
<path d="M13.3711 15.0274C13.1286 15.1525 13.0309 15.4498 13.156 15.6922C13.2812 15.9347 13.5784 16.0325 13.8209 15.9073C14.0633 15.7861 14.1611 15.4889 14.0399 15.2464C13.9147 15.0039 13.6175 14.9022 13.3711 15.0274Z" fill="#0033AD"/>
</svg>
