<svg width="56" height="56" viewBox="0 0 56 56" fill="none" xmlns="http://www.w3.org/2000/svg">
<rect width="56" height="56" rx="28" fill="#F3F4FA"/>
<path d="M24.416 28.9604L29.2164 33.8964C29.7811 34.4772 29.7811 35.4152 29.2164 35.9959L26.6967 38.5645C26.132 39.1452 25.2197 39.1452 24.655 38.5645L15.4236 29.0274C14.8588 28.4467 14.8588 27.5086 15.4236 26.9279L24.6767 17.4355C25.2414 16.8548 26.1537 16.8548 26.7185 17.4355L29.2164 20.0041C29.7811 20.5848 29.7811 21.5228 29.2164 22.1036L24.416 27.0619C23.9165 27.5756 23.9165 28.4244 24.416 28.9604ZM34.538 25.1858C35.1028 24.6051 35.1028 23.667 34.538 23.0863L33.5823 22.1036C33.0175 21.5228 32.1053 21.5228 31.5405 22.1036L26.8488 26.9503C26.284 27.531 26.284 28.469 26.8488 29.0497L31.5405 33.8741C32.1053 34.4548 33.0175 34.4548 33.5823 33.8741L34.538 32.8914C35.1028 32.3107 35.1028 31.3726 34.538 30.7919L32.4311 28.6254C32.0835 28.268 32.0835 27.7096 32.4311 27.3523L34.538 25.1858ZM36.8404 25.2305L35.1462 26.9726C34.5815 27.5533 34.5815 28.4914 35.1462 29.0721L36.8404 30.8142C37.4052 31.3949 38.3175 31.3949 38.8822 30.8142L40.5764 29.0721C41.1412 28.4914 41.1412 27.5533 40.5764 26.9726L38.8822 25.2305C38.3175 24.6274 37.4052 24.6274 36.8404 25.2305Z" fill="#070707"/>
</svg>
