<svg width="20" height="20" viewBox="0 0 20 20" fill="none" xmlns="http://www.w3.org/2000/svg">
<circle cx="10" cy="10" r="10" fill="#FCFDFD"/>
<path d="M8.82175 10.5667L10.668 12.4514C10.8852 12.6731 10.8852 13.0313 10.668 13.253L9.69894 14.2337C9.48173 14.4554 9.13086 14.4554 8.91365 14.2337L5.3631 10.5923C5.14589 10.3706 5.14589 10.0124 5.3631 9.79066L8.922 6.16629C9.13921 5.94457 9.49009 5.94457 9.7073 6.16629L10.668 7.147C10.8852 7.36873 10.8852 7.7269 10.668 7.94863L8.82175 9.84183C8.6296 10.038 8.6296 10.362 8.82175 10.5667ZM12.7148 9.12548C12.932 8.90376 12.932 8.54558 12.7148 8.32386L12.3472 7.94863C12.13 7.7269 11.7791 7.7269 11.5619 7.94863L9.75742 9.79919C9.54021 10.0209 9.54021 10.3791 9.75742 10.6008L11.5619 12.4428C11.7791 12.6646 12.13 12.6646 12.3472 12.4428L12.7148 12.0676C12.932 11.8459 12.932 11.4877 12.7148 11.266L11.9045 10.4388C11.7708 10.3023 11.7708 10.0891 11.9045 9.95269L12.7148 9.12548ZM13.6004 9.14254L12.9487 9.80772C12.7315 10.0294 12.7315 10.3876 12.9487 10.6093L13.6004 11.2745C13.8176 11.4962 14.1684 11.4962 14.3857 11.2745L15.0373 10.6093C15.2545 10.3876 15.2545 10.0294 15.0373 9.80772L14.3857 9.14254C14.1684 8.91228 13.8176 8.91228 13.6004 9.14254Z" fill="url(#paint0_linear_1_8680)"/>
<defs>
<linearGradient id="paint0_linear_1_8680" x1="4.33923" y1="10.0615" x2="15.5317" y2="10.2367" gradientUnits="userSpaceOnUse">
<stop stop-color="#1B3B8B"/>
<stop offset="1" stop-color="#27ACE1"/>
<stop offset="1" stop-color="#27ACE1"/>
</linearGradient>
</defs>
</svg>
