<svg width="16" height="16" viewBox="0 0 16 16" fill="none" xmlns="http://www.w3.org/2000/svg">
<g clip-path="url(#clip0_1_4096)">
<path d="M7.00004 1.33487C6.55001 1.34097 6.27984 1.36702 6.06139 1.47833C5.8105 1.60616 5.60653 1.81014 5.4787 2.06102C5.36739 2.27947 5.34134 2.54964 5.33524 2.99967M13 1.33487C13.4501 1.34097 13.7202 1.36702 13.9387 1.47833C14.1896 1.60616 14.3936 1.81014 14.5214 2.06102C14.6327 2.27947 14.6587 2.54964 14.6648 2.99967M14.6648 8.99967C14.6587 9.44971 14.6327 9.71987 14.5214 9.93833C14.3936 10.1892 14.1896 10.3932 13.9387 10.521C13.7202 10.6323 13.4501 10.6584 13 10.6645M14.6667 5.333V6.66634M9.33341 1.33301H10.6667M3.46671 14.6663H8.53337C9.28011 14.6663 9.65348 14.6663 9.93869 14.521C10.1896 14.3932 10.3936 14.1892 10.5214 13.9383C10.6667 13.6531 10.6667 13.2797 10.6667 12.533V7.46634C10.6667 6.7196 10.6667 6.34624 10.5214 6.06102C10.3936 5.81014 10.1896 5.60616 9.93869 5.47833C9.65348 5.33301 9.28011 5.33301 8.53337 5.33301H3.46671C2.71997 5.33301 2.3466 5.33301 2.06139 5.47833C1.8105 5.60616 1.60653 5.81014 1.4787 6.06102C1.33337 6.34624 1.33337 6.7196 1.33337 7.46634V12.533C1.33337 13.2797 1.33337 13.6531 1.4787 13.9383C1.60653 14.1892 1.8105 14.3932 2.06139 14.521C2.3466 14.6663 2.71997 14.6663 3.46671 14.6663Z" stroke="#11121C" stroke-width="1.4" stroke-linecap="round" stroke-linejoin="round"/>
</g>
<defs>
<clipPath id="clip0_1_4096">
<rect width="16" height="16" fill="white"/>
</clipPath>
</defs>
</svg>
