<svg width="56" height="56" viewBox="0 0 56 56" fill="none" xmlns="http://www.w3.org/2000/svg">
<rect width="56" height="56" rx="28" fill="#F3F4FA"/>
<path d="M35.207 20.2285L28.9609 24.8676L30.116 22.1306L35.207 20.2285Z" fill="#E2761B" stroke="#E2761B" stroke-linecap="round" stroke-linejoin="round"/>
<path d="M20.788 20.2285L26.9839 24.9115L25.8853 22.1306L20.788 20.2285ZM32.96 30.9818L31.2965 33.5305L34.8558 34.5097L35.8791 31.0383L32.96 30.9818ZM20.1289 31.0383L21.1459 34.5097L24.7052 33.5305L23.0416 30.9818L20.1289 31.0383Z" fill="#E4761B" stroke="#E4761B" stroke-linecap="round" stroke-linejoin="round"/>
<path d="M24.5034 26.6758L23.5116 28.1761L27.0458 28.333L26.9203 24.5352L24.5034 26.6758ZM31.4903 26.6758L29.042 24.4912L28.9604 28.333L32.4884 28.1761L31.4903 26.6758ZM24.7043 33.5308L26.8261 32.495L24.9931 31.0637L24.7043 33.5308ZM29.1676 32.495L31.2957 33.5308L31.0006 31.0637L29.1676 32.495Z" fill="#E4761B" stroke="#E4761B" stroke-linecap="round" stroke-linejoin="round"/>
<path d="M31.2945 33.5299L29.1664 32.4941L29.3359 33.8815L29.3171 34.4653L31.2945 33.5299ZM24.7031 33.5299L26.6805 34.4653L26.668 33.8815L26.8249 32.4941L24.7031 33.5299Z" fill="#D7C1B3" stroke="#D7C1B3" stroke-linecap="round" stroke-linejoin="round"/>
<path d="M26.7117 30.147L24.9414 29.6259L26.1906 29.0547L26.7117 30.147ZM29.2791 30.147L29.8002 29.0547L31.0557 29.6259L29.2791 30.147Z" fill="#233447" stroke="#233447" stroke-linecap="round" stroke-linejoin="round"/>
<path d="M24.7026 33.5305L25.0039 30.9818L23.0391 31.0383L24.7026 33.5305ZM30.9926 30.9818L31.2939 33.5305L32.9575 31.0383L30.9926 30.9818ZM32.4866 28.1758L28.9587 28.3327L29.2851 30.1469L29.8062 29.0546L31.0617 29.6259L32.4866 28.1758ZM24.9411 29.6259L26.1966 29.0546L26.7114 30.1469L27.0441 28.3327L23.5099 28.1758L24.9411 29.6259Z" fill="#CD6116" stroke="#CD6116" stroke-linecap="round" stroke-linejoin="round"/>
<path d="M23.5116 28.1758L24.9931 31.0634L24.9429 29.6259L23.5116 28.1758ZM31.0634 29.6259L31.0006 31.0634L32.4884 28.1758L31.0634 29.6259ZM27.0458 28.3327L26.7131 30.1469L27.1274 32.2875L27.2216 29.4689L27.0458 28.3327ZM28.9604 28.3327L28.7909 29.4627L28.8663 32.2875L29.2869 30.1469L28.9604 28.3327Z" fill="#E4751F" stroke="#E4751F" stroke-linecap="round" stroke-linejoin="round"/>
<path d="M29.2854 30.147L28.8648 32.2876L29.1661 32.4948L30.9992 31.0635L31.0619 29.626L29.2854 30.147ZM24.9414 29.626L24.9916 31.0635L26.8246 32.4948L27.126 32.2876L26.7117 30.147L24.9414 29.626Z" fill="#F6851B" stroke="#F6851B" stroke-linecap="round" stroke-linejoin="round"/>
<path d="M29.3171 34.4656L29.3359 33.8818L29.179 33.7437H26.8124L26.668 33.8818L26.6805 34.4656L24.7031 33.5303L25.3936 34.0952L26.7935 35.0683H29.1978L30.6039 34.0952L31.2945 33.5303L29.3171 34.4656Z" fill="#C0AD9E" stroke="#C0AD9E" stroke-linecap="round" stroke-linejoin="round"/>
<path d="M29.1664 32.4943L28.8651 32.2871H27.1262L26.8249 32.4943L26.668 33.8816L26.8123 33.7435H29.179L29.3359 33.8816L29.1664 32.4943Z" fill="#161616" stroke="#161616" stroke-linecap="round" stroke-linejoin="round"/>
<path d="M35.4702 25.1689L36.0037 22.6077L35.2065 20.2285L29.1676 24.7106L31.4903 26.6755L34.7734 27.6359L35.5015 26.7885L35.1877 26.5625L35.6899 26.1042L35.3007 25.8029L35.8029 25.42L35.4702 25.1689ZM19.9962 22.6077L20.5298 25.1689L20.1908 25.42L20.693 25.8029L20.3101 26.1042L20.8123 26.5625L20.4984 26.7885L21.2203 27.6359L24.5034 26.6755L26.8261 24.7106L20.7872 20.2285L19.9962 22.6077Z" fill="#763D16" stroke="#763D16" stroke-linecap="round" stroke-linejoin="round"/>
<path d="M34.7742 27.6362L31.4911 26.6757L32.4892 28.1761L31.0015 31.0637L32.96 31.0386H35.8791L34.7742 27.6362ZM24.5043 26.6757L21.2212 27.6362L20.1289 31.0386H23.0416L24.9939 31.0637L23.5125 28.1761L24.5043 26.6757ZM28.9613 28.333L29.1685 24.7109L30.1226 22.1309H25.8853L26.827 24.7109L27.0467 28.333L27.122 29.4755L27.1283 32.2878H28.8671L28.8797 29.4755L28.9613 28.333Z" fill="#F6851B" stroke="#F6851B" stroke-linecap="round" stroke-linejoin="round"/>
</svg>
