<svg width="22" height="22" viewBox="0 0 22 22" fill="none" xmlns="http://www.w3.org/2000/svg">
<circle cx="11" cy="11" r="11" fill="black"/>
<path d="M6.82195 13.606C6.89818 13.5298 7.00299 13.4854 7.11416 13.4854H17.1952C17.3794 13.4854 17.4715 13.7077 17.3413 13.8379L15.3499 15.8293C15.2736 15.9056 15.1688 15.95 15.0577 15.95H4.97662C4.7924 15.95 4.7003 15.7277 4.83052 15.5975L6.82195 13.606Z" fill="url(#paint0_linear_1_4159)"/>
<path d="M6.82195 6.1705C6.90136 6.09427 7.00617 6.0498 7.11416 6.0498H17.1952C17.3794 6.0498 17.4715 6.27213 17.3413 6.40236L15.3499 8.39379C15.2736 8.47002 15.1688 8.51448 15.0577 8.51448H4.97662C4.7924 8.51448 4.7003 8.29215 4.83052 8.16193L6.82195 6.1705Z" fill="url(#paint1_linear_1_4159)"/>
<path d="M15.3499 9.86483C15.2736 9.78861 15.1688 9.74414 15.0577 9.74414H4.97662C4.7924 9.74414 4.7003 9.96647 4.83052 10.0967L6.82195 12.0881C6.89818 12.1644 7.00299 12.2088 7.11416 12.2088H17.1952C17.3794 12.2088 17.4715 11.9865 17.3413 11.8563L15.3499 9.86483Z" fill="url(#paint2_linear_1_4159)"/>
<defs>
<linearGradient id="paint0_linear_1_4159" x1="-18.0154" y1="4.1798" x2="-18.2836" y2="17.6767" gradientUnits="userSpaceOnUse">
<stop stop-color="#00FFA3"/>
<stop offset="1" stop-color="#DC1FFF"/>
</linearGradient>
<linearGradient id="paint1_linear_1_4159" x1="-21.066" y1="2.58687" x2="-21.3343" y2="16.0837" gradientUnits="userSpaceOnUse">
<stop stop-color="#00FFA3"/>
<stop offset="1" stop-color="#DC1FFF"/>
</linearGradient>
<linearGradient id="paint2_linear_1_4159" x1="-19.5504" y1="3.37864" x2="-19.8186" y2="16.8755" gradientUnits="userSpaceOnUse">
<stop stop-color="#00FFA3"/>
<stop offset="1" stop-color="#DC1FFF"/>
</linearGradient>
</defs>
</svg>
