<svg width="22" height="22" viewBox="0 0 22 22" fill="none" xmlns="http://www.w3.org/2000/svg">
<path d="M21.6684 13.661C20.1993 19.5539 14.2307 23.1402 8.33711 21.6707C2.44597 20.2015 -1.14034 14.2326 0.329434 8.34017C1.79792 2.44661 7.76649 -1.13997 13.6583 0.329158C19.5515 1.79829 23.1376 7.76788 21.6683 13.6611L21.6684 13.661H21.6684Z" fill="#50AF95"/>
<path fill-rule="evenodd" clip-rule="evenodd" d="M12.3895 12.248C12.3117 12.2539 11.9099 12.2778 11.0135 12.2778C10.3005 12.2778 9.79427 12.2565 9.61667 12.248C6.86132 12.1268 4.80469 11.6472 4.80469 11.0729C4.80469 10.4986 6.86132 10.0196 9.61667 9.89648V11.7703C9.79686 11.7833 10.3128 11.8138 11.0258 11.8138C11.8814 11.8138 12.3098 11.7781 12.3869 11.771V9.89778C15.1365 10.0203 17.1886 10.4999 17.1886 11.0729C17.1886 11.6459 15.1371 12.1255 12.3869 12.2474L12.3895 12.248ZM12.3892 9.70355V8.02674H16.2264V5.46973H5.77924V8.02674H9.61574V9.7029C6.49741 9.84615 4.15234 10.4638 4.15234 11.2041C4.15234 11.9443 6.49741 12.5613 9.61574 12.7052V18.0785H12.3886V12.7033C15.4998 12.56 17.841 11.943 17.841 11.2034C17.841 10.4638 15.5017 9.84679 12.3886 9.7029L12.3892 9.70355Z" fill="white"/>
</svg>
