<svg width="122" height="50" viewBox="0 0 122 50" fill="none" xmlns="http://www.w3.org/2000/svg">
<circle cx="25" cy="25" r="25" fill="#4552EF"/>
<path d="M46.3417 30.3219C43.4035 42.1077 31.4663 49.2804 19.6791 46.3414C7.89683 43.4031 0.724201 31.4652 3.66375 19.6803C6.60072 7.89322 18.5379 0.720056 30.3214 3.65832C42.1078 6.59657 49.28 18.5358 46.3414 30.3221L46.3416 30.3219L46.3417 30.3219Z" fill="#F7931A"/>
<path fill-rule="evenodd" clip-rule="evenodd" d="M34.7035 21.8661C35.1413 18.9384 32.9124 17.3646 29.8644 16.3148L30.8532 12.3489L28.4391 11.7474L27.4765 15.6088C26.8419 15.4505 26.1901 15.3014 25.5423 15.1535L26.5118 11.2666L24.0992 10.665L23.1099 14.6296C22.5847 14.51 22.0689 14.3918 21.5684 14.2673L21.5712 14.2548L18.242 13.4235L17.5999 16.002C17.5999 16.002 19.3909 16.4125 19.3532 16.4378C20.3308 16.6818 20.5076 17.3289 20.4782 17.8419L19.3519 22.3599C19.4192 22.377 19.5065 22.4017 19.6029 22.4404L19.5328 22.4229L19.5325 22.4229C19.473 22.408 19.4112 22.3925 19.3477 22.3773L17.769 28.7064C17.6495 29.0035 17.3463 29.4492 16.6628 29.2799C16.687 29.315 14.9082 28.842 14.9082 28.842L13.7096 31.6055L16.8512 32.3886C17.195 32.4748 17.5348 32.5634 17.8711 32.6511L17.8717 32.6512L17.8718 32.6513C18.1069 32.7126 18.3404 32.7734 18.5724 32.8327L17.5734 36.8441L19.9847 37.4456L20.9741 33.4769C21.6328 33.6557 22.2721 33.8207 22.8979 33.9761L21.912 37.9262L24.3262 38.5277L25.3251 34.5239C29.4417 35.303 32.5371 34.9889 33.84 31.2654C34.8898 28.2676 33.7877 26.5385 31.622 25.4109C33.1994 25.0471 34.3875 24.0096 34.7043 21.8664L34.7036 21.8659L34.7035 21.8661ZM29.1877 29.6007C28.5032 32.3511 24.198 31.214 22.2283 30.6938C22.0511 30.647 21.8928 30.6052 21.7577 30.5716L23.0834 25.2573C23.248 25.2984 23.4492 25.3435 23.677 25.3947C25.7145 25.8519 29.889 26.7888 29.1878 29.6007L29.1877 29.6007ZM24.0857 22.928C25.7279 23.3663 29.3104 24.3224 29.9343 21.8226L29.9345 21.8226C30.5716 19.266 27.09 18.4951 25.3897 18.1187C25.1984 18.0763 25.0296 18.039 24.8918 18.0046L23.6899 22.8244C23.8034 22.8527 23.9365 22.8882 24.0857 22.928Z" fill="white"/>
<circle cx="49" cy="25" r="25" fill="#4552EF"/>
<circle cx="49" cy="25" r="22" fill="#EDF0F4"/>
<path d="M42.3705 24.889C42.3079 25.9763 43.1448 26.9071 44.2321 26.9696C44.2712 26.9696 44.3103 26.9696 44.3494 26.9696C45.4445 26.9696 46.3283 26.0858 46.3205 24.9907C46.3205 23.8956 45.4367 23.0118 44.3416 23.0196C43.2935 23.0196 42.4252 23.8409 42.3705 24.889Z" fill="#0033AD"/>
<path d="M35.0015 24.3803C34.6495 24.3568 34.3444 24.6306 34.3288 24.9826C34.3131 25.3346 34.5791 25.6396 34.9311 25.6553C35.283 25.6787 35.5803 25.405 35.6037 25.053C35.6272 24.701 35.3534 24.4038 35.0015 24.3803Z" fill="#0033AD"/>
<path d="M42.2403 13.4222C42.5531 13.2658 42.6783 12.8747 42.5218 12.5618C42.3654 12.249 41.9743 12.1238 41.6614 12.2802C41.3486 12.4367 41.2234 12.8199 41.3798 13.1328C41.5363 13.4535 41.9196 13.5865 42.2403 13.4222C42.2403 13.4222 42.2324 13.4222 42.2403 13.4222Z" fill="#0033AD"/>
<path d="M44.2463 16.9187C44.7312 16.6762 44.9268 16.0817 44.6843 15.5968C44.4418 15.1118 43.8474 14.9163 43.3624 15.1588C42.8774 15.4012 42.6819 15.9957 42.9244 16.4807C43.1669 16.9656 43.7613 17.1612 44.2463 16.9187Z" fill="#0033AD"/>
<path d="M37.5023 19.3186C37.8778 19.561 38.3784 19.4594 38.6287 19.0839C38.8711 18.7085 38.7694 18.2079 38.394 17.9576C38.0185 17.7151 37.5179 17.8168 37.2676 18.1922C37.0173 18.5677 37.1269 19.0761 37.5023 19.3186Z" fill="#0033AD"/>
<path d="M38.6982 24.0271C38.1507 23.9958 37.6892 24.4103 37.6579 24.9579C37.6266 25.5054 38.0412 25.9669 38.5887 25.9982C39.1362 26.0295 39.5977 25.6149 39.629 25.0674C39.6603 24.5277 39.2458 24.0583 38.6982 24.0271Z" fill="#0033AD"/>
<path d="M37.6113 30.6538C37.2124 30.8572 37.0481 31.3422 37.2515 31.7489C37.4549 32.1478 37.9398 32.3121 38.3465 32.1087C38.7455 31.9053 38.9097 31.4204 38.7064 31.0136C38.503 30.6147 38.0102 30.4505 37.6113 30.6538Z" fill="#0033AD"/>
<path d="M41.4489 21.986C41.9886 22.3379 42.7082 22.1893 43.0524 21.6496C43.4044 21.1099 43.2557 20.3903 42.716 20.0461C42.1763 19.6942 41.4567 19.8428 41.1125 20.3825C40.7606 20.9144 40.9092 21.634 41.4489 21.986Z" fill="#0033AD"/>
<path d="M53.6123 16.839C54.066 17.1362 54.6839 17.0111 54.9812 16.5574C55.2784 16.1037 55.1532 15.4858 54.6996 15.1886C54.2459 14.8913 53.628 15.0165 53.3307 15.4702C53.0257 15.9316 53.1508 16.5417 53.6123 16.839Z" fill="#0033AD"/>
<path d="M55.6311 13.3586C55.9283 13.5542 56.3194 13.4681 56.5149 13.1709C56.7105 12.8737 56.6244 12.4826 56.3272 12.287C56.03 12.0915 55.6389 12.1775 55.4433 12.4669C55.2556 12.7642 55.3417 13.1631 55.6311 13.3586Z" fill="#0033AD"/>
<path d="M53.7558 23.0033C52.6685 22.9407 51.7299 23.7777 51.6752 24.8649C51.6126 25.9521 52.4495 26.8908 53.5368 26.9455C53.5759 26.9455 53.615 26.9455 53.6463 26.9455C54.7335 26.9455 55.6174 26.0616 55.6174 24.9666C55.6252 23.9263 54.8039 23.058 53.7558 23.0033Z" fill="#0033AD"/>
<path d="M44.9005 21.8451C45.2368 22.5099 45.9173 22.9323 46.6682 22.9323C47.7555 22.9323 48.6393 22.0485 48.6393 20.9534C48.6393 20.6483 48.5689 20.3433 48.4282 20.0617C47.9354 19.084 46.7465 18.6929 45.7765 19.1856C44.7988 19.6862 44.4077 20.8752 44.9005 21.8451Z" fill="#0033AD"/>
<path d="M60.3744 19.3193C60.7733 19.1159 60.9297 18.6232 60.7264 18.2242C60.523 17.8253 60.0302 17.6689 59.6313 17.8723C59.2324 18.0756 59.0759 18.5606 59.2715 18.9595C59.4827 19.3584 59.9676 19.5227 60.3744 19.3193Z" fill="#0033AD"/>
<path d="M55.367 19.9449C54.796 20.2343 54.5613 20.9305 54.8507 21.5015C55.1401 22.0725 55.8363 22.3071 56.4073 22.0177C56.9783 21.7283 57.2129 21.0322 56.9235 20.4612C56.6341 19.8902 55.9379 19.6633 55.367 19.9449Z" fill="#0033AD"/>
<path d="M48.9159 13.0617C49.3617 13.0852 49.745 12.741 49.7763 12.2952C49.8076 11.8493 49.4556 11.466 49.0097 11.4348C48.5639 11.4113 48.1806 11.7476 48.1493 12.1935C48.1259 12.6471 48.47 13.0304 48.9159 13.0617Z" fill="#0033AD"/>
<path d="M48.909 18.169C49.5504 18.2081 50.0979 17.7153 50.1292 17.074C50.1683 16.4326 49.6755 15.885 49.0341 15.8537C48.3928 15.8146 47.8452 16.3074 47.8139 16.9488C47.7826 17.5902 48.2676 18.1377 48.909 18.169Z" fill="#0033AD"/>
<path d="M42.6182 30.027C43.1892 29.7376 43.4239 29.0415 43.1344 28.4705C42.845 27.8995 42.1489 27.6648 41.5779 27.9542C41.0069 28.2436 40.7722 28.9398 41.0616 29.5108C41.3511 30.0818 42.0472 30.3164 42.6182 30.027Z" fill="#0033AD"/>
<path d="M49.658 19.8663C49.0635 20.7815 49.3138 22.0017 50.229 22.5961C51.1442 23.1906 52.3644 22.9403 52.9588 22.0251C53.5533 21.11 53.303 19.8898 52.3878 19.2953C52.0671 19.0841 51.6917 18.9746 51.3084 18.9746C50.6436 18.9746 50.0256 19.3109 49.658 19.8663Z" fill="#0033AD"/>
<path d="M53.0922 28.1261C52.5994 27.1484 51.4105 26.7573 50.4406 27.2501C49.4629 27.7429 49.0718 28.9318 49.5646 29.9017C50.0573 30.8794 51.2463 31.2705 52.2162 30.7778C53.1861 30.2928 53.585 29.1195 53.1 28.1418C53.1 28.134 53.1 28.134 53.0922 28.1261Z" fill="#0033AD"/>
<path d="M56.5442 27.9856C56.0044 27.6336 55.2848 27.7822 54.9407 28.3219C54.5887 28.8616 54.7373 29.5813 55.277 29.9254C55.8167 30.2774 56.5363 30.1288 56.8805 29.5891C57.2325 29.0572 57.0839 28.3376 56.5442 27.9856Z" fill="#0033AD"/>
<path d="M60.3321 25.0205C60.3634 24.473 59.9489 24.0115 59.4013 23.9802C58.8538 23.9489 58.3923 24.3634 58.361 24.911C58.3297 25.4585 58.7443 25.92 59.2918 25.9513C59.8315 25.9826 60.3009 25.5602 60.3321 25.0205Z" fill="#0033AD"/>
<path d="M63.0561 24.3178C62.7042 24.2943 62.3991 24.5681 62.3835 24.9201C62.3678 25.2721 62.6338 25.5771 62.9858 25.5928C63.3377 25.6162 63.635 25.3425 63.6584 24.9905C63.6741 24.6385 63.4081 24.3413 63.0561 24.3178Z" fill="#0033AD"/>
<path d="M60.4843 30.6529C60.1088 30.4104 59.6082 30.5121 59.3579 30.8875C59.1155 31.263 59.2172 31.7636 59.5926 32.0139C59.9681 32.2564 60.4687 32.1547 60.719 31.7792C60.9693 31.4038 60.8597 30.8953 60.4843 30.6529Z" fill="#0033AD"/>
<path d="M42.3564 36.6132C42.0592 36.4177 41.6681 36.5037 41.4726 36.7931C41.277 37.0903 41.3631 37.4814 41.6525 37.677C41.9497 37.8725 42.3408 37.7865 42.5363 37.4971C42.7397 37.2077 42.6537 36.8087 42.3564 36.6132Z" fill="#0033AD"/>
<path d="M55.7474 36.5511C55.4345 36.7075 55.3093 37.0986 55.4658 37.4115C55.6222 37.7243 56.0133 37.8495 56.3262 37.6931C56.6391 37.5366 56.7642 37.1533 56.6078 36.8405C56.4513 36.5198 56.0681 36.3868 55.7474 36.5511C55.7552 36.5511 55.7474 36.5511 55.7474 36.5511Z" fill="#0033AD"/>
<path d="M48.3295 30.1066C48.9239 29.1914 48.6736 27.9712 47.7585 27.3689C46.8433 26.7745 45.6231 27.0248 45.0208 27.9399C44.4185 28.8551 44.6767 30.0753 45.5918 30.6776C45.9125 30.8888 46.288 30.9983 46.6712 30.9983C47.3439 31.0061 47.9618 30.6698 48.3295 30.1066Z" fill="#0033AD"/>
<path d="M44.3816 33.1319C43.9279 32.8347 43.31 32.9598 43.0128 33.4135C42.7156 33.8672 42.8407 34.4851 43.2944 34.7823C43.748 35.0796 44.366 34.9544 44.6632 34.5008C44.9683 34.0471 44.8431 33.4292 44.3816 33.1319Z" fill="#0033AD"/>
<path d="M48.9873 36.9113C48.5415 36.8878 48.1582 37.232 48.1269 37.6778C48.0956 38.1237 48.4476 38.507 48.8935 38.5382C49.3393 38.5617 49.7226 38.2254 49.7539 37.7795C49.7774 37.3258 49.4332 36.9426 48.9873 36.9113Z" fill="#0033AD"/>
<path d="M48.9953 31.803C48.3539 31.7638 47.8064 32.2566 47.7751 32.898C47.736 33.5394 48.2288 34.0869 48.8702 34.1182C49.5116 34.1495 50.0591 33.6646 50.0904 33.0232C50.1295 32.3896 49.6367 31.8342 48.9953 31.803Z" fill="#0033AD"/>
<path d="M53.7422 33.0548C53.2573 33.3051 53.0617 33.8995 53.312 34.3845C53.5623 34.8694 54.1568 35.065 54.6417 34.8147C55.1267 34.5722 55.3222 33.9777 55.0798 33.4928C54.8295 33.0078 54.235 32.8045 53.7422 33.0548Z" fill="#0033AD"/>
<circle cx="73" cy="25" r="25" fill="#4552EF"/>
<circle cx="73" cy="25" r="22" fill="#EDF0F4"/>
<path d="M72.9326 11.8008L72.7576 12.3953V29.6439L72.9326 29.8185L80.939 25.0858L72.9326 11.8008Z" fill="#343434"/>
<path d="M72.9361 11.8008L64.9294 25.0858L72.9361 29.8185V21.4465V11.8008Z" fill="#8C8C8C"/>
<path d="M72.9343 31.3357L72.8357 31.456V37.6002L72.9343 37.8882L80.9457 26.6055L72.9343 31.3357Z" fill="#3C3C3B"/>
<path d="M72.9361 37.8882V31.3357L64.9294 26.6055L72.9361 37.8882Z" fill="#8C8C8C"/>
<path d="M72.9294 29.8193L80.9359 25.0866L72.9294 21.4473V29.8193Z" fill="#141414"/>
<path d="M64.9294 25.0866L72.9361 29.8193V21.4473L64.9294 25.0866Z" fill="#393939"/>
<circle cx="97" cy="25" r="25" fill="white"/>
<path d="M81.776 31V29.288H84.368V21.448H85.36L82.032 23.432V21.48L84.96 19.72H86.432V29.288H88.864V31H81.776ZM94.3938 31.16C93.0711 31.16 92.0524 30.6587 91.3378 29.656C90.6231 28.6427 90.2658 27.2027 90.2658 25.336C90.2658 23.448 90.6231 22.0133 91.3378 21.032C92.0524 20.0507 93.0711 19.56 94.3938 19.56C95.7271 19.56 96.7458 20.0507 97.4498 21.032C98.1644 22.0133 98.5218 23.4427 98.5218 25.32C98.5218 27.1973 98.1644 28.6427 97.4498 29.656C96.7458 30.6587 95.7271 31.16 94.3938 31.16ZM94.3938 29.464C95.1191 29.464 95.6578 29.1333 96.0098 28.472C96.3618 27.8 96.5378 26.7493 96.5378 25.32C96.5378 23.8907 96.3618 22.856 96.0098 22.216C95.6578 21.5653 95.1191 21.24 94.3938 21.24C93.6791 21.24 93.1404 21.5653 92.7778 22.216C92.4258 22.856 92.2498 23.8907 92.2498 25.32C92.2498 26.7493 92.4258 27.8 92.7778 28.472C93.1404 29.1333 93.6791 29.464 94.3938 29.464ZM103.988 31.16C102.665 31.16 101.646 30.6587 100.932 29.656C100.217 28.6427 99.8595 27.2027 99.8595 25.336C99.8595 23.448 100.217 22.0133 100.932 21.032C101.646 20.0507 102.665 19.56 103.988 19.56C105.321 19.56 106.34 20.0507 107.044 21.032C107.758 22.0133 108.116 23.4427 108.116 25.32C108.116 27.1973 107.758 28.6427 107.044 29.656C106.34 30.6587 105.321 31.16 103.988 31.16ZM103.988 29.464C104.713 29.464 105.252 29.1333 105.604 28.472C105.956 27.8 106.132 26.7493 106.132 25.32C106.132 23.8907 105.956 22.856 105.604 22.216C105.252 21.5653 104.713 21.24 103.988 21.24C103.273 21.24 102.734 21.5653 102.372 22.216C102.02 22.856 101.844 23.8907 101.844 25.32C101.844 26.7493 102.02 27.8 102.372 28.472C102.734 29.1333 103.273 29.464 103.988 29.464ZM112.861 30.376V27.112H109.645V25.704H112.861V22.52H114.317V25.704H117.517V27.112H114.317V30.376H112.861Z" fill="#070707"/>
</svg>
