<svg xmlns="http://www.w3.org/2000/svg" width="86" height="40" fill="none"><path fill="#000" d="m26.476 20.58 7.535 7.767c1.63 1.664 2.444 3.097 2.444 4.3 0 1.155-.814 2.565-2.444 4.229-1.629 1.618-3.01 2.427-4.14 2.427-1.132 0-2.512-.832-4.142-2.496l-7.467-7.697-7.536 7.697c-1.63 1.664-3.01 2.496-4.141 2.496-1.086 0-2.467-.81-4.141-2.427C.814 35.212 0 33.802 0 32.646c0-1.202.815-2.635 2.444-4.299l7.535-7.766-7.535-7.766C.814 11.15 0 9.74 0 8.585c0-1.202.815-2.635 2.444-4.3C4.118 2.623 5.499 1.79 6.585 1.79c1.132 0 2.512.832 4.141 2.496l7.536 7.766 7.467-7.766c1.63-1.664 3.01-2.496 4.141-2.496 1.132 0 2.512.832 4.141 2.496 1.63 1.664 2.444 3.097 2.444 4.299 0 1.156-.814 2.566-2.444 4.23z"/><path fill="#000" fill-rule="evenodd" d="M40.83 36.872c-2.654-2.464-2.852-6.66-.439-9.371L62.386 2.773a6.435 6.435 0 0 1 4.73-2.172 6.43 6.43 0 0 1 4.78 2.058l11.81 12.665c2.474 2.654 2.373 6.853-.224 9.38a6.4 6.4 0 0 1-9.183-.229l-6.994-7.5-17.3 19.448a6.4 6.4 0 0 1-9.174.45z" clip-rule="evenodd"/><path fill="#3052ff" fill-rule="evenodd" d="M61.28 31.24a4.838 4.838 0 0 1 4.838-4.838h3.226a4.838 4.838 0 0 1 0 9.676h-3.226a4.838 4.838 0 0 1-4.838-4.838z" clip-rule="evenodd"/></svg>